%TF.GenerationSoftware,KiCad,Pcbnew,7.0.6*%
%TF.CreationDate,2024-03-05T13:52:18+08:00*%
%TF.ProjectId,TypeC2DoubleVoltage,54797065-4332-4446-9f75-626c65566f6c,rev?*%
%TF.SameCoordinates,Original*%
%TF.FileFunction,Copper,L2,Bot*%
%TF.FilePolarity,Positive*%
%FSLAX46Y46*%
G04 Gerber Fmt 4.6, Leading zero omitted, Abs format (unit mm)*
G04 Created by KiCad (PCBNEW 7.0.6) date 2024-03-05 13:52:18*
%MOMM*%
%LPD*%
G01*
G04 APERTURE LIST*
%TA.AperFunction,ComponentPad*%
%ADD10R,1.200000X1.200000*%
%TD*%
%TA.AperFunction,ComponentPad*%
%ADD11C,1.200000*%
%TD*%
%TA.AperFunction,ComponentPad*%
%ADD12C,6.400000*%
%TD*%
%TA.AperFunction,ComponentPad*%
%ADD13R,1.600000X1.600000*%
%TD*%
%TA.AperFunction,ComponentPad*%
%ADD14C,1.600000*%
%TD*%
%TA.AperFunction,ComponentPad*%
%ADD15O,1.800000X1.000000*%
%TD*%
%TA.AperFunction,ComponentPad*%
%ADD16R,1.700000X1.700000*%
%TD*%
%TA.AperFunction,ComponentPad*%
%ADD17O,1.700000X1.700000*%
%TD*%
%TA.AperFunction,ViaPad*%
%ADD18C,0.812800*%
%TD*%
G04 APERTURE END LIST*
D10*
%TO.P,C10,1*%
%TO.N,Net-(U2-ADJ)*%
X94690000Y-88520000D03*
D11*
%TO.P,C10,2*%
%TO.N,GNDREF*%
X96190000Y-88520000D03*
%TD*%
D12*
%TO.P,H2,1,1*%
%TO.N,GNDREF*%
X76505000Y-99315000D03*
%TD*%
D13*
%TO.P,C19,1*%
%TO.N,GNDREF*%
X93650000Y-100680000D03*
D14*
%TO.P,C19,2*%
%TO.N,/U4_Vin*%
X93650000Y-98680000D03*
%TD*%
D13*
%TO.P,C8,1*%
%TO.N,/U2_Vin*%
X92697500Y-81852500D03*
D14*
%TO.P,C8,2*%
%TO.N,GNDREF*%
X92697500Y-79852500D03*
%TD*%
D15*
%TO.P,J1,S1,SHIELD*%
%TO.N,GNDREF*%
X120002500Y-94745000D03*
X123802500Y-94745000D03*
X120002500Y-86105000D03*
X123802500Y-86105000D03*
%TD*%
D13*
%TO.P,C11,1*%
%TO.N,+12V*%
X80632500Y-87567500D03*
D14*
%TO.P,C11,2*%
%TO.N,GNDREF*%
X80632500Y-89567500D03*
%TD*%
D12*
%TO.P,H4,1,1*%
%TO.N,GNDREF*%
X122225000Y-99315000D03*
%TD*%
%TO.P,H1,1,1*%
%TO.N,GNDREF*%
X76505000Y-81535000D03*
%TD*%
D13*
%TO.P,C22,1*%
%TO.N,GNDREF*%
X80632500Y-95282500D03*
D14*
%TO.P,C22,2*%
%TO.N,-12V*%
X80632500Y-93282500D03*
%TD*%
D16*
%TO.P,J2,1,Pin_1*%
%TO.N,-12V*%
X71425000Y-101855000D03*
D17*
%TO.P,J2,2,Pin_2*%
X71425000Y-99315000D03*
%TO.P,J2,3,Pin_3*%
X71425000Y-96775000D03*
%TO.P,J2,4,Pin_4*%
%TO.N,GNDREF*%
X71425000Y-94235000D03*
%TO.P,J2,5,Pin_5*%
X71425000Y-91695000D03*
%TO.P,J2,6,Pin_6*%
X71425000Y-89155000D03*
%TO.P,J2,7,Pin_7*%
X71425000Y-86615000D03*
%TO.P,J2,8,Pin_8*%
%TO.N,+12V*%
X71425000Y-84075000D03*
%TO.P,J2,9,Pin_9*%
X71425000Y-81535000D03*
%TO.P,J2,10,Pin_10*%
X71425000Y-78995000D03*
%TD*%
D10*
%TO.P,C21,1*%
%TO.N,GNDREF*%
X91340000Y-89472500D03*
D11*
%TO.P,C21,2*%
%TO.N,Net-(U4-ADJ)*%
X89840000Y-89472500D03*
%TD*%
D12*
%TO.P,H3,1,1*%
%TO.N,GNDREF*%
X122225000Y-81535000D03*
%TD*%
D18*
%TO.N,GNDREF*%
X89205000Y-101855000D03*
X103175000Y-78995000D03*
X77775000Y-85345000D03*
X76505000Y-89155000D03*
X85395000Y-78995000D03*
X99365000Y-90425000D03*
X89205000Y-78995000D03*
X81585000Y-99315000D03*
X117145000Y-101855000D03*
X118415000Y-78995000D03*
X82855000Y-101855000D03*
X80315000Y-99315000D03*
X100635000Y-78995000D03*
X75235000Y-85345000D03*
X110160000Y-88520000D03*
X94285000Y-91695000D03*
X79045000Y-91695000D03*
X82855000Y-98045000D03*
X77140000Y-94870000D03*
X89205000Y-87885000D03*
X114605000Y-78995000D03*
X118415000Y-101855000D03*
X90475000Y-87885000D03*
X99365000Y-78995000D03*
X90475000Y-101855000D03*
X75235000Y-91695000D03*
X113335000Y-101855000D03*
X91745000Y-91695000D03*
X106985000Y-101855000D03*
X81585000Y-101855000D03*
X81585000Y-100585000D03*
X110795000Y-101855000D03*
X93015000Y-90425000D03*
X104445000Y-78995000D03*
X86665000Y-78995000D03*
X105715000Y-78995000D03*
X81585000Y-78995000D03*
X96825000Y-90425000D03*
X101905000Y-91060000D03*
X115875000Y-78995000D03*
X101905000Y-78995000D03*
X91745000Y-87885000D03*
X109525000Y-78995000D03*
X85395000Y-87885000D03*
X76505000Y-91695000D03*
X75235000Y-90425000D03*
X82855000Y-89155000D03*
X80315000Y-78995000D03*
X82855000Y-96775000D03*
X73965000Y-89155000D03*
X108255000Y-101855000D03*
X109525000Y-101855000D03*
X124765000Y-92965000D03*
X103175000Y-80265000D03*
X80315000Y-100585000D03*
X94285000Y-78995000D03*
X76505000Y-85345000D03*
X95555000Y-78995000D03*
X101905000Y-81535000D03*
X91745000Y-101855000D03*
X114528800Y-90425000D03*
X108890000Y-87250000D03*
X78410000Y-94870000D03*
X124765000Y-89155000D03*
X93015000Y-91695000D03*
X73965000Y-90425000D03*
X105715000Y-101855000D03*
X90475000Y-78995000D03*
X95555000Y-90425000D03*
X104445000Y-101855000D03*
X115875000Y-101855000D03*
X100635000Y-101855000D03*
X124765000Y-91695000D03*
X110795000Y-78995000D03*
X77775000Y-91695000D03*
X82855000Y-100585000D03*
X124765000Y-90425000D03*
X100635000Y-91060000D03*
X85395000Y-101855000D03*
X86665000Y-101855000D03*
X101905000Y-80265000D03*
X79045000Y-84075000D03*
X79045000Y-90425000D03*
X85395000Y-89155000D03*
X82855000Y-99315000D03*
X73965000Y-91695000D03*
X86665000Y-87885000D03*
X87935000Y-101855000D03*
X77775000Y-90425000D03*
X75235000Y-89155000D03*
X82855000Y-95505000D03*
X98095000Y-90425000D03*
X84125000Y-87885000D03*
X95555000Y-101855000D03*
X87935000Y-87885000D03*
X77775000Y-89155000D03*
X80315000Y-101855000D03*
X124765000Y-87885000D03*
X84125000Y-101855000D03*
X80315000Y-98045000D03*
X108255000Y-78995000D03*
X87935000Y-78995000D03*
X84125000Y-78995000D03*
X76505000Y-90425000D03*
X98095000Y-78995000D03*
X106985000Y-78995000D03*
X113335000Y-78995000D03*
X95555000Y-91695000D03*
X79045000Y-85345000D03*
X84125000Y-89155000D03*
X103175000Y-101855000D03*
X108890000Y-88520000D03*
X75870000Y-94870000D03*
X82855000Y-78995000D03*
X101905000Y-101855000D03*
X94285000Y-90425000D03*
X81585000Y-98045000D03*
X82855000Y-87885000D03*
X96825000Y-78995000D03*
X112065000Y-78995000D03*
%TD*%
%TA.AperFunction,Conductor*%
%TO.N,GNDREF*%
G36*
X79764039Y-93921658D02*
G01*
X79741287Y-93967793D01*
X79715566Y-93983929D01*
X79586536Y-94032055D01*
X79586534Y-94032056D01*
X79469596Y-94119596D01*
X79382056Y-94236534D01*
X79382055Y-94236536D01*
X79331005Y-94373404D01*
X79331004Y-94373407D01*
X79324500Y-94433906D01*
X79324500Y-95155500D01*
X80248279Y-95155500D01*
X80247335Y-95157352D01*
X80227514Y-95282500D01*
X80247335Y-95407648D01*
X80248279Y-95409500D01*
X79324500Y-95409500D01*
X79324500Y-96131093D01*
X79331004Y-96191592D01*
X79331005Y-96191595D01*
X79382055Y-96328463D01*
X79382056Y-96328465D01*
X79469596Y-96445403D01*
X79586534Y-96532943D01*
X79586536Y-96532944D01*
X79723404Y-96583994D01*
X79723407Y-96583995D01*
X79783906Y-96590499D01*
X79783918Y-96590500D01*
X80505500Y-96590500D01*
X80505500Y-95666721D01*
X80507352Y-95667665D01*
X80601019Y-95682500D01*
X80663981Y-95682500D01*
X80757648Y-95667665D01*
X80759500Y-95666721D01*
X80759500Y-96590500D01*
X81481082Y-96590500D01*
X81481093Y-96590499D01*
X81541592Y-96583995D01*
X81541595Y-96583994D01*
X81678463Y-96532944D01*
X81678465Y-96532943D01*
X81795403Y-96445403D01*
X81882943Y-96328465D01*
X81882944Y-96328463D01*
X81933994Y-96191595D01*
X81933995Y-96191592D01*
X81940499Y-96131093D01*
X81940500Y-96131081D01*
X81940500Y-95409500D01*
X81016721Y-95409500D01*
X81017665Y-95407648D01*
X81037486Y-95282500D01*
X81017665Y-95157352D01*
X81016721Y-95155500D01*
X81940500Y-95155500D01*
X81940500Y-94433918D01*
X81940499Y-94433906D01*
X81933995Y-94373407D01*
X81933994Y-94373404D01*
X81882944Y-94236536D01*
X81882943Y-94236534D01*
X81795403Y-94119596D01*
X81678465Y-94032056D01*
X81678463Y-94032055D01*
X81549433Y-93983929D01*
X81510292Y-93950552D01*
X81504734Y-93917500D01*
X82220000Y-93917500D01*
X82220000Y-96775000D01*
X79045000Y-96775000D01*
X79045000Y-93917500D01*
X79763022Y-93917500D01*
X79764039Y-93921658D01*
G37*
%TD.AperFunction*%
%TD*%
%TA.AperFunction,Conductor*%
%TO.N,GNDREF*%
G36*
X122225981Y-78360552D02*
G01*
X122359350Y-78367540D01*
X122554874Y-78377787D01*
X122558762Y-78378196D01*
X122883079Y-78429563D01*
X122886916Y-78430379D01*
X123204074Y-78515362D01*
X123207809Y-78516575D01*
X123514361Y-78634250D01*
X123517933Y-78635840D01*
X123810498Y-78784909D01*
X123813904Y-78786877D01*
X124089272Y-78965704D01*
X124092446Y-78968009D01*
X124309974Y-79144159D01*
X124347625Y-79174648D01*
X124350541Y-79177273D01*
X124582725Y-79409457D01*
X124585351Y-79412374D01*
X124791988Y-79667549D01*
X124794295Y-79670727D01*
X124973122Y-79946095D01*
X124975092Y-79949505D01*
X125124157Y-80242063D01*
X125125753Y-80245647D01*
X125221001Y-80493775D01*
X125243420Y-80552179D01*
X125244637Y-80555925D01*
X125329620Y-80873083D01*
X125330439Y-80876935D01*
X125381801Y-81201224D01*
X125382213Y-81205141D01*
X125399447Y-81534016D01*
X125399499Y-81535984D01*
X125399499Y-84339792D01*
X122225000Y-85662500D01*
X122225000Y-95187500D01*
X125399499Y-96510208D01*
X125399500Y-99243395D01*
X125399500Y-99314013D01*
X125399448Y-99315982D01*
X125382213Y-99644858D01*
X125381801Y-99648775D01*
X125330439Y-99973064D01*
X125329620Y-99976916D01*
X125244637Y-100294074D01*
X125243420Y-100297820D01*
X125125759Y-100604339D01*
X125124157Y-100607936D01*
X124975092Y-100900494D01*
X124973122Y-100903904D01*
X124794295Y-101179272D01*
X124791981Y-101182459D01*
X124585351Y-101437625D01*
X124582716Y-101440552D01*
X124350552Y-101672716D01*
X124347625Y-101675351D01*
X124092459Y-101881981D01*
X124089272Y-101884295D01*
X123813904Y-102063122D01*
X123810494Y-102065092D01*
X123517936Y-102214157D01*
X123514345Y-102215756D01*
X123361079Y-102274589D01*
X123207820Y-102333420D01*
X123204074Y-102334637D01*
X122886916Y-102419620D01*
X122883064Y-102420439D01*
X122558775Y-102471801D01*
X122554858Y-102472213D01*
X122225982Y-102489448D01*
X122224013Y-102489500D01*
X72604700Y-102489500D01*
X72556362Y-102471907D01*
X72530642Y-102427358D01*
X72529500Y-102414300D01*
X72529500Y-102172500D01*
X92062500Y-102172500D01*
X95237500Y-102172500D01*
X95237500Y-99315000D01*
X94493016Y-99315000D01*
X94531027Y-99268683D01*
X94628945Y-99085492D01*
X94689242Y-98886718D01*
X94709602Y-98680000D01*
X94689242Y-98473282D01*
X94628945Y-98274508D01*
X94531027Y-98091317D01*
X94531023Y-98091312D01*
X94531021Y-98091309D01*
X94399252Y-97930747D01*
X94238690Y-97798978D01*
X94238685Y-97798974D01*
X94238683Y-97798973D01*
X94238680Y-97798971D01*
X94238678Y-97798970D01*
X94055497Y-97701057D01*
X94055485Y-97701052D01*
X93856715Y-97640757D01*
X93856716Y-97640757D01*
X93672583Y-97622622D01*
X93650000Y-97620398D01*
X93649999Y-97620398D01*
X93443283Y-97640757D01*
X93244514Y-97701052D01*
X93244502Y-97701057D01*
X93061321Y-97798970D01*
X93061309Y-97798978D01*
X92900747Y-97930747D01*
X92768978Y-98091309D01*
X92768970Y-98091321D01*
X92671057Y-98274502D01*
X92671052Y-98274514D01*
X92610757Y-98473283D01*
X92590398Y-98680000D01*
X92610757Y-98886716D01*
X92671052Y-99085485D01*
X92671057Y-99085497D01*
X92768970Y-99268678D01*
X92768978Y-99268690D01*
X92806983Y-99315000D01*
X92062500Y-99315000D01*
X92062500Y-102172500D01*
X72529500Y-102172500D01*
X72529499Y-100979932D01*
X72529498Y-100979931D01*
X72514734Y-100905699D01*
X72458484Y-100821516D01*
X72374301Y-100765266D01*
X72374299Y-100765265D01*
X72300068Y-100750500D01*
X72300067Y-100750500D01*
X70865700Y-100750500D01*
X70817362Y-100732907D01*
X70791642Y-100688358D01*
X70790500Y-100675300D01*
X70790500Y-100356224D01*
X70808093Y-100307886D01*
X70852642Y-100282166D01*
X70903300Y-100291099D01*
X70905289Y-100292289D01*
X70930566Y-100307941D01*
X70930569Y-100307941D01*
X70930573Y-100307944D01*
X71121444Y-100381888D01*
X71322653Y-100419500D01*
X71322658Y-100419500D01*
X71527342Y-100419500D01*
X71527347Y-100419500D01*
X71728556Y-100381888D01*
X71919427Y-100307944D01*
X72093462Y-100200186D01*
X72244732Y-100062285D01*
X72368088Y-99898935D01*
X72459328Y-99715701D01*
X72515345Y-99518821D01*
X72534232Y-99315000D01*
X72515345Y-99111179D01*
X72515343Y-99111173D01*
X72515343Y-99111170D01*
X72459330Y-98914307D01*
X72459328Y-98914299D01*
X72445593Y-98886716D01*
X72368090Y-98731068D01*
X72244735Y-98567718D01*
X72244732Y-98567715D01*
X72093464Y-98429815D01*
X71919430Y-98322057D01*
X71728557Y-98248112D01*
X71695021Y-98241843D01*
X71527347Y-98210500D01*
X71322653Y-98210500D01*
X71188513Y-98235574D01*
X71121442Y-98248112D01*
X70930570Y-98322057D01*
X70930568Y-98322057D01*
X70905288Y-98337711D01*
X70854928Y-98348200D01*
X70809609Y-98323864D01*
X70790536Y-98276091D01*
X70790500Y-98273775D01*
X70790500Y-97816224D01*
X70808093Y-97767886D01*
X70852642Y-97742166D01*
X70903300Y-97751099D01*
X70905289Y-97752289D01*
X70930566Y-97767941D01*
X70930569Y-97767941D01*
X70930573Y-97767944D01*
X71121444Y-97841888D01*
X71322653Y-97879500D01*
X71322658Y-97879500D01*
X71527342Y-97879500D01*
X71527347Y-97879500D01*
X71728556Y-97841888D01*
X71919427Y-97767944D01*
X72093462Y-97660186D01*
X72244732Y-97522285D01*
X72368088Y-97358935D01*
X72459328Y-97175701D01*
X72515345Y-96978821D01*
X72534232Y-96775000D01*
X79045000Y-96775000D01*
X82220000Y-96775000D01*
X82220000Y-93917500D01*
X81475516Y-93917500D01*
X81513527Y-93871183D01*
X81611445Y-93687992D01*
X81671742Y-93489218D01*
X81692102Y-93282500D01*
X81671742Y-93075782D01*
X81611445Y-92877008D01*
X81513527Y-92693817D01*
X81513523Y-92693812D01*
X81513521Y-92693809D01*
X81381752Y-92533247D01*
X81221190Y-92401478D01*
X81221185Y-92401474D01*
X81221183Y-92401473D01*
X81221180Y-92401471D01*
X81221178Y-92401470D01*
X81037997Y-92303557D01*
X81037985Y-92303552D01*
X80839215Y-92243257D01*
X80839216Y-92243257D01*
X80655083Y-92225122D01*
X80632500Y-92222898D01*
X80632499Y-92222898D01*
X80425783Y-92243257D01*
X80227014Y-92303552D01*
X80227002Y-92303557D01*
X80043821Y-92401470D01*
X80043809Y-92401478D01*
X79883247Y-92533247D01*
X79751478Y-92693809D01*
X79751470Y-92693821D01*
X79653557Y-92877002D01*
X79653552Y-92877014D01*
X79593257Y-93075783D01*
X79572898Y-93282500D01*
X79593257Y-93489216D01*
X79653552Y-93687985D01*
X79653557Y-93687997D01*
X79751470Y-93871178D01*
X79751478Y-93871190D01*
X79789483Y-93917500D01*
X79045000Y-93917500D01*
X79045000Y-96775000D01*
X72534232Y-96775000D01*
X72515345Y-96571179D01*
X72515343Y-96571173D01*
X72515343Y-96571170D01*
X72459330Y-96374307D01*
X72459328Y-96374299D01*
X72456450Y-96368520D01*
X72368090Y-96191068D01*
X72244735Y-96027718D01*
X72244732Y-96027715D01*
X72093464Y-95889815D01*
X71984747Y-95822500D01*
X73330000Y-95822500D01*
X73330000Y-90742500D01*
X79362500Y-90742500D01*
X81902500Y-90742500D01*
X81902500Y-89472499D01*
X88980793Y-89472499D01*
X88999568Y-89651135D01*
X89055076Y-89821973D01*
X89144886Y-89977529D01*
X89265079Y-90111016D01*
X89265084Y-90111020D01*
X89410394Y-90216594D01*
X89410395Y-90216594D01*
X89410396Y-90216595D01*
X89574490Y-90289654D01*
X89750188Y-90327000D01*
X89750190Y-90327000D01*
X89929810Y-90327000D01*
X89929812Y-90327000D01*
X90105510Y-90289654D01*
X90157500Y-90266506D01*
X90157500Y-90742500D01*
X92697500Y-90742500D01*
X92697500Y-89145067D01*
X93835500Y-89145067D01*
X93835501Y-89145068D01*
X93850266Y-89219301D01*
X93906516Y-89303484D01*
X93990699Y-89359734D01*
X94064933Y-89374500D01*
X94690000Y-89374499D01*
X94690000Y-90107500D01*
X97230000Y-90107500D01*
X97230000Y-86932500D01*
X94690000Y-86932500D01*
X94690000Y-87665500D01*
X94064932Y-87665500D01*
X94064931Y-87665501D01*
X93990699Y-87680266D01*
X93906516Y-87736516D01*
X93850266Y-87820698D01*
X93850265Y-87820700D01*
X93835500Y-87894932D01*
X93835500Y-89145067D01*
X92697500Y-89145067D01*
X92697500Y-88202500D01*
X90157500Y-88202500D01*
X90157500Y-88678492D01*
X90105513Y-88655347D01*
X90105511Y-88655346D01*
X90105510Y-88655346D01*
X89929812Y-88618000D01*
X89750188Y-88618000D01*
X89662339Y-88636672D01*
X89574488Y-88655346D01*
X89410393Y-88728406D01*
X89265084Y-88833979D01*
X89265079Y-88833983D01*
X89144886Y-88967470D01*
X89055076Y-89123026D01*
X88999568Y-89293864D01*
X88980793Y-89472499D01*
X81902500Y-89472499D01*
X81902500Y-88202500D01*
X81687000Y-88202500D01*
X81686999Y-86742434D01*
X81672234Y-86668199D01*
X81615984Y-86584016D01*
X81531801Y-86527766D01*
X81531799Y-86527765D01*
X81457567Y-86513000D01*
X79807432Y-86513000D01*
X79807431Y-86513001D01*
X79733199Y-86527766D01*
X79649016Y-86584016D01*
X79592766Y-86668198D01*
X79592765Y-86668200D01*
X79578000Y-86742432D01*
X79578000Y-88202500D01*
X79362500Y-88202500D01*
X79362500Y-90742500D01*
X73330000Y-90742500D01*
X73330000Y-85027500D01*
X71984746Y-85027500D01*
X72093462Y-84960186D01*
X72244732Y-84822285D01*
X72368088Y-84658935D01*
X72459328Y-84475701D01*
X72515345Y-84278821D01*
X72534232Y-84075000D01*
X72515345Y-83871179D01*
X72515343Y-83871173D01*
X72515343Y-83871170D01*
X72477815Y-83739274D01*
X72459328Y-83674299D01*
X72456450Y-83668520D01*
X72368090Y-83491068D01*
X72244735Y-83327718D01*
X72244732Y-83327715D01*
X72093464Y-83189815D01*
X71919430Y-83082057D01*
X71728557Y-83008112D01*
X71695021Y-83001843D01*
X71527347Y-82970500D01*
X71322653Y-82970500D01*
X71188513Y-82995574D01*
X71121442Y-83008112D01*
X70930570Y-83082057D01*
X70930568Y-83082057D01*
X70905288Y-83097711D01*
X70854928Y-83108200D01*
X70809609Y-83083864D01*
X70790536Y-83036091D01*
X70790500Y-83033775D01*
X70790500Y-82576224D01*
X70808093Y-82527886D01*
X70852642Y-82502166D01*
X70903300Y-82511099D01*
X70905289Y-82512289D01*
X70930566Y-82527941D01*
X70930569Y-82527941D01*
X70930573Y-82527944D01*
X71121444Y-82601888D01*
X71322653Y-82639500D01*
X71322658Y-82639500D01*
X71527342Y-82639500D01*
X71527347Y-82639500D01*
X71728556Y-82601888D01*
X71919427Y-82527944D01*
X72093462Y-82420186D01*
X72244732Y-82282285D01*
X72348774Y-82144511D01*
X90850500Y-82144511D01*
X90851033Y-82156719D01*
X90851033Y-82156729D01*
X90875101Y-82255078D01*
X90896841Y-82301698D01*
X90896842Y-82301699D01*
X90896844Y-82301703D01*
X90948527Y-82375514D01*
X90948531Y-82375519D01*
X90948532Y-82375520D01*
X91083638Y-82510626D01*
X91084178Y-82511099D01*
X91096416Y-82521832D01*
X91096417Y-82521832D01*
X91118720Y-82538948D01*
X91137265Y-82551933D01*
X91137268Y-82551935D01*
X91231635Y-82588634D01*
X91282293Y-82597567D01*
X91359642Y-82599255D01*
X91361227Y-82599290D01*
X91361227Y-82599289D01*
X91361228Y-82599290D01*
X91457107Y-82566744D01*
X91501656Y-82541024D01*
X91520731Y-82525714D01*
X91569439Y-82509179D01*
X91617381Y-82527821D01*
X91642124Y-82572919D01*
X91643000Y-82584360D01*
X91643000Y-82677567D01*
X91643001Y-82677568D01*
X91657766Y-82751801D01*
X91714016Y-82835984D01*
X91798199Y-82892234D01*
X91872433Y-82907000D01*
X91960558Y-82906999D01*
X92008894Y-82924592D01*
X92034614Y-82969140D01*
X92025683Y-83019798D01*
X92018318Y-83029183D01*
X92018463Y-83029289D01*
X92014573Y-83034593D01*
X91969791Y-83125400D01*
X91969790Y-83125402D01*
X91956480Y-83175075D01*
X91956476Y-83175093D01*
X91947881Y-83253580D01*
X91971946Y-83351917D01*
X91971948Y-83351922D01*
X91971949Y-83351926D01*
X91993689Y-83398546D01*
X91993690Y-83398547D01*
X91993692Y-83398551D01*
X92045375Y-83472362D01*
X92045386Y-83472375D01*
X92344064Y-83771052D01*
X92495967Y-83922955D01*
X92504959Y-83931198D01*
X92504996Y-83931232D01*
X92591558Y-83983758D01*
X92639896Y-84001351D01*
X92728643Y-84016999D01*
X92728644Y-84017000D01*
X92728648Y-84017000D01*
X94532961Y-84017000D01*
X94544271Y-84016506D01*
X94562966Y-84014872D01*
X94568270Y-84014290D01*
X94574228Y-84013638D01*
X94670107Y-83981092D01*
X94714656Y-83955372D01*
X94776232Y-83905952D01*
X94828758Y-83819390D01*
X94846351Y-83771052D01*
X94861999Y-83682304D01*
X94862000Y-83682304D01*
X94862000Y-80652039D01*
X94861506Y-80640729D01*
X94859872Y-80622034D01*
X94859254Y-80616402D01*
X94858638Y-80610772D01*
X94835313Y-80542057D01*
X94826094Y-80514898D01*
X94826093Y-80514896D01*
X94826092Y-80514893D01*
X94800372Y-80470344D01*
X94750952Y-80408768D01*
X94750951Y-80408767D01*
X94664391Y-80356242D01*
X94664381Y-80356238D01*
X94616053Y-80338649D01*
X94527304Y-80323000D01*
X94527300Y-80323000D01*
X93967500Y-80323000D01*
X93967500Y-78677500D01*
X91427500Y-78677500D01*
X91427500Y-80323000D01*
X91179540Y-80323000D01*
X91179539Y-80323000D01*
X91168229Y-80323494D01*
X91149534Y-80325128D01*
X91138271Y-80326362D01*
X91138270Y-80326362D01*
X91042398Y-80358905D01*
X90997844Y-80384628D01*
X90936267Y-80434048D01*
X90883742Y-80520608D01*
X90883738Y-80520618D01*
X90866149Y-80568945D01*
X90866149Y-80568947D01*
X90850500Y-80657695D01*
X90850500Y-80657699D01*
X90850500Y-80657700D01*
X90850500Y-82144511D01*
X72348774Y-82144511D01*
X72368088Y-82118935D01*
X72459328Y-81935701D01*
X72515345Y-81738821D01*
X72534232Y-81535000D01*
X72515345Y-81331179D01*
X72515343Y-81331173D01*
X72515343Y-81331170D01*
X72459330Y-81134307D01*
X72459328Y-81134299D01*
X72369646Y-80954193D01*
X72368090Y-80951068D01*
X72244735Y-80787718D01*
X72244732Y-80787715D01*
X72093464Y-80649815D01*
X71919430Y-80542057D01*
X71728557Y-80468112D01*
X71695021Y-80461843D01*
X71527347Y-80430500D01*
X71322653Y-80430500D01*
X71188513Y-80455574D01*
X71121442Y-80468112D01*
X70930570Y-80542057D01*
X70930568Y-80542057D01*
X70905288Y-80557711D01*
X70854928Y-80568200D01*
X70809609Y-80543864D01*
X70790536Y-80496091D01*
X70790500Y-80493775D01*
X70790500Y-80036224D01*
X70808093Y-79987886D01*
X70852642Y-79962166D01*
X70903300Y-79971099D01*
X70905289Y-79972289D01*
X70930566Y-79987941D01*
X70930569Y-79987941D01*
X70930573Y-79987944D01*
X71121444Y-80061888D01*
X71322653Y-80099500D01*
X71322658Y-80099500D01*
X71527342Y-80099500D01*
X71527347Y-80099500D01*
X71728556Y-80061888D01*
X71919427Y-79987944D01*
X72093462Y-79880186D01*
X72244732Y-79742285D01*
X72368088Y-79578935D01*
X72459328Y-79395701D01*
X72515345Y-79198821D01*
X72534232Y-78995000D01*
X72515345Y-78791179D01*
X72515343Y-78791173D01*
X72515343Y-78791170D01*
X72459330Y-78594307D01*
X72459328Y-78594299D01*
X72397046Y-78469220D01*
X72391249Y-78418107D01*
X72419662Y-78375227D01*
X72464362Y-78360500D01*
X122153396Y-78360500D01*
X122224013Y-78360500D01*
X122225981Y-78360552D01*
G37*
%TD.AperFunction*%
%TD*%
%TA.AperFunction,Conductor*%
%TO.N,GNDREF*%
G36*
X92697500Y-90742500D02*
G01*
X90157500Y-90742500D01*
X90157500Y-90266506D01*
X90181042Y-90256024D01*
X90232355Y-90252436D01*
X90273971Y-90282671D01*
X90282086Y-90298441D01*
X90289553Y-90318461D01*
X90289556Y-90318465D01*
X90377096Y-90435403D01*
X90494034Y-90522943D01*
X90494036Y-90522944D01*
X90630904Y-90573994D01*
X90630907Y-90573995D01*
X90691406Y-90580499D01*
X90691418Y-90580500D01*
X91213000Y-90580500D01*
X91213000Y-89745026D01*
X91283920Y-89772500D01*
X91367802Y-89772500D01*
X91450250Y-89757088D01*
X91467000Y-89746716D01*
X91467000Y-90580500D01*
X91988582Y-90580500D01*
X91988593Y-90580499D01*
X92049092Y-90573995D01*
X92049095Y-90573994D01*
X92185963Y-90522944D01*
X92185965Y-90522943D01*
X92302903Y-90435403D01*
X92390443Y-90318465D01*
X92390444Y-90318463D01*
X92441494Y-90181595D01*
X92441495Y-90181592D01*
X92447999Y-90121093D01*
X92448000Y-90121082D01*
X92448000Y-89599500D01*
X91615773Y-89599500D01*
X91643895Y-89500660D01*
X91633546Y-89388979D01*
X91611896Y-89345500D01*
X92448000Y-89345500D01*
X92448000Y-88823917D01*
X92447999Y-88823906D01*
X92441495Y-88763407D01*
X92441494Y-88763404D01*
X92390444Y-88626536D01*
X92390443Y-88626534D01*
X92302903Y-88509596D01*
X92185965Y-88422056D01*
X92185963Y-88422055D01*
X92049095Y-88371005D01*
X92049092Y-88371004D01*
X91988593Y-88364500D01*
X91467000Y-88364500D01*
X91467000Y-89199973D01*
X91396080Y-89172500D01*
X91312198Y-89172500D01*
X91229750Y-89187912D01*
X91213000Y-89198283D01*
X91213000Y-88364500D01*
X90691406Y-88364500D01*
X90630907Y-88371004D01*
X90630904Y-88371005D01*
X90494036Y-88422055D01*
X90494034Y-88422056D01*
X90377096Y-88509596D01*
X90289556Y-88626534D01*
X90289551Y-88626542D01*
X90282085Y-88646559D01*
X90248707Y-88685699D01*
X90197979Y-88694227D01*
X90181045Y-88688976D01*
X90165833Y-88682203D01*
X90157500Y-88678493D01*
X90157500Y-88202500D01*
X92697500Y-88202500D01*
X92697500Y-90742500D01*
G37*
%TD.AperFunction*%
%TD*%
%TA.AperFunction,Conductor*%
%TO.N,GNDREF*%
G36*
X92781539Y-99319158D02*
G01*
X92758787Y-99365293D01*
X92733066Y-99381429D01*
X92604036Y-99429555D01*
X92604034Y-99429556D01*
X92487096Y-99517096D01*
X92399556Y-99634034D01*
X92399555Y-99634036D01*
X92348505Y-99770904D01*
X92348504Y-99770907D01*
X92342000Y-99831406D01*
X92342000Y-100553000D01*
X93265779Y-100553000D01*
X93264835Y-100554852D01*
X93245014Y-100680000D01*
X93264835Y-100805148D01*
X93265779Y-100807000D01*
X92342000Y-100807000D01*
X92342000Y-101528593D01*
X92348504Y-101589092D01*
X92348505Y-101589095D01*
X92399555Y-101725963D01*
X92399556Y-101725965D01*
X92487096Y-101842903D01*
X92604034Y-101930443D01*
X92604036Y-101930444D01*
X92740904Y-101981494D01*
X92740907Y-101981495D01*
X92801406Y-101987999D01*
X92801418Y-101988000D01*
X93523000Y-101988000D01*
X93523000Y-101064221D01*
X93524852Y-101065165D01*
X93618519Y-101080000D01*
X93681481Y-101080000D01*
X93775148Y-101065165D01*
X93777000Y-101064221D01*
X93777000Y-101988000D01*
X94498582Y-101988000D01*
X94498593Y-101987999D01*
X94559092Y-101981495D01*
X94559095Y-101981494D01*
X94695963Y-101930444D01*
X94695965Y-101930443D01*
X94812903Y-101842903D01*
X94900443Y-101725965D01*
X94900444Y-101725963D01*
X94951494Y-101589095D01*
X94951495Y-101589092D01*
X94957999Y-101528593D01*
X94958000Y-101528582D01*
X94958000Y-100807000D01*
X94034221Y-100807000D01*
X94035165Y-100805148D01*
X94054986Y-100680000D01*
X94035165Y-100554852D01*
X94034221Y-100553000D01*
X94958000Y-100553000D01*
X94958000Y-99831417D01*
X94957999Y-99831406D01*
X94951495Y-99770907D01*
X94951494Y-99770904D01*
X94900444Y-99634036D01*
X94900443Y-99634034D01*
X94812903Y-99517096D01*
X94695965Y-99429556D01*
X94695963Y-99429555D01*
X94566933Y-99381429D01*
X94527792Y-99348052D01*
X94522234Y-99315000D01*
X95237500Y-99315000D01*
X95237500Y-102172500D01*
X92062500Y-102172500D01*
X92062500Y-99315000D01*
X92780522Y-99315000D01*
X92781539Y-99319158D01*
G37*
%TD.AperFunction*%
%TD*%
%TA.AperFunction,Conductor*%
%TO.N,GNDREF*%
G36*
X125399499Y-96510208D02*
G01*
X123645278Y-95779282D01*
X123651001Y-95769759D01*
X123698326Y-95753000D01*
X124252012Y-95753000D01*
X124252025Y-95752999D01*
X124400100Y-95738415D01*
X124565987Y-95688092D01*
X124565987Y-95688091D01*
X123922895Y-95045000D01*
X124230302Y-95045000D01*
X124273945Y-95036841D01*
X124797658Y-95560554D01*
X124918715Y-95461209D01*
X125044670Y-95307731D01*
X125044678Y-95307719D01*
X125138273Y-95132616D01*
X125195915Y-94942599D01*
X125215376Y-94745000D01*
X125195915Y-94547400D01*
X125138273Y-94357383D01*
X125044678Y-94182280D01*
X125044670Y-94182268D01*
X124918715Y-94028790D01*
X124797659Y-93929443D01*
X124275534Y-94451568D01*
X124258580Y-94445000D01*
X123922896Y-94445000D01*
X124565988Y-93801905D01*
X124400100Y-93751584D01*
X124400101Y-93751584D01*
X124252025Y-93737000D01*
X123352974Y-93737000D01*
X123204898Y-93751584D01*
X123039010Y-93801905D01*
X123682104Y-94445000D01*
X123374698Y-94445000D01*
X123331053Y-94453158D01*
X122807339Y-93929443D01*
X122807338Y-93929443D01*
X122686287Y-94028787D01*
X122560329Y-94182268D01*
X122560321Y-94182280D01*
X122466726Y-94357383D01*
X122409084Y-94547400D01*
X122389623Y-94745000D01*
X122409084Y-94942599D01*
X122466726Y-95132616D01*
X122560321Y-95307719D01*
X122560329Y-95307731D01*
X122584634Y-95337347D01*
X122225000Y-95187500D01*
X122225000Y-85662500D01*
X122584634Y-85512652D01*
X122560324Y-85542274D01*
X122560321Y-85542280D01*
X122466726Y-85717383D01*
X122409084Y-85907400D01*
X122389623Y-86105000D01*
X122409084Y-86302599D01*
X122466726Y-86492616D01*
X122560321Y-86667719D01*
X122560329Y-86667731D01*
X122686284Y-86821209D01*
X122807339Y-86920555D01*
X123329463Y-86398431D01*
X123346420Y-86405000D01*
X123682104Y-86405000D01*
X123039011Y-87048091D01*
X123039011Y-87048092D01*
X123204901Y-87098415D01*
X123204900Y-87098415D01*
X123352974Y-87112999D01*
X123352988Y-87113000D01*
X124252012Y-87113000D01*
X124252025Y-87112999D01*
X124400100Y-87098415D01*
X124565987Y-87048092D01*
X124565987Y-87048091D01*
X123922896Y-86405000D01*
X124230302Y-86405000D01*
X124273945Y-86396841D01*
X124797658Y-86920554D01*
X124918715Y-86821209D01*
X125044670Y-86667731D01*
X125044678Y-86667719D01*
X125138273Y-86492616D01*
X125195915Y-86302599D01*
X125215376Y-86105000D01*
X125195915Y-85907400D01*
X125138273Y-85717383D01*
X125044678Y-85542280D01*
X125044670Y-85542268D01*
X124918715Y-85388790D01*
X124797659Y-85289443D01*
X124275533Y-85811567D01*
X124258580Y-85805000D01*
X123922895Y-85805000D01*
X124565988Y-85161905D01*
X124400100Y-85111584D01*
X124400101Y-85111584D01*
X124252025Y-85097000D01*
X123698326Y-85097000D01*
X123649988Y-85079407D01*
X123645030Y-85070820D01*
X125399499Y-84339791D01*
X125399499Y-96510208D01*
G37*
%TD.AperFunction*%
%TD*%
%TA.AperFunction,Conductor*%
%TO.N,/U2_Vin*%
G36*
X94575638Y-80600093D02*
G01*
X94601358Y-80644642D01*
X94602500Y-80657700D01*
X94602500Y-83682300D01*
X94584907Y-83730638D01*
X94540358Y-83756358D01*
X94527300Y-83757500D01*
X92728648Y-83757500D01*
X92680310Y-83739907D01*
X92675474Y-83735474D01*
X92228874Y-83288874D01*
X92207134Y-83242254D01*
X92220448Y-83192567D01*
X92262585Y-83163062D01*
X92282048Y-83160500D01*
X92570500Y-83160500D01*
X92570500Y-82236721D01*
X92572352Y-82237665D01*
X92666019Y-82252500D01*
X92728981Y-82252500D01*
X92822648Y-82237665D01*
X92824500Y-82236721D01*
X92824500Y-83160500D01*
X93546082Y-83160500D01*
X93546093Y-83160499D01*
X93606592Y-83153995D01*
X93606595Y-83153994D01*
X93743463Y-83102944D01*
X93743465Y-83102943D01*
X93860403Y-83015403D01*
X93947943Y-82898465D01*
X93947944Y-82898463D01*
X93998994Y-82761595D01*
X93998995Y-82761592D01*
X94005499Y-82701093D01*
X94005500Y-82701081D01*
X94005500Y-81979500D01*
X93081721Y-81979500D01*
X93082665Y-81977648D01*
X93102486Y-81852500D01*
X93082665Y-81727352D01*
X93081721Y-81725500D01*
X94005500Y-81725500D01*
X94005500Y-81003917D01*
X94005499Y-81003906D01*
X93998995Y-80943407D01*
X93998994Y-80943404D01*
X93947944Y-80806536D01*
X93947943Y-80806534D01*
X93870263Y-80702766D01*
X93855379Y-80653526D01*
X93875628Y-80606240D01*
X93921535Y-80583032D01*
X93930463Y-80582500D01*
X94527300Y-80582500D01*
X94575638Y-80600093D01*
G37*
%TD.AperFunction*%
%TA.AperFunction,Conductor*%
G36*
X91512875Y-80600093D02*
G01*
X91538595Y-80644642D01*
X91529662Y-80695300D01*
X91524737Y-80702766D01*
X91447056Y-80806534D01*
X91447055Y-80806536D01*
X91396005Y-80943404D01*
X91396004Y-80943407D01*
X91389500Y-81003906D01*
X91389500Y-81725500D01*
X92313279Y-81725500D01*
X92312335Y-81727352D01*
X92292514Y-81852500D01*
X92312335Y-81977648D01*
X92313279Y-81979500D01*
X91389500Y-81979500D01*
X91389500Y-82267952D01*
X91371907Y-82316290D01*
X91327358Y-82342010D01*
X91276700Y-82333077D01*
X91261126Y-82321126D01*
X91132026Y-82192026D01*
X91110286Y-82145406D01*
X91110000Y-82138852D01*
X91110000Y-80657700D01*
X91127593Y-80609362D01*
X91172142Y-80583642D01*
X91185200Y-80582500D01*
X91464537Y-80582500D01*
X91512875Y-80600093D01*
G37*
%TD.AperFunction*%
%TD*%
%TA.AperFunction,Conductor*%
%TO.N,GNDREF*%
G36*
X80304859Y-89805545D02*
G01*
X80394455Y-89895141D01*
X80454081Y-89925522D01*
X79798973Y-90580630D01*
X79798974Y-90580631D01*
X79976004Y-90704589D01*
X79976004Y-90704590D01*
X80057303Y-90742500D01*
X79362500Y-90742500D01*
X79362500Y-89881516D01*
X79398687Y-90016570D01*
X79398688Y-90016574D01*
X79495410Y-90223995D01*
X79619367Y-90401024D01*
X79619368Y-90401025D01*
X80274476Y-89745916D01*
X80304859Y-89805545D01*
G37*
%TD.AperFunction*%
%TA.AperFunction,Conductor*%
G36*
X81645630Y-90401025D02*
G01*
X81645631Y-90401024D01*
X81769589Y-90223995D01*
X81769590Y-90223995D01*
X81866311Y-90016574D01*
X81866312Y-90016570D01*
X81902500Y-89881516D01*
X81902500Y-90742500D01*
X81207697Y-90742500D01*
X81288995Y-90704590D01*
X81288995Y-90704589D01*
X81466024Y-90580631D01*
X81466025Y-90580630D01*
X80810918Y-89925522D01*
X80870545Y-89895141D01*
X80960141Y-89805545D01*
X80990522Y-89745917D01*
X81645630Y-90401025D01*
G37*
%TD.AperFunction*%
%TA.AperFunction,Conductor*%
G36*
X79578001Y-88392566D02*
G01*
X79592766Y-88466801D01*
X79649016Y-88550984D01*
X79733199Y-88607234D01*
X79807433Y-88622000D01*
X79835457Y-88621999D01*
X79883793Y-88639591D01*
X79888631Y-88644025D01*
X80454082Y-89209477D01*
X80394455Y-89239859D01*
X80304859Y-89329455D01*
X80274477Y-89389082D01*
X79619368Y-88733973D01*
X79619367Y-88733974D01*
X79495408Y-88911007D01*
X79398688Y-89118425D01*
X79398687Y-89118429D01*
X79362500Y-89253482D01*
X79362500Y-88202500D01*
X79578001Y-88202500D01*
X79578001Y-88392566D01*
G37*
%TD.AperFunction*%
%TA.AperFunction,Conductor*%
G36*
X81902500Y-89253482D02*
G01*
X81866312Y-89118429D01*
X81866311Y-89118425D01*
X81769589Y-88911004D01*
X81645631Y-88733974D01*
X81645630Y-88733973D01*
X80990522Y-89389081D01*
X80960141Y-89329455D01*
X80870545Y-89239859D01*
X80810917Y-89209477D01*
X81376369Y-88644025D01*
X81422989Y-88622285D01*
X81429542Y-88621999D01*
X81457566Y-88621999D01*
X81457568Y-88621999D01*
X81457568Y-88621998D01*
X81531801Y-88607234D01*
X81615984Y-88550984D01*
X81672234Y-88466801D01*
X81687000Y-88392567D01*
X81687000Y-88202500D01*
X81902500Y-88202500D01*
X81902500Y-89253482D01*
G37*
%TD.AperFunction*%
%TD*%
%TA.AperFunction,Conductor*%
%TO.N,GNDREF*%
G36*
X73330000Y-95822500D02*
G01*
X71984747Y-95822500D01*
X71919430Y-95782057D01*
X71728554Y-95708111D01*
X71725211Y-95707160D01*
X71725698Y-95705447D01*
X71686689Y-95682360D01*
X71669619Y-95633835D01*
X71687735Y-95585690D01*
X71732439Y-95560473D01*
X71759513Y-95555955D01*
X71759514Y-95555955D01*
X71972375Y-95482880D01*
X71972377Y-95482879D01*
X72170299Y-95375769D01*
X72347898Y-95237538D01*
X72347902Y-95237534D01*
X72500324Y-95071959D01*
X72623419Y-94883549D01*
X72713819Y-94677459D01*
X72713821Y-94677452D01*
X72769068Y-94459283D01*
X72777130Y-94362000D01*
X71908818Y-94362000D01*
X71925000Y-94306889D01*
X71925000Y-94163111D01*
X71908818Y-94108000D01*
X72777130Y-94108000D01*
X72777130Y-94107999D01*
X72769068Y-94010716D01*
X72713821Y-93792547D01*
X72713819Y-93792540D01*
X72623419Y-93586450D01*
X72500324Y-93398040D01*
X72347902Y-93232465D01*
X72347898Y-93232461D01*
X72170301Y-93094232D01*
X72053710Y-93031135D01*
X72019572Y-92992656D01*
X72018155Y-92941236D01*
X72050122Y-92900934D01*
X72053711Y-92898862D01*
X72170303Y-92835766D01*
X72347898Y-92697538D01*
X72347902Y-92697534D01*
X72500324Y-92531959D01*
X72623419Y-92343549D01*
X72713819Y-92137459D01*
X72713821Y-92137452D01*
X72769068Y-91919283D01*
X72777130Y-91822000D01*
X71908818Y-91822000D01*
X71925000Y-91766889D01*
X71925000Y-91623111D01*
X71908818Y-91568000D01*
X72777130Y-91568000D01*
X72777130Y-91567999D01*
X72769068Y-91470716D01*
X72713821Y-91252547D01*
X72713819Y-91252540D01*
X72623419Y-91046450D01*
X72500324Y-90858040D01*
X72347902Y-90692465D01*
X72347898Y-90692461D01*
X72170299Y-90554230D01*
X72053711Y-90491136D01*
X72019573Y-90452657D01*
X72018155Y-90401237D01*
X72050122Y-90360936D01*
X72053711Y-90358864D01*
X72170299Y-90295769D01*
X72347898Y-90157538D01*
X72347902Y-90157534D01*
X72500324Y-89991959D01*
X72623419Y-89803549D01*
X72713819Y-89597459D01*
X72713821Y-89597452D01*
X72769068Y-89379283D01*
X72777130Y-89282000D01*
X71908818Y-89282000D01*
X71925000Y-89226889D01*
X71925000Y-89083111D01*
X71908818Y-89028000D01*
X72777130Y-89028000D01*
X72777130Y-89027999D01*
X72769068Y-88930716D01*
X72713821Y-88712547D01*
X72713819Y-88712540D01*
X72623419Y-88506450D01*
X72500324Y-88318040D01*
X72347902Y-88152465D01*
X72347898Y-88152461D01*
X72170299Y-88014230D01*
X72053711Y-87951136D01*
X72019573Y-87912657D01*
X72018155Y-87861237D01*
X72050122Y-87820936D01*
X72053711Y-87818864D01*
X72170299Y-87755769D01*
X72347898Y-87617538D01*
X72347902Y-87617534D01*
X72500324Y-87451959D01*
X72623419Y-87263549D01*
X72713819Y-87057459D01*
X72713821Y-87057452D01*
X72769068Y-86839283D01*
X72777130Y-86742000D01*
X71908818Y-86742000D01*
X71925000Y-86686889D01*
X71925000Y-86543111D01*
X71908818Y-86488000D01*
X72777130Y-86488000D01*
X72777130Y-86487999D01*
X72769068Y-86390716D01*
X72713821Y-86172547D01*
X72713819Y-86172540D01*
X72623419Y-85966450D01*
X72500324Y-85778040D01*
X72347902Y-85612465D01*
X72347898Y-85612461D01*
X72170299Y-85474230D01*
X71972377Y-85367120D01*
X71972375Y-85367119D01*
X71759514Y-85294044D01*
X71759504Y-85294041D01*
X71732437Y-85289525D01*
X71687655Y-85264215D01*
X71669618Y-85216041D01*
X71686767Y-85167544D01*
X71725702Y-85144568D01*
X71725211Y-85142840D01*
X71728550Y-85141889D01*
X71728556Y-85141888D01*
X71919427Y-85067944D01*
X71984746Y-85027500D01*
X73330000Y-85027500D01*
X73330000Y-95822500D01*
G37*
%TD.AperFunction*%
%TA.AperFunction,Conductor*%
G36*
X71552000Y-93748118D02*
G01*
X71460763Y-93735000D01*
X71389237Y-93735000D01*
X71298000Y-93748118D01*
X71298000Y-92181881D01*
X71389237Y-92195000D01*
X71460763Y-92195000D01*
X71552000Y-92181881D01*
X71552000Y-93748118D01*
G37*
%TD.AperFunction*%
%TA.AperFunction,Conductor*%
G36*
X71552000Y-91208118D02*
G01*
X71460763Y-91195000D01*
X71389237Y-91195000D01*
X71298000Y-91208118D01*
X71298000Y-89641881D01*
X71389237Y-89655000D01*
X71460763Y-89655000D01*
X71552000Y-89641881D01*
X71552000Y-91208118D01*
G37*
%TD.AperFunction*%
%TA.AperFunction,Conductor*%
G36*
X71552000Y-88668118D02*
G01*
X71460763Y-88655000D01*
X71389237Y-88655000D01*
X71298000Y-88668118D01*
X71298000Y-87101881D01*
X71389237Y-87115000D01*
X71460763Y-87115000D01*
X71552000Y-87101881D01*
X71552000Y-88668118D01*
G37*
%TD.AperFunction*%
%TD*%
%TA.AperFunction,Conductor*%
%TO.N,GNDREF*%
G36*
X97058335Y-89208731D02*
G01*
X97136079Y-89105782D01*
X97227602Y-88921978D01*
X97227608Y-88921963D01*
X97230000Y-88913556D01*
X97230000Y-90107500D01*
X94690000Y-90107500D01*
X94690000Y-89374499D01*
X95315066Y-89374499D01*
X95315068Y-89374499D01*
X95315068Y-89374498D01*
X95389301Y-89359734D01*
X95389303Y-89359732D01*
X95396146Y-89356899D01*
X95397285Y-89359649D01*
X95434833Y-89350446D01*
X95477337Y-89369628D01*
X95519417Y-89407989D01*
X95519424Y-89407993D01*
X95694001Y-89516087D01*
X95885481Y-89590268D01*
X96087331Y-89627999D01*
X96087334Y-89628000D01*
X96292666Y-89628000D01*
X96292668Y-89627999D01*
X96494518Y-89590268D01*
X96685998Y-89516087D01*
X96860578Y-89407992D01*
X96880356Y-89389960D01*
X96295813Y-88805417D01*
X96300250Y-88804588D01*
X96395610Y-88745543D01*
X96463201Y-88656038D01*
X96472601Y-88622997D01*
X97058335Y-89208731D01*
G37*
%TD.AperFunction*%
%TA.AperFunction,Conductor*%
G36*
X97230000Y-88126443D02*
G01*
X97227607Y-88118034D01*
X97227602Y-88118021D01*
X97136079Y-87934217D01*
X97058335Y-87831267D01*
X96473432Y-88416169D01*
X96433552Y-88336078D01*
X96350666Y-88260516D01*
X96292435Y-88237957D01*
X96880355Y-87650038D01*
X96860579Y-87632008D01*
X96860577Y-87632007D01*
X96685998Y-87523912D01*
X96494518Y-87449731D01*
X96292668Y-87412000D01*
X96087331Y-87412000D01*
X95885481Y-87449731D01*
X95694001Y-87523912D01*
X95519421Y-87632008D01*
X95477337Y-87670372D01*
X95429762Y-87689934D01*
X95397116Y-87680755D01*
X95396145Y-87683101D01*
X95389299Y-87680265D01*
X95315068Y-87665500D01*
X94690000Y-87665500D01*
X94690000Y-86932500D01*
X97230000Y-86932500D01*
X97230000Y-88126443D01*
G37*
%TD.AperFunction*%
%TD*%
%TA.AperFunction,Conductor*%
%TO.N,GNDREF*%
G36*
X93967500Y-80292007D02*
G01*
X93949516Y-80260858D01*
X93950936Y-80228338D01*
X93967500Y-80166515D01*
X93967500Y-80292007D01*
G37*
%TD.AperFunction*%
%TA.AperFunction,Conductor*%
G36*
X91444064Y-80228337D02*
G01*
X91439580Y-80279581D01*
X91427500Y-80291661D01*
X91427500Y-80166517D01*
X91444064Y-80228337D01*
G37*
%TD.AperFunction*%
%TA.AperFunction,Conductor*%
G36*
X92041007Y-78715408D02*
G01*
X91863974Y-78839367D01*
X91863973Y-78839368D01*
X92519082Y-79494477D01*
X92459455Y-79524859D01*
X92369859Y-79614455D01*
X92339477Y-79674082D01*
X91684368Y-79018973D01*
X91684367Y-79018974D01*
X91560408Y-79196007D01*
X91463688Y-79403425D01*
X91463687Y-79403429D01*
X91427500Y-79538482D01*
X91427500Y-78677500D01*
X92122302Y-78677500D01*
X92041007Y-78715408D01*
G37*
%TD.AperFunction*%
%TA.AperFunction,Conductor*%
G36*
X93967500Y-79538485D02*
G01*
X93931312Y-79403428D01*
X93931311Y-79403425D01*
X93834589Y-79196004D01*
X93710631Y-79018974D01*
X93710630Y-79018973D01*
X93055522Y-79674080D01*
X93025141Y-79614455D01*
X92935545Y-79524859D01*
X92875917Y-79494477D01*
X93531025Y-78839368D01*
X93531024Y-78839367D01*
X93353995Y-78715410D01*
X93353995Y-78715409D01*
X93272698Y-78677500D01*
X93967500Y-78677500D01*
X93967500Y-79538485D01*
G37*
%TD.AperFunction*%
%TD*%
M02*
