%TF.GenerationSoftware,KiCad,Pcbnew,7.0.6*%
%TF.CreationDate,2024-03-05T13:52:18+08:00*%
%TF.ProjectId,TypeC2DoubleVoltage,54797065-4332-4446-9f75-626c65566f6c,rev?*%
%TF.SameCoordinates,Original*%
%TF.FileFunction,Legend,Top*%
%TF.FilePolarity,Positive*%
%FSLAX46Y46*%
G04 Gerber Fmt 4.6, Leading zero omitted, Abs format (unit mm)*
G04 Created by KiCad (PCBNEW 7.0.6) date 2024-03-05 13:52:18*
%MOMM*%
%LPD*%
G01*
G04 APERTURE LIST*
%ADD10C,0.150000*%
%ADD11C,0.200000*%
%ADD12C,0.114300*%
%ADD13C,0.120000*%
G04 APERTURE END LIST*
D10*
X74917500Y-93282500D02*
X72695000Y-95505000D01*
X70155000Y-85345000D02*
X72695000Y-85345000D01*
X72695000Y-85345000D02*
X74917500Y-87567500D01*
X70155000Y-95505000D02*
X72695000Y-95505000D01*
X74917500Y-87567500D02*
X74917500Y-93282500D01*
D11*
G36*
X74002268Y-89294178D02*
G01*
X74001412Y-89322845D01*
X73998843Y-89349663D01*
X73994560Y-89374631D01*
X73988566Y-89397749D01*
X73980858Y-89419019D01*
X73971437Y-89438438D01*
X73960304Y-89456009D01*
X73947458Y-89471729D01*
X73932899Y-89485601D01*
X73916627Y-89497622D01*
X73898642Y-89507795D01*
X73878945Y-89516117D01*
X73857535Y-89522591D01*
X73834412Y-89527214D01*
X73809576Y-89529989D01*
X73783027Y-89530913D01*
X73752805Y-89530755D01*
X73723183Y-89530281D01*
X73694162Y-89529490D01*
X73665741Y-89528383D01*
X73637921Y-89526960D01*
X73610701Y-89525221D01*
X73584082Y-89523165D01*
X73558063Y-89520793D01*
X73532645Y-89518105D01*
X73507827Y-89515101D01*
X73483610Y-89511780D01*
X73459993Y-89508144D01*
X73436977Y-89504191D01*
X73414561Y-89499921D01*
X73392746Y-89495336D01*
X73371531Y-89490434D01*
X73350917Y-89485216D01*
X73330903Y-89479681D01*
X73311490Y-89473831D01*
X73292677Y-89467664D01*
X73274465Y-89461181D01*
X73256853Y-89454382D01*
X73239842Y-89447266D01*
X73223432Y-89439834D01*
X73207621Y-89432086D01*
X73192412Y-89424022D01*
X73177803Y-89415641D01*
X73163794Y-89406945D01*
X73150386Y-89397932D01*
X73137578Y-89388602D01*
X73125371Y-89378957D01*
X73113764Y-89368995D01*
X73102474Y-89358559D01*
X73091543Y-89347582D01*
X73080970Y-89336065D01*
X73070755Y-89324008D01*
X73060899Y-89311411D01*
X73051401Y-89298274D01*
X73042261Y-89284596D01*
X73033480Y-89270378D01*
X73025057Y-89255621D01*
X73016993Y-89240323D01*
X73009287Y-89224484D01*
X73001940Y-89208106D01*
X72994951Y-89191188D01*
X72988320Y-89173729D01*
X72982048Y-89155730D01*
X72976134Y-89137191D01*
X72970578Y-89118112D01*
X72965382Y-89098493D01*
X72960543Y-89078333D01*
X72956063Y-89057634D01*
X72951941Y-89036394D01*
X72948178Y-89014614D01*
X72944773Y-88992294D01*
X72941726Y-88969434D01*
X72939038Y-88946033D01*
X72936708Y-88922093D01*
X72934737Y-88897612D01*
X72933124Y-88872591D01*
X72931870Y-88847030D01*
X72930974Y-88820928D01*
X72930436Y-88794287D01*
X72930257Y-88767105D01*
X72930456Y-88737263D01*
X72931054Y-88707991D01*
X72932050Y-88679289D01*
X72933444Y-88651157D01*
X72935237Y-88623595D01*
X72937428Y-88596603D01*
X72940018Y-88570180D01*
X72943006Y-88544328D01*
X72946392Y-88519046D01*
X72950177Y-88494333D01*
X72954360Y-88470191D01*
X72958942Y-88446619D01*
X72963922Y-88423616D01*
X72969300Y-88401184D01*
X72975077Y-88379321D01*
X72981252Y-88358029D01*
X72987826Y-88337306D01*
X72994798Y-88317154D01*
X73002168Y-88297571D01*
X73009937Y-88278559D01*
X73018104Y-88260116D01*
X73026669Y-88242243D01*
X73035633Y-88224941D01*
X73044996Y-88208208D01*
X73054756Y-88192045D01*
X73064916Y-88176452D01*
X73075473Y-88161430D01*
X73086429Y-88146977D01*
X73097783Y-88133094D01*
X73109536Y-88119781D01*
X73121687Y-88107038D01*
X73134237Y-88094865D01*
X73146565Y-88083552D01*
X73159449Y-88072598D01*
X73172889Y-88062004D01*
X73186884Y-88051768D01*
X73201434Y-88041892D01*
X73216540Y-88032375D01*
X73232201Y-88023217D01*
X73248417Y-88014418D01*
X73265189Y-88005978D01*
X73282517Y-87997897D01*
X73300400Y-87990176D01*
X73318838Y-87982813D01*
X73337832Y-87975810D01*
X73357381Y-87969166D01*
X73377485Y-87962881D01*
X73398145Y-87956955D01*
X73419361Y-87951389D01*
X73441132Y-87946181D01*
X73463458Y-87941333D01*
X73486340Y-87936843D01*
X73509777Y-87932713D01*
X73533769Y-87928942D01*
X73558317Y-87925531D01*
X73583421Y-87922478D01*
X73609080Y-87919784D01*
X73635294Y-87917450D01*
X73662064Y-87915475D01*
X73689389Y-87913859D01*
X73717270Y-87912602D01*
X73745706Y-87911704D01*
X73774697Y-87911165D01*
X73804244Y-87910985D01*
X73834213Y-87911182D01*
X73863634Y-87911771D01*
X73892507Y-87912752D01*
X73920832Y-87914126D01*
X73948609Y-87915893D01*
X73975837Y-87918052D01*
X74002518Y-87920604D01*
X74028650Y-87923548D01*
X74054234Y-87926885D01*
X74079270Y-87930614D01*
X74103757Y-87934737D01*
X74127697Y-87939251D01*
X74151088Y-87944159D01*
X74173931Y-87949458D01*
X74196226Y-87955151D01*
X74217973Y-87961236D01*
X74239172Y-87967714D01*
X74259822Y-87974584D01*
X74279925Y-87981846D01*
X74299479Y-87989502D01*
X74318485Y-87997550D01*
X74336943Y-88005990D01*
X74354853Y-88014823D01*
X74372214Y-88024049D01*
X74389028Y-88033667D01*
X74405293Y-88043678D01*
X74421010Y-88054082D01*
X74436179Y-88064878D01*
X74450800Y-88076066D01*
X74464873Y-88087647D01*
X74478397Y-88099621D01*
X74491373Y-88111987D01*
X74503785Y-88124549D01*
X74515804Y-88137622D01*
X74527428Y-88151204D01*
X74538658Y-88165297D01*
X74549494Y-88179901D01*
X74559936Y-88195014D01*
X74569984Y-88210638D01*
X74579637Y-88226773D01*
X74588897Y-88243417D01*
X74597763Y-88260573D01*
X74606235Y-88278238D01*
X74614313Y-88296414D01*
X74621996Y-88315100D01*
X74629286Y-88334297D01*
X74636182Y-88354004D01*
X74642683Y-88374221D01*
X74648791Y-88394948D01*
X74654504Y-88416186D01*
X74659824Y-88437935D01*
X74664749Y-88460193D01*
X74669281Y-88482962D01*
X74673418Y-88506242D01*
X74677161Y-88530032D01*
X74680511Y-88554332D01*
X74683466Y-88579142D01*
X74686027Y-88604463D01*
X74688194Y-88630294D01*
X74689968Y-88656636D01*
X74691347Y-88683488D01*
X74692332Y-88710850D01*
X74692923Y-88738722D01*
X74693120Y-88767105D01*
X74693004Y-88786779D01*
X74692656Y-88806159D01*
X74692076Y-88825244D01*
X74691265Y-88844034D01*
X74690221Y-88862530D01*
X74688945Y-88880732D01*
X74687438Y-88898639D01*
X74685699Y-88916252D01*
X74683727Y-88933570D01*
X74681524Y-88950594D01*
X74679089Y-88967323D01*
X74676422Y-88983758D01*
X74673523Y-88999899D01*
X74670392Y-89015745D01*
X74667029Y-89031297D01*
X74663435Y-89046554D01*
X74659608Y-89061517D01*
X74655550Y-89076185D01*
X74651259Y-89090559D01*
X74641983Y-89118424D01*
X74631779Y-89145111D01*
X74620647Y-89170620D01*
X74608587Y-89194951D01*
X74595600Y-89218105D01*
X74581685Y-89240081D01*
X74574380Y-89250627D01*
X74559148Y-89270816D01*
X74542671Y-89290252D01*
X74524949Y-89308934D01*
X74505983Y-89326864D01*
X74485772Y-89344040D01*
X74464317Y-89360463D01*
X74441617Y-89376133D01*
X74417673Y-89391049D01*
X74392483Y-89405213D01*
X74366049Y-89418623D01*
X74352366Y-89425046D01*
X74338371Y-89431280D01*
X74324065Y-89437326D01*
X74309448Y-89443184D01*
X74294519Y-89448854D01*
X74279280Y-89454335D01*
X74263729Y-89459628D01*
X74247868Y-89464733D01*
X74231695Y-89469649D01*
X74215211Y-89474377D01*
X74198415Y-89478917D01*
X74181309Y-89483268D01*
X74014179Y-89049253D01*
X74032682Y-89044901D01*
X74050407Y-89040314D01*
X74067357Y-89035491D01*
X74083530Y-89030432D01*
X74098926Y-89025138D01*
X74113546Y-89019608D01*
X74127390Y-89013843D01*
X74146700Y-89004754D01*
X74164262Y-88995135D01*
X74180078Y-88984985D01*
X74194146Y-88974306D01*
X74206468Y-88963097D01*
X74217043Y-88951357D01*
X74228122Y-88935456D01*
X74235462Y-88922202D01*
X74241972Y-88907810D01*
X74247650Y-88892279D01*
X74252497Y-88875609D01*
X74256514Y-88857801D01*
X74259699Y-88838855D01*
X74262053Y-88818770D01*
X74263577Y-88797547D01*
X74264269Y-88775185D01*
X74264315Y-88767478D01*
X74263940Y-88743905D01*
X74262815Y-88721205D01*
X74260939Y-88699378D01*
X74258313Y-88678423D01*
X74254937Y-88658340D01*
X74250811Y-88639129D01*
X74245934Y-88620791D01*
X74240307Y-88603326D01*
X74233930Y-88586733D01*
X74226802Y-88571012D01*
X74218924Y-88556164D01*
X74210296Y-88542188D01*
X74200918Y-88529084D01*
X74190789Y-88516853D01*
X74179910Y-88505494D01*
X74168281Y-88495008D01*
X74155028Y-88484866D01*
X74140579Y-88475379D01*
X74124936Y-88466546D01*
X74108097Y-88458367D01*
X74090063Y-88450843D01*
X74070833Y-88443972D01*
X74050409Y-88437757D01*
X74028789Y-88432195D01*
X74005974Y-88427288D01*
X73981964Y-88423035D01*
X73956759Y-88419436D01*
X73930359Y-88416492D01*
X73902763Y-88414202D01*
X73873972Y-88412566D01*
X73843986Y-88411584D01*
X73828545Y-88411339D01*
X73812805Y-88411257D01*
X73797646Y-88411337D01*
X73768220Y-88411970D01*
X73739983Y-88413238D01*
X73712935Y-88415140D01*
X73687077Y-88417676D01*
X73662409Y-88420846D01*
X73638929Y-88424649D01*
X73616639Y-88429087D01*
X73595539Y-88434159D01*
X73575628Y-88439864D01*
X73556906Y-88446204D01*
X73539373Y-88453177D01*
X73523030Y-88460784D01*
X73507877Y-88469026D01*
X73493912Y-88477901D01*
X73481137Y-88487410D01*
X73475196Y-88492403D01*
X73464018Y-88502463D01*
X73453560Y-88513474D01*
X73443824Y-88525436D01*
X73434810Y-88538349D01*
X73426516Y-88552213D01*
X73418943Y-88567028D01*
X73412092Y-88582794D01*
X73405962Y-88599511D01*
X73400553Y-88617178D01*
X73395865Y-88635797D01*
X73391899Y-88655366D01*
X73388653Y-88675887D01*
X73386129Y-88697358D01*
X73384326Y-88719780D01*
X73383245Y-88743154D01*
X73382884Y-88767478D01*
X73383093Y-88785134D01*
X73383721Y-88802230D01*
X73384768Y-88818765D01*
X73386234Y-88834740D01*
X73388118Y-88850154D01*
X73390422Y-88865008D01*
X73396284Y-88893034D01*
X73403822Y-88918818D01*
X73413034Y-88942360D01*
X73423922Y-88963660D01*
X73436485Y-88982717D01*
X73450722Y-88999533D01*
X73466635Y-89014107D01*
X73484223Y-89026438D01*
X73503485Y-89036527D01*
X73524423Y-89044375D01*
X73547036Y-89049980D01*
X73571323Y-89053343D01*
X73597286Y-89054464D01*
X73597286Y-88618959D01*
X73843700Y-88652832D01*
X74002268Y-88617843D01*
X74002268Y-89294178D01*
G37*
G36*
X72954080Y-90857155D02*
G01*
X72954347Y-90839352D01*
X72955150Y-90822980D01*
X72956487Y-90808039D01*
X72958912Y-90791374D01*
X72962925Y-90774327D01*
X72969128Y-90758508D01*
X72971202Y-90754793D01*
X72980522Y-90742862D01*
X72991942Y-90731529D01*
X73003878Y-90721306D01*
X73018013Y-90710373D01*
X73030904Y-90701117D01*
X73045203Y-90691407D01*
X73048997Y-90688909D01*
X73072066Y-90675083D01*
X73084851Y-90667396D01*
X73098468Y-90659195D01*
X73112919Y-90650478D01*
X73128203Y-90641245D01*
X73144320Y-90631497D01*
X73161270Y-90621233D01*
X73179053Y-90610454D01*
X73197669Y-90599160D01*
X73217119Y-90587350D01*
X73237402Y-90575025D01*
X73258518Y-90562184D01*
X73280467Y-90548828D01*
X73303249Y-90534957D01*
X73326864Y-90520570D01*
X73351312Y-90505667D01*
X73376594Y-90490249D01*
X73402709Y-90474316D01*
X73429657Y-90457867D01*
X73457438Y-90440903D01*
X73486052Y-90423423D01*
X73515499Y-90405428D01*
X73545779Y-90386917D01*
X73576893Y-90367891D01*
X73608840Y-90348350D01*
X73641620Y-90328293D01*
X73675233Y-90307720D01*
X73709679Y-90286632D01*
X73744958Y-90265029D01*
X73781071Y-90242910D01*
X73818016Y-90220276D01*
X72951102Y-90220276D01*
X73031875Y-89874478D01*
X72943657Y-89743827D01*
X74669297Y-89743827D01*
X74669297Y-90085158D01*
X74668692Y-90107107D01*
X74666876Y-90127727D01*
X74663850Y-90147019D01*
X74659614Y-90164983D01*
X74654167Y-90181619D01*
X74647509Y-90196926D01*
X74639641Y-90210905D01*
X74630563Y-90223556D01*
X74620274Y-90234879D01*
X74608774Y-90244874D01*
X74600436Y-90250799D01*
X73827322Y-90744370D01*
X74669297Y-90744370D01*
X74669297Y-91220820D01*
X72954080Y-91220820D01*
X72954080Y-90857155D01*
G37*
G36*
X74716048Y-91463617D02*
G01*
X74711549Y-91482219D01*
X74707542Y-91498844D01*
X74704025Y-91513494D01*
X74700099Y-91529954D01*
X74696419Y-91545588D01*
X74693147Y-91560390D01*
X74693120Y-91560662D01*
X74693120Y-92248164D01*
X74692897Y-92267726D01*
X74692230Y-92287051D01*
X74691118Y-92306138D01*
X74689560Y-92324988D01*
X74687558Y-92343600D01*
X74685111Y-92361973D01*
X74682219Y-92380110D01*
X74678882Y-92398008D01*
X74675100Y-92415669D01*
X74670874Y-92433092D01*
X74666202Y-92450277D01*
X74661085Y-92467225D01*
X74655524Y-92483935D01*
X74649517Y-92500407D01*
X74643066Y-92516641D01*
X74636169Y-92532638D01*
X74628828Y-92548397D01*
X74621042Y-92563918D01*
X74612811Y-92579201D01*
X74604135Y-92594247D01*
X74595014Y-92609055D01*
X74585448Y-92623625D01*
X74575437Y-92637958D01*
X74564981Y-92652052D01*
X74554080Y-92665910D01*
X74542735Y-92679529D01*
X74530944Y-92692910D01*
X74518709Y-92706054D01*
X74506028Y-92718960D01*
X74492903Y-92731629D01*
X74479333Y-92744060D01*
X74465317Y-92756253D01*
X74450216Y-92768779D01*
X74434785Y-92780908D01*
X74419022Y-92792639D01*
X74402929Y-92803973D01*
X74386505Y-92814909D01*
X74369750Y-92825447D01*
X74352664Y-92835588D01*
X74335248Y-92845331D01*
X74317500Y-92854676D01*
X74299422Y-92863624D01*
X74281014Y-92872174D01*
X74262274Y-92880326D01*
X74243204Y-92888081D01*
X74223802Y-92895437D01*
X74204070Y-92902397D01*
X74184008Y-92908958D01*
X74163614Y-92915122D01*
X74142890Y-92920888D01*
X74121835Y-92926257D01*
X74100449Y-92931228D01*
X74078732Y-92935801D01*
X74056684Y-92939977D01*
X74034306Y-92943755D01*
X74011597Y-92947135D01*
X73988557Y-92950117D01*
X73965187Y-92952702D01*
X73941485Y-92954889D01*
X73917453Y-92956679D01*
X73893090Y-92958071D01*
X73868396Y-92959065D01*
X73843372Y-92959661D01*
X73818016Y-92959860D01*
X73791917Y-92959666D01*
X73766197Y-92959082D01*
X73740855Y-92958110D01*
X73715893Y-92956749D01*
X73691309Y-92954998D01*
X73667103Y-92952859D01*
X73643277Y-92950331D01*
X73619829Y-92947414D01*
X73596760Y-92944108D01*
X73574070Y-92940413D01*
X73551759Y-92936329D01*
X73529826Y-92931856D01*
X73508272Y-92926994D01*
X73487097Y-92921743D01*
X73466301Y-92916104D01*
X73445883Y-92910075D01*
X73425844Y-92903657D01*
X73406184Y-92896851D01*
X73386903Y-92889655D01*
X73368001Y-92882071D01*
X73349477Y-92874097D01*
X73331332Y-92865735D01*
X73313566Y-92856984D01*
X73296179Y-92847843D01*
X73279170Y-92838314D01*
X73262540Y-92828396D01*
X73246289Y-92818089D01*
X73230417Y-92807393D01*
X73214923Y-92796308D01*
X73199808Y-92784834D01*
X73185072Y-92772971D01*
X73170715Y-92760719D01*
X73157387Y-92748905D01*
X73144482Y-92736820D01*
X73132000Y-92724463D01*
X73119941Y-92711835D01*
X73108305Y-92698937D01*
X73097093Y-92685767D01*
X73086303Y-92672325D01*
X73075937Y-92658613D01*
X73065994Y-92644629D01*
X73056474Y-92630375D01*
X73047377Y-92615849D01*
X73038703Y-92601052D01*
X73030452Y-92585983D01*
X73022624Y-92570644D01*
X73015220Y-92555033D01*
X73008238Y-92539152D01*
X73001680Y-92522999D01*
X72995545Y-92506575D01*
X72989833Y-92489879D01*
X72984544Y-92472913D01*
X72979678Y-92455675D01*
X72975235Y-92438166D01*
X72971216Y-92420386D01*
X72967619Y-92402335D01*
X72964446Y-92384013D01*
X72961696Y-92365419D01*
X72959368Y-92346555D01*
X72957464Y-92327419D01*
X72955984Y-92308012D01*
X72954926Y-92288334D01*
X72954291Y-92268384D01*
X72954080Y-92248164D01*
X72954080Y-91959316D01*
X73406706Y-91959316D01*
X73406706Y-92116396D01*
X73407105Y-92137510D01*
X73408301Y-92157954D01*
X73410295Y-92177728D01*
X73413087Y-92196832D01*
X73416675Y-92215265D01*
X73421062Y-92233028D01*
X73426246Y-92250120D01*
X73432227Y-92266543D01*
X73439006Y-92282295D01*
X73446583Y-92297376D01*
X73454957Y-92311788D01*
X73464128Y-92325529D01*
X73474097Y-92338600D01*
X73484864Y-92351000D01*
X73496428Y-92362730D01*
X73508789Y-92373790D01*
X73521949Y-92384180D01*
X73535905Y-92393899D01*
X73550659Y-92402948D01*
X73566211Y-92411327D01*
X73582560Y-92419035D01*
X73599707Y-92426073D01*
X73617651Y-92432441D01*
X73636393Y-92438139D01*
X73655933Y-92443166D01*
X73676269Y-92447523D01*
X73697404Y-92451210D01*
X73719336Y-92454226D01*
X73742065Y-92456572D01*
X73765592Y-92458248D01*
X73789916Y-92459253D01*
X73815038Y-92459588D01*
X73840412Y-92459181D01*
X73865074Y-92457960D01*
X73889023Y-92455924D01*
X73912259Y-92453074D01*
X73934783Y-92449410D01*
X73956595Y-92444932D01*
X73977694Y-92439639D01*
X73998081Y-92433532D01*
X74017755Y-92426611D01*
X74036717Y-92418876D01*
X74054966Y-92410327D01*
X74072503Y-92400963D01*
X74089327Y-92390785D01*
X74105439Y-92379792D01*
X74120838Y-92367986D01*
X74135525Y-92355365D01*
X74148236Y-92343614D01*
X74160127Y-92331438D01*
X74171198Y-92318837D01*
X74181449Y-92305812D01*
X74190879Y-92292363D01*
X74199490Y-92278489D01*
X74207280Y-92264190D01*
X74214251Y-92249467D01*
X74220401Y-92234319D01*
X74225732Y-92218746D01*
X74230242Y-92202749D01*
X74233932Y-92186328D01*
X74236803Y-92169482D01*
X74238853Y-92152211D01*
X74240083Y-92134516D01*
X74240493Y-92116396D01*
X74240493Y-91959316D01*
X73406706Y-91959316D01*
X72954080Y-91959316D01*
X72954080Y-91482867D01*
X74416928Y-91482867D01*
X74438530Y-91482711D01*
X74459786Y-91482245D01*
X74480697Y-91481467D01*
X74501261Y-91480378D01*
X74521479Y-91478978D01*
X74541350Y-91477266D01*
X74560876Y-91475244D01*
X74580056Y-91472910D01*
X74598890Y-91470265D01*
X74617378Y-91467309D01*
X74635519Y-91464042D01*
X74653315Y-91460464D01*
X74670764Y-91456574D01*
X74687868Y-91452374D01*
X74704625Y-91447862D01*
X74721037Y-91443039D01*
X74716048Y-91463617D01*
G37*
G36*
X73685184Y-85968789D02*
G01*
X73439089Y-85722694D01*
X73425058Y-85708261D01*
X73412282Y-85694277D01*
X73400759Y-85680742D01*
X73390490Y-85667656D01*
X73381475Y-85655018D01*
X73371406Y-85638866D01*
X73363565Y-85623512D01*
X73357954Y-85608955D01*
X73354074Y-85591882D01*
X73353584Y-85574405D01*
X73355330Y-85558471D01*
X73358976Y-85540801D01*
X73362957Y-85526410D01*
X73368007Y-85511043D01*
X73374126Y-85494699D01*
X73381313Y-85477379D01*
X73389569Y-85459083D01*
X73398894Y-85439811D01*
X73402240Y-85433170D01*
X73410565Y-85416347D01*
X73423893Y-85389630D01*
X73432433Y-85372563D01*
X73442223Y-85353022D01*
X73453265Y-85331007D01*
X73465557Y-85306520D01*
X73479100Y-85279559D01*
X73493893Y-85250125D01*
X73509938Y-85218218D01*
X73527233Y-85183838D01*
X73545779Y-85146985D01*
X73565575Y-85107658D01*
X73586623Y-85065858D01*
X73608921Y-85021586D01*
X73632469Y-84974839D01*
X73657269Y-84925620D01*
X73683319Y-84873928D01*
X73710620Y-84819762D01*
X73739172Y-84763123D01*
X73768974Y-84704011D01*
X73800027Y-84642426D01*
X73832331Y-84578367D01*
X73865886Y-84511835D01*
X73900691Y-84442831D01*
X73936747Y-84371353D01*
X73974054Y-84297401D01*
X74012611Y-84220977D01*
X74052420Y-84142079D01*
X74093479Y-84060709D01*
X74135788Y-83976865D01*
X74514012Y-84355088D01*
X74059459Y-85238136D01*
X74944087Y-84785163D01*
X75327048Y-85168124D01*
X73685184Y-85968789D01*
G37*
G36*
X74876970Y-85678213D02*
G01*
X75163335Y-85964578D01*
X75449701Y-85678213D01*
X75736066Y-85964578D01*
X75449701Y-86250944D01*
X75736066Y-86537309D01*
X75476811Y-86796565D01*
X75190445Y-86510199D01*
X74893815Y-86806830D01*
X74607449Y-86520464D01*
X74904080Y-86223834D01*
X74617714Y-85937468D01*
X74876970Y-85678213D01*
G37*
G36*
X74272653Y-94293740D02*
G01*
X74518749Y-94047645D01*
X74533181Y-94033615D01*
X74547165Y-94020838D01*
X74560701Y-94009315D01*
X74573787Y-93999047D01*
X74586425Y-93990032D01*
X74602577Y-93979962D01*
X74617931Y-93972122D01*
X74632487Y-93966510D01*
X74649561Y-93962630D01*
X74667038Y-93962140D01*
X74682972Y-93963886D01*
X74700642Y-93967532D01*
X74715033Y-93971513D01*
X74730400Y-93976563D01*
X74746744Y-93982682D01*
X74764063Y-93989869D01*
X74782359Y-93998125D01*
X74801632Y-94007450D01*
X74808273Y-94010796D01*
X74825096Y-94019121D01*
X74851812Y-94032449D01*
X74868880Y-94040989D01*
X74888421Y-94050780D01*
X74910435Y-94061821D01*
X74934923Y-94074113D01*
X74961884Y-94087656D01*
X74991317Y-94102450D01*
X75023224Y-94118494D01*
X75057605Y-94135789D01*
X75094458Y-94154335D01*
X75133785Y-94174132D01*
X75175584Y-94195179D01*
X75219857Y-94217477D01*
X75266603Y-94241026D01*
X75315823Y-94265825D01*
X75367515Y-94291875D01*
X75421681Y-94319176D01*
X75478320Y-94347728D01*
X75537432Y-94377530D01*
X75599017Y-94408584D01*
X75663076Y-94440887D01*
X75729607Y-94474442D01*
X75798612Y-94509247D01*
X75870090Y-94545303D01*
X75944041Y-94582610D01*
X76020466Y-94621168D01*
X76099363Y-94660976D01*
X76180734Y-94702035D01*
X76264578Y-94744345D01*
X75886355Y-95122568D01*
X75003307Y-94668016D01*
X75456280Y-95552643D01*
X75073319Y-95935604D01*
X74272653Y-94293740D01*
G37*
G36*
X73400923Y-96041412D02*
G01*
X74276865Y-95165470D01*
X74536120Y-95424726D01*
X73660179Y-96300668D01*
X73400923Y-96041412D01*
G37*
D12*
X111435570Y-90543532D02*
X111096904Y-90780599D01*
X111435570Y-90949932D02*
X110724370Y-90949932D01*
X110724370Y-90949932D02*
X110724370Y-90678999D01*
X110724370Y-90678999D02*
X110758237Y-90611266D01*
X110758237Y-90611266D02*
X110792104Y-90577399D01*
X110792104Y-90577399D02*
X110859837Y-90543532D01*
X110859837Y-90543532D02*
X110961437Y-90543532D01*
X110961437Y-90543532D02*
X111029170Y-90577399D01*
X111029170Y-90577399D02*
X111063037Y-90611266D01*
X111063037Y-90611266D02*
X111096904Y-90678999D01*
X111096904Y-90678999D02*
X111096904Y-90949932D01*
X110724370Y-90306466D02*
X110724370Y-89832332D01*
X110724370Y-89832332D02*
X111435570Y-90137132D01*
X92703070Y-94671033D02*
X92703070Y-95009699D01*
X92703070Y-95009699D02*
X91991870Y-95009699D01*
X92296670Y-94332366D02*
X92262804Y-94400100D01*
X92262804Y-94400100D02*
X92228937Y-94433966D01*
X92228937Y-94433966D02*
X92161204Y-94467833D01*
X92161204Y-94467833D02*
X92127337Y-94467833D01*
X92127337Y-94467833D02*
X92059604Y-94433966D01*
X92059604Y-94433966D02*
X92025737Y-94400100D01*
X92025737Y-94400100D02*
X91991870Y-94332366D01*
X91991870Y-94332366D02*
X91991870Y-94196900D01*
X91991870Y-94196900D02*
X92025737Y-94129166D01*
X92025737Y-94129166D02*
X92059604Y-94095300D01*
X92059604Y-94095300D02*
X92127337Y-94061433D01*
X92127337Y-94061433D02*
X92161204Y-94061433D01*
X92161204Y-94061433D02*
X92228937Y-94095300D01*
X92228937Y-94095300D02*
X92262804Y-94129166D01*
X92262804Y-94129166D02*
X92296670Y-94196900D01*
X92296670Y-94196900D02*
X92296670Y-94332366D01*
X92296670Y-94332366D02*
X92330537Y-94400100D01*
X92330537Y-94400100D02*
X92364404Y-94433966D01*
X92364404Y-94433966D02*
X92432137Y-94467833D01*
X92432137Y-94467833D02*
X92567604Y-94467833D01*
X92567604Y-94467833D02*
X92635337Y-94433966D01*
X92635337Y-94433966D02*
X92669204Y-94400100D01*
X92669204Y-94400100D02*
X92703070Y-94332366D01*
X92703070Y-94332366D02*
X92703070Y-94196900D01*
X92703070Y-94196900D02*
X92669204Y-94129166D01*
X92669204Y-94129166D02*
X92635337Y-94095300D01*
X92635337Y-94095300D02*
X92567604Y-94061433D01*
X92567604Y-94061433D02*
X92432137Y-94061433D01*
X92432137Y-94061433D02*
X92364404Y-94095300D01*
X92364404Y-94095300D02*
X92330537Y-94129166D01*
X92330537Y-94129166D02*
X92296670Y-94196900D01*
X94540337Y-86119699D02*
X94574204Y-86153566D01*
X94574204Y-86153566D02*
X94608070Y-86255166D01*
X94608070Y-86255166D02*
X94608070Y-86322899D01*
X94608070Y-86322899D02*
X94574204Y-86424499D01*
X94574204Y-86424499D02*
X94506470Y-86492233D01*
X94506470Y-86492233D02*
X94438737Y-86526099D01*
X94438737Y-86526099D02*
X94303270Y-86559966D01*
X94303270Y-86559966D02*
X94201670Y-86559966D01*
X94201670Y-86559966D02*
X94066204Y-86526099D01*
X94066204Y-86526099D02*
X93998470Y-86492233D01*
X93998470Y-86492233D02*
X93930737Y-86424499D01*
X93930737Y-86424499D02*
X93896870Y-86322899D01*
X93896870Y-86322899D02*
X93896870Y-86255166D01*
X93896870Y-86255166D02*
X93930737Y-86153566D01*
X93930737Y-86153566D02*
X93964604Y-86119699D01*
X94608070Y-85442366D02*
X94608070Y-85848766D01*
X94608070Y-85645566D02*
X93896870Y-85645566D01*
X93896870Y-85645566D02*
X93998470Y-85713299D01*
X93998470Y-85713299D02*
X94066204Y-85781033D01*
X94066204Y-85781033D02*
X94100070Y-85848766D01*
X93896870Y-85002100D02*
X93896870Y-84934366D01*
X93896870Y-84934366D02*
X93930737Y-84866633D01*
X93930737Y-84866633D02*
X93964604Y-84832766D01*
X93964604Y-84832766D02*
X94032337Y-84798900D01*
X94032337Y-84798900D02*
X94167804Y-84765033D01*
X94167804Y-84765033D02*
X94337137Y-84765033D01*
X94337137Y-84765033D02*
X94472604Y-84798900D01*
X94472604Y-84798900D02*
X94540337Y-84832766D01*
X94540337Y-84832766D02*
X94574204Y-84866633D01*
X94574204Y-84866633D02*
X94608070Y-84934366D01*
X94608070Y-84934366D02*
X94608070Y-85002100D01*
X94608070Y-85002100D02*
X94574204Y-85069833D01*
X94574204Y-85069833D02*
X94540337Y-85103700D01*
X94540337Y-85103700D02*
X94472604Y-85137566D01*
X94472604Y-85137566D02*
X94337137Y-85171433D01*
X94337137Y-85171433D02*
X94167804Y-85171433D01*
X94167804Y-85171433D02*
X94032337Y-85137566D01*
X94032337Y-85137566D02*
X93964604Y-85103700D01*
X93964604Y-85103700D02*
X93930737Y-85069833D01*
X93930737Y-85069833D02*
X93896870Y-85002100D01*
X111205633Y-93211870D02*
X111205633Y-93787604D01*
X111205633Y-93787604D02*
X111239500Y-93855337D01*
X111239500Y-93855337D02*
X111273366Y-93889204D01*
X111273366Y-93889204D02*
X111341100Y-93923070D01*
X111341100Y-93923070D02*
X111476566Y-93923070D01*
X111476566Y-93923070D02*
X111544300Y-93889204D01*
X111544300Y-93889204D02*
X111578166Y-93855337D01*
X111578166Y-93855337D02*
X111612033Y-93787604D01*
X111612033Y-93787604D02*
X111612033Y-93211870D01*
X111882967Y-93211870D02*
X112323233Y-93211870D01*
X112323233Y-93211870D02*
X112086167Y-93482804D01*
X112086167Y-93482804D02*
X112187767Y-93482804D01*
X112187767Y-93482804D02*
X112255500Y-93516670D01*
X112255500Y-93516670D02*
X112289367Y-93550537D01*
X112289367Y-93550537D02*
X112323233Y-93618270D01*
X112323233Y-93618270D02*
X112323233Y-93787604D01*
X112323233Y-93787604D02*
X112289367Y-93855337D01*
X112289367Y-93855337D02*
X112255500Y-93889204D01*
X112255500Y-93889204D02*
X112187767Y-93923070D01*
X112187767Y-93923070D02*
X111984567Y-93923070D01*
X111984567Y-93923070D02*
X111916833Y-93889204D01*
X111916833Y-93889204D02*
X111882967Y-93855337D01*
X118352837Y-80383532D02*
X118386704Y-80417399D01*
X118386704Y-80417399D02*
X118420570Y-80518999D01*
X118420570Y-80518999D02*
X118420570Y-80586732D01*
X118420570Y-80586732D02*
X118386704Y-80688332D01*
X118386704Y-80688332D02*
X118318970Y-80756066D01*
X118318970Y-80756066D02*
X118251237Y-80789932D01*
X118251237Y-80789932D02*
X118115770Y-80823799D01*
X118115770Y-80823799D02*
X118014170Y-80823799D01*
X118014170Y-80823799D02*
X117878704Y-80789932D01*
X117878704Y-80789932D02*
X117810970Y-80756066D01*
X117810970Y-80756066D02*
X117743237Y-80688332D01*
X117743237Y-80688332D02*
X117709370Y-80586732D01*
X117709370Y-80586732D02*
X117709370Y-80518999D01*
X117709370Y-80518999D02*
X117743237Y-80417399D01*
X117743237Y-80417399D02*
X117777104Y-80383532D01*
X118420570Y-79706199D02*
X118420570Y-80112599D01*
X118420570Y-79909399D02*
X117709370Y-79909399D01*
X117709370Y-79909399D02*
X117810970Y-79977132D01*
X117810970Y-79977132D02*
X117878704Y-80044866D01*
X117878704Y-80044866D02*
X117912570Y-80112599D01*
X104643967Y-91383070D02*
X104305300Y-91383070D01*
X104305300Y-91383070D02*
X104305300Y-90671870D01*
X105185833Y-90671870D02*
X105050366Y-90671870D01*
X105050366Y-90671870D02*
X104982633Y-90705737D01*
X104982633Y-90705737D02*
X104948766Y-90739604D01*
X104948766Y-90739604D02*
X104881033Y-90841204D01*
X104881033Y-90841204D02*
X104847166Y-90976670D01*
X104847166Y-90976670D02*
X104847166Y-91247604D01*
X104847166Y-91247604D02*
X104881033Y-91315337D01*
X104881033Y-91315337D02*
X104914900Y-91349204D01*
X104914900Y-91349204D02*
X104982633Y-91383070D01*
X104982633Y-91383070D02*
X105118100Y-91383070D01*
X105118100Y-91383070D02*
X105185833Y-91349204D01*
X105185833Y-91349204D02*
X105219700Y-91315337D01*
X105219700Y-91315337D02*
X105253566Y-91247604D01*
X105253566Y-91247604D02*
X105253566Y-91078270D01*
X105253566Y-91078270D02*
X105219700Y-91010537D01*
X105219700Y-91010537D02*
X105185833Y-90976670D01*
X105185833Y-90976670D02*
X105118100Y-90942804D01*
X105118100Y-90942804D02*
X104982633Y-90942804D01*
X104982633Y-90942804D02*
X104914900Y-90976670D01*
X104914900Y-90976670D02*
X104881033Y-91010537D01*
X104881033Y-91010537D02*
X104847166Y-91078270D01*
X115880570Y-93718532D02*
X115541904Y-93955599D01*
X115880570Y-94124932D02*
X115169370Y-94124932D01*
X115169370Y-94124932D02*
X115169370Y-93853999D01*
X115169370Y-93853999D02*
X115203237Y-93786266D01*
X115203237Y-93786266D02*
X115237104Y-93752399D01*
X115237104Y-93752399D02*
X115304837Y-93718532D01*
X115304837Y-93718532D02*
X115406437Y-93718532D01*
X115406437Y-93718532D02*
X115474170Y-93752399D01*
X115474170Y-93752399D02*
X115508037Y-93786266D01*
X115508037Y-93786266D02*
X115541904Y-93853999D01*
X115541904Y-93853999D02*
X115541904Y-94124932D01*
X115169370Y-93481466D02*
X115169370Y-93041199D01*
X115169370Y-93041199D02*
X115440304Y-93278266D01*
X115440304Y-93278266D02*
X115440304Y-93176666D01*
X115440304Y-93176666D02*
X115474170Y-93108932D01*
X115474170Y-93108932D02*
X115508037Y-93075066D01*
X115508037Y-93075066D02*
X115575770Y-93041199D01*
X115575770Y-93041199D02*
X115745104Y-93041199D01*
X115745104Y-93041199D02*
X115812837Y-93075066D01*
X115812837Y-93075066D02*
X115846704Y-93108932D01*
X115846704Y-93108932D02*
X115880570Y-93176666D01*
X115880570Y-93176666D02*
X115880570Y-93379866D01*
X115880570Y-93379866D02*
X115846704Y-93447599D01*
X115846704Y-93447599D02*
X115812837Y-93481466D01*
X114147800Y-102427837D02*
X114113933Y-102461704D01*
X114113933Y-102461704D02*
X114012333Y-102495570D01*
X114012333Y-102495570D02*
X113944600Y-102495570D01*
X113944600Y-102495570D02*
X113843000Y-102461704D01*
X113843000Y-102461704D02*
X113775267Y-102393970D01*
X113775267Y-102393970D02*
X113741400Y-102326237D01*
X113741400Y-102326237D02*
X113707533Y-102190770D01*
X113707533Y-102190770D02*
X113707533Y-102089170D01*
X113707533Y-102089170D02*
X113741400Y-101953704D01*
X113741400Y-101953704D02*
X113775267Y-101885970D01*
X113775267Y-101885970D02*
X113843000Y-101818237D01*
X113843000Y-101818237D02*
X113944600Y-101784370D01*
X113944600Y-101784370D02*
X114012333Y-101784370D01*
X114012333Y-101784370D02*
X114113933Y-101818237D01*
X114113933Y-101818237D02*
X114147800Y-101852104D01*
X114825133Y-102495570D02*
X114418733Y-102495570D01*
X114621933Y-102495570D02*
X114621933Y-101784370D01*
X114621933Y-101784370D02*
X114554200Y-101885970D01*
X114554200Y-101885970D02*
X114486467Y-101953704D01*
X114486467Y-101953704D02*
X114418733Y-101987570D01*
X115062200Y-101784370D02*
X115502466Y-101784370D01*
X115502466Y-101784370D02*
X115265400Y-102055304D01*
X115265400Y-102055304D02*
X115367000Y-102055304D01*
X115367000Y-102055304D02*
X115434733Y-102089170D01*
X115434733Y-102089170D02*
X115468600Y-102123037D01*
X115468600Y-102123037D02*
X115502466Y-102190770D01*
X115502466Y-102190770D02*
X115502466Y-102360104D01*
X115502466Y-102360104D02*
X115468600Y-102427837D01*
X115468600Y-102427837D02*
X115434733Y-102461704D01*
X115434733Y-102461704D02*
X115367000Y-102495570D01*
X115367000Y-102495570D02*
X115163800Y-102495570D01*
X115163800Y-102495570D02*
X115096066Y-102461704D01*
X115096066Y-102461704D02*
X115062200Y-102427837D01*
X84302800Y-90430570D02*
X84065733Y-90091904D01*
X83896400Y-90430570D02*
X83896400Y-89719370D01*
X83896400Y-89719370D02*
X84167333Y-89719370D01*
X84167333Y-89719370D02*
X84235067Y-89753237D01*
X84235067Y-89753237D02*
X84268933Y-89787104D01*
X84268933Y-89787104D02*
X84302800Y-89854837D01*
X84302800Y-89854837D02*
X84302800Y-89956437D01*
X84302800Y-89956437D02*
X84268933Y-90024170D01*
X84268933Y-90024170D02*
X84235067Y-90058037D01*
X84235067Y-90058037D02*
X84167333Y-90091904D01*
X84167333Y-90091904D02*
X83896400Y-90091904D01*
X84980133Y-90430570D02*
X84573733Y-90430570D01*
X84776933Y-90430570D02*
X84776933Y-89719370D01*
X84776933Y-89719370D02*
X84709200Y-89820970D01*
X84709200Y-89820970D02*
X84641467Y-89888704D01*
X84641467Y-89888704D02*
X84573733Y-89922570D01*
X85589733Y-89956437D02*
X85589733Y-90430570D01*
X85420400Y-89685504D02*
X85251066Y-90193504D01*
X85251066Y-90193504D02*
X85691333Y-90193504D01*
X92385570Y-85463532D02*
X92046904Y-85700599D01*
X92385570Y-85869932D02*
X91674370Y-85869932D01*
X91674370Y-85869932D02*
X91674370Y-85598999D01*
X91674370Y-85598999D02*
X91708237Y-85531266D01*
X91708237Y-85531266D02*
X91742104Y-85497399D01*
X91742104Y-85497399D02*
X91809837Y-85463532D01*
X91809837Y-85463532D02*
X91911437Y-85463532D01*
X91911437Y-85463532D02*
X91979170Y-85497399D01*
X91979170Y-85497399D02*
X92013037Y-85531266D01*
X92013037Y-85531266D02*
X92046904Y-85598999D01*
X92046904Y-85598999D02*
X92046904Y-85869932D01*
X92385570Y-85124866D02*
X92385570Y-84989399D01*
X92385570Y-84989399D02*
X92351704Y-84921666D01*
X92351704Y-84921666D02*
X92317837Y-84887799D01*
X92317837Y-84887799D02*
X92216237Y-84820066D01*
X92216237Y-84820066D02*
X92080770Y-84786199D01*
X92080770Y-84786199D02*
X91809837Y-84786199D01*
X91809837Y-84786199D02*
X91742104Y-84820066D01*
X91742104Y-84820066D02*
X91708237Y-84853932D01*
X91708237Y-84853932D02*
X91674370Y-84921666D01*
X91674370Y-84921666D02*
X91674370Y-85057132D01*
X91674370Y-85057132D02*
X91708237Y-85124866D01*
X91708237Y-85124866D02*
X91742104Y-85158732D01*
X91742104Y-85158732D02*
X91809837Y-85192599D01*
X91809837Y-85192599D02*
X91979170Y-85192599D01*
X91979170Y-85192599D02*
X92046904Y-85158732D01*
X92046904Y-85158732D02*
X92080770Y-85124866D01*
X92080770Y-85124866D02*
X92114637Y-85057132D01*
X92114637Y-85057132D02*
X92114637Y-84921666D01*
X92114637Y-84921666D02*
X92080770Y-84853932D01*
X92080770Y-84853932D02*
X92046904Y-84820066D01*
X92046904Y-84820066D02*
X91979170Y-84786199D01*
X106355570Y-93104699D02*
X106016904Y-93341766D01*
X106355570Y-93511099D02*
X105644370Y-93511099D01*
X105644370Y-93511099D02*
X105644370Y-93240166D01*
X105644370Y-93240166D02*
X105678237Y-93172433D01*
X105678237Y-93172433D02*
X105712104Y-93138566D01*
X105712104Y-93138566D02*
X105779837Y-93104699D01*
X105779837Y-93104699D02*
X105881437Y-93104699D01*
X105881437Y-93104699D02*
X105949170Y-93138566D01*
X105949170Y-93138566D02*
X105983037Y-93172433D01*
X105983037Y-93172433D02*
X106016904Y-93240166D01*
X106016904Y-93240166D02*
X106016904Y-93511099D01*
X106355570Y-92427366D02*
X106355570Y-92833766D01*
X106355570Y-92630566D02*
X105644370Y-92630566D01*
X105644370Y-92630566D02*
X105745970Y-92698299D01*
X105745970Y-92698299D02*
X105813704Y-92766033D01*
X105813704Y-92766033D02*
X105847570Y-92833766D01*
X105644370Y-91987100D02*
X105644370Y-91919366D01*
X105644370Y-91919366D02*
X105678237Y-91851633D01*
X105678237Y-91851633D02*
X105712104Y-91817766D01*
X105712104Y-91817766D02*
X105779837Y-91783900D01*
X105779837Y-91783900D02*
X105915304Y-91750033D01*
X105915304Y-91750033D02*
X106084637Y-91750033D01*
X106084637Y-91750033D02*
X106220104Y-91783900D01*
X106220104Y-91783900D02*
X106287837Y-91817766D01*
X106287837Y-91817766D02*
X106321704Y-91851633D01*
X106321704Y-91851633D02*
X106355570Y-91919366D01*
X106355570Y-91919366D02*
X106355570Y-91987100D01*
X106355570Y-91987100D02*
X106321704Y-92054833D01*
X106321704Y-92054833D02*
X106287837Y-92088700D01*
X106287837Y-92088700D02*
X106220104Y-92122566D01*
X106220104Y-92122566D02*
X106084637Y-92156433D01*
X106084637Y-92156433D02*
X105915304Y-92156433D01*
X105915304Y-92156433D02*
X105779837Y-92122566D01*
X105779837Y-92122566D02*
X105712104Y-92088700D01*
X105712104Y-92088700D02*
X105678237Y-92054833D01*
X105678237Y-92054833D02*
X105644370Y-91987100D01*
X118352837Y-100357199D02*
X118386704Y-100391066D01*
X118386704Y-100391066D02*
X118420570Y-100492666D01*
X118420570Y-100492666D02*
X118420570Y-100560399D01*
X118420570Y-100560399D02*
X118386704Y-100661999D01*
X118386704Y-100661999D02*
X118318970Y-100729733D01*
X118318970Y-100729733D02*
X118251237Y-100763599D01*
X118251237Y-100763599D02*
X118115770Y-100797466D01*
X118115770Y-100797466D02*
X118014170Y-100797466D01*
X118014170Y-100797466D02*
X117878704Y-100763599D01*
X117878704Y-100763599D02*
X117810970Y-100729733D01*
X117810970Y-100729733D02*
X117743237Y-100661999D01*
X117743237Y-100661999D02*
X117709370Y-100560399D01*
X117709370Y-100560399D02*
X117709370Y-100492666D01*
X117709370Y-100492666D02*
X117743237Y-100391066D01*
X117743237Y-100391066D02*
X117777104Y-100357199D01*
X118420570Y-99679866D02*
X118420570Y-100086266D01*
X118420570Y-99883066D02*
X117709370Y-99883066D01*
X117709370Y-99883066D02*
X117810970Y-99950799D01*
X117810970Y-99950799D02*
X117878704Y-100018533D01*
X117878704Y-100018533D02*
X117912570Y-100086266D01*
X117777104Y-99408933D02*
X117743237Y-99375066D01*
X117743237Y-99375066D02*
X117709370Y-99307333D01*
X117709370Y-99307333D02*
X117709370Y-99138000D01*
X117709370Y-99138000D02*
X117743237Y-99070266D01*
X117743237Y-99070266D02*
X117777104Y-99036400D01*
X117777104Y-99036400D02*
X117844837Y-99002533D01*
X117844837Y-99002533D02*
X117912570Y-99002533D01*
X117912570Y-99002533D02*
X118014170Y-99036400D01*
X118014170Y-99036400D02*
X118420570Y-99442800D01*
X118420570Y-99442800D02*
X118420570Y-99002533D01*
X105808133Y-89084370D02*
X105808133Y-89660104D01*
X105808133Y-89660104D02*
X105842000Y-89727837D01*
X105842000Y-89727837D02*
X105875866Y-89761704D01*
X105875866Y-89761704D02*
X105943600Y-89795570D01*
X105943600Y-89795570D02*
X106079066Y-89795570D01*
X106079066Y-89795570D02*
X106146800Y-89761704D01*
X106146800Y-89761704D02*
X106180666Y-89727837D01*
X106180666Y-89727837D02*
X106214533Y-89660104D01*
X106214533Y-89660104D02*
X106214533Y-89084370D01*
X106925733Y-89795570D02*
X106519333Y-89795570D01*
X106722533Y-89795570D02*
X106722533Y-89084370D01*
X106722533Y-89084370D02*
X106654800Y-89185970D01*
X106654800Y-89185970D02*
X106587067Y-89253704D01*
X106587067Y-89253704D02*
X106519333Y-89287570D01*
X90730337Y-100407199D02*
X90764204Y-100441066D01*
X90764204Y-100441066D02*
X90798070Y-100542666D01*
X90798070Y-100542666D02*
X90798070Y-100610399D01*
X90798070Y-100610399D02*
X90764204Y-100711999D01*
X90764204Y-100711999D02*
X90696470Y-100779733D01*
X90696470Y-100779733D02*
X90628737Y-100813599D01*
X90628737Y-100813599D02*
X90493270Y-100847466D01*
X90493270Y-100847466D02*
X90391670Y-100847466D01*
X90391670Y-100847466D02*
X90256204Y-100813599D01*
X90256204Y-100813599D02*
X90188470Y-100779733D01*
X90188470Y-100779733D02*
X90120737Y-100711999D01*
X90120737Y-100711999D02*
X90086870Y-100610399D01*
X90086870Y-100610399D02*
X90086870Y-100542666D01*
X90086870Y-100542666D02*
X90120737Y-100441066D01*
X90120737Y-100441066D02*
X90154604Y-100407199D01*
X90798070Y-99729866D02*
X90798070Y-100136266D01*
X90798070Y-99933066D02*
X90086870Y-99933066D01*
X90086870Y-99933066D02*
X90188470Y-100000799D01*
X90188470Y-100000799D02*
X90256204Y-100068533D01*
X90256204Y-100068533D02*
X90290070Y-100136266D01*
X90798070Y-99391200D02*
X90798070Y-99255733D01*
X90798070Y-99255733D02*
X90764204Y-99188000D01*
X90764204Y-99188000D02*
X90730337Y-99154133D01*
X90730337Y-99154133D02*
X90628737Y-99086400D01*
X90628737Y-99086400D02*
X90493270Y-99052533D01*
X90493270Y-99052533D02*
X90222337Y-99052533D01*
X90222337Y-99052533D02*
X90154604Y-99086400D01*
X90154604Y-99086400D02*
X90120737Y-99120266D01*
X90120737Y-99120266D02*
X90086870Y-99188000D01*
X90086870Y-99188000D02*
X90086870Y-99323466D01*
X90086870Y-99323466D02*
X90120737Y-99391200D01*
X90120737Y-99391200D02*
X90154604Y-99425066D01*
X90154604Y-99425066D02*
X90222337Y-99458933D01*
X90222337Y-99458933D02*
X90391670Y-99458933D01*
X90391670Y-99458933D02*
X90459404Y-99425066D01*
X90459404Y-99425066D02*
X90493270Y-99391200D01*
X90493270Y-99391200D02*
X90527137Y-99323466D01*
X90527137Y-99323466D02*
X90527137Y-99188000D01*
X90527137Y-99188000D02*
X90493270Y-99120266D01*
X90493270Y-99120266D02*
X90459404Y-99086400D01*
X90459404Y-99086400D02*
X90391670Y-99052533D01*
X118103070Y-90543532D02*
X117764404Y-90780599D01*
X118103070Y-90949932D02*
X117391870Y-90949932D01*
X117391870Y-90949932D02*
X117391870Y-90678999D01*
X117391870Y-90678999D02*
X117425737Y-90611266D01*
X117425737Y-90611266D02*
X117459604Y-90577399D01*
X117459604Y-90577399D02*
X117527337Y-90543532D01*
X117527337Y-90543532D02*
X117628937Y-90543532D01*
X117628937Y-90543532D02*
X117696670Y-90577399D01*
X117696670Y-90577399D02*
X117730537Y-90611266D01*
X117730537Y-90611266D02*
X117764404Y-90678999D01*
X117764404Y-90678999D02*
X117764404Y-90949932D01*
X117459604Y-90272599D02*
X117425737Y-90238732D01*
X117425737Y-90238732D02*
X117391870Y-90170999D01*
X117391870Y-90170999D02*
X117391870Y-90001666D01*
X117391870Y-90001666D02*
X117425737Y-89933932D01*
X117425737Y-89933932D02*
X117459604Y-89900066D01*
X117459604Y-89900066D02*
X117527337Y-89866199D01*
X117527337Y-89866199D02*
X117595070Y-89866199D01*
X117595070Y-89866199D02*
X117696670Y-89900066D01*
X117696670Y-89900066D02*
X118103070Y-90306466D01*
X118103070Y-90306466D02*
X118103070Y-89866199D01*
X84054370Y-100174366D02*
X84630104Y-100174366D01*
X84630104Y-100174366D02*
X84697837Y-100140500D01*
X84697837Y-100140500D02*
X84731704Y-100106633D01*
X84731704Y-100106633D02*
X84765570Y-100038900D01*
X84765570Y-100038900D02*
X84765570Y-99903433D01*
X84765570Y-99903433D02*
X84731704Y-99835700D01*
X84731704Y-99835700D02*
X84697837Y-99801833D01*
X84697837Y-99801833D02*
X84630104Y-99767966D01*
X84630104Y-99767966D02*
X84054370Y-99767966D01*
X84291437Y-99124499D02*
X84765570Y-99124499D01*
X84020504Y-99293833D02*
X84528504Y-99463166D01*
X84528504Y-99463166D02*
X84528504Y-99022899D01*
X101697567Y-101543070D02*
X101697567Y-100831870D01*
X101697567Y-100831870D02*
X101866900Y-100831870D01*
X101866900Y-100831870D02*
X101968500Y-100865737D01*
X101968500Y-100865737D02*
X102036234Y-100933470D01*
X102036234Y-100933470D02*
X102070100Y-101001204D01*
X102070100Y-101001204D02*
X102103967Y-101136670D01*
X102103967Y-101136670D02*
X102103967Y-101238270D01*
X102103967Y-101238270D02*
X102070100Y-101373737D01*
X102070100Y-101373737D02*
X102036234Y-101441470D01*
X102036234Y-101441470D02*
X101968500Y-101509204D01*
X101968500Y-101509204D02*
X101866900Y-101543070D01*
X101866900Y-101543070D02*
X101697567Y-101543070D01*
X102713567Y-101068937D02*
X102713567Y-101543070D01*
X102544234Y-100798004D02*
X102374900Y-101306004D01*
X102374900Y-101306004D02*
X102815167Y-101306004D01*
X90356467Y-78615337D02*
X90322600Y-78649204D01*
X90322600Y-78649204D02*
X90221000Y-78683070D01*
X90221000Y-78683070D02*
X90153267Y-78683070D01*
X90153267Y-78683070D02*
X90051667Y-78649204D01*
X90051667Y-78649204D02*
X89983934Y-78581470D01*
X89983934Y-78581470D02*
X89950067Y-78513737D01*
X89950067Y-78513737D02*
X89916200Y-78378270D01*
X89916200Y-78378270D02*
X89916200Y-78276670D01*
X89916200Y-78276670D02*
X89950067Y-78141204D01*
X89950067Y-78141204D02*
X89983934Y-78073470D01*
X89983934Y-78073470D02*
X90051667Y-78005737D01*
X90051667Y-78005737D02*
X90153267Y-77971870D01*
X90153267Y-77971870D02*
X90221000Y-77971870D01*
X90221000Y-77971870D02*
X90322600Y-78005737D01*
X90322600Y-78005737D02*
X90356467Y-78039604D01*
X90762867Y-78276670D02*
X90695134Y-78242804D01*
X90695134Y-78242804D02*
X90661267Y-78208937D01*
X90661267Y-78208937D02*
X90627400Y-78141204D01*
X90627400Y-78141204D02*
X90627400Y-78107337D01*
X90627400Y-78107337D02*
X90661267Y-78039604D01*
X90661267Y-78039604D02*
X90695134Y-78005737D01*
X90695134Y-78005737D02*
X90762867Y-77971870D01*
X90762867Y-77971870D02*
X90898334Y-77971870D01*
X90898334Y-77971870D02*
X90966067Y-78005737D01*
X90966067Y-78005737D02*
X90999934Y-78039604D01*
X90999934Y-78039604D02*
X91033800Y-78107337D01*
X91033800Y-78107337D02*
X91033800Y-78141204D01*
X91033800Y-78141204D02*
X90999934Y-78208937D01*
X90999934Y-78208937D02*
X90966067Y-78242804D01*
X90966067Y-78242804D02*
X90898334Y-78276670D01*
X90898334Y-78276670D02*
X90762867Y-78276670D01*
X90762867Y-78276670D02*
X90695134Y-78310537D01*
X90695134Y-78310537D02*
X90661267Y-78344404D01*
X90661267Y-78344404D02*
X90627400Y-78412137D01*
X90627400Y-78412137D02*
X90627400Y-78547604D01*
X90627400Y-78547604D02*
X90661267Y-78615337D01*
X90661267Y-78615337D02*
X90695134Y-78649204D01*
X90695134Y-78649204D02*
X90762867Y-78683070D01*
X90762867Y-78683070D02*
X90898334Y-78683070D01*
X90898334Y-78683070D02*
X90966067Y-78649204D01*
X90966067Y-78649204D02*
X90999934Y-78615337D01*
X90999934Y-78615337D02*
X91033800Y-78547604D01*
X91033800Y-78547604D02*
X91033800Y-78412137D01*
X91033800Y-78412137D02*
X90999934Y-78344404D01*
X90999934Y-78344404D02*
X90966067Y-78310537D01*
X90966067Y-78310537D02*
X90898334Y-78276670D01*
X97002800Y-102745337D02*
X96968933Y-102779204D01*
X96968933Y-102779204D02*
X96867333Y-102813070D01*
X96867333Y-102813070D02*
X96799600Y-102813070D01*
X96799600Y-102813070D02*
X96698000Y-102779204D01*
X96698000Y-102779204D02*
X96630267Y-102711470D01*
X96630267Y-102711470D02*
X96596400Y-102643737D01*
X96596400Y-102643737D02*
X96562533Y-102508270D01*
X96562533Y-102508270D02*
X96562533Y-102406670D01*
X96562533Y-102406670D02*
X96596400Y-102271204D01*
X96596400Y-102271204D02*
X96630267Y-102203470D01*
X96630267Y-102203470D02*
X96698000Y-102135737D01*
X96698000Y-102135737D02*
X96799600Y-102101870D01*
X96799600Y-102101870D02*
X96867333Y-102101870D01*
X96867333Y-102101870D02*
X96968933Y-102135737D01*
X96968933Y-102135737D02*
X97002800Y-102169604D01*
X97680133Y-102813070D02*
X97273733Y-102813070D01*
X97476933Y-102813070D02*
X97476933Y-102101870D01*
X97476933Y-102101870D02*
X97409200Y-102203470D01*
X97409200Y-102203470D02*
X97341467Y-102271204D01*
X97341467Y-102271204D02*
X97273733Y-102305070D01*
X98289733Y-102338937D02*
X98289733Y-102813070D01*
X98120400Y-102068004D02*
X97951066Y-102576004D01*
X97951066Y-102576004D02*
X98391333Y-102576004D01*
X97341467Y-86870337D02*
X97307600Y-86904204D01*
X97307600Y-86904204D02*
X97206000Y-86938070D01*
X97206000Y-86938070D02*
X97138267Y-86938070D01*
X97138267Y-86938070D02*
X97036667Y-86904204D01*
X97036667Y-86904204D02*
X96968934Y-86836470D01*
X96968934Y-86836470D02*
X96935067Y-86768737D01*
X96935067Y-86768737D02*
X96901200Y-86633270D01*
X96901200Y-86633270D02*
X96901200Y-86531670D01*
X96901200Y-86531670D02*
X96935067Y-86396204D01*
X96935067Y-86396204D02*
X96968934Y-86328470D01*
X96968934Y-86328470D02*
X97036667Y-86260737D01*
X97036667Y-86260737D02*
X97138267Y-86226870D01*
X97138267Y-86226870D02*
X97206000Y-86226870D01*
X97206000Y-86226870D02*
X97307600Y-86260737D01*
X97307600Y-86260737D02*
X97341467Y-86294604D01*
X97578534Y-86226870D02*
X98018800Y-86226870D01*
X98018800Y-86226870D02*
X97781734Y-86497804D01*
X97781734Y-86497804D02*
X97883334Y-86497804D01*
X97883334Y-86497804D02*
X97951067Y-86531670D01*
X97951067Y-86531670D02*
X97984934Y-86565537D01*
X97984934Y-86565537D02*
X98018800Y-86633270D01*
X98018800Y-86633270D02*
X98018800Y-86802604D01*
X98018800Y-86802604D02*
X97984934Y-86870337D01*
X97984934Y-86870337D02*
X97951067Y-86904204D01*
X97951067Y-86904204D02*
X97883334Y-86938070D01*
X97883334Y-86938070D02*
X97680134Y-86938070D01*
X97680134Y-86938070D02*
X97612400Y-86904204D01*
X97612400Y-86904204D02*
X97578534Y-86870337D01*
X97320300Y-91315337D02*
X97286433Y-91349204D01*
X97286433Y-91349204D02*
X97184833Y-91383070D01*
X97184833Y-91383070D02*
X97117100Y-91383070D01*
X97117100Y-91383070D02*
X97015500Y-91349204D01*
X97015500Y-91349204D02*
X96947767Y-91281470D01*
X96947767Y-91281470D02*
X96913900Y-91213737D01*
X96913900Y-91213737D02*
X96880033Y-91078270D01*
X96880033Y-91078270D02*
X96880033Y-90976670D01*
X96880033Y-90976670D02*
X96913900Y-90841204D01*
X96913900Y-90841204D02*
X96947767Y-90773470D01*
X96947767Y-90773470D02*
X97015500Y-90705737D01*
X97015500Y-90705737D02*
X97117100Y-90671870D01*
X97117100Y-90671870D02*
X97184833Y-90671870D01*
X97184833Y-90671870D02*
X97286433Y-90705737D01*
X97286433Y-90705737D02*
X97320300Y-90739604D01*
X97997633Y-91383070D02*
X97591233Y-91383070D01*
X97794433Y-91383070D02*
X97794433Y-90671870D01*
X97794433Y-90671870D02*
X97726700Y-90773470D01*
X97726700Y-90773470D02*
X97658967Y-90841204D01*
X97658967Y-90841204D02*
X97591233Y-90875070D01*
X98234700Y-90671870D02*
X98708833Y-90671870D01*
X98708833Y-90671870D02*
X98404033Y-91383070D01*
X99563967Y-91632837D02*
X99530100Y-91666704D01*
X99530100Y-91666704D02*
X99428500Y-91700570D01*
X99428500Y-91700570D02*
X99360767Y-91700570D01*
X99360767Y-91700570D02*
X99259167Y-91666704D01*
X99259167Y-91666704D02*
X99191434Y-91598970D01*
X99191434Y-91598970D02*
X99157567Y-91531237D01*
X99157567Y-91531237D02*
X99123700Y-91395770D01*
X99123700Y-91395770D02*
X99123700Y-91294170D01*
X99123700Y-91294170D02*
X99157567Y-91158704D01*
X99157567Y-91158704D02*
X99191434Y-91090970D01*
X99191434Y-91090970D02*
X99259167Y-91023237D01*
X99259167Y-91023237D02*
X99360767Y-90989370D01*
X99360767Y-90989370D02*
X99428500Y-90989370D01*
X99428500Y-90989370D02*
X99530100Y-91023237D01*
X99530100Y-91023237D02*
X99563967Y-91057104D01*
X99902634Y-91700570D02*
X100038100Y-91700570D01*
X100038100Y-91700570D02*
X100105834Y-91666704D01*
X100105834Y-91666704D02*
X100139700Y-91632837D01*
X100139700Y-91632837D02*
X100207434Y-91531237D01*
X100207434Y-91531237D02*
X100241300Y-91395770D01*
X100241300Y-91395770D02*
X100241300Y-91124837D01*
X100241300Y-91124837D02*
X100207434Y-91057104D01*
X100207434Y-91057104D02*
X100173567Y-91023237D01*
X100173567Y-91023237D02*
X100105834Y-90989370D01*
X100105834Y-90989370D02*
X99970367Y-90989370D01*
X99970367Y-90989370D02*
X99902634Y-91023237D01*
X99902634Y-91023237D02*
X99868767Y-91057104D01*
X99868767Y-91057104D02*
X99834900Y-91124837D01*
X99834900Y-91124837D02*
X99834900Y-91294170D01*
X99834900Y-91294170D02*
X99868767Y-91361904D01*
X99868767Y-91361904D02*
X99902634Y-91395770D01*
X99902634Y-91395770D02*
X99970367Y-91429637D01*
X99970367Y-91429637D02*
X100105834Y-91429637D01*
X100105834Y-91429637D02*
X100173567Y-91395770D01*
X100173567Y-91395770D02*
X100207434Y-91361904D01*
X100207434Y-91361904D02*
X100241300Y-91294170D01*
X107308070Y-100724699D02*
X106969404Y-100961766D01*
X107308070Y-101131099D02*
X106596870Y-101131099D01*
X106596870Y-101131099D02*
X106596870Y-100860166D01*
X106596870Y-100860166D02*
X106630737Y-100792433D01*
X106630737Y-100792433D02*
X106664604Y-100758566D01*
X106664604Y-100758566D02*
X106732337Y-100724699D01*
X106732337Y-100724699D02*
X106833937Y-100724699D01*
X106833937Y-100724699D02*
X106901670Y-100758566D01*
X106901670Y-100758566D02*
X106935537Y-100792433D01*
X106935537Y-100792433D02*
X106969404Y-100860166D01*
X106969404Y-100860166D02*
X106969404Y-101131099D01*
X107308070Y-100047366D02*
X107308070Y-100453766D01*
X107308070Y-100250566D02*
X106596870Y-100250566D01*
X106596870Y-100250566D02*
X106698470Y-100318299D01*
X106698470Y-100318299D02*
X106766204Y-100386033D01*
X106766204Y-100386033D02*
X106800070Y-100453766D01*
X107308070Y-99370033D02*
X107308070Y-99776433D01*
X107308070Y-99573233D02*
X106596870Y-99573233D01*
X106596870Y-99573233D02*
X106698470Y-99640966D01*
X106698470Y-99640966D02*
X106766204Y-99708700D01*
X106766204Y-99708700D02*
X106800070Y-99776433D01*
X112705570Y-92537432D02*
X111994370Y-92537432D01*
X111994370Y-92537432D02*
X111994370Y-92368099D01*
X111994370Y-92368099D02*
X112028237Y-92266499D01*
X112028237Y-92266499D02*
X112095970Y-92198766D01*
X112095970Y-92198766D02*
X112163704Y-92164899D01*
X112163704Y-92164899D02*
X112299170Y-92131032D01*
X112299170Y-92131032D02*
X112400770Y-92131032D01*
X112400770Y-92131032D02*
X112536237Y-92164899D01*
X112536237Y-92164899D02*
X112603970Y-92198766D01*
X112603970Y-92198766D02*
X112671704Y-92266499D01*
X112671704Y-92266499D02*
X112705570Y-92368099D01*
X112705570Y-92368099D02*
X112705570Y-92537432D01*
X112705570Y-91453699D02*
X112705570Y-91860099D01*
X112705570Y-91656899D02*
X111994370Y-91656899D01*
X111994370Y-91656899D02*
X112095970Y-91724632D01*
X112095970Y-91724632D02*
X112163704Y-91792366D01*
X112163704Y-91792366D02*
X112197570Y-91860099D01*
X79222800Y-85600337D02*
X79188933Y-85634204D01*
X79188933Y-85634204D02*
X79087333Y-85668070D01*
X79087333Y-85668070D02*
X79019600Y-85668070D01*
X79019600Y-85668070D02*
X78918000Y-85634204D01*
X78918000Y-85634204D02*
X78850267Y-85566470D01*
X78850267Y-85566470D02*
X78816400Y-85498737D01*
X78816400Y-85498737D02*
X78782533Y-85363270D01*
X78782533Y-85363270D02*
X78782533Y-85261670D01*
X78782533Y-85261670D02*
X78816400Y-85126204D01*
X78816400Y-85126204D02*
X78850267Y-85058470D01*
X78850267Y-85058470D02*
X78918000Y-84990737D01*
X78918000Y-84990737D02*
X79019600Y-84956870D01*
X79019600Y-84956870D02*
X79087333Y-84956870D01*
X79087333Y-84956870D02*
X79188933Y-84990737D01*
X79188933Y-84990737D02*
X79222800Y-85024604D01*
X79900133Y-85668070D02*
X79493733Y-85668070D01*
X79696933Y-85668070D02*
X79696933Y-84956870D01*
X79696933Y-84956870D02*
X79629200Y-85058470D01*
X79629200Y-85058470D02*
X79561467Y-85126204D01*
X79561467Y-85126204D02*
X79493733Y-85160070D01*
X80577466Y-85668070D02*
X80171066Y-85668070D01*
X80374266Y-85668070D02*
X80374266Y-84956870D01*
X80374266Y-84956870D02*
X80306533Y-85058470D01*
X80306533Y-85058470D02*
X80238800Y-85126204D01*
X80238800Y-85126204D02*
X80171066Y-85160070D01*
X99246467Y-79885337D02*
X99212600Y-79919204D01*
X99212600Y-79919204D02*
X99111000Y-79953070D01*
X99111000Y-79953070D02*
X99043267Y-79953070D01*
X99043267Y-79953070D02*
X98941667Y-79919204D01*
X98941667Y-79919204D02*
X98873934Y-79851470D01*
X98873934Y-79851470D02*
X98840067Y-79783737D01*
X98840067Y-79783737D02*
X98806200Y-79648270D01*
X98806200Y-79648270D02*
X98806200Y-79546670D01*
X98806200Y-79546670D02*
X98840067Y-79411204D01*
X98840067Y-79411204D02*
X98873934Y-79343470D01*
X98873934Y-79343470D02*
X98941667Y-79275737D01*
X98941667Y-79275737D02*
X99043267Y-79241870D01*
X99043267Y-79241870D02*
X99111000Y-79241870D01*
X99111000Y-79241870D02*
X99212600Y-79275737D01*
X99212600Y-79275737D02*
X99246467Y-79309604D01*
X99483534Y-79241870D02*
X99957667Y-79241870D01*
X99957667Y-79241870D02*
X99652867Y-79953070D01*
X90480570Y-85463532D02*
X90141904Y-85700599D01*
X90480570Y-85869932D02*
X89769370Y-85869932D01*
X89769370Y-85869932D02*
X89769370Y-85598999D01*
X89769370Y-85598999D02*
X89803237Y-85531266D01*
X89803237Y-85531266D02*
X89837104Y-85497399D01*
X89837104Y-85497399D02*
X89904837Y-85463532D01*
X89904837Y-85463532D02*
X90006437Y-85463532D01*
X90006437Y-85463532D02*
X90074170Y-85497399D01*
X90074170Y-85497399D02*
X90108037Y-85531266D01*
X90108037Y-85531266D02*
X90141904Y-85598999D01*
X90141904Y-85598999D02*
X90141904Y-85869932D01*
X90074170Y-85057132D02*
X90040304Y-85124866D01*
X90040304Y-85124866D02*
X90006437Y-85158732D01*
X90006437Y-85158732D02*
X89938704Y-85192599D01*
X89938704Y-85192599D02*
X89904837Y-85192599D01*
X89904837Y-85192599D02*
X89837104Y-85158732D01*
X89837104Y-85158732D02*
X89803237Y-85124866D01*
X89803237Y-85124866D02*
X89769370Y-85057132D01*
X89769370Y-85057132D02*
X89769370Y-84921666D01*
X89769370Y-84921666D02*
X89803237Y-84853932D01*
X89803237Y-84853932D02*
X89837104Y-84820066D01*
X89837104Y-84820066D02*
X89904837Y-84786199D01*
X89904837Y-84786199D02*
X89938704Y-84786199D01*
X89938704Y-84786199D02*
X90006437Y-84820066D01*
X90006437Y-84820066D02*
X90040304Y-84853932D01*
X90040304Y-84853932D02*
X90074170Y-84921666D01*
X90074170Y-84921666D02*
X90074170Y-85057132D01*
X90074170Y-85057132D02*
X90108037Y-85124866D01*
X90108037Y-85124866D02*
X90141904Y-85158732D01*
X90141904Y-85158732D02*
X90209637Y-85192599D01*
X90209637Y-85192599D02*
X90345104Y-85192599D01*
X90345104Y-85192599D02*
X90412837Y-85158732D01*
X90412837Y-85158732D02*
X90446704Y-85124866D01*
X90446704Y-85124866D02*
X90480570Y-85057132D01*
X90480570Y-85057132D02*
X90480570Y-84921666D01*
X90480570Y-84921666D02*
X90446704Y-84853932D01*
X90446704Y-84853932D02*
X90412837Y-84820066D01*
X90412837Y-84820066D02*
X90345104Y-84786199D01*
X90345104Y-84786199D02*
X90209637Y-84786199D01*
X90209637Y-84786199D02*
X90141904Y-84820066D01*
X90141904Y-84820066D02*
X90108037Y-84853932D01*
X90108037Y-84853932D02*
X90074170Y-84921666D01*
X112581467Y-79635570D02*
X112344400Y-79296904D01*
X112175067Y-79635570D02*
X112175067Y-78924370D01*
X112175067Y-78924370D02*
X112446000Y-78924370D01*
X112446000Y-78924370D02*
X112513734Y-78958237D01*
X112513734Y-78958237D02*
X112547600Y-78992104D01*
X112547600Y-78992104D02*
X112581467Y-79059837D01*
X112581467Y-79059837D02*
X112581467Y-79161437D01*
X112581467Y-79161437D02*
X112547600Y-79229170D01*
X112547600Y-79229170D02*
X112513734Y-79263037D01*
X112513734Y-79263037D02*
X112446000Y-79296904D01*
X112446000Y-79296904D02*
X112175067Y-79296904D01*
X113191067Y-79161437D02*
X113191067Y-79635570D01*
X113021734Y-78890504D02*
X112852400Y-79398504D01*
X112852400Y-79398504D02*
X113292667Y-79398504D01*
X112263967Y-82175570D02*
X112026900Y-81836904D01*
X111857567Y-82175570D02*
X111857567Y-81464370D01*
X111857567Y-81464370D02*
X112128500Y-81464370D01*
X112128500Y-81464370D02*
X112196234Y-81498237D01*
X112196234Y-81498237D02*
X112230100Y-81532104D01*
X112230100Y-81532104D02*
X112263967Y-81599837D01*
X112263967Y-81599837D02*
X112263967Y-81701437D01*
X112263967Y-81701437D02*
X112230100Y-81769170D01*
X112230100Y-81769170D02*
X112196234Y-81803037D01*
X112196234Y-81803037D02*
X112128500Y-81836904D01*
X112128500Y-81836904D02*
X111857567Y-81836904D01*
X112907434Y-81464370D02*
X112568767Y-81464370D01*
X112568767Y-81464370D02*
X112534900Y-81803037D01*
X112534900Y-81803037D02*
X112568767Y-81769170D01*
X112568767Y-81769170D02*
X112636500Y-81735304D01*
X112636500Y-81735304D02*
X112805834Y-81735304D01*
X112805834Y-81735304D02*
X112873567Y-81769170D01*
X112873567Y-81769170D02*
X112907434Y-81803037D01*
X112907434Y-81803037D02*
X112941300Y-81870770D01*
X112941300Y-81870770D02*
X112941300Y-82040104D01*
X112941300Y-82040104D02*
X112907434Y-82107837D01*
X112907434Y-82107837D02*
X112873567Y-82141704D01*
X112873567Y-82141704D02*
X112805834Y-82175570D01*
X112805834Y-82175570D02*
X112636500Y-82175570D01*
X112636500Y-82175570D02*
X112568767Y-82141704D01*
X112568767Y-82141704D02*
X112534900Y-82107837D01*
X108136467Y-79000570D02*
X107797800Y-79000570D01*
X107797800Y-79000570D02*
X107797800Y-78289370D01*
X108339666Y-78357104D02*
X108373533Y-78323237D01*
X108373533Y-78323237D02*
X108441266Y-78289370D01*
X108441266Y-78289370D02*
X108610600Y-78289370D01*
X108610600Y-78289370D02*
X108678333Y-78323237D01*
X108678333Y-78323237D02*
X108712200Y-78357104D01*
X108712200Y-78357104D02*
X108746066Y-78424837D01*
X108746066Y-78424837D02*
X108746066Y-78492570D01*
X108746066Y-78492570D02*
X108712200Y-78594170D01*
X108712200Y-78594170D02*
X108305800Y-79000570D01*
X108305800Y-79000570D02*
X108746066Y-79000570D01*
X95753967Y-97415570D02*
X95415300Y-97415570D01*
X95415300Y-97415570D02*
X95415300Y-96704370D01*
X95923300Y-96704370D02*
X96397433Y-96704370D01*
X96397433Y-96704370D02*
X96092633Y-97415570D01*
X102103967Y-82425337D02*
X102070100Y-82459204D01*
X102070100Y-82459204D02*
X101968500Y-82493070D01*
X101968500Y-82493070D02*
X101900767Y-82493070D01*
X101900767Y-82493070D02*
X101799167Y-82459204D01*
X101799167Y-82459204D02*
X101731434Y-82391470D01*
X101731434Y-82391470D02*
X101697567Y-82323737D01*
X101697567Y-82323737D02*
X101663700Y-82188270D01*
X101663700Y-82188270D02*
X101663700Y-82086670D01*
X101663700Y-82086670D02*
X101697567Y-81951204D01*
X101697567Y-81951204D02*
X101731434Y-81883470D01*
X101731434Y-81883470D02*
X101799167Y-81815737D01*
X101799167Y-81815737D02*
X101900767Y-81781870D01*
X101900767Y-81781870D02*
X101968500Y-81781870D01*
X101968500Y-81781870D02*
X102070100Y-81815737D01*
X102070100Y-81815737D02*
X102103967Y-81849604D01*
X102747434Y-81781870D02*
X102408767Y-81781870D01*
X102408767Y-81781870D02*
X102374900Y-82120537D01*
X102374900Y-82120537D02*
X102408767Y-82086670D01*
X102408767Y-82086670D02*
X102476500Y-82052804D01*
X102476500Y-82052804D02*
X102645834Y-82052804D01*
X102645834Y-82052804D02*
X102713567Y-82086670D01*
X102713567Y-82086670D02*
X102747434Y-82120537D01*
X102747434Y-82120537D02*
X102781300Y-82188270D01*
X102781300Y-82188270D02*
X102781300Y-82357604D01*
X102781300Y-82357604D02*
X102747434Y-82425337D01*
X102747434Y-82425337D02*
X102713567Y-82459204D01*
X102713567Y-82459204D02*
X102645834Y-82493070D01*
X102645834Y-82493070D02*
X102476500Y-82493070D01*
X102476500Y-82493070D02*
X102408767Y-82459204D01*
X102408767Y-82459204D02*
X102374900Y-82425337D01*
X113590337Y-88003532D02*
X113624204Y-88037399D01*
X113624204Y-88037399D02*
X113658070Y-88138999D01*
X113658070Y-88138999D02*
X113658070Y-88206732D01*
X113658070Y-88206732D02*
X113624204Y-88308332D01*
X113624204Y-88308332D02*
X113556470Y-88376066D01*
X113556470Y-88376066D02*
X113488737Y-88409932D01*
X113488737Y-88409932D02*
X113353270Y-88443799D01*
X113353270Y-88443799D02*
X113251670Y-88443799D01*
X113251670Y-88443799D02*
X113116204Y-88409932D01*
X113116204Y-88409932D02*
X113048470Y-88376066D01*
X113048470Y-88376066D02*
X112980737Y-88308332D01*
X112980737Y-88308332D02*
X112946870Y-88206732D01*
X112946870Y-88206732D02*
X112946870Y-88138999D01*
X112946870Y-88138999D02*
X112980737Y-88037399D01*
X112980737Y-88037399D02*
X113014604Y-88003532D01*
X113014604Y-87732599D02*
X112980737Y-87698732D01*
X112980737Y-87698732D02*
X112946870Y-87630999D01*
X112946870Y-87630999D02*
X112946870Y-87461666D01*
X112946870Y-87461666D02*
X112980737Y-87393932D01*
X112980737Y-87393932D02*
X113014604Y-87360066D01*
X113014604Y-87360066D02*
X113082337Y-87326199D01*
X113082337Y-87326199D02*
X113150070Y-87326199D01*
X113150070Y-87326199D02*
X113251670Y-87360066D01*
X113251670Y-87360066D02*
X113658070Y-87766466D01*
X113658070Y-87766466D02*
X113658070Y-87326199D01*
X111118070Y-101042199D02*
X110779404Y-101279266D01*
X111118070Y-101448599D02*
X110406870Y-101448599D01*
X110406870Y-101448599D02*
X110406870Y-101177666D01*
X110406870Y-101177666D02*
X110440737Y-101109933D01*
X110440737Y-101109933D02*
X110474604Y-101076066D01*
X110474604Y-101076066D02*
X110542337Y-101042199D01*
X110542337Y-101042199D02*
X110643937Y-101042199D01*
X110643937Y-101042199D02*
X110711670Y-101076066D01*
X110711670Y-101076066D02*
X110745537Y-101109933D01*
X110745537Y-101109933D02*
X110779404Y-101177666D01*
X110779404Y-101177666D02*
X110779404Y-101448599D01*
X111118070Y-100364866D02*
X111118070Y-100771266D01*
X111118070Y-100568066D02*
X110406870Y-100568066D01*
X110406870Y-100568066D02*
X110508470Y-100635799D01*
X110508470Y-100635799D02*
X110576204Y-100703533D01*
X110576204Y-100703533D02*
X110610070Y-100771266D01*
X110474604Y-100093933D02*
X110440737Y-100060066D01*
X110440737Y-100060066D02*
X110406870Y-99992333D01*
X110406870Y-99992333D02*
X110406870Y-99823000D01*
X110406870Y-99823000D02*
X110440737Y-99755266D01*
X110440737Y-99755266D02*
X110474604Y-99721400D01*
X110474604Y-99721400D02*
X110542337Y-99687533D01*
X110542337Y-99687533D02*
X110610070Y-99687533D01*
X110610070Y-99687533D02*
X110711670Y-99721400D01*
X110711670Y-99721400D02*
X111118070Y-100127800D01*
X111118070Y-100127800D02*
X111118070Y-99687533D01*
X118103070Y-88003532D02*
X117764404Y-88240599D01*
X118103070Y-88409932D02*
X117391870Y-88409932D01*
X117391870Y-88409932D02*
X117391870Y-88138999D01*
X117391870Y-88138999D02*
X117425737Y-88071266D01*
X117425737Y-88071266D02*
X117459604Y-88037399D01*
X117459604Y-88037399D02*
X117527337Y-88003532D01*
X117527337Y-88003532D02*
X117628937Y-88003532D01*
X117628937Y-88003532D02*
X117696670Y-88037399D01*
X117696670Y-88037399D02*
X117730537Y-88071266D01*
X117730537Y-88071266D02*
X117764404Y-88138999D01*
X117764404Y-88138999D02*
X117764404Y-88409932D01*
X118103070Y-87326199D02*
X118103070Y-87732599D01*
X118103070Y-87529399D02*
X117391870Y-87529399D01*
X117391870Y-87529399D02*
X117493470Y-87597132D01*
X117493470Y-87597132D02*
X117561204Y-87664866D01*
X117561204Y-87664866D02*
X117595070Y-87732599D01*
X107943070Y-90543532D02*
X107604404Y-90780599D01*
X107943070Y-90949932D02*
X107231870Y-90949932D01*
X107231870Y-90949932D02*
X107231870Y-90678999D01*
X107231870Y-90678999D02*
X107265737Y-90611266D01*
X107265737Y-90611266D02*
X107299604Y-90577399D01*
X107299604Y-90577399D02*
X107367337Y-90543532D01*
X107367337Y-90543532D02*
X107468937Y-90543532D01*
X107468937Y-90543532D02*
X107536670Y-90577399D01*
X107536670Y-90577399D02*
X107570537Y-90611266D01*
X107570537Y-90611266D02*
X107604404Y-90678999D01*
X107604404Y-90678999D02*
X107604404Y-90949932D01*
X107231870Y-89933932D02*
X107231870Y-90069399D01*
X107231870Y-90069399D02*
X107265737Y-90137132D01*
X107265737Y-90137132D02*
X107299604Y-90170999D01*
X107299604Y-90170999D02*
X107401204Y-90238732D01*
X107401204Y-90238732D02*
X107536670Y-90272599D01*
X107536670Y-90272599D02*
X107807604Y-90272599D01*
X107807604Y-90272599D02*
X107875337Y-90238732D01*
X107875337Y-90238732D02*
X107909204Y-90204866D01*
X107909204Y-90204866D02*
X107943070Y-90137132D01*
X107943070Y-90137132D02*
X107943070Y-90001666D01*
X107943070Y-90001666D02*
X107909204Y-89933932D01*
X107909204Y-89933932D02*
X107875337Y-89900066D01*
X107875337Y-89900066D02*
X107807604Y-89866199D01*
X107807604Y-89866199D02*
X107638270Y-89866199D01*
X107638270Y-89866199D02*
X107570537Y-89900066D01*
X107570537Y-89900066D02*
X107536670Y-89933932D01*
X107536670Y-89933932D02*
X107502804Y-90001666D01*
X107502804Y-90001666D02*
X107502804Y-90137132D01*
X107502804Y-90137132D02*
X107536670Y-90204866D01*
X107536670Y-90204866D02*
X107570537Y-90238732D01*
X107570537Y-90238732D02*
X107638270Y-90272599D01*
X86842800Y-88843070D02*
X86605733Y-88504404D01*
X86436400Y-88843070D02*
X86436400Y-88131870D01*
X86436400Y-88131870D02*
X86707333Y-88131870D01*
X86707333Y-88131870D02*
X86775067Y-88165737D01*
X86775067Y-88165737D02*
X86808933Y-88199604D01*
X86808933Y-88199604D02*
X86842800Y-88267337D01*
X86842800Y-88267337D02*
X86842800Y-88368937D01*
X86842800Y-88368937D02*
X86808933Y-88436670D01*
X86808933Y-88436670D02*
X86775067Y-88470537D01*
X86775067Y-88470537D02*
X86707333Y-88504404D01*
X86707333Y-88504404D02*
X86436400Y-88504404D01*
X87520133Y-88843070D02*
X87113733Y-88843070D01*
X87316933Y-88843070D02*
X87316933Y-88131870D01*
X87316933Y-88131870D02*
X87249200Y-88233470D01*
X87249200Y-88233470D02*
X87181467Y-88301204D01*
X87181467Y-88301204D02*
X87113733Y-88335070D01*
X87757200Y-88131870D02*
X88197466Y-88131870D01*
X88197466Y-88131870D02*
X87960400Y-88402804D01*
X87960400Y-88402804D02*
X88062000Y-88402804D01*
X88062000Y-88402804D02*
X88129733Y-88436670D01*
X88129733Y-88436670D02*
X88163600Y-88470537D01*
X88163600Y-88470537D02*
X88197466Y-88538270D01*
X88197466Y-88538270D02*
X88197466Y-88707604D01*
X88197466Y-88707604D02*
X88163600Y-88775337D01*
X88163600Y-88775337D02*
X88129733Y-88809204D01*
X88129733Y-88809204D02*
X88062000Y-88843070D01*
X88062000Y-88843070D02*
X87858800Y-88843070D01*
X87858800Y-88843070D02*
X87791066Y-88809204D01*
X87791066Y-88809204D02*
X87757200Y-88775337D01*
X81678133Y-80194370D02*
X81678133Y-80770104D01*
X81678133Y-80770104D02*
X81712000Y-80837837D01*
X81712000Y-80837837D02*
X81745866Y-80871704D01*
X81745866Y-80871704D02*
X81813600Y-80905570D01*
X81813600Y-80905570D02*
X81949066Y-80905570D01*
X81949066Y-80905570D02*
X82016800Y-80871704D01*
X82016800Y-80871704D02*
X82050666Y-80837837D01*
X82050666Y-80837837D02*
X82084533Y-80770104D01*
X82084533Y-80770104D02*
X82084533Y-80194370D01*
X82389333Y-80262104D02*
X82423200Y-80228237D01*
X82423200Y-80228237D02*
X82490933Y-80194370D01*
X82490933Y-80194370D02*
X82660267Y-80194370D01*
X82660267Y-80194370D02*
X82728000Y-80228237D01*
X82728000Y-80228237D02*
X82761867Y-80262104D01*
X82761867Y-80262104D02*
X82795733Y-80329837D01*
X82795733Y-80329837D02*
X82795733Y-80397570D01*
X82795733Y-80397570D02*
X82761867Y-80499170D01*
X82761867Y-80499170D02*
X82355467Y-80905570D01*
X82355467Y-80905570D02*
X82795733Y-80905570D01*
X99542800Y-102745337D02*
X99508933Y-102779204D01*
X99508933Y-102779204D02*
X99407333Y-102813070D01*
X99407333Y-102813070D02*
X99339600Y-102813070D01*
X99339600Y-102813070D02*
X99238000Y-102779204D01*
X99238000Y-102779204D02*
X99170267Y-102711470D01*
X99170267Y-102711470D02*
X99136400Y-102643737D01*
X99136400Y-102643737D02*
X99102533Y-102508270D01*
X99102533Y-102508270D02*
X99102533Y-102406670D01*
X99102533Y-102406670D02*
X99136400Y-102271204D01*
X99136400Y-102271204D02*
X99170267Y-102203470D01*
X99170267Y-102203470D02*
X99238000Y-102135737D01*
X99238000Y-102135737D02*
X99339600Y-102101870D01*
X99339600Y-102101870D02*
X99407333Y-102101870D01*
X99407333Y-102101870D02*
X99508933Y-102135737D01*
X99508933Y-102135737D02*
X99542800Y-102169604D01*
X100220133Y-102813070D02*
X99813733Y-102813070D01*
X100016933Y-102813070D02*
X100016933Y-102101870D01*
X100016933Y-102101870D02*
X99949200Y-102203470D01*
X99949200Y-102203470D02*
X99881467Y-102271204D01*
X99881467Y-102271204D02*
X99813733Y-102305070D01*
X100829733Y-102101870D02*
X100694266Y-102101870D01*
X100694266Y-102101870D02*
X100626533Y-102135737D01*
X100626533Y-102135737D02*
X100592666Y-102169604D01*
X100592666Y-102169604D02*
X100524933Y-102271204D01*
X100524933Y-102271204D02*
X100491066Y-102406670D01*
X100491066Y-102406670D02*
X100491066Y-102677604D01*
X100491066Y-102677604D02*
X100524933Y-102745337D01*
X100524933Y-102745337D02*
X100558800Y-102779204D01*
X100558800Y-102779204D02*
X100626533Y-102813070D01*
X100626533Y-102813070D02*
X100762000Y-102813070D01*
X100762000Y-102813070D02*
X100829733Y-102779204D01*
X100829733Y-102779204D02*
X100863600Y-102745337D01*
X100863600Y-102745337D02*
X100897466Y-102677604D01*
X100897466Y-102677604D02*
X100897466Y-102508270D01*
X100897466Y-102508270D02*
X100863600Y-102440537D01*
X100863600Y-102440537D02*
X100829733Y-102406670D01*
X100829733Y-102406670D02*
X100762000Y-102372804D01*
X100762000Y-102372804D02*
X100626533Y-102372804D01*
X100626533Y-102372804D02*
X100558800Y-102406670D01*
X100558800Y-102406670D02*
X100524933Y-102440537D01*
X100524933Y-102440537D02*
X100491066Y-102508270D01*
X103920067Y-81540570D02*
X103920067Y-80829370D01*
X103920067Y-80829370D02*
X104089400Y-80829370D01*
X104089400Y-80829370D02*
X104191000Y-80863237D01*
X104191000Y-80863237D02*
X104258734Y-80930970D01*
X104258734Y-80930970D02*
X104292600Y-80998704D01*
X104292600Y-80998704D02*
X104326467Y-81134170D01*
X104326467Y-81134170D02*
X104326467Y-81235770D01*
X104326467Y-81235770D02*
X104292600Y-81371237D01*
X104292600Y-81371237D02*
X104258734Y-81438970D01*
X104258734Y-81438970D02*
X104191000Y-81506704D01*
X104191000Y-81506704D02*
X104089400Y-81540570D01*
X104089400Y-81540570D02*
X103920067Y-81540570D01*
X104563534Y-80829370D02*
X105003800Y-80829370D01*
X105003800Y-80829370D02*
X104766734Y-81100304D01*
X104766734Y-81100304D02*
X104868334Y-81100304D01*
X104868334Y-81100304D02*
X104936067Y-81134170D01*
X104936067Y-81134170D02*
X104969934Y-81168037D01*
X104969934Y-81168037D02*
X105003800Y-81235770D01*
X105003800Y-81235770D02*
X105003800Y-81405104D01*
X105003800Y-81405104D02*
X104969934Y-81472837D01*
X104969934Y-81472837D02*
X104936067Y-81506704D01*
X104936067Y-81506704D02*
X104868334Y-81540570D01*
X104868334Y-81540570D02*
X104665134Y-81540570D01*
X104665134Y-81540570D02*
X104597400Y-81506704D01*
X104597400Y-81506704D02*
X104563534Y-81472837D01*
X118420570Y-96576033D02*
X118420570Y-96914699D01*
X118420570Y-96914699D02*
X117709370Y-96914699D01*
X117709370Y-96000300D02*
X117709370Y-96338966D01*
X117709370Y-96338966D02*
X118048037Y-96372833D01*
X118048037Y-96372833D02*
X118014170Y-96338966D01*
X118014170Y-96338966D02*
X117980304Y-96271233D01*
X117980304Y-96271233D02*
X117980304Y-96101900D01*
X117980304Y-96101900D02*
X118014170Y-96034166D01*
X118014170Y-96034166D02*
X118048037Y-96000300D01*
X118048037Y-96000300D02*
X118115770Y-95966433D01*
X118115770Y-95966433D02*
X118285104Y-95966433D01*
X118285104Y-95966433D02*
X118352837Y-96000300D01*
X118352837Y-96000300D02*
X118386704Y-96034166D01*
X118386704Y-96034166D02*
X118420570Y-96101900D01*
X118420570Y-96101900D02*
X118420570Y-96271233D01*
X118420570Y-96271233D02*
X118386704Y-96338966D01*
X118386704Y-96338966D02*
X118352837Y-96372833D01*
X118738070Y-84193533D02*
X118738070Y-84532199D01*
X118738070Y-84532199D02*
X118026870Y-84532199D01*
X118738070Y-83583933D02*
X118738070Y-83990333D01*
X118738070Y-83787133D02*
X118026870Y-83787133D01*
X118026870Y-83787133D02*
X118128470Y-83854866D01*
X118128470Y-83854866D02*
X118196204Y-83922600D01*
X118196204Y-83922600D02*
X118230070Y-83990333D01*
X80492800Y-97665337D02*
X80458933Y-97699204D01*
X80458933Y-97699204D02*
X80357333Y-97733070D01*
X80357333Y-97733070D02*
X80289600Y-97733070D01*
X80289600Y-97733070D02*
X80188000Y-97699204D01*
X80188000Y-97699204D02*
X80120267Y-97631470D01*
X80120267Y-97631470D02*
X80086400Y-97563737D01*
X80086400Y-97563737D02*
X80052533Y-97428270D01*
X80052533Y-97428270D02*
X80052533Y-97326670D01*
X80052533Y-97326670D02*
X80086400Y-97191204D01*
X80086400Y-97191204D02*
X80120267Y-97123470D01*
X80120267Y-97123470D02*
X80188000Y-97055737D01*
X80188000Y-97055737D02*
X80289600Y-97021870D01*
X80289600Y-97021870D02*
X80357333Y-97021870D01*
X80357333Y-97021870D02*
X80458933Y-97055737D01*
X80458933Y-97055737D02*
X80492800Y-97089604D01*
X80763733Y-97089604D02*
X80797600Y-97055737D01*
X80797600Y-97055737D02*
X80865333Y-97021870D01*
X80865333Y-97021870D02*
X81034667Y-97021870D01*
X81034667Y-97021870D02*
X81102400Y-97055737D01*
X81102400Y-97055737D02*
X81136267Y-97089604D01*
X81136267Y-97089604D02*
X81170133Y-97157337D01*
X81170133Y-97157337D02*
X81170133Y-97225070D01*
X81170133Y-97225070D02*
X81136267Y-97326670D01*
X81136267Y-97326670D02*
X80729867Y-97733070D01*
X80729867Y-97733070D02*
X81170133Y-97733070D01*
X81441066Y-97089604D02*
X81474933Y-97055737D01*
X81474933Y-97055737D02*
X81542666Y-97021870D01*
X81542666Y-97021870D02*
X81712000Y-97021870D01*
X81712000Y-97021870D02*
X81779733Y-97055737D01*
X81779733Y-97055737D02*
X81813600Y-97089604D01*
X81813600Y-97089604D02*
X81847466Y-97157337D01*
X81847466Y-97157337D02*
X81847466Y-97225070D01*
X81847466Y-97225070D02*
X81813600Y-97326670D01*
X81813600Y-97326670D02*
X81407200Y-97733070D01*
X81407200Y-97733070D02*
X81847466Y-97733070D01*
X102738967Y-91065570D02*
X102400300Y-91065570D01*
X102400300Y-91065570D02*
X102400300Y-90354370D01*
X102908300Y-90354370D02*
X103348566Y-90354370D01*
X103348566Y-90354370D02*
X103111500Y-90625304D01*
X103111500Y-90625304D02*
X103213100Y-90625304D01*
X103213100Y-90625304D02*
X103280833Y-90659170D01*
X103280833Y-90659170D02*
X103314700Y-90693037D01*
X103314700Y-90693037D02*
X103348566Y-90760770D01*
X103348566Y-90760770D02*
X103348566Y-90930104D01*
X103348566Y-90930104D02*
X103314700Y-90997837D01*
X103314700Y-90997837D02*
X103280833Y-91031704D01*
X103280833Y-91031704D02*
X103213100Y-91065570D01*
X103213100Y-91065570D02*
X103009900Y-91065570D01*
X103009900Y-91065570D02*
X102942166Y-91031704D01*
X102942166Y-91031704D02*
X102908300Y-90997837D01*
X100198967Y-82425337D02*
X100165100Y-82459204D01*
X100165100Y-82459204D02*
X100063500Y-82493070D01*
X100063500Y-82493070D02*
X99995767Y-82493070D01*
X99995767Y-82493070D02*
X99894167Y-82459204D01*
X99894167Y-82459204D02*
X99826434Y-82391470D01*
X99826434Y-82391470D02*
X99792567Y-82323737D01*
X99792567Y-82323737D02*
X99758700Y-82188270D01*
X99758700Y-82188270D02*
X99758700Y-82086670D01*
X99758700Y-82086670D02*
X99792567Y-81951204D01*
X99792567Y-81951204D02*
X99826434Y-81883470D01*
X99826434Y-81883470D02*
X99894167Y-81815737D01*
X99894167Y-81815737D02*
X99995767Y-81781870D01*
X99995767Y-81781870D02*
X100063500Y-81781870D01*
X100063500Y-81781870D02*
X100165100Y-81815737D01*
X100165100Y-81815737D02*
X100198967Y-81849604D01*
X100808567Y-81781870D02*
X100673100Y-81781870D01*
X100673100Y-81781870D02*
X100605367Y-81815737D01*
X100605367Y-81815737D02*
X100571500Y-81849604D01*
X100571500Y-81849604D02*
X100503767Y-81951204D01*
X100503767Y-81951204D02*
X100469900Y-82086670D01*
X100469900Y-82086670D02*
X100469900Y-82357604D01*
X100469900Y-82357604D02*
X100503767Y-82425337D01*
X100503767Y-82425337D02*
X100537634Y-82459204D01*
X100537634Y-82459204D02*
X100605367Y-82493070D01*
X100605367Y-82493070D02*
X100740834Y-82493070D01*
X100740834Y-82493070D02*
X100808567Y-82459204D01*
X100808567Y-82459204D02*
X100842434Y-82425337D01*
X100842434Y-82425337D02*
X100876300Y-82357604D01*
X100876300Y-82357604D02*
X100876300Y-82188270D01*
X100876300Y-82188270D02*
X100842434Y-82120537D01*
X100842434Y-82120537D02*
X100808567Y-82086670D01*
X100808567Y-82086670D02*
X100740834Y-82052804D01*
X100740834Y-82052804D02*
X100605367Y-82052804D01*
X100605367Y-82052804D02*
X100537634Y-82086670D01*
X100537634Y-82086670D02*
X100503767Y-82120537D01*
X100503767Y-82120537D02*
X100469900Y-82188270D01*
X104065337Y-88003532D02*
X104099204Y-88037399D01*
X104099204Y-88037399D02*
X104133070Y-88138999D01*
X104133070Y-88138999D02*
X104133070Y-88206732D01*
X104133070Y-88206732D02*
X104099204Y-88308332D01*
X104099204Y-88308332D02*
X104031470Y-88376066D01*
X104031470Y-88376066D02*
X103963737Y-88409932D01*
X103963737Y-88409932D02*
X103828270Y-88443799D01*
X103828270Y-88443799D02*
X103726670Y-88443799D01*
X103726670Y-88443799D02*
X103591204Y-88409932D01*
X103591204Y-88409932D02*
X103523470Y-88376066D01*
X103523470Y-88376066D02*
X103455737Y-88308332D01*
X103455737Y-88308332D02*
X103421870Y-88206732D01*
X103421870Y-88206732D02*
X103421870Y-88138999D01*
X103421870Y-88138999D02*
X103455737Y-88037399D01*
X103455737Y-88037399D02*
X103489604Y-88003532D01*
X103658937Y-87393932D02*
X104133070Y-87393932D01*
X103388004Y-87563266D02*
X103896004Y-87732599D01*
X103896004Y-87732599D02*
X103896004Y-87292332D01*
X88112800Y-91950337D02*
X88078933Y-91984204D01*
X88078933Y-91984204D02*
X87977333Y-92018070D01*
X87977333Y-92018070D02*
X87909600Y-92018070D01*
X87909600Y-92018070D02*
X87808000Y-91984204D01*
X87808000Y-91984204D02*
X87740267Y-91916470D01*
X87740267Y-91916470D02*
X87706400Y-91848737D01*
X87706400Y-91848737D02*
X87672533Y-91713270D01*
X87672533Y-91713270D02*
X87672533Y-91611670D01*
X87672533Y-91611670D02*
X87706400Y-91476204D01*
X87706400Y-91476204D02*
X87740267Y-91408470D01*
X87740267Y-91408470D02*
X87808000Y-91340737D01*
X87808000Y-91340737D02*
X87909600Y-91306870D01*
X87909600Y-91306870D02*
X87977333Y-91306870D01*
X87977333Y-91306870D02*
X88078933Y-91340737D01*
X88078933Y-91340737D02*
X88112800Y-91374604D01*
X88383733Y-91374604D02*
X88417600Y-91340737D01*
X88417600Y-91340737D02*
X88485333Y-91306870D01*
X88485333Y-91306870D02*
X88654667Y-91306870D01*
X88654667Y-91306870D02*
X88722400Y-91340737D01*
X88722400Y-91340737D02*
X88756267Y-91374604D01*
X88756267Y-91374604D02*
X88790133Y-91442337D01*
X88790133Y-91442337D02*
X88790133Y-91510070D01*
X88790133Y-91510070D02*
X88756267Y-91611670D01*
X88756267Y-91611670D02*
X88349867Y-92018070D01*
X88349867Y-92018070D02*
X88790133Y-92018070D01*
X89467466Y-92018070D02*
X89061066Y-92018070D01*
X89264266Y-92018070D02*
X89264266Y-91306870D01*
X89264266Y-91306870D02*
X89196533Y-91408470D01*
X89196533Y-91408470D02*
X89128800Y-91476204D01*
X89128800Y-91476204D02*
X89061066Y-91510070D01*
X96071467Y-82175570D02*
X95732800Y-82175570D01*
X95732800Y-82175570D02*
X95732800Y-81464370D01*
X96613333Y-81701437D02*
X96613333Y-82175570D01*
X96444000Y-81430504D02*
X96274666Y-81938504D01*
X96274666Y-81938504D02*
X96714933Y-81938504D01*
X105652837Y-98502199D02*
X105686704Y-98536066D01*
X105686704Y-98536066D02*
X105720570Y-98637666D01*
X105720570Y-98637666D02*
X105720570Y-98705399D01*
X105720570Y-98705399D02*
X105686704Y-98806999D01*
X105686704Y-98806999D02*
X105618970Y-98874733D01*
X105618970Y-98874733D02*
X105551237Y-98908599D01*
X105551237Y-98908599D02*
X105415770Y-98942466D01*
X105415770Y-98942466D02*
X105314170Y-98942466D01*
X105314170Y-98942466D02*
X105178704Y-98908599D01*
X105178704Y-98908599D02*
X105110970Y-98874733D01*
X105110970Y-98874733D02*
X105043237Y-98806999D01*
X105043237Y-98806999D02*
X105009370Y-98705399D01*
X105009370Y-98705399D02*
X105009370Y-98637666D01*
X105009370Y-98637666D02*
X105043237Y-98536066D01*
X105043237Y-98536066D02*
X105077104Y-98502199D01*
X105720570Y-97824866D02*
X105720570Y-98231266D01*
X105720570Y-98028066D02*
X105009370Y-98028066D01*
X105009370Y-98028066D02*
X105110970Y-98095799D01*
X105110970Y-98095799D02*
X105178704Y-98163533D01*
X105178704Y-98163533D02*
X105212570Y-98231266D01*
X105009370Y-97181400D02*
X105009370Y-97520066D01*
X105009370Y-97520066D02*
X105348037Y-97553933D01*
X105348037Y-97553933D02*
X105314170Y-97520066D01*
X105314170Y-97520066D02*
X105280304Y-97452333D01*
X105280304Y-97452333D02*
X105280304Y-97283000D01*
X105280304Y-97283000D02*
X105314170Y-97215266D01*
X105314170Y-97215266D02*
X105348037Y-97181400D01*
X105348037Y-97181400D02*
X105415770Y-97147533D01*
X105415770Y-97147533D02*
X105585104Y-97147533D01*
X105585104Y-97147533D02*
X105652837Y-97181400D01*
X105652837Y-97181400D02*
X105686704Y-97215266D01*
X105686704Y-97215266D02*
X105720570Y-97283000D01*
X105720570Y-97283000D02*
X105720570Y-97452333D01*
X105720570Y-97452333D02*
X105686704Y-97520066D01*
X105686704Y-97520066D02*
X105652837Y-97553933D01*
D13*
%TO.C,R7*%
X112587742Y-89902500D02*
X113062258Y-89902500D01*
X112587742Y-90947500D02*
X113062258Y-90947500D01*
%TO.C,L8*%
X96482500Y-96312500D02*
X96482500Y-96162500D01*
X96482500Y-96312500D02*
X92962500Y-96312500D01*
X96482500Y-92792500D02*
X96482500Y-92942500D01*
X96482500Y-92792500D02*
X92962500Y-92792500D01*
X92962500Y-96312500D02*
X92962500Y-96162500D01*
X92962500Y-92792500D02*
X92962500Y-92942500D01*
%TO.C,C10*%
X93170199Y-87325000D02*
X93570199Y-87325000D01*
X93370199Y-87125000D02*
X93370199Y-87525000D01*
X95440000Y-86440000D02*
X95440000Y-87680000D01*
X95440000Y-89360000D02*
X95440000Y-90600000D01*
X95480000Y-86440000D02*
X95480000Y-87680000D01*
X95480000Y-89360000D02*
X95480000Y-90600000D01*
X95520000Y-86441000D02*
X95520000Y-87680000D01*
X95520000Y-89360000D02*
X95520000Y-90599000D01*
X95560000Y-86443000D02*
X95560000Y-87680000D01*
X95560000Y-89360000D02*
X95560000Y-90597000D01*
X95600000Y-86446000D02*
X95600000Y-87680000D01*
X95600000Y-89360000D02*
X95600000Y-90594000D01*
X95640000Y-86449000D02*
X95640000Y-87680000D01*
X95640000Y-89360000D02*
X95640000Y-90591000D01*
X95680000Y-86453000D02*
X95680000Y-87680000D01*
X95680000Y-89360000D02*
X95680000Y-90587000D01*
X95720000Y-86458000D02*
X95720000Y-87680000D01*
X95720000Y-89360000D02*
X95720000Y-90582000D01*
X95760000Y-86464000D02*
X95760000Y-87680000D01*
X95760000Y-89360000D02*
X95760000Y-90576000D01*
X95800000Y-86470000D02*
X95800000Y-87680000D01*
X95800000Y-89360000D02*
X95800000Y-90570000D01*
X95840000Y-86478000D02*
X95840000Y-87680000D01*
X95840000Y-89360000D02*
X95840000Y-90562000D01*
X95880000Y-86486000D02*
X95880000Y-87680000D01*
X95880000Y-89360000D02*
X95880000Y-90554000D01*
X95920000Y-86495000D02*
X95920000Y-87680000D01*
X95920000Y-89360000D02*
X95920000Y-90545000D01*
X95960000Y-86504000D02*
X95960000Y-87680000D01*
X95960000Y-89360000D02*
X95960000Y-90536000D01*
X96000000Y-86515000D02*
X96000000Y-87680000D01*
X96000000Y-89360000D02*
X96000000Y-90525000D01*
X96040000Y-86526000D02*
X96040000Y-87680000D01*
X96040000Y-89360000D02*
X96040000Y-90514000D01*
X96080000Y-86538000D02*
X96080000Y-87680000D01*
X96080000Y-89360000D02*
X96080000Y-90502000D01*
X96120000Y-86552000D02*
X96120000Y-87680000D01*
X96120000Y-89360000D02*
X96120000Y-90488000D01*
X96161000Y-86566000D02*
X96161000Y-87680000D01*
X96161000Y-89360000D02*
X96161000Y-90474000D01*
X96201000Y-86580000D02*
X96201000Y-87680000D01*
X96201000Y-89360000D02*
X96201000Y-90460000D01*
X96241000Y-86596000D02*
X96241000Y-87680000D01*
X96241000Y-89360000D02*
X96241000Y-90444000D01*
X96281000Y-86613000D02*
X96281000Y-87680000D01*
X96281000Y-89360000D02*
X96281000Y-90427000D01*
X96321000Y-86631000D02*
X96321000Y-87680000D01*
X96321000Y-89360000D02*
X96321000Y-90409000D01*
X96361000Y-86650000D02*
X96361000Y-87680000D01*
X96361000Y-89360000D02*
X96361000Y-90390000D01*
X96401000Y-86669000D02*
X96401000Y-87680000D01*
X96401000Y-89360000D02*
X96401000Y-90371000D01*
X96441000Y-86690000D02*
X96441000Y-87680000D01*
X96441000Y-89360000D02*
X96441000Y-90350000D01*
X96481000Y-86712000D02*
X96481000Y-87680000D01*
X96481000Y-89360000D02*
X96481000Y-90328000D01*
X96521000Y-86735000D02*
X96521000Y-87680000D01*
X96521000Y-89360000D02*
X96521000Y-90305000D01*
X96561000Y-86760000D02*
X96561000Y-87680000D01*
X96561000Y-89360000D02*
X96561000Y-90280000D01*
X96601000Y-86785000D02*
X96601000Y-87680000D01*
X96601000Y-89360000D02*
X96601000Y-90255000D01*
X96641000Y-86812000D02*
X96641000Y-87680000D01*
X96641000Y-89360000D02*
X96641000Y-90228000D01*
X96681000Y-86840000D02*
X96681000Y-87680000D01*
X96681000Y-89360000D02*
X96681000Y-90200000D01*
X96721000Y-86870000D02*
X96721000Y-87680000D01*
X96721000Y-89360000D02*
X96721000Y-90170000D01*
X96761000Y-86901000D02*
X96761000Y-87680000D01*
X96761000Y-89360000D02*
X96761000Y-90139000D01*
X96801000Y-86933000D02*
X96801000Y-87680000D01*
X96801000Y-89360000D02*
X96801000Y-90107000D01*
X96841000Y-86968000D02*
X96841000Y-87680000D01*
X96841000Y-89360000D02*
X96841000Y-90072000D01*
X96881000Y-87004000D02*
X96881000Y-87680000D01*
X96881000Y-89360000D02*
X96881000Y-90036000D01*
X96921000Y-87042000D02*
X96921000Y-87680000D01*
X96921000Y-89360000D02*
X96921000Y-89998000D01*
X96961000Y-87082000D02*
X96961000Y-87680000D01*
X96961000Y-89360000D02*
X96961000Y-89958000D01*
X97001000Y-87124000D02*
X97001000Y-87680000D01*
X97001000Y-89360000D02*
X97001000Y-89916000D01*
X97041000Y-87169000D02*
X97041000Y-89871000D01*
X97081000Y-87216000D02*
X97081000Y-89824000D01*
X97121000Y-87266000D02*
X97121000Y-89774000D01*
X97161000Y-87320000D02*
X97161000Y-89720000D01*
X97201000Y-87378000D02*
X97201000Y-89662000D01*
X97241000Y-87440000D02*
X97241000Y-89600000D01*
X97281000Y-87507000D02*
X97281000Y-89533000D01*
X97321000Y-87580000D02*
X97321000Y-89460000D01*
X97361000Y-87661000D02*
X97361000Y-89379000D01*
X97401000Y-87752000D02*
X97401000Y-89288000D01*
X97441000Y-87856000D02*
X97441000Y-89184000D01*
X97481000Y-87983000D02*
X97481000Y-89057000D01*
X97521000Y-88150000D02*
X97521000Y-88890000D01*
X97560000Y-88520000D02*
G75*
G03*
X97560000Y-88520000I-2120000J0D01*
G01*
%TO.C,U3*%
X109525000Y-94215000D02*
X106075000Y-94215000D01*
X109525000Y-94215000D02*
X111475000Y-94215000D01*
X109525000Y-99335000D02*
X107575000Y-99335000D01*
X109525000Y-99335000D02*
X111475000Y-99335000D01*
%TO.C,C1*%
X117535000Y-80124420D02*
X117535000Y-80405580D01*
X116515000Y-80124420D02*
X116515000Y-80405580D01*
%TO.C,L6*%
X100915000Y-96177500D02*
X101065000Y-96177500D01*
X100915000Y-96177500D02*
X100915000Y-91657500D01*
X105435000Y-96177500D02*
X105285000Y-96177500D01*
X105435000Y-96177500D02*
X105435000Y-91657500D01*
X100915000Y-91657500D02*
X101065000Y-91657500D01*
X105435000Y-91657500D02*
X105285000Y-91657500D01*
%TO.C,R3*%
X116305000Y-93202258D02*
X116305000Y-92727742D01*
X117350000Y-93202258D02*
X117350000Y-92727742D01*
%TO.C,C13*%
X113870000Y-100336252D02*
X113870000Y-99813748D01*
X115340000Y-100336252D02*
X115340000Y-99813748D01*
%TO.C,R14*%
X84997258Y-91582500D02*
X84522742Y-91582500D01*
X84997258Y-90537500D02*
X84522742Y-90537500D01*
%TO.C,R9*%
X92492500Y-85582258D02*
X92492500Y-85107742D01*
X93537500Y-85582258D02*
X93537500Y-85107742D01*
%TO.C,R10*%
X109299564Y-93557500D02*
X107845436Y-93557500D01*
X109299564Y-91737500D02*
X107845436Y-91737500D01*
%TO.C,C12*%
X116317500Y-100040580D02*
X116317500Y-99759420D01*
X117337500Y-100040580D02*
X117337500Y-99759420D01*
%TO.C,U1*%
X109525000Y-84055000D02*
X106075000Y-84055000D01*
X109525000Y-84055000D02*
X111475000Y-84055000D01*
X109525000Y-89175000D02*
X107575000Y-89175000D01*
X109525000Y-89175000D02*
X111475000Y-89175000D01*
%TO.C,C19*%
X92175000Y-102484775D02*
X92175000Y-101984775D01*
X91925000Y-102234775D02*
X92425000Y-102234775D01*
X91070000Y-99680000D02*
X92610000Y-99680000D01*
X94690000Y-99680000D02*
X96230000Y-99680000D01*
X91070000Y-99640000D02*
X92610000Y-99640000D01*
X94690000Y-99640000D02*
X96230000Y-99640000D01*
X91071000Y-99600000D02*
X92610000Y-99600000D01*
X94690000Y-99600000D02*
X96229000Y-99600000D01*
X91072000Y-99560000D02*
X92610000Y-99560000D01*
X94690000Y-99560000D02*
X96228000Y-99560000D01*
X91074000Y-99520000D02*
X92610000Y-99520000D01*
X94690000Y-99520000D02*
X96226000Y-99520000D01*
X91077000Y-99480000D02*
X92610000Y-99480000D01*
X94690000Y-99480000D02*
X96223000Y-99480000D01*
X91081000Y-99440000D02*
X92610000Y-99440000D01*
X94690000Y-99440000D02*
X96219000Y-99440000D01*
X91085000Y-99400000D02*
X92610000Y-99400000D01*
X94690000Y-99400000D02*
X96215000Y-99400000D01*
X91089000Y-99360000D02*
X92610000Y-99360000D01*
X94690000Y-99360000D02*
X96211000Y-99360000D01*
X91094000Y-99320000D02*
X92610000Y-99320000D01*
X94690000Y-99320000D02*
X96206000Y-99320000D01*
X91100000Y-99280000D02*
X92610000Y-99280000D01*
X94690000Y-99280000D02*
X96200000Y-99280000D01*
X91107000Y-99240000D02*
X92610000Y-99240000D01*
X94690000Y-99240000D02*
X96193000Y-99240000D01*
X91114000Y-99200000D02*
X92610000Y-99200000D01*
X94690000Y-99200000D02*
X96186000Y-99200000D01*
X91122000Y-99160000D02*
X92610000Y-99160000D01*
X94690000Y-99160000D02*
X96178000Y-99160000D01*
X91130000Y-99120000D02*
X92610000Y-99120000D01*
X94690000Y-99120000D02*
X96170000Y-99120000D01*
X91139000Y-99080000D02*
X92610000Y-99080000D01*
X94690000Y-99080000D02*
X96161000Y-99080000D01*
X91149000Y-99040000D02*
X92610000Y-99040000D01*
X94690000Y-99040000D02*
X96151000Y-99040000D01*
X91159000Y-99000000D02*
X92610000Y-99000000D01*
X94690000Y-99000000D02*
X96141000Y-99000000D01*
X91170000Y-98959000D02*
X92610000Y-98959000D01*
X94690000Y-98959000D02*
X96130000Y-98959000D01*
X91182000Y-98919000D02*
X92610000Y-98919000D01*
X94690000Y-98919000D02*
X96118000Y-98919000D01*
X91195000Y-98879000D02*
X92610000Y-98879000D01*
X94690000Y-98879000D02*
X96105000Y-98879000D01*
X91208000Y-98839000D02*
X92610000Y-98839000D01*
X94690000Y-98839000D02*
X96092000Y-98839000D01*
X91222000Y-98799000D02*
X92610000Y-98799000D01*
X94690000Y-98799000D02*
X96078000Y-98799000D01*
X91236000Y-98759000D02*
X92610000Y-98759000D01*
X94690000Y-98759000D02*
X96064000Y-98759000D01*
X91252000Y-98719000D02*
X92610000Y-98719000D01*
X94690000Y-98719000D02*
X96048000Y-98719000D01*
X91268000Y-98679000D02*
X92610000Y-98679000D01*
X94690000Y-98679000D02*
X96032000Y-98679000D01*
X91285000Y-98639000D02*
X92610000Y-98639000D01*
X94690000Y-98639000D02*
X96015000Y-98639000D01*
X91302000Y-98599000D02*
X92610000Y-98599000D01*
X94690000Y-98599000D02*
X95998000Y-98599000D01*
X91321000Y-98559000D02*
X92610000Y-98559000D01*
X94690000Y-98559000D02*
X95979000Y-98559000D01*
X91340000Y-98519000D02*
X92610000Y-98519000D01*
X94690000Y-98519000D02*
X95960000Y-98519000D01*
X91360000Y-98479000D02*
X92610000Y-98479000D01*
X94690000Y-98479000D02*
X95940000Y-98479000D01*
X91382000Y-98439000D02*
X92610000Y-98439000D01*
X94690000Y-98439000D02*
X95918000Y-98439000D01*
X91403000Y-98399000D02*
X92610000Y-98399000D01*
X94690000Y-98399000D02*
X95897000Y-98399000D01*
X91426000Y-98359000D02*
X92610000Y-98359000D01*
X94690000Y-98359000D02*
X95874000Y-98359000D01*
X91450000Y-98319000D02*
X92610000Y-98319000D01*
X94690000Y-98319000D02*
X95850000Y-98319000D01*
X91475000Y-98279000D02*
X92610000Y-98279000D01*
X94690000Y-98279000D02*
X95825000Y-98279000D01*
X91501000Y-98239000D02*
X92610000Y-98239000D01*
X94690000Y-98239000D02*
X95799000Y-98239000D01*
X91528000Y-98199000D02*
X92610000Y-98199000D01*
X94690000Y-98199000D02*
X95772000Y-98199000D01*
X91555000Y-98159000D02*
X92610000Y-98159000D01*
X94690000Y-98159000D02*
X95745000Y-98159000D01*
X91585000Y-98119000D02*
X92610000Y-98119000D01*
X94690000Y-98119000D02*
X95715000Y-98119000D01*
X91615000Y-98079000D02*
X92610000Y-98079000D01*
X94690000Y-98079000D02*
X95685000Y-98079000D01*
X91646000Y-98039000D02*
X92610000Y-98039000D01*
X94690000Y-98039000D02*
X95654000Y-98039000D01*
X91679000Y-97999000D02*
X92610000Y-97999000D01*
X94690000Y-97999000D02*
X95621000Y-97999000D01*
X91713000Y-97959000D02*
X92610000Y-97959000D01*
X94690000Y-97959000D02*
X95587000Y-97959000D01*
X91749000Y-97919000D02*
X92610000Y-97919000D01*
X94690000Y-97919000D02*
X95551000Y-97919000D01*
X91786000Y-97879000D02*
X92610000Y-97879000D01*
X94690000Y-97879000D02*
X95514000Y-97879000D01*
X91824000Y-97839000D02*
X92610000Y-97839000D01*
X94690000Y-97839000D02*
X95476000Y-97839000D01*
X91865000Y-97799000D02*
X92610000Y-97799000D01*
X94690000Y-97799000D02*
X95435000Y-97799000D01*
X91907000Y-97759000D02*
X92610000Y-97759000D01*
X94690000Y-97759000D02*
X95393000Y-97759000D01*
X91951000Y-97719000D02*
X92610000Y-97719000D01*
X94690000Y-97719000D02*
X95349000Y-97719000D01*
X91997000Y-97679000D02*
X92610000Y-97679000D01*
X94690000Y-97679000D02*
X95303000Y-97679000D01*
X92045000Y-97639000D02*
X95255000Y-97639000D01*
X92096000Y-97599000D02*
X95204000Y-97599000D01*
X92150000Y-97559000D02*
X95150000Y-97559000D01*
X92207000Y-97519000D02*
X95093000Y-97519000D01*
X92267000Y-97479000D02*
X95033000Y-97479000D01*
X92331000Y-97439000D02*
X94969000Y-97439000D01*
X92399000Y-97399000D02*
X94901000Y-97399000D01*
X92472000Y-97359000D02*
X94828000Y-97359000D01*
X92552000Y-97319000D02*
X94748000Y-97319000D01*
X92639000Y-97279000D02*
X94661000Y-97279000D01*
X92735000Y-97239000D02*
X94565000Y-97239000D01*
X92845000Y-97199000D02*
X94455000Y-97199000D01*
X92973000Y-97159000D02*
X94327000Y-97159000D01*
X93132000Y-97119000D02*
X94168000Y-97119000D01*
X93366000Y-97079000D02*
X93934000Y-97079000D01*
X96270000Y-99680000D02*
G75*
G03*
X96270000Y-99680000I-2620000J0D01*
G01*
%TO.C,R2*%
X116429758Y-90947500D02*
X115955242Y-90947500D01*
X116429758Y-89902500D02*
X115955242Y-89902500D01*
%TO.C,U4*%
X90710000Y-92357500D02*
X90710000Y-98367500D01*
X83890000Y-94607500D02*
X83890000Y-98367500D01*
X90710000Y-98367500D02*
X89450000Y-98367500D01*
X83890000Y-98367500D02*
X85150000Y-98367500D01*
%TO.C,D4*%
X103222500Y-96470000D02*
X101222500Y-96470000D01*
X103222500Y-96470000D02*
X103222500Y-100330000D01*
X101222500Y-96470000D02*
X101222500Y-100330000D01*
%TO.C,C8*%
X91222500Y-83657275D02*
X91222500Y-83157275D01*
X90972500Y-83407275D02*
X91472500Y-83407275D01*
X90117500Y-80852500D02*
X91657500Y-80852500D01*
X93737500Y-80852500D02*
X95277500Y-80852500D01*
X90117500Y-80812500D02*
X91657500Y-80812500D01*
X93737500Y-80812500D02*
X95277500Y-80812500D01*
X90118500Y-80772500D02*
X91657500Y-80772500D01*
X93737500Y-80772500D02*
X95276500Y-80772500D01*
X90119500Y-80732500D02*
X91657500Y-80732500D01*
X93737500Y-80732500D02*
X95275500Y-80732500D01*
X90121500Y-80692500D02*
X91657500Y-80692500D01*
X93737500Y-80692500D02*
X95273500Y-80692500D01*
X90124500Y-80652500D02*
X91657500Y-80652500D01*
X93737500Y-80652500D02*
X95270500Y-80652500D01*
X90128500Y-80612500D02*
X91657500Y-80612500D01*
X93737500Y-80612500D02*
X95266500Y-80612500D01*
X90132500Y-80572500D02*
X91657500Y-80572500D01*
X93737500Y-80572500D02*
X95262500Y-80572500D01*
X90136500Y-80532500D02*
X91657500Y-80532500D01*
X93737500Y-80532500D02*
X95258500Y-80532500D01*
X90141500Y-80492500D02*
X91657500Y-80492500D01*
X93737500Y-80492500D02*
X95253500Y-80492500D01*
X90147500Y-80452500D02*
X91657500Y-80452500D01*
X93737500Y-80452500D02*
X95247500Y-80452500D01*
X90154500Y-80412500D02*
X91657500Y-80412500D01*
X93737500Y-80412500D02*
X95240500Y-80412500D01*
X90161500Y-80372500D02*
X91657500Y-80372500D01*
X93737500Y-80372500D02*
X95233500Y-80372500D01*
X90169500Y-80332500D02*
X91657500Y-80332500D01*
X93737500Y-80332500D02*
X95225500Y-80332500D01*
X90177500Y-80292500D02*
X91657500Y-80292500D01*
X93737500Y-80292500D02*
X95217500Y-80292500D01*
X90186500Y-80252500D02*
X91657500Y-80252500D01*
X93737500Y-80252500D02*
X95208500Y-80252500D01*
X90196500Y-80212500D02*
X91657500Y-80212500D01*
X93737500Y-80212500D02*
X95198500Y-80212500D01*
X90206500Y-80172500D02*
X91657500Y-80172500D01*
X93737500Y-80172500D02*
X95188500Y-80172500D01*
X90217500Y-80131500D02*
X91657500Y-80131500D01*
X93737500Y-80131500D02*
X95177500Y-80131500D01*
X90229500Y-80091500D02*
X91657500Y-80091500D01*
X93737500Y-80091500D02*
X95165500Y-80091500D01*
X90242500Y-80051500D02*
X91657500Y-80051500D01*
X93737500Y-80051500D02*
X95152500Y-80051500D01*
X90255500Y-80011500D02*
X91657500Y-80011500D01*
X93737500Y-80011500D02*
X95139500Y-80011500D01*
X90269500Y-79971500D02*
X91657500Y-79971500D01*
X93737500Y-79971500D02*
X95125500Y-79971500D01*
X90283500Y-79931500D02*
X91657500Y-79931500D01*
X93737500Y-79931500D02*
X95111500Y-79931500D01*
X90299500Y-79891500D02*
X91657500Y-79891500D01*
X93737500Y-79891500D02*
X95095500Y-79891500D01*
X90315500Y-79851500D02*
X91657500Y-79851500D01*
X93737500Y-79851500D02*
X95079500Y-79851500D01*
X90332500Y-79811500D02*
X91657500Y-79811500D01*
X93737500Y-79811500D02*
X95062500Y-79811500D01*
X90349500Y-79771500D02*
X91657500Y-79771500D01*
X93737500Y-79771500D02*
X95045500Y-79771500D01*
X90368500Y-79731500D02*
X91657500Y-79731500D01*
X93737500Y-79731500D02*
X95026500Y-79731500D01*
X90387500Y-79691500D02*
X91657500Y-79691500D01*
X93737500Y-79691500D02*
X95007500Y-79691500D01*
X90407500Y-79651500D02*
X91657500Y-79651500D01*
X93737500Y-79651500D02*
X94987500Y-79651500D01*
X90429500Y-79611500D02*
X91657500Y-79611500D01*
X93737500Y-79611500D02*
X94965500Y-79611500D01*
X90450500Y-79571500D02*
X91657500Y-79571500D01*
X93737500Y-79571500D02*
X94944500Y-79571500D01*
X90473500Y-79531500D02*
X91657500Y-79531500D01*
X93737500Y-79531500D02*
X94921500Y-79531500D01*
X90497500Y-79491500D02*
X91657500Y-79491500D01*
X93737500Y-79491500D02*
X94897500Y-79491500D01*
X90522500Y-79451500D02*
X91657500Y-79451500D01*
X93737500Y-79451500D02*
X94872500Y-79451500D01*
X90548500Y-79411500D02*
X91657500Y-79411500D01*
X93737500Y-79411500D02*
X94846500Y-79411500D01*
X90575500Y-79371500D02*
X91657500Y-79371500D01*
X93737500Y-79371500D02*
X94819500Y-79371500D01*
X90602500Y-79331500D02*
X91657500Y-79331500D01*
X93737500Y-79331500D02*
X94792500Y-79331500D01*
X90632500Y-79291500D02*
X91657500Y-79291500D01*
X93737500Y-79291500D02*
X94762500Y-79291500D01*
X90662500Y-79251500D02*
X91657500Y-79251500D01*
X93737500Y-79251500D02*
X94732500Y-79251500D01*
X90693500Y-79211500D02*
X91657500Y-79211500D01*
X93737500Y-79211500D02*
X94701500Y-79211500D01*
X90726500Y-79171500D02*
X91657500Y-79171500D01*
X93737500Y-79171500D02*
X94668500Y-79171500D01*
X90760500Y-79131500D02*
X91657500Y-79131500D01*
X93737500Y-79131500D02*
X94634500Y-79131500D01*
X90796500Y-79091500D02*
X91657500Y-79091500D01*
X93737500Y-79091500D02*
X94598500Y-79091500D01*
X90833500Y-79051500D02*
X91657500Y-79051500D01*
X93737500Y-79051500D02*
X94561500Y-79051500D01*
X90871500Y-79011500D02*
X91657500Y-79011500D01*
X93737500Y-79011500D02*
X94523500Y-79011500D01*
X90912500Y-78971500D02*
X91657500Y-78971500D01*
X93737500Y-78971500D02*
X94482500Y-78971500D01*
X90954500Y-78931500D02*
X91657500Y-78931500D01*
X93737500Y-78931500D02*
X94440500Y-78931500D01*
X90998500Y-78891500D02*
X91657500Y-78891500D01*
X93737500Y-78891500D02*
X94396500Y-78891500D01*
X91044500Y-78851500D02*
X91657500Y-78851500D01*
X93737500Y-78851500D02*
X94350500Y-78851500D01*
X91092500Y-78811500D02*
X94302500Y-78811500D01*
X91143500Y-78771500D02*
X94251500Y-78771500D01*
X91197500Y-78731500D02*
X94197500Y-78731500D01*
X91254500Y-78691500D02*
X94140500Y-78691500D01*
X91314500Y-78651500D02*
X94080500Y-78651500D01*
X91378500Y-78611500D02*
X94016500Y-78611500D01*
X91446500Y-78571500D02*
X93948500Y-78571500D01*
X91519500Y-78531500D02*
X93875500Y-78531500D01*
X91599500Y-78491500D02*
X93795500Y-78491500D01*
X91686500Y-78451500D02*
X93708500Y-78451500D01*
X91782500Y-78411500D02*
X93612500Y-78411500D01*
X91892500Y-78371500D02*
X93502500Y-78371500D01*
X92020500Y-78331500D02*
X93374500Y-78331500D01*
X92179500Y-78291500D02*
X93215500Y-78291500D01*
X92413500Y-78251500D02*
X92981500Y-78251500D01*
X95317500Y-80852500D02*
G75*
G03*
X95317500Y-80852500I-2620000J0D01*
G01*
%TO.C,C14*%
X98512500Y-100321248D02*
X98512500Y-100843752D01*
X97042500Y-100321248D02*
X97042500Y-100843752D01*
%TO.C,C3*%
X98220000Y-87848080D02*
X98220000Y-87566920D01*
X99240000Y-87848080D02*
X99240000Y-87566920D01*
%TO.C,C17*%
X97042500Y-93226252D02*
X97042500Y-92703748D01*
X98512500Y-93226252D02*
X98512500Y-92703748D01*
%TO.C,C9*%
X99172500Y-93283080D02*
X99172500Y-93001920D01*
X100192500Y-93283080D02*
X100192500Y-93001920D01*
%TO.C,R11*%
X105507258Y-100930000D02*
X105032742Y-100930000D01*
X105507258Y-99885000D02*
X105032742Y-99885000D01*
%TO.C,J1*%
X118502500Y-95425000D02*
X126002500Y-95425000D01*
X126002500Y-95425000D02*
X126002500Y-85425000D01*
X126002500Y-85425000D02*
X118502500Y-85425000D01*
X118502500Y-85425000D02*
X118502500Y-95425000D01*
%TO.C,D1*%
X112967500Y-91405000D02*
X112967500Y-92875000D01*
X112967500Y-92875000D02*
X115252500Y-92875000D01*
X115252500Y-91405000D02*
X112967500Y-91405000D01*
%TO.C,C11*%
X82107500Y-85762725D02*
X82107500Y-86262725D01*
X82357500Y-86012725D02*
X81857500Y-86012725D01*
X83212500Y-88567500D02*
X81672500Y-88567500D01*
X79592500Y-88567500D02*
X78052500Y-88567500D01*
X83212500Y-88607500D02*
X81672500Y-88607500D01*
X79592500Y-88607500D02*
X78052500Y-88607500D01*
X83211500Y-88647500D02*
X81672500Y-88647500D01*
X79592500Y-88647500D02*
X78053500Y-88647500D01*
X83210500Y-88687500D02*
X81672500Y-88687500D01*
X79592500Y-88687500D02*
X78054500Y-88687500D01*
X83208500Y-88727500D02*
X81672500Y-88727500D01*
X79592500Y-88727500D02*
X78056500Y-88727500D01*
X83205500Y-88767500D02*
X81672500Y-88767500D01*
X79592500Y-88767500D02*
X78059500Y-88767500D01*
X83201500Y-88807500D02*
X81672500Y-88807500D01*
X79592500Y-88807500D02*
X78063500Y-88807500D01*
X83197500Y-88847500D02*
X81672500Y-88847500D01*
X79592500Y-88847500D02*
X78067500Y-88847500D01*
X83193500Y-88887500D02*
X81672500Y-88887500D01*
X79592500Y-88887500D02*
X78071500Y-88887500D01*
X83188500Y-88927500D02*
X81672500Y-88927500D01*
X79592500Y-88927500D02*
X78076500Y-88927500D01*
X83182500Y-88967500D02*
X81672500Y-88967500D01*
X79592500Y-88967500D02*
X78082500Y-88967500D01*
X83175500Y-89007500D02*
X81672500Y-89007500D01*
X79592500Y-89007500D02*
X78089500Y-89007500D01*
X83168500Y-89047500D02*
X81672500Y-89047500D01*
X79592500Y-89047500D02*
X78096500Y-89047500D01*
X83160500Y-89087500D02*
X81672500Y-89087500D01*
X79592500Y-89087500D02*
X78104500Y-89087500D01*
X83152500Y-89127500D02*
X81672500Y-89127500D01*
X79592500Y-89127500D02*
X78112500Y-89127500D01*
X83143500Y-89167500D02*
X81672500Y-89167500D01*
X79592500Y-89167500D02*
X78121500Y-89167500D01*
X83133500Y-89207500D02*
X81672500Y-89207500D01*
X79592500Y-89207500D02*
X78131500Y-89207500D01*
X83123500Y-89247500D02*
X81672500Y-89247500D01*
X79592500Y-89247500D02*
X78141500Y-89247500D01*
X83112500Y-89288500D02*
X81672500Y-89288500D01*
X79592500Y-89288500D02*
X78152500Y-89288500D01*
X83100500Y-89328500D02*
X81672500Y-89328500D01*
X79592500Y-89328500D02*
X78164500Y-89328500D01*
X83087500Y-89368500D02*
X81672500Y-89368500D01*
X79592500Y-89368500D02*
X78177500Y-89368500D01*
X83074500Y-89408500D02*
X81672500Y-89408500D01*
X79592500Y-89408500D02*
X78190500Y-89408500D01*
X83060500Y-89448500D02*
X81672500Y-89448500D01*
X79592500Y-89448500D02*
X78204500Y-89448500D01*
X83046500Y-89488500D02*
X81672500Y-89488500D01*
X79592500Y-89488500D02*
X78218500Y-89488500D01*
X83030500Y-89528500D02*
X81672500Y-89528500D01*
X79592500Y-89528500D02*
X78234500Y-89528500D01*
X83014500Y-89568500D02*
X81672500Y-89568500D01*
X79592500Y-89568500D02*
X78250500Y-89568500D01*
X82997500Y-89608500D02*
X81672500Y-89608500D01*
X79592500Y-89608500D02*
X78267500Y-89608500D01*
X82980500Y-89648500D02*
X81672500Y-89648500D01*
X79592500Y-89648500D02*
X78284500Y-89648500D01*
X82961500Y-89688500D02*
X81672500Y-89688500D01*
X79592500Y-89688500D02*
X78303500Y-89688500D01*
X82942500Y-89728500D02*
X81672500Y-89728500D01*
X79592500Y-89728500D02*
X78322500Y-89728500D01*
X82922500Y-89768500D02*
X81672500Y-89768500D01*
X79592500Y-89768500D02*
X78342500Y-89768500D01*
X82900500Y-89808500D02*
X81672500Y-89808500D01*
X79592500Y-89808500D02*
X78364500Y-89808500D01*
X82879500Y-89848500D02*
X81672500Y-89848500D01*
X79592500Y-89848500D02*
X78385500Y-89848500D01*
X82856500Y-89888500D02*
X81672500Y-89888500D01*
X79592500Y-89888500D02*
X78408500Y-89888500D01*
X82832500Y-89928500D02*
X81672500Y-89928500D01*
X79592500Y-89928500D02*
X78432500Y-89928500D01*
X82807500Y-89968500D02*
X81672500Y-89968500D01*
X79592500Y-89968500D02*
X78457500Y-89968500D01*
X82781500Y-90008500D02*
X81672500Y-90008500D01*
X79592500Y-90008500D02*
X78483500Y-90008500D01*
X82754500Y-90048500D02*
X81672500Y-90048500D01*
X79592500Y-90048500D02*
X78510500Y-90048500D01*
X82727500Y-90088500D02*
X81672500Y-90088500D01*
X79592500Y-90088500D02*
X78537500Y-90088500D01*
X82697500Y-90128500D02*
X81672500Y-90128500D01*
X79592500Y-90128500D02*
X78567500Y-90128500D01*
X82667500Y-90168500D02*
X81672500Y-90168500D01*
X79592500Y-90168500D02*
X78597500Y-90168500D01*
X82636500Y-90208500D02*
X81672500Y-90208500D01*
X79592500Y-90208500D02*
X78628500Y-90208500D01*
X82603500Y-90248500D02*
X81672500Y-90248500D01*
X79592500Y-90248500D02*
X78661500Y-90248500D01*
X82569500Y-90288500D02*
X81672500Y-90288500D01*
X79592500Y-90288500D02*
X78695500Y-90288500D01*
X82533500Y-90328500D02*
X81672500Y-90328500D01*
X79592500Y-90328500D02*
X78731500Y-90328500D01*
X82496500Y-90368500D02*
X81672500Y-90368500D01*
X79592500Y-90368500D02*
X78768500Y-90368500D01*
X82458500Y-90408500D02*
X81672500Y-90408500D01*
X79592500Y-90408500D02*
X78806500Y-90408500D01*
X82417500Y-90448500D02*
X81672500Y-90448500D01*
X79592500Y-90448500D02*
X78847500Y-90448500D01*
X82375500Y-90488500D02*
X81672500Y-90488500D01*
X79592500Y-90488500D02*
X78889500Y-90488500D01*
X82331500Y-90528500D02*
X81672500Y-90528500D01*
X79592500Y-90528500D02*
X78933500Y-90528500D01*
X82285500Y-90568500D02*
X81672500Y-90568500D01*
X79592500Y-90568500D02*
X78979500Y-90568500D01*
X82237500Y-90608500D02*
X79027500Y-90608500D01*
X82186500Y-90648500D02*
X79078500Y-90648500D01*
X82132500Y-90688500D02*
X79132500Y-90688500D01*
X82075500Y-90728500D02*
X79189500Y-90728500D01*
X82015500Y-90768500D02*
X79249500Y-90768500D01*
X81951500Y-90808500D02*
X79313500Y-90808500D01*
X81883500Y-90848500D02*
X79381500Y-90848500D01*
X81810500Y-90888500D02*
X79454500Y-90888500D01*
X81730500Y-90928500D02*
X79534500Y-90928500D01*
X81643500Y-90968500D02*
X79621500Y-90968500D01*
X81547500Y-91008500D02*
X79717500Y-91008500D01*
X81437500Y-91048500D02*
X79827500Y-91048500D01*
X81309500Y-91088500D02*
X79955500Y-91088500D01*
X81150500Y-91128500D02*
X80114500Y-91128500D01*
X80916500Y-91168500D02*
X80348500Y-91168500D01*
X83252500Y-88567500D02*
G75*
G03*
X83252500Y-88567500I-2620000J0D01*
G01*
%TO.C,C7*%
X99623752Y-81635000D02*
X99101248Y-81635000D01*
X99623752Y-80165000D02*
X99101248Y-80165000D01*
%TO.C,R8*%
X91632500Y-85107742D02*
X91632500Y-85582258D01*
X90587500Y-85107742D02*
X90587500Y-85582258D01*
%TO.C,R4*%
X113989564Y-81492500D02*
X112535436Y-81492500D01*
X113989564Y-79672500D02*
X112535436Y-79672500D01*
%TO.C,R5*%
X112145242Y-82282500D02*
X112619758Y-82282500D01*
X112145242Y-83327500D02*
X112619758Y-83327500D01*
%TO.C,L2*%
X110515000Y-83795000D02*
X110515000Y-83645000D01*
X110515000Y-83795000D02*
X105995000Y-83795000D01*
X110515000Y-79275000D02*
X110515000Y-79425000D01*
X110515000Y-79275000D02*
X105995000Y-79275000D01*
X105995000Y-83795000D02*
X105995000Y-83645000D01*
X105995000Y-79275000D02*
X105995000Y-79425000D01*
%TO.C,L7*%
X96970000Y-98535000D02*
X97120000Y-98535000D01*
X96970000Y-98535000D02*
X96970000Y-95015000D01*
X100490000Y-98535000D02*
X100340000Y-98535000D01*
X100490000Y-98535000D02*
X100490000Y-95015000D01*
X96970000Y-95015000D02*
X97120000Y-95015000D01*
X100490000Y-95015000D02*
X100340000Y-95015000D01*
%TO.C,C5*%
X102732500Y-84111920D02*
X102732500Y-84393080D01*
X101712500Y-84111920D02*
X101712500Y-84393080D01*
%TO.C,C2*%
X113870000Y-88146252D02*
X113870000Y-87623748D01*
X115340000Y-88146252D02*
X115340000Y-87623748D01*
%TO.C,R12*%
X112587500Y-100995242D02*
X112587500Y-101469758D01*
X111542500Y-100995242D02*
X111542500Y-101469758D01*
%TO.C,R1*%
X117032500Y-87647742D02*
X117032500Y-88122258D01*
X115987500Y-87647742D02*
X115987500Y-88122258D01*
%TO.C,R6*%
X109160242Y-89902500D02*
X109634758Y-89902500D01*
X109160242Y-90947500D02*
X109634758Y-90947500D01*
%TO.C,R13*%
X87822500Y-89997742D02*
X87822500Y-90472258D01*
X86777500Y-89997742D02*
X86777500Y-90472258D01*
%TO.C,U2*%
X89495000Y-86850000D02*
X83485000Y-86850000D01*
X87245000Y-80030000D02*
X83485000Y-80030000D01*
X83485000Y-86850000D02*
X83485000Y-85590000D01*
X83485000Y-80030000D02*
X83485000Y-81290000D01*
%TO.C,C16*%
X100192500Y-100266920D02*
X100192500Y-100548080D01*
X99172500Y-100266920D02*
X99172500Y-100548080D01*
%TO.C,D3*%
X103445000Y-85967500D02*
X105445000Y-85967500D01*
X103445000Y-85967500D02*
X103445000Y-82107500D01*
X105445000Y-85967500D02*
X105445000Y-82107500D01*
%TO.C,L5*%
X117317500Y-98217500D02*
X117317500Y-98067500D01*
X117317500Y-98217500D02*
X113797500Y-98217500D01*
X117317500Y-94697500D02*
X117317500Y-94847500D01*
X117317500Y-94697500D02*
X113797500Y-94697500D01*
X113797500Y-98217500D02*
X113797500Y-98067500D01*
X113797500Y-94697500D02*
X113797500Y-94847500D01*
%TO.C,L1*%
X117635000Y-85835000D02*
X117635000Y-85685000D01*
X117635000Y-85835000D02*
X114115000Y-85835000D01*
X117635000Y-82315000D02*
X117635000Y-82465000D01*
X117635000Y-82315000D02*
X114115000Y-82315000D01*
X114115000Y-85835000D02*
X114115000Y-85685000D01*
X114115000Y-82315000D02*
X114115000Y-82465000D01*
%TO.C,C22*%
X79157500Y-97087275D02*
X79157500Y-96587275D01*
X78907500Y-96837275D02*
X79407500Y-96837275D01*
X78052500Y-94282500D02*
X79592500Y-94282500D01*
X81672500Y-94282500D02*
X83212500Y-94282500D01*
X78052500Y-94242500D02*
X79592500Y-94242500D01*
X81672500Y-94242500D02*
X83212500Y-94242500D01*
X78053500Y-94202500D02*
X79592500Y-94202500D01*
X81672500Y-94202500D02*
X83211500Y-94202500D01*
X78054500Y-94162500D02*
X79592500Y-94162500D01*
X81672500Y-94162500D02*
X83210500Y-94162500D01*
X78056500Y-94122500D02*
X79592500Y-94122500D01*
X81672500Y-94122500D02*
X83208500Y-94122500D01*
X78059500Y-94082500D02*
X79592500Y-94082500D01*
X81672500Y-94082500D02*
X83205500Y-94082500D01*
X78063500Y-94042500D02*
X79592500Y-94042500D01*
X81672500Y-94042500D02*
X83201500Y-94042500D01*
X78067500Y-94002500D02*
X79592500Y-94002500D01*
X81672500Y-94002500D02*
X83197500Y-94002500D01*
X78071500Y-93962500D02*
X79592500Y-93962500D01*
X81672500Y-93962500D02*
X83193500Y-93962500D01*
X78076500Y-93922500D02*
X79592500Y-93922500D01*
X81672500Y-93922500D02*
X83188500Y-93922500D01*
X78082500Y-93882500D02*
X79592500Y-93882500D01*
X81672500Y-93882500D02*
X83182500Y-93882500D01*
X78089500Y-93842500D02*
X79592500Y-93842500D01*
X81672500Y-93842500D02*
X83175500Y-93842500D01*
X78096500Y-93802500D02*
X79592500Y-93802500D01*
X81672500Y-93802500D02*
X83168500Y-93802500D01*
X78104500Y-93762500D02*
X79592500Y-93762500D01*
X81672500Y-93762500D02*
X83160500Y-93762500D01*
X78112500Y-93722500D02*
X79592500Y-93722500D01*
X81672500Y-93722500D02*
X83152500Y-93722500D01*
X78121500Y-93682500D02*
X79592500Y-93682500D01*
X81672500Y-93682500D02*
X83143500Y-93682500D01*
X78131500Y-93642500D02*
X79592500Y-93642500D01*
X81672500Y-93642500D02*
X83133500Y-93642500D01*
X78141500Y-93602500D02*
X79592500Y-93602500D01*
X81672500Y-93602500D02*
X83123500Y-93602500D01*
X78152500Y-93561500D02*
X79592500Y-93561500D01*
X81672500Y-93561500D02*
X83112500Y-93561500D01*
X78164500Y-93521500D02*
X79592500Y-93521500D01*
X81672500Y-93521500D02*
X83100500Y-93521500D01*
X78177500Y-93481500D02*
X79592500Y-93481500D01*
X81672500Y-93481500D02*
X83087500Y-93481500D01*
X78190500Y-93441500D02*
X79592500Y-93441500D01*
X81672500Y-93441500D02*
X83074500Y-93441500D01*
X78204500Y-93401500D02*
X79592500Y-93401500D01*
X81672500Y-93401500D02*
X83060500Y-93401500D01*
X78218500Y-93361500D02*
X79592500Y-93361500D01*
X81672500Y-93361500D02*
X83046500Y-93361500D01*
X78234500Y-93321500D02*
X79592500Y-93321500D01*
X81672500Y-93321500D02*
X83030500Y-93321500D01*
X78250500Y-93281500D02*
X79592500Y-93281500D01*
X81672500Y-93281500D02*
X83014500Y-93281500D01*
X78267500Y-93241500D02*
X79592500Y-93241500D01*
X81672500Y-93241500D02*
X82997500Y-93241500D01*
X78284500Y-93201500D02*
X79592500Y-93201500D01*
X81672500Y-93201500D02*
X82980500Y-93201500D01*
X78303500Y-93161500D02*
X79592500Y-93161500D01*
X81672500Y-93161500D02*
X82961500Y-93161500D01*
X78322500Y-93121500D02*
X79592500Y-93121500D01*
X81672500Y-93121500D02*
X82942500Y-93121500D01*
X78342500Y-93081500D02*
X79592500Y-93081500D01*
X81672500Y-93081500D02*
X82922500Y-93081500D01*
X78364500Y-93041500D02*
X79592500Y-93041500D01*
X81672500Y-93041500D02*
X82900500Y-93041500D01*
X78385500Y-93001500D02*
X79592500Y-93001500D01*
X81672500Y-93001500D02*
X82879500Y-93001500D01*
X78408500Y-92961500D02*
X79592500Y-92961500D01*
X81672500Y-92961500D02*
X82856500Y-92961500D01*
X78432500Y-92921500D02*
X79592500Y-92921500D01*
X81672500Y-92921500D02*
X82832500Y-92921500D01*
X78457500Y-92881500D02*
X79592500Y-92881500D01*
X81672500Y-92881500D02*
X82807500Y-92881500D01*
X78483500Y-92841500D02*
X79592500Y-92841500D01*
X81672500Y-92841500D02*
X82781500Y-92841500D01*
X78510500Y-92801500D02*
X79592500Y-92801500D01*
X81672500Y-92801500D02*
X82754500Y-92801500D01*
X78537500Y-92761500D02*
X79592500Y-92761500D01*
X81672500Y-92761500D02*
X82727500Y-92761500D01*
X78567500Y-92721500D02*
X79592500Y-92721500D01*
X81672500Y-92721500D02*
X82697500Y-92721500D01*
X78597500Y-92681500D02*
X79592500Y-92681500D01*
X81672500Y-92681500D02*
X82667500Y-92681500D01*
X78628500Y-92641500D02*
X79592500Y-92641500D01*
X81672500Y-92641500D02*
X82636500Y-92641500D01*
X78661500Y-92601500D02*
X79592500Y-92601500D01*
X81672500Y-92601500D02*
X82603500Y-92601500D01*
X78695500Y-92561500D02*
X79592500Y-92561500D01*
X81672500Y-92561500D02*
X82569500Y-92561500D01*
X78731500Y-92521500D02*
X79592500Y-92521500D01*
X81672500Y-92521500D02*
X82533500Y-92521500D01*
X78768500Y-92481500D02*
X79592500Y-92481500D01*
X81672500Y-92481500D02*
X82496500Y-92481500D01*
X78806500Y-92441500D02*
X79592500Y-92441500D01*
X81672500Y-92441500D02*
X82458500Y-92441500D01*
X78847500Y-92401500D02*
X79592500Y-92401500D01*
X81672500Y-92401500D02*
X82417500Y-92401500D01*
X78889500Y-92361500D02*
X79592500Y-92361500D01*
X81672500Y-92361500D02*
X82375500Y-92361500D01*
X78933500Y-92321500D02*
X79592500Y-92321500D01*
X81672500Y-92321500D02*
X82331500Y-92321500D01*
X78979500Y-92281500D02*
X79592500Y-92281500D01*
X81672500Y-92281500D02*
X82285500Y-92281500D01*
X79027500Y-92241500D02*
X82237500Y-92241500D01*
X79078500Y-92201500D02*
X82186500Y-92201500D01*
X79132500Y-92161500D02*
X82132500Y-92161500D01*
X79189500Y-92121500D02*
X82075500Y-92121500D01*
X79249500Y-92081500D02*
X82015500Y-92081500D01*
X79313500Y-92041500D02*
X81951500Y-92041500D01*
X79381500Y-92001500D02*
X81883500Y-92001500D01*
X79454500Y-91961500D02*
X81810500Y-91961500D01*
X79534500Y-91921500D02*
X81730500Y-91921500D01*
X79621500Y-91881500D02*
X81643500Y-91881500D01*
X79717500Y-91841500D02*
X81547500Y-91841500D01*
X79827500Y-91801500D02*
X81437500Y-91801500D01*
X79955500Y-91761500D02*
X81309500Y-91761500D01*
X80114500Y-91721500D02*
X81150500Y-91721500D01*
X80348500Y-91681500D02*
X80916500Y-91681500D01*
X83252500Y-94282500D02*
G75*
G03*
X83252500Y-94282500I-2620000J0D01*
G01*
%TO.C,L3*%
X103467500Y-89962500D02*
X103467500Y-89812500D01*
X103467500Y-89962500D02*
X99947500Y-89962500D01*
X103467500Y-86442500D02*
X103467500Y-86592500D01*
X103467500Y-86442500D02*
X99947500Y-86442500D01*
X99947500Y-89962500D02*
X99947500Y-89812500D01*
X99947500Y-86442500D02*
X99947500Y-86592500D01*
%TO.C,C6*%
X101052500Y-83816248D02*
X101052500Y-84338752D01*
X99582500Y-83816248D02*
X99582500Y-84338752D01*
%TO.C,J2*%
X72695000Y-103125000D02*
X70155000Y-103125000D01*
X70155000Y-103125000D02*
X70155000Y-77725000D01*
X70155000Y-77725000D02*
X72695000Y-77725000D01*
X72695000Y-77725000D02*
X72695000Y-103125000D01*
%TO.C,C4*%
X104252500Y-88165580D02*
X104252500Y-87884420D01*
X105272500Y-88165580D02*
X105272500Y-87884420D01*
%TO.C,C21*%
X92859801Y-90667500D02*
X92459801Y-90667500D01*
X92659801Y-90867500D02*
X92659801Y-90467500D01*
X90590000Y-91552500D02*
X90590000Y-90312500D01*
X90590000Y-88632500D02*
X90590000Y-87392500D01*
X90550000Y-91552500D02*
X90550000Y-90312500D01*
X90550000Y-88632500D02*
X90550000Y-87392500D01*
X90510000Y-91551500D02*
X90510000Y-90312500D01*
X90510000Y-88632500D02*
X90510000Y-87393500D01*
X90470000Y-91549500D02*
X90470000Y-90312500D01*
X90470000Y-88632500D02*
X90470000Y-87395500D01*
X90430000Y-91546500D02*
X90430000Y-90312500D01*
X90430000Y-88632500D02*
X90430000Y-87398500D01*
X90390000Y-91543500D02*
X90390000Y-90312500D01*
X90390000Y-88632500D02*
X90390000Y-87401500D01*
X90350000Y-91539500D02*
X90350000Y-90312500D01*
X90350000Y-88632500D02*
X90350000Y-87405500D01*
X90310000Y-91534500D02*
X90310000Y-90312500D01*
X90310000Y-88632500D02*
X90310000Y-87410500D01*
X90270000Y-91528500D02*
X90270000Y-90312500D01*
X90270000Y-88632500D02*
X90270000Y-87416500D01*
X90230000Y-91522500D02*
X90230000Y-90312500D01*
X90230000Y-88632500D02*
X90230000Y-87422500D01*
X90190000Y-91514500D02*
X90190000Y-90312500D01*
X90190000Y-88632500D02*
X90190000Y-87430500D01*
X90150000Y-91506500D02*
X90150000Y-90312500D01*
X90150000Y-88632500D02*
X90150000Y-87438500D01*
X90110000Y-91497500D02*
X90110000Y-90312500D01*
X90110000Y-88632500D02*
X90110000Y-87447500D01*
X90070000Y-91488500D02*
X90070000Y-90312500D01*
X90070000Y-88632500D02*
X90070000Y-87456500D01*
X90030000Y-91477500D02*
X90030000Y-90312500D01*
X90030000Y-88632500D02*
X90030000Y-87467500D01*
X89990000Y-91466500D02*
X89990000Y-90312500D01*
X89990000Y-88632500D02*
X89990000Y-87478500D01*
X89950000Y-91454500D02*
X89950000Y-90312500D01*
X89950000Y-88632500D02*
X89950000Y-87490500D01*
X89910000Y-91440500D02*
X89910000Y-90312500D01*
X89910000Y-88632500D02*
X89910000Y-87504500D01*
X89869000Y-91426500D02*
X89869000Y-90312500D01*
X89869000Y-88632500D02*
X89869000Y-87518500D01*
X89829000Y-91412500D02*
X89829000Y-90312500D01*
X89829000Y-88632500D02*
X89829000Y-87532500D01*
X89789000Y-91396500D02*
X89789000Y-90312500D01*
X89789000Y-88632500D02*
X89789000Y-87548500D01*
X89749000Y-91379500D02*
X89749000Y-90312500D01*
X89749000Y-88632500D02*
X89749000Y-87565500D01*
X89709000Y-91361500D02*
X89709000Y-90312500D01*
X89709000Y-88632500D02*
X89709000Y-87583500D01*
X89669000Y-91342500D02*
X89669000Y-90312500D01*
X89669000Y-88632500D02*
X89669000Y-87602500D01*
X89629000Y-91323500D02*
X89629000Y-90312500D01*
X89629000Y-88632500D02*
X89629000Y-87621500D01*
X89589000Y-91302500D02*
X89589000Y-90312500D01*
X89589000Y-88632500D02*
X89589000Y-87642500D01*
X89549000Y-91280500D02*
X89549000Y-90312500D01*
X89549000Y-88632500D02*
X89549000Y-87664500D01*
X89509000Y-91257500D02*
X89509000Y-90312500D01*
X89509000Y-88632500D02*
X89509000Y-87687500D01*
X89469000Y-91232500D02*
X89469000Y-90312500D01*
X89469000Y-88632500D02*
X89469000Y-87712500D01*
X89429000Y-91207500D02*
X89429000Y-90312500D01*
X89429000Y-88632500D02*
X89429000Y-87737500D01*
X89389000Y-91180500D02*
X89389000Y-90312500D01*
X89389000Y-88632500D02*
X89389000Y-87764500D01*
X89349000Y-91152500D02*
X89349000Y-90312500D01*
X89349000Y-88632500D02*
X89349000Y-87792500D01*
X89309000Y-91122500D02*
X89309000Y-90312500D01*
X89309000Y-88632500D02*
X89309000Y-87822500D01*
X89269000Y-91091500D02*
X89269000Y-90312500D01*
X89269000Y-88632500D02*
X89269000Y-87853500D01*
X89229000Y-91059500D02*
X89229000Y-90312500D01*
X89229000Y-88632500D02*
X89229000Y-87885500D01*
X89189000Y-91024500D02*
X89189000Y-90312500D01*
X89189000Y-88632500D02*
X89189000Y-87920500D01*
X89149000Y-90988500D02*
X89149000Y-90312500D01*
X89149000Y-88632500D02*
X89149000Y-87956500D01*
X89109000Y-90950500D02*
X89109000Y-90312500D01*
X89109000Y-88632500D02*
X89109000Y-87994500D01*
X89069000Y-90910500D02*
X89069000Y-90312500D01*
X89069000Y-88632500D02*
X89069000Y-88034500D01*
X89029000Y-90868500D02*
X89029000Y-90312500D01*
X89029000Y-88632500D02*
X89029000Y-88076500D01*
X88989000Y-90823500D02*
X88989000Y-88121500D01*
X88949000Y-90776500D02*
X88949000Y-88168500D01*
X88909000Y-90726500D02*
X88909000Y-88218500D01*
X88869000Y-90672500D02*
X88869000Y-88272500D01*
X88829000Y-90614500D02*
X88829000Y-88330500D01*
X88789000Y-90552500D02*
X88789000Y-88392500D01*
X88749000Y-90485500D02*
X88749000Y-88459500D01*
X88709000Y-90412500D02*
X88709000Y-88532500D01*
X88669000Y-90331500D02*
X88669000Y-88613500D01*
X88629000Y-90240500D02*
X88629000Y-88704500D01*
X88589000Y-90136500D02*
X88589000Y-88808500D01*
X88549000Y-90009500D02*
X88549000Y-88935500D01*
X88509000Y-89842500D02*
X88509000Y-89102500D01*
X92710000Y-89472500D02*
G75*
G03*
X92710000Y-89472500I-2120000J0D01*
G01*
%TO.C,L4*%
X99022500Y-85835000D02*
X99022500Y-85685000D01*
X99022500Y-85835000D02*
X95502500Y-85835000D01*
X99022500Y-82315000D02*
X99022500Y-82465000D01*
X99022500Y-82315000D02*
X95502500Y-82315000D01*
X95502500Y-85835000D02*
X95502500Y-85685000D01*
X95502500Y-82315000D02*
X95502500Y-82465000D01*
%TO.C,C15*%
X103935000Y-98185580D02*
X103935000Y-97904420D01*
X104955000Y-98185580D02*
X104955000Y-97904420D01*
%TD*%
M02*
