%TF.GenerationSoftware,KiCad,Pcbnew,7.0.6*%
%TF.CreationDate,2024-03-05T13:52:18+08:00*%
%TF.ProjectId,TypeC2DoubleVoltage,54797065-4332-4446-9f75-626c65566f6c,rev?*%
%TF.SameCoordinates,Original*%
%TF.FileFunction,Paste,Top*%
%TF.FilePolarity,Positive*%
%FSLAX46Y46*%
G04 Gerber Fmt 4.6, Leading zero omitted, Abs format (unit mm)*
G04 Created by KiCad (PCBNEW 7.0.6) date 2024-03-05 13:52:18*
%MOMM*%
%LPD*%
G01*
G04 APERTURE LIST*
G04 Aperture macros list*
%AMRoundRect*
0 Rectangle with rounded corners*
0 $1 Rounding radius*
0 $2 $3 $4 $5 $6 $7 $8 $9 X,Y pos of 4 corners*
0 Add a 4 corners polygon primitive as box body*
4,1,4,$2,$3,$4,$5,$6,$7,$8,$9,$2,$3,0*
0 Add four circle primitives for the rounded corners*
1,1,$1+$1,$2,$3*
1,1,$1+$1,$4,$5*
1,1,$1+$1,$6,$7*
1,1,$1+$1,$8,$9*
0 Add four rect primitives between the rounded corners*
20,1,$1+$1,$2,$3,$4,$5,0*
20,1,$1+$1,$4,$5,$6,$7,0*
20,1,$1+$1,$6,$7,$8,$9,0*
20,1,$1+$1,$8,$9,$2,$3,0*%
G04 Aperture macros list end*
%ADD10RoundRect,0.200000X-0.200000X-0.275000X0.200000X-0.275000X0.200000X0.275000X-0.200000X0.275000X0*%
%ADD11R,0.800000X2.700000*%
%ADD12RoundRect,0.150000X-0.825000X-0.150000X0.825000X-0.150000X0.825000X0.150000X-0.825000X0.150000X0*%
%ADD13RoundRect,0.225000X-0.250000X0.225000X-0.250000X-0.225000X0.250000X-0.225000X0.250000X0.225000X0*%
%ADD14R,3.700000X1.100000*%
%ADD15RoundRect,0.200000X0.275000X-0.200000X0.275000X0.200000X-0.275000X0.200000X-0.275000X-0.200000X0*%
%ADD16RoundRect,0.250000X0.475000X-0.250000X0.475000X0.250000X-0.475000X0.250000X-0.475000X-0.250000X0*%
%ADD17RoundRect,0.200000X0.200000X0.275000X-0.200000X0.275000X-0.200000X-0.275000X0.200000X-0.275000X0*%
%ADD18RoundRect,0.250000X0.312500X0.625000X-0.312500X0.625000X-0.312500X-0.625000X0.312500X-0.625000X0*%
%ADD19RoundRect,0.225000X0.250000X-0.225000X0.250000X0.225000X-0.250000X0.225000X-0.250000X-0.225000X0*%
%ADD20R,1.500000X2.000000*%
%ADD21R,3.800000X2.000000*%
%ADD22RoundRect,0.250000X-0.300000X0.300000X-0.300000X-0.300000X0.300000X-0.300000X0.300000X0.300000X0*%
%ADD23RoundRect,0.250000X-0.475000X0.250000X-0.475000X-0.250000X0.475000X-0.250000X0.475000X0.250000X0*%
%ADD24R,1.000000X0.700000*%
%ADD25R,1.000000X0.800000*%
%ADD26RoundRect,0.218750X-0.218750X-0.256250X0.218750X-0.256250X0.218750X0.256250X-0.218750X0.256250X0*%
%ADD27RoundRect,0.250000X0.250000X0.475000X-0.250000X0.475000X-0.250000X-0.475000X0.250000X-0.475000X0*%
%ADD28RoundRect,0.200000X-0.275000X0.200000X-0.275000X-0.200000X0.275000X-0.200000X0.275000X0.200000X0*%
%ADD29R,1.100000X3.700000*%
%ADD30R,2.700000X0.800000*%
%ADD31R,2.000000X1.500000*%
%ADD32R,2.000000X3.800000*%
%ADD33RoundRect,0.250000X0.300000X-0.300000X0.300000X0.300000X-0.300000X0.300000X-0.300000X-0.300000X0*%
G04 APERTURE END LIST*
D10*
%TO.C,R7*%
X112000000Y-90425000D03*
X113650000Y-90425000D03*
%TD*%
D11*
%TO.C,L8*%
X95872500Y-94552500D03*
X93572500Y-94552500D03*
%TD*%
D12*
%TO.C,U3*%
X107050000Y-94870000D03*
X107050000Y-96140000D03*
X107050000Y-97410000D03*
X107050000Y-98680000D03*
X112000000Y-98680000D03*
X112000000Y-97410000D03*
X112000000Y-96140000D03*
X112000000Y-94870000D03*
%TD*%
D13*
%TO.C,C1*%
X117025000Y-79490000D03*
X117025000Y-81040000D03*
%TD*%
D14*
%TO.C,L6*%
X103175000Y-95417500D03*
X103175000Y-92417500D03*
%TD*%
D15*
%TO.C,R3*%
X116827500Y-93790000D03*
X116827500Y-92140000D03*
%TD*%
D16*
%TO.C,C13*%
X114605000Y-101025000D03*
X114605000Y-99125000D03*
%TD*%
D17*
%TO.C,R14*%
X85585000Y-91060000D03*
X83935000Y-91060000D03*
%TD*%
D15*
%TO.C,R9*%
X93015000Y-86170000D03*
X93015000Y-84520000D03*
%TD*%
D18*
%TO.C,R10*%
X110035000Y-92647500D03*
X107110000Y-92647500D03*
%TD*%
D19*
%TO.C,C12*%
X116827500Y-100675000D03*
X116827500Y-99125000D03*
%TD*%
D12*
%TO.C,U1*%
X107050000Y-84710000D03*
X107050000Y-85980000D03*
X107050000Y-87250000D03*
X107050000Y-88520000D03*
X112000000Y-88520000D03*
X112000000Y-87250000D03*
X112000000Y-85980000D03*
X112000000Y-84710000D03*
%TD*%
D17*
%TO.C,R2*%
X117017500Y-90425000D03*
X115367500Y-90425000D03*
%TD*%
D20*
%TO.C,U4*%
X89600000Y-93307500D03*
X87300000Y-93307500D03*
D21*
X87300000Y-99607500D03*
D20*
X85000000Y-93307500D03*
%TD*%
D22*
%TO.C,D4*%
X102222500Y-97280000D03*
X102222500Y-100080000D03*
%TD*%
D23*
%TO.C,C14*%
X97777500Y-99632500D03*
X97777500Y-101532500D03*
%TD*%
D19*
%TO.C,C3*%
X98730000Y-88482500D03*
X98730000Y-86932500D03*
%TD*%
D16*
%TO.C,C17*%
X97777500Y-93915000D03*
X97777500Y-92015000D03*
%TD*%
D19*
%TO.C,C9*%
X99682500Y-93917500D03*
X99682500Y-92367500D03*
%TD*%
D17*
%TO.C,R11*%
X106095000Y-100407500D03*
X104445000Y-100407500D03*
%TD*%
D24*
%TO.C,J1*%
X120002500Y-90925000D03*
D25*
X120002500Y-88925000D03*
X120002500Y-87725000D03*
D24*
X120002500Y-89925000D03*
D25*
X120002500Y-91925000D03*
X120002500Y-93125000D03*
%TD*%
D26*
%TO.C,D1*%
X113665000Y-92140000D03*
X115240000Y-92140000D03*
%TD*%
D27*
%TO.C,C7*%
X100312500Y-80900000D03*
X98412500Y-80900000D03*
%TD*%
D28*
%TO.C,R8*%
X91110000Y-84520000D03*
X91110000Y-86170000D03*
%TD*%
D18*
%TO.C,R4*%
X114725000Y-80582500D03*
X111800000Y-80582500D03*
%TD*%
D10*
%TO.C,R5*%
X111557500Y-82805000D03*
X113207500Y-82805000D03*
%TD*%
D29*
%TO.C,L2*%
X109755000Y-81535000D03*
X106755000Y-81535000D03*
%TD*%
D30*
%TO.C,L7*%
X98730000Y-97925000D03*
X98730000Y-95625000D03*
%TD*%
D13*
%TO.C,C5*%
X102222500Y-83477500D03*
X102222500Y-85027500D03*
%TD*%
D16*
%TO.C,C2*%
X114605000Y-88835000D03*
X114605000Y-86935000D03*
%TD*%
D28*
%TO.C,R12*%
X112065000Y-100407500D03*
X112065000Y-102057500D03*
%TD*%
%TO.C,R1*%
X116510000Y-87060000D03*
X116510000Y-88710000D03*
%TD*%
D10*
%TO.C,R6*%
X108572500Y-90425000D03*
X110222500Y-90425000D03*
%TD*%
D28*
%TO.C,R13*%
X87300000Y-89410000D03*
X87300000Y-91060000D03*
%TD*%
D31*
%TO.C,U2*%
X88545000Y-85740000D03*
X88545000Y-83440000D03*
D32*
X82245000Y-83440000D03*
D31*
X88545000Y-81140000D03*
%TD*%
D13*
%TO.C,C16*%
X99682500Y-99632500D03*
X99682500Y-101182500D03*
%TD*%
D33*
%TO.C,D3*%
X104445000Y-85157500D03*
X104445000Y-82357500D03*
%TD*%
D11*
%TO.C,L5*%
X116707500Y-96457500D03*
X114407500Y-96457500D03*
%TD*%
%TO.C,L1*%
X117025000Y-84075000D03*
X114725000Y-84075000D03*
%TD*%
%TO.C,L3*%
X102857500Y-88202500D03*
X100557500Y-88202500D03*
%TD*%
D23*
%TO.C,C6*%
X100317500Y-83127500D03*
X100317500Y-85027500D03*
%TD*%
D19*
%TO.C,C4*%
X104762500Y-88800000D03*
X104762500Y-87250000D03*
%TD*%
D11*
%TO.C,L4*%
X98412500Y-84075000D03*
X96112500Y-84075000D03*
%TD*%
D19*
%TO.C,C15*%
X104445000Y-98820000D03*
X104445000Y-97270000D03*
%TD*%
M02*
