M48
; DRILL file {KiCad 7.0.6} date Tue Mar  5 13:52:20 2024
; FORMAT={-:-/ absolute / inch / decimal}
; #@! TF.CreationDate,2024-03-05T13:52:20+08:00
; #@! TF.GenerationSoftware,Kicad,Pcbnew,7.0.6
; #@! TF.FileFunction,Plated,1,2,PTH
FMAT,2
INCH
; #@! TA.AperFunction,Plated,PTH,ViaDrill
T1C0.0160
; #@! TA.AperFunction,Plated,PTH,ComponentDrill
T2C0.0236
; #@! TA.AperFunction,Plated,PTH,ComponentDrill
T3C0.0315
; #@! TA.AperFunction,Plated,PTH,ComponentDrill
T4C0.0394
; #@! TA.AperFunction,Plated,PTH,ComponentDrill
T5C0.1260
%
G90
G05
T1
X2.912Y-3.51
X2.912Y-3.56
X2.912Y-3.61
X2.962Y-3.36
X2.962Y-3.51
X2.962Y-3.56
X2.962Y-3.61
X2.987Y-3.735
X3.012Y-3.36
X3.012Y-3.51
X3.012Y-3.56
X3.012Y-3.61
X3.037Y-3.735
X3.062Y-3.36
X3.062Y-3.51
X3.062Y-3.56
X3.062Y-3.61
X3.087Y-3.735
X3.112Y-3.31
X3.112Y-3.36
X3.112Y-3.56
X3.112Y-3.61
X3.162Y-3.11
X3.162Y-3.86
X3.162Y-3.91
X3.162Y-3.96
X3.162Y-4.01
X3.212Y-3.11
X3.212Y-3.86
X3.212Y-3.91
X3.212Y-3.96
X3.212Y-4.01
X3.262Y-3.11
X3.262Y-3.46
X3.262Y-3.51
X3.262Y-3.76
X3.262Y-3.81
X3.262Y-3.86
X3.262Y-3.91
X3.262Y-3.96
X3.262Y-4.01
X3.312Y-3.11
X3.312Y-3.46
X3.312Y-3.51
X3.312Y-4.01
X3.362Y-3.11
X3.362Y-3.46
X3.362Y-3.51
X3.362Y-4.01
X3.412Y-3.11
X3.412Y-3.46
X3.412Y-4.01
X3.462Y-3.11
X3.462Y-3.46
X3.462Y-4.01
X3.512Y-3.11
X3.512Y-3.46
X3.512Y-4.01
X3.562Y-3.11
X3.562Y-3.46
X3.562Y-4.01
X3.612Y-3.46
X3.612Y-3.61
X3.612Y-4.01
X3.662Y-3.56
X3.662Y-3.61
X3.712Y-3.11
X3.712Y-3.56
X3.712Y-3.61
X3.762Y-3.11
X3.762Y-3.56
X3.762Y-3.61
X3.762Y-4.01
X3.812Y-3.11
X3.812Y-3.56
X3.862Y-3.11
X3.862Y-3.56
X3.912Y-3.11
X3.912Y-3.56
X3.962Y-3.11
X3.962Y-3.585
X3.962Y-4.01
X4.012Y-3.11
X4.012Y-3.16
X4.012Y-3.21
X4.012Y-3.585
X4.012Y-4.01
X4.062Y-3.11
X4.062Y-3.16
X4.062Y-4.01
X4.112Y-3.11
X4.112Y-4.01
X4.162Y-3.11
X4.162Y-4.01
X4.212Y-3.11
X4.212Y-4.01
X4.262Y-3.11
X4.262Y-4.01
X4.287Y-3.435
X4.287Y-3.485
X4.312Y-3.11
X4.312Y-4.01
X4.337Y-3.485
X4.362Y-3.11
X4.362Y-4.01
X4.412Y-3.11
X4.462Y-3.11
X4.462Y-4.01
X4.509Y-3.56
X4.512Y-3.11
X4.562Y-3.11
X4.562Y-4.01
X4.612Y-4.01
X4.662Y-3.11
X4.662Y-4.01
X4.912Y-3.46
X4.912Y-3.51
X4.912Y-3.56
X4.912Y-3.61
X4.912Y-3.66
T2
X3.537Y-3.5225
X3.5961Y-3.5225
X3.728Y-3.485
X3.787Y-3.485
T3
X3.1745Y-3.4475
X3.1745Y-3.5263
X3.1745Y-3.6725
X3.1745Y-3.7513
X3.6495Y-3.1438
X3.6495Y-3.2225
X3.687Y-3.885
X3.687Y-3.9638
T4
X2.812Y-3.11
X2.812Y-3.21
X2.812Y-3.31
X2.812Y-3.41
X2.812Y-3.51
X2.812Y-3.61
X2.812Y-3.71
X2.812Y-3.81
X2.812Y-3.91
X2.812Y-4.01
T5
X3.012Y-3.21
X3.012Y-3.91
X4.812Y-3.21
X4.812Y-3.91
T2
G00X4.7088Y-3.39
M15
G01X4.7403Y-3.39
M16
G05
G00X4.7088Y-3.7301
M15
G01X4.7403Y-3.7301
M16
G05
G00X4.8584Y-3.39
M15
G01X4.8899Y-3.39
M16
G05
G00X4.8584Y-3.7301
M15
G01X4.8899Y-3.7301
M16
G05
T0
M30
