%TF.GenerationSoftware,KiCad,Pcbnew,7.0.6*%
%TF.CreationDate,2024-03-05T13:52:18+08:00*%
%TF.ProjectId,TypeC2DoubleVoltage,54797065-4332-4446-9f75-626c65566f6c,rev?*%
%TF.SameCoordinates,Original*%
%TF.FileFunction,Copper,L1,Top*%
%TF.FilePolarity,Positive*%
%FSLAX46Y46*%
G04 Gerber Fmt 4.6, Leading zero omitted, Abs format (unit mm)*
G04 Created by KiCad (PCBNEW 7.0.6) date 2024-03-05 13:52:18*
%MOMM*%
%LPD*%
G01*
G04 APERTURE LIST*
G04 Aperture macros list*
%AMRoundRect*
0 Rectangle with rounded corners*
0 $1 Rounding radius*
0 $2 $3 $4 $5 $6 $7 $8 $9 X,Y pos of 4 corners*
0 Add a 4 corners polygon primitive as box body*
4,1,4,$2,$3,$4,$5,$6,$7,$8,$9,$2,$3,0*
0 Add four circle primitives for the rounded corners*
1,1,$1+$1,$2,$3*
1,1,$1+$1,$4,$5*
1,1,$1+$1,$6,$7*
1,1,$1+$1,$8,$9*
0 Add four rect primitives between the rounded corners*
20,1,$1+$1,$2,$3,$4,$5,0*
20,1,$1+$1,$4,$5,$6,$7,0*
20,1,$1+$1,$6,$7,$8,$9,0*
20,1,$1+$1,$8,$9,$2,$3,0*%
G04 Aperture macros list end*
%TA.AperFunction,SMDPad,CuDef*%
%ADD10RoundRect,0.200000X-0.200000X-0.275000X0.200000X-0.275000X0.200000X0.275000X-0.200000X0.275000X0*%
%TD*%
%TA.AperFunction,SMDPad,CuDef*%
%ADD11R,0.800000X2.700000*%
%TD*%
%TA.AperFunction,ComponentPad*%
%ADD12R,1.200000X1.200000*%
%TD*%
%TA.AperFunction,ComponentPad*%
%ADD13C,1.200000*%
%TD*%
%TA.AperFunction,SMDPad,CuDef*%
%ADD14RoundRect,0.150000X-0.825000X-0.150000X0.825000X-0.150000X0.825000X0.150000X-0.825000X0.150000X0*%
%TD*%
%TA.AperFunction,SMDPad,CuDef*%
%ADD15RoundRect,0.225000X-0.250000X0.225000X-0.250000X-0.225000X0.250000X-0.225000X0.250000X0.225000X0*%
%TD*%
%TA.AperFunction,SMDPad,CuDef*%
%ADD16R,3.700000X1.100000*%
%TD*%
%TA.AperFunction,ComponentPad*%
%ADD17C,6.400000*%
%TD*%
%TA.AperFunction,SMDPad,CuDef*%
%ADD18RoundRect,0.200000X0.275000X-0.200000X0.275000X0.200000X-0.275000X0.200000X-0.275000X-0.200000X0*%
%TD*%
%TA.AperFunction,SMDPad,CuDef*%
%ADD19RoundRect,0.250000X0.475000X-0.250000X0.475000X0.250000X-0.475000X0.250000X-0.475000X-0.250000X0*%
%TD*%
%TA.AperFunction,SMDPad,CuDef*%
%ADD20RoundRect,0.200000X0.200000X0.275000X-0.200000X0.275000X-0.200000X-0.275000X0.200000X-0.275000X0*%
%TD*%
%TA.AperFunction,SMDPad,CuDef*%
%ADD21RoundRect,0.250000X0.312500X0.625000X-0.312500X0.625000X-0.312500X-0.625000X0.312500X-0.625000X0*%
%TD*%
%TA.AperFunction,SMDPad,CuDef*%
%ADD22RoundRect,0.225000X0.250000X-0.225000X0.250000X0.225000X-0.250000X0.225000X-0.250000X-0.225000X0*%
%TD*%
%TA.AperFunction,ComponentPad*%
%ADD23R,1.600000X1.600000*%
%TD*%
%TA.AperFunction,ComponentPad*%
%ADD24C,1.600000*%
%TD*%
%TA.AperFunction,SMDPad,CuDef*%
%ADD25R,1.500000X2.000000*%
%TD*%
%TA.AperFunction,SMDPad,CuDef*%
%ADD26R,3.800000X2.000000*%
%TD*%
%TA.AperFunction,SMDPad,CuDef*%
%ADD27RoundRect,0.250000X-0.300000X0.300000X-0.300000X-0.300000X0.300000X-0.300000X0.300000X0.300000X0*%
%TD*%
%TA.AperFunction,SMDPad,CuDef*%
%ADD28RoundRect,0.250000X-0.475000X0.250000X-0.475000X-0.250000X0.475000X-0.250000X0.475000X0.250000X0*%
%TD*%
%TA.AperFunction,SMDPad,CuDef*%
%ADD29R,1.000000X0.700000*%
%TD*%
%TA.AperFunction,SMDPad,CuDef*%
%ADD30R,1.000000X0.800000*%
%TD*%
%TA.AperFunction,ComponentPad*%
%ADD31O,1.800000X1.000000*%
%TD*%
%TA.AperFunction,SMDPad,CuDef*%
%ADD32RoundRect,0.218750X-0.218750X-0.256250X0.218750X-0.256250X0.218750X0.256250X-0.218750X0.256250X0*%
%TD*%
%TA.AperFunction,SMDPad,CuDef*%
%ADD33RoundRect,0.250000X0.250000X0.475000X-0.250000X0.475000X-0.250000X-0.475000X0.250000X-0.475000X0*%
%TD*%
%TA.AperFunction,SMDPad,CuDef*%
%ADD34RoundRect,0.200000X-0.275000X0.200000X-0.275000X-0.200000X0.275000X-0.200000X0.275000X0.200000X0*%
%TD*%
%TA.AperFunction,SMDPad,CuDef*%
%ADD35R,1.100000X3.700000*%
%TD*%
%TA.AperFunction,SMDPad,CuDef*%
%ADD36R,2.700000X0.800000*%
%TD*%
%TA.AperFunction,SMDPad,CuDef*%
%ADD37R,2.000000X1.500000*%
%TD*%
%TA.AperFunction,SMDPad,CuDef*%
%ADD38R,2.000000X3.800000*%
%TD*%
%TA.AperFunction,SMDPad,CuDef*%
%ADD39RoundRect,0.250000X0.300000X-0.300000X0.300000X0.300000X-0.300000X0.300000X-0.300000X-0.300000X0*%
%TD*%
%TA.AperFunction,ComponentPad*%
%ADD40R,1.700000X1.700000*%
%TD*%
%TA.AperFunction,ComponentPad*%
%ADD41O,1.700000X1.700000*%
%TD*%
%TA.AperFunction,ViaPad*%
%ADD42C,0.812800*%
%TD*%
%TA.AperFunction,Conductor*%
%ADD43C,0.508000*%
%TD*%
%TA.AperFunction,Conductor*%
%ADD44C,0.254000*%
%TD*%
%TA.AperFunction,Conductor*%
%ADD45C,1.270000*%
%TD*%
G04 APERTURE END LIST*
D10*
%TO.P,R7,1*%
%TO.N,Net-(U1-Vfb)*%
X112000000Y-90425000D03*
%TO.P,R7,2*%
%TO.N,GNDREF*%
X113650000Y-90425000D03*
%TD*%
D11*
%TO.P,L8,1,1*%
%TO.N,Net-(C17-Pad1)*%
X95872500Y-94552500D03*
%TO.P,L8,2,2*%
%TO.N,/U4_Vin*%
X93572500Y-94552500D03*
%TD*%
D12*
%TO.P,C10,1*%
%TO.N,Net-(U2-ADJ)*%
X94690000Y-88520000D03*
D13*
%TO.P,C10,2*%
%TO.N,GNDREF*%
X96190000Y-88520000D03*
%TD*%
D14*
%TO.P,U3,1,SwC*%
%TO.N,Net-(U3-DC)*%
X107050000Y-94870000D03*
%TO.P,U3,2,SwE*%
%TO.N,Net-(D4-K)*%
X107050000Y-96140000D03*
%TO.P,U3,3,TC*%
%TO.N,Net-(U3-TC)*%
X107050000Y-97410000D03*
%TO.P,U3,4,GND*%
%TO.N,/U3_Vout*%
X107050000Y-98680000D03*
%TO.P,U3,5,Vfb*%
%TO.N,Net-(U3-Vfb)*%
X112000000Y-98680000D03*
%TO.P,U3,6,Vin*%
%TO.N,/U3_Vin*%
X112000000Y-97410000D03*
%TO.P,U3,7,Ipk*%
%TO.N,Net-(U3-DC)*%
X112000000Y-96140000D03*
%TO.P,U3,8,DC*%
X112000000Y-94870000D03*
%TD*%
D15*
%TO.P,C1,1*%
%TO.N,GNDREF*%
X117025000Y-79490000D03*
%TO.P,C1,2*%
%TO.N,VCC*%
X117025000Y-81040000D03*
%TD*%
D16*
%TO.P,L6,1,1*%
%TO.N,Net-(D4-K)*%
X103175000Y-95417500D03*
%TO.P,L6,2,2*%
%TO.N,GNDREF*%
X103175000Y-92417500D03*
%TD*%
D17*
%TO.P,H2,1,1*%
%TO.N,GNDREF*%
X76505000Y-99315000D03*
%TD*%
D18*
%TO.P,R3,1*%
%TO.N,VCC*%
X116827500Y-93790000D03*
%TO.P,R3,2*%
%TO.N,Net-(D1-A)*%
X116827500Y-92140000D03*
%TD*%
D19*
%TO.P,C13,1*%
%TO.N,GNDREF*%
X114605000Y-101025000D03*
%TO.P,C13,2*%
%TO.N,/U3_Vin*%
X114605000Y-99125000D03*
%TD*%
D20*
%TO.P,R14,1*%
%TO.N,Net-(U4-ADJ)*%
X85585000Y-91060000D03*
%TO.P,R14,2*%
%TO.N,-12V*%
X83935000Y-91060000D03*
%TD*%
D18*
%TO.P,R9,1*%
%TO.N,Net-(U2-ADJ)*%
X93015000Y-86170000D03*
%TO.P,R9,2*%
%TO.N,GNDREF*%
X93015000Y-84520000D03*
%TD*%
D21*
%TO.P,R10,1*%
%TO.N,/U3_Vin*%
X110035000Y-92647500D03*
%TO.P,R10,2*%
%TO.N,Net-(U3-DC)*%
X107110000Y-92647500D03*
%TD*%
D22*
%TO.P,C12,1*%
%TO.N,GNDREF*%
X116827500Y-100675000D03*
%TO.P,C12,2*%
%TO.N,VCC*%
X116827500Y-99125000D03*
%TD*%
D14*
%TO.P,U1,1,SwC*%
%TO.N,Net-(D3-A)*%
X107050000Y-84710000D03*
%TO.P,U1,2,SwE*%
%TO.N,GNDREF*%
X107050000Y-85980000D03*
%TO.P,U1,3,TC*%
%TO.N,Net-(U1-TC)*%
X107050000Y-87250000D03*
%TO.P,U1,4,GND*%
%TO.N,GNDREF*%
X107050000Y-88520000D03*
%TO.P,U1,5,Vfb*%
%TO.N,Net-(U1-Vfb)*%
X112000000Y-88520000D03*
%TO.P,U1,6,Vin*%
%TO.N,/U1_Vin*%
X112000000Y-87250000D03*
%TO.P,U1,7,Ipk*%
%TO.N,Net-(U1-Ipk)*%
X112000000Y-85980000D03*
%TO.P,U1,8,DC*%
%TO.N,Net-(U1-DC)*%
X112000000Y-84710000D03*
%TD*%
D23*
%TO.P,C19,1*%
%TO.N,GNDREF*%
X93650000Y-100680000D03*
D24*
%TO.P,C19,2*%
%TO.N,/U4_Vin*%
X93650000Y-98680000D03*
%TD*%
D20*
%TO.P,R2,1*%
%TO.N,Net-(J1-CC1)*%
X117017500Y-90425000D03*
%TO.P,R2,2*%
%TO.N,GNDREF*%
X115367500Y-90425000D03*
%TD*%
D25*
%TO.P,U4,1,ADJ*%
%TO.N,Net-(U4-ADJ)*%
X89600000Y-93307500D03*
%TO.P,U4,2,VI*%
%TO.N,/U4_Vin*%
X87300000Y-93307500D03*
D26*
X87300000Y-99607500D03*
D25*
%TO.P,U4,3,VO*%
%TO.N,-12V*%
X85000000Y-93307500D03*
%TD*%
D27*
%TO.P,D4,1,K*%
%TO.N,Net-(D4-K)*%
X102222500Y-97280000D03*
%TO.P,D4,2,A*%
%TO.N,/U3_Vout*%
X102222500Y-100080000D03*
%TD*%
D23*
%TO.P,C8,1*%
%TO.N,/U2_Vin*%
X92697500Y-81852500D03*
D24*
%TO.P,C8,2*%
%TO.N,GNDREF*%
X92697500Y-79852500D03*
%TD*%
D28*
%TO.P,C14,1*%
%TO.N,/U3_Vout*%
X97777500Y-99632500D03*
%TO.P,C14,2*%
%TO.N,GNDREF*%
X97777500Y-101532500D03*
%TD*%
D22*
%TO.P,C3,1*%
%TO.N,GNDREF*%
X98730000Y-88482500D03*
%TO.P,C3,2*%
%TO.N,Net-(C3-Pad2)*%
X98730000Y-86932500D03*
%TD*%
D19*
%TO.P,C17,1*%
%TO.N,Net-(C17-Pad1)*%
X97777500Y-93915000D03*
%TO.P,C17,2*%
%TO.N,GNDREF*%
X97777500Y-92015000D03*
%TD*%
D22*
%TO.P,C9,1*%
%TO.N,Net-(C17-Pad1)*%
X99682500Y-93917500D03*
%TO.P,C9,2*%
%TO.N,GNDREF*%
X99682500Y-92367500D03*
%TD*%
D20*
%TO.P,R11,1*%
%TO.N,Net-(U3-Vfb)*%
X106095000Y-100407500D03*
%TO.P,R11,2*%
%TO.N,/U3_Vout*%
X104445000Y-100407500D03*
%TD*%
D29*
%TO.P,J1,A5,CC1*%
%TO.N,Net-(J1-CC1)*%
X120002500Y-90925000D03*
D30*
%TO.P,J1,A9,VBUS*%
%TO.N,VCC*%
X120002500Y-88925000D03*
%TO.P,J1,A12,GND*%
%TO.N,GNDREF*%
X120002500Y-87725000D03*
D29*
%TO.P,J1,B5,CC2*%
%TO.N,Net-(J1-CC2)*%
X120002500Y-89925000D03*
D30*
%TO.P,J1,B9,VBUS*%
%TO.N,VCC*%
X120002500Y-91925000D03*
%TO.P,J1,B12,GND*%
%TO.N,GNDREF*%
X120002500Y-93125000D03*
D31*
%TO.P,J1,S1,SHIELD*%
X120002500Y-94745000D03*
X123802500Y-94745000D03*
X120002500Y-86105000D03*
X123802500Y-86105000D03*
%TD*%
D32*
%TO.P,D1,1,K*%
%TO.N,GNDREF*%
X113665000Y-92140000D03*
%TO.P,D1,2,A*%
%TO.N,Net-(D1-A)*%
X115240000Y-92140000D03*
%TD*%
D23*
%TO.P,C11,1*%
%TO.N,+12V*%
X80632500Y-87567500D03*
D24*
%TO.P,C11,2*%
%TO.N,GNDREF*%
X80632500Y-89567500D03*
%TD*%
D33*
%TO.P,C7,1*%
%TO.N,GNDREF*%
X100312500Y-80900000D03*
%TO.P,C7,2*%
%TO.N,Net-(C3-Pad2)*%
X98412500Y-80900000D03*
%TD*%
D34*
%TO.P,R8,1*%
%TO.N,+12V*%
X91110000Y-84520000D03*
%TO.P,R8,2*%
%TO.N,Net-(U2-ADJ)*%
X91110000Y-86170000D03*
%TD*%
D21*
%TO.P,R4,1*%
%TO.N,/U1_Vin*%
X114725000Y-80582500D03*
%TO.P,R4,2*%
%TO.N,Net-(U1-Ipk)*%
X111800000Y-80582500D03*
%TD*%
D10*
%TO.P,R5,1*%
%TO.N,Net-(U1-Ipk)*%
X111557500Y-82805000D03*
%TO.P,R5,2*%
%TO.N,Net-(U1-DC)*%
X113207500Y-82805000D03*
%TD*%
D17*
%TO.P,H4,1,1*%
%TO.N,GNDREF*%
X122225000Y-99315000D03*
%TD*%
D35*
%TO.P,L2,1,1*%
%TO.N,Net-(U1-Ipk)*%
X109755000Y-81535000D03*
%TO.P,L2,2,2*%
%TO.N,Net-(D3-A)*%
X106755000Y-81535000D03*
%TD*%
D17*
%TO.P,H1,1,1*%
%TO.N,GNDREF*%
X76505000Y-81535000D03*
%TD*%
D36*
%TO.P,L7,1,1*%
%TO.N,/U3_Vout*%
X98730000Y-97925000D03*
%TO.P,L7,2,2*%
%TO.N,Net-(C17-Pad1)*%
X98730000Y-95625000D03*
%TD*%
D15*
%TO.P,C5,1*%
%TO.N,GNDREF*%
X102222500Y-83477500D03*
%TO.P,C5,2*%
%TO.N,/U1_Vout*%
X102222500Y-85027500D03*
%TD*%
D19*
%TO.P,C2,1*%
%TO.N,GNDREF*%
X114605000Y-88835000D03*
%TO.P,C2,2*%
%TO.N,/U1_Vin*%
X114605000Y-86935000D03*
%TD*%
D34*
%TO.P,R12,1*%
%TO.N,Net-(U3-Vfb)*%
X112065000Y-100407500D03*
%TO.P,R12,2*%
%TO.N,GNDREF*%
X112065000Y-102057500D03*
%TD*%
%TO.P,R1,1*%
%TO.N,Net-(J1-CC2)*%
X116510000Y-87060000D03*
%TO.P,R1,2*%
%TO.N,GNDREF*%
X116510000Y-88710000D03*
%TD*%
D10*
%TO.P,R6,1*%
%TO.N,/U1_Vout*%
X108572500Y-90425000D03*
%TO.P,R6,2*%
%TO.N,Net-(U1-Vfb)*%
X110222500Y-90425000D03*
%TD*%
D34*
%TO.P,R13,1*%
%TO.N,GNDREF*%
X87300000Y-89410000D03*
%TO.P,R13,2*%
%TO.N,Net-(U4-ADJ)*%
X87300000Y-91060000D03*
%TD*%
D37*
%TO.P,U2,1,ADJ*%
%TO.N,Net-(U2-ADJ)*%
X88545000Y-85740000D03*
%TO.P,U2,2,VO*%
%TO.N,+12V*%
X88545000Y-83440000D03*
D38*
X82245000Y-83440000D03*
D37*
%TO.P,U2,3,VI*%
%TO.N,/U2_Vin*%
X88545000Y-81140000D03*
%TD*%
D15*
%TO.P,C16,1*%
%TO.N,/U3_Vout*%
X99682500Y-99632500D03*
%TO.P,C16,2*%
%TO.N,GNDREF*%
X99682500Y-101182500D03*
%TD*%
D39*
%TO.P,D3,1,K*%
%TO.N,/U1_Vout*%
X104445000Y-85157500D03*
%TO.P,D3,2,A*%
%TO.N,Net-(D3-A)*%
X104445000Y-82357500D03*
%TD*%
D11*
%TO.P,L5,1,1*%
%TO.N,VCC*%
X116707500Y-96457500D03*
%TO.P,L5,2,2*%
%TO.N,/U3_Vin*%
X114407500Y-96457500D03*
%TD*%
%TO.P,L1,1,1*%
%TO.N,VCC*%
X117025000Y-84075000D03*
%TO.P,L1,2,2*%
%TO.N,/U1_Vin*%
X114725000Y-84075000D03*
%TD*%
D23*
%TO.P,C22,1*%
%TO.N,GNDREF*%
X80632500Y-95282500D03*
D24*
%TO.P,C22,2*%
%TO.N,-12V*%
X80632500Y-93282500D03*
%TD*%
D11*
%TO.P,L3,1,1*%
%TO.N,/U1_Vout*%
X102857500Y-88202500D03*
%TO.P,L3,2,2*%
%TO.N,Net-(C3-Pad2)*%
X100557500Y-88202500D03*
%TD*%
D28*
%TO.P,C6,1*%
%TO.N,GNDREF*%
X100317500Y-83127500D03*
%TO.P,C6,2*%
%TO.N,/U1_Vout*%
X100317500Y-85027500D03*
%TD*%
D40*
%TO.P,J2,1,Pin_1*%
%TO.N,-12V*%
X71425000Y-101855000D03*
D41*
%TO.P,J2,2,Pin_2*%
X71425000Y-99315000D03*
%TO.P,J2,3,Pin_3*%
X71425000Y-96775000D03*
%TO.P,J2,4,Pin_4*%
%TO.N,GNDREF*%
X71425000Y-94235000D03*
%TO.P,J2,5,Pin_5*%
X71425000Y-91695000D03*
%TO.P,J2,6,Pin_6*%
X71425000Y-89155000D03*
%TO.P,J2,7,Pin_7*%
X71425000Y-86615000D03*
%TO.P,J2,8,Pin_8*%
%TO.N,+12V*%
X71425000Y-84075000D03*
%TO.P,J2,9,Pin_9*%
X71425000Y-81535000D03*
%TO.P,J2,10,Pin_10*%
X71425000Y-78995000D03*
%TD*%
D22*
%TO.P,C4,1*%
%TO.N,GNDREF*%
X104762500Y-88800000D03*
%TO.P,C4,2*%
%TO.N,Net-(U1-TC)*%
X104762500Y-87250000D03*
%TD*%
D12*
%TO.P,C21,1*%
%TO.N,GNDREF*%
X91340000Y-89472500D03*
D13*
%TO.P,C21,2*%
%TO.N,Net-(U4-ADJ)*%
X89840000Y-89472500D03*
%TD*%
D11*
%TO.P,L4,1,1*%
%TO.N,Net-(C3-Pad2)*%
X98412500Y-84075000D03*
%TO.P,L4,2,2*%
%TO.N,/U2_Vin*%
X96112500Y-84075000D03*
%TD*%
D22*
%TO.P,C15,1*%
%TO.N,/U3_Vout*%
X104445000Y-98820000D03*
%TO.P,C15,2*%
%TO.N,Net-(U3-TC)*%
X104445000Y-97270000D03*
%TD*%
D17*
%TO.P,H3,1,1*%
%TO.N,GNDREF*%
X122225000Y-81535000D03*
%TD*%
D42*
%TO.N,GNDREF*%
X89205000Y-101855000D03*
X103175000Y-78995000D03*
X77775000Y-85345000D03*
X76505000Y-89155000D03*
X85395000Y-78995000D03*
X99365000Y-90425000D03*
X89205000Y-78995000D03*
X81585000Y-99315000D03*
X117145000Y-101855000D03*
X118415000Y-78995000D03*
X82855000Y-101855000D03*
X80315000Y-99315000D03*
X100635000Y-78995000D03*
X75235000Y-85345000D03*
X110160000Y-88520000D03*
X94285000Y-91695000D03*
X79045000Y-91695000D03*
X82855000Y-98045000D03*
X77140000Y-94870000D03*
X89205000Y-87885000D03*
X114605000Y-78995000D03*
X118415000Y-101855000D03*
X90475000Y-87885000D03*
X99365000Y-78995000D03*
X90475000Y-101855000D03*
X75235000Y-91695000D03*
X113335000Y-101855000D03*
X91745000Y-91695000D03*
X106985000Y-101855000D03*
X81585000Y-101855000D03*
X81585000Y-100585000D03*
X110795000Y-101855000D03*
X93015000Y-90425000D03*
X104445000Y-78995000D03*
X86665000Y-78995000D03*
X105715000Y-78995000D03*
X81585000Y-78995000D03*
X96825000Y-90425000D03*
X101905000Y-91060000D03*
X115875000Y-78995000D03*
X101905000Y-78995000D03*
X91745000Y-87885000D03*
X109525000Y-78995000D03*
X85395000Y-87885000D03*
X76505000Y-91695000D03*
X75235000Y-90425000D03*
X82855000Y-89155000D03*
X80315000Y-78995000D03*
X82855000Y-96775000D03*
X73965000Y-89155000D03*
X108255000Y-101855000D03*
X109525000Y-101855000D03*
X124765000Y-92965000D03*
X103175000Y-80265000D03*
X80315000Y-100585000D03*
X94285000Y-78995000D03*
X76505000Y-85345000D03*
X95555000Y-78995000D03*
X101905000Y-81535000D03*
X91745000Y-101855000D03*
X114528800Y-90425000D03*
X108890000Y-87250000D03*
X78410000Y-94870000D03*
X124765000Y-89155000D03*
X93015000Y-91695000D03*
X73965000Y-90425000D03*
X105715000Y-101855000D03*
X90475000Y-78995000D03*
X95555000Y-90425000D03*
X104445000Y-101855000D03*
X115875000Y-101855000D03*
X100635000Y-101855000D03*
X124765000Y-91695000D03*
X110795000Y-78995000D03*
X77775000Y-91695000D03*
X82855000Y-100585000D03*
X124765000Y-90425000D03*
X100635000Y-91060000D03*
X85395000Y-101855000D03*
X86665000Y-101855000D03*
X101905000Y-80265000D03*
X79045000Y-84075000D03*
X79045000Y-90425000D03*
X85395000Y-89155000D03*
X82855000Y-99315000D03*
X73965000Y-91695000D03*
X86665000Y-87885000D03*
X87935000Y-101855000D03*
X77775000Y-90425000D03*
X75235000Y-89155000D03*
X82855000Y-95505000D03*
X98095000Y-90425000D03*
X84125000Y-87885000D03*
X95555000Y-101855000D03*
X87935000Y-87885000D03*
X77775000Y-89155000D03*
X80315000Y-101855000D03*
X124765000Y-87885000D03*
X84125000Y-101855000D03*
X80315000Y-98045000D03*
X108255000Y-78995000D03*
X87935000Y-78995000D03*
X84125000Y-78995000D03*
X76505000Y-90425000D03*
X98095000Y-78995000D03*
X106985000Y-78995000D03*
X113335000Y-78995000D03*
X95555000Y-91695000D03*
X79045000Y-85345000D03*
X84125000Y-89155000D03*
X103175000Y-101855000D03*
X108890000Y-88520000D03*
X75870000Y-94870000D03*
X82855000Y-78995000D03*
X101905000Y-101855000D03*
X94285000Y-90425000D03*
X81585000Y-98045000D03*
X82855000Y-87885000D03*
X96825000Y-78995000D03*
X112065000Y-78995000D03*
%TD*%
D43*
%TO.N,GNDREF*%
X120002500Y-94745000D02*
X123802500Y-94745000D01*
X120002500Y-93125000D02*
X120002500Y-94745000D01*
X107050000Y-88520000D02*
X105042500Y-88520000D01*
X105042500Y-88520000D02*
X104762500Y-88800000D01*
X120002500Y-86105000D02*
X123802500Y-86105000D01*
X120002500Y-87725000D02*
X120002500Y-86105000D01*
D44*
%TO.N,Net-(U1-TC)*%
X107050000Y-87250000D02*
X104762500Y-87250000D01*
D43*
%TO.N,/U1_Vout*%
X102857500Y-88202500D02*
X102857500Y-90107500D01*
X103175000Y-90425000D02*
X108572500Y-90425000D01*
X102857500Y-90107500D02*
X103175000Y-90425000D01*
%TO.N,Net-(U2-ADJ)*%
X88975000Y-86170000D02*
X88545000Y-85740000D01*
X93650000Y-88520000D02*
X94690000Y-88520000D01*
X93015000Y-86170000D02*
X93015000Y-87885000D01*
X93015000Y-86170000D02*
X88975000Y-86170000D01*
X93015000Y-87885000D02*
X93650000Y-88520000D01*
D45*
%TO.N,+12V*%
X71425000Y-78995000D02*
X71425000Y-84075000D01*
X82245000Y-85955000D02*
X82245000Y-83440000D01*
X74917500Y-87567500D02*
X80632500Y-87567500D01*
D43*
X90792500Y-83440000D02*
X91110000Y-83757500D01*
X88545000Y-83440000D02*
X90792500Y-83440000D01*
D45*
X80632500Y-87567500D02*
X82245000Y-85955000D01*
D43*
X91110000Y-83757500D02*
X91110000Y-84520000D01*
D45*
X71425000Y-84075000D02*
X74917500Y-87567500D01*
D44*
%TO.N,Net-(U3-TC)*%
X104585000Y-97410000D02*
X104445000Y-97270000D01*
X107050000Y-97410000D02*
X104585000Y-97410000D01*
D43*
%TO.N,Net-(U4-ADJ)*%
X85585000Y-91060000D02*
X87300000Y-91060000D01*
X89600000Y-91060000D02*
X89600000Y-89712500D01*
X89600000Y-93307500D02*
X89600000Y-91060000D01*
X89600000Y-89712500D02*
X89840000Y-89472500D01*
X87300000Y-91060000D02*
X89600000Y-91060000D01*
D45*
%TO.N,-12V*%
X71425000Y-101855000D02*
X71425000Y-96775000D01*
D43*
X81585000Y-91060000D02*
X80632500Y-92012500D01*
X80632500Y-92012500D02*
X80632500Y-93282500D01*
D45*
X82220000Y-93282500D02*
X84975000Y-93282500D01*
X80632500Y-93282500D02*
X74917500Y-93282500D01*
X84975000Y-93282500D02*
X85000000Y-93307500D01*
D43*
X83935000Y-91060000D02*
X81585000Y-91060000D01*
D45*
X80632500Y-93282500D02*
X82220000Y-93282500D01*
X74917500Y-93282500D02*
X71425000Y-96775000D01*
D43*
%TO.N,Net-(U1-DC)*%
X112000000Y-84710000D02*
X112700000Y-84710000D01*
X112700000Y-84710000D02*
X113207500Y-84202500D01*
X113207500Y-84202500D02*
X113207500Y-82805000D01*
%TO.N,Net-(U1-Vfb)*%
X112000000Y-90425000D02*
X112000000Y-88520000D01*
X110222500Y-90425000D02*
X112000000Y-90425000D01*
%TO.N,Net-(U3-Vfb)*%
X106095000Y-100407500D02*
X112065000Y-100407500D01*
X112065000Y-98745000D02*
X112000000Y-98680000D01*
X112065000Y-100407500D02*
X112065000Y-98745000D01*
D44*
%TO.N,Net-(D1-A)*%
X116827500Y-92140000D02*
X115240000Y-92140000D01*
%TO.N,Net-(J1-CC2)*%
X117462500Y-89472500D02*
X117462500Y-88012500D01*
X117915000Y-89925000D02*
X117462500Y-89472500D01*
X120002500Y-89925000D02*
X117915000Y-89925000D01*
X117462500Y-88012500D02*
X116510000Y-87060000D01*
%TO.N,Net-(J1-CC1)*%
X120002500Y-90925000D02*
X117517500Y-90925000D01*
X117517500Y-90925000D02*
X117017500Y-90425000D01*
%TD*%
%TA.AperFunction,Conductor*%
%TO.N,/U1_Vin*%
G36*
X114428536Y-79632185D02*
G01*
X114524752Y-79655900D01*
X114524754Y-79655900D01*
X114685246Y-79655900D01*
X114685248Y-79655900D01*
X114781463Y-79632185D01*
X114799460Y-79630000D01*
X115237530Y-79630000D01*
X115242442Y-79630322D01*
X115306019Y-79638691D01*
X115394539Y-79650345D01*
X115413491Y-79655423D01*
X115548357Y-79711287D01*
X115565355Y-79721101D01*
X115681158Y-79809960D01*
X115695039Y-79823841D01*
X115783898Y-79939644D01*
X115793714Y-79956645D01*
X115849574Y-80091502D01*
X115854655Y-80110464D01*
X115874678Y-80262556D01*
X115875000Y-80267469D01*
X115875000Y-86557653D01*
X115860306Y-86602308D01*
X115828631Y-86645226D01*
X115828629Y-86645229D01*
X115783380Y-86774546D01*
X115783378Y-86774555D01*
X115780500Y-86805242D01*
X115780500Y-87236756D01*
X115764960Y-87282534D01*
X115695039Y-87373658D01*
X115681158Y-87387540D01*
X115565355Y-87476398D01*
X115548354Y-87486214D01*
X115413497Y-87542074D01*
X115394535Y-87547155D01*
X115242443Y-87567178D01*
X115237530Y-87567500D01*
X111277167Y-87567500D01*
X111265403Y-87566574D01*
X111135845Y-87546054D01*
X111113469Y-87538784D01*
X111001927Y-87481950D01*
X110982893Y-87468120D01*
X110894379Y-87379606D01*
X110880549Y-87360572D01*
X110823713Y-87249026D01*
X110816445Y-87226653D01*
X110796863Y-87103012D01*
X110796863Y-87079486D01*
X110816446Y-86955842D01*
X110823713Y-86933475D01*
X110880552Y-86821922D01*
X110894376Y-86802896D01*
X110982896Y-86714376D01*
X111001922Y-86700552D01*
X111113475Y-86643713D01*
X111135842Y-86636446D01*
X111248309Y-86618633D01*
X111265404Y-86615926D01*
X111277167Y-86615000D01*
X112699997Y-86615000D01*
X112700000Y-86615000D01*
X112864350Y-86593363D01*
X113017500Y-86529926D01*
X113149013Y-86429013D01*
X113249926Y-86297500D01*
X113313363Y-86144350D01*
X113335000Y-85980000D01*
X113335000Y-84825274D01*
X113352593Y-84776937D01*
X113357014Y-84772112D01*
X113522698Y-84606428D01*
X113535208Y-84596348D01*
X113543921Y-84590750D01*
X113579047Y-84550210D01*
X113580830Y-84548296D01*
X113592780Y-84536348D01*
X113602895Y-84522835D01*
X113604556Y-84520772D01*
X113639676Y-84480243D01*
X113643979Y-84470819D01*
X113652180Y-84456996D01*
X113658388Y-84448704D01*
X113677126Y-84398463D01*
X113678147Y-84396001D01*
X113700418Y-84347237D01*
X113700418Y-84347235D01*
X113700419Y-84347234D01*
X113701893Y-84336977D01*
X113705867Y-84321405D01*
X113709488Y-84311701D01*
X113713314Y-84258202D01*
X113713596Y-84255579D01*
X113716000Y-84238868D01*
X113716000Y-84221994D01*
X113716096Y-84219311D01*
X113719920Y-84165852D01*
X113719919Y-84165849D01*
X113717719Y-84155735D01*
X113716000Y-84139748D01*
X113716000Y-83452125D01*
X113730694Y-83407470D01*
X113732510Y-83405010D01*
X113813869Y-83294773D01*
X113859121Y-83165451D01*
X113862000Y-83134749D01*
X113861999Y-82475252D01*
X113859121Y-82444549D01*
X113813869Y-82315227D01*
X113732510Y-82204990D01*
X113622273Y-82123631D01*
X113622270Y-82123629D01*
X113523995Y-82089242D01*
X113492951Y-82078379D01*
X113492946Y-82078378D01*
X113492944Y-82078378D01*
X113462257Y-82075500D01*
X113410200Y-82075500D01*
X113361862Y-82057907D01*
X113336142Y-82013358D01*
X113335000Y-82000300D01*
X113335000Y-80267469D01*
X113335322Y-80262557D01*
X113341513Y-80215524D01*
X113355345Y-80110458D01*
X113360422Y-80091510D01*
X113416288Y-79956638D01*
X113426097Y-79939649D01*
X113514961Y-79823839D01*
X113528839Y-79809961D01*
X113644649Y-79721097D01*
X113661638Y-79711288D01*
X113796510Y-79655422D01*
X113815458Y-79650345D01*
X113910217Y-79637870D01*
X113967558Y-79630322D01*
X113972470Y-79630000D01*
X114410540Y-79630000D01*
X114428536Y-79632185D01*
G37*
%TD.AperFunction*%
%TD*%
%TA.AperFunction,Conductor*%
%TO.N,/U1_Vout*%
G36*
X101690008Y-84089999D02*
G01*
X101703932Y-84100422D01*
X101740337Y-84127675D01*
X101869527Y-84175860D01*
X101926636Y-84182000D01*
X101926644Y-84182000D01*
X102518356Y-84182000D01*
X102518364Y-84182000D01*
X102575473Y-84175860D01*
X102704663Y-84127675D01*
X102754991Y-84089999D01*
X102800058Y-84075000D01*
X105077530Y-84075000D01*
X105082442Y-84075322D01*
X105146019Y-84083691D01*
X105234539Y-84095345D01*
X105253491Y-84100423D01*
X105388357Y-84156287D01*
X105405353Y-84166100D01*
X105463256Y-84210530D01*
X105521158Y-84254960D01*
X105535039Y-84268841D01*
X105623898Y-84384644D01*
X105633714Y-84401645D01*
X105689574Y-84536502D01*
X105694655Y-84555464D01*
X105714678Y-84707556D01*
X105715000Y-84712469D01*
X105715000Y-86793300D01*
X105697407Y-86841638D01*
X105652858Y-86867358D01*
X105639800Y-86868500D01*
X105518108Y-86868500D01*
X105469770Y-86850907D01*
X105447650Y-86819582D01*
X105437675Y-86792837D01*
X105355044Y-86682456D01*
X105244663Y-86599825D01*
X105163658Y-86569612D01*
X105115474Y-86551640D01*
X105115471Y-86551639D01*
X105058367Y-86545500D01*
X105058364Y-86545500D01*
X104466636Y-86545500D01*
X104466632Y-86545500D01*
X104409528Y-86551639D01*
X104409525Y-86551640D01*
X104314401Y-86587120D01*
X104280337Y-86599825D01*
X104280336Y-86599825D01*
X104280335Y-86599826D01*
X104280333Y-86599827D01*
X104169956Y-86682456D01*
X104087327Y-86792833D01*
X104087326Y-86792835D01*
X104087325Y-86792837D01*
X104075084Y-86825655D01*
X104039140Y-86922025D01*
X104039139Y-86922028D01*
X104033000Y-86979132D01*
X104033000Y-87520867D01*
X104039139Y-87577971D01*
X104039140Y-87577973D01*
X104087325Y-87707163D01*
X104169956Y-87817544D01*
X104280337Y-87900175D01*
X104409527Y-87948360D01*
X104426931Y-87950231D01*
X104473111Y-87972891D01*
X104493921Y-88019933D01*
X104479625Y-88069346D01*
X104436911Y-88098009D01*
X104426933Y-88099768D01*
X104409527Y-88101640D01*
X104409525Y-88101640D01*
X104313154Y-88137584D01*
X104280337Y-88149825D01*
X104280336Y-88149825D01*
X104280335Y-88149826D01*
X104280333Y-88149827D01*
X104169956Y-88232456D01*
X104087327Y-88342833D01*
X104087326Y-88342835D01*
X104039140Y-88472025D01*
X104039139Y-88472028D01*
X104033000Y-88529132D01*
X104033000Y-89070867D01*
X104039139Y-89127971D01*
X104039140Y-89127974D01*
X104048299Y-89152530D01*
X104087325Y-89257163D01*
X104169956Y-89367544D01*
X104280337Y-89450175D01*
X104409527Y-89498360D01*
X104466636Y-89504500D01*
X104466644Y-89504500D01*
X105058356Y-89504500D01*
X105058364Y-89504500D01*
X105115473Y-89498360D01*
X105244663Y-89450175D01*
X105355044Y-89367544D01*
X105437675Y-89257163D01*
X105485860Y-89127973D01*
X105489333Y-89095661D01*
X105511994Y-89049481D01*
X105559036Y-89028671D01*
X105564103Y-89028500D01*
X105639800Y-89028500D01*
X105688138Y-89046093D01*
X105713858Y-89090642D01*
X105715000Y-89103700D01*
X105715000Y-89152530D01*
X105714678Y-89157443D01*
X105694655Y-89309535D01*
X105689574Y-89328497D01*
X105633714Y-89463354D01*
X105623898Y-89480355D01*
X105535039Y-89596158D01*
X105521158Y-89610039D01*
X105405355Y-89698898D01*
X105388354Y-89708714D01*
X105253497Y-89764574D01*
X105234535Y-89769655D01*
X105082443Y-89789678D01*
X105077530Y-89790000D01*
X102224970Y-89790000D01*
X102220057Y-89789678D01*
X102067964Y-89769655D01*
X102049003Y-89764574D01*
X101914144Y-89708713D01*
X101897144Y-89698898D01*
X101781341Y-89610039D01*
X101767460Y-89596158D01*
X101697128Y-89504500D01*
X101678600Y-89480353D01*
X101668787Y-89463357D01*
X101612923Y-89328491D01*
X101607845Y-89309539D01*
X101587822Y-89157443D01*
X101587822Y-89157442D01*
X101587500Y-89152530D01*
X101587500Y-89028500D01*
X101587500Y-88148026D01*
X101565863Y-87983676D01*
X101535224Y-87909707D01*
X101529500Y-87880929D01*
X101529500Y-87193751D01*
X101529222Y-87185262D01*
X101529222Y-87185261D01*
X101528345Y-87171873D01*
X101527512Y-87163421D01*
X101505826Y-86998696D01*
X101502511Y-86982031D01*
X101493033Y-86946657D01*
X101487573Y-86930575D01*
X101487574Y-86930576D01*
X101425208Y-86780010D01*
X101425208Y-86780011D01*
X101417691Y-86764769D01*
X101417690Y-86764769D01*
X101399382Y-86733060D01*
X101399382Y-86733059D01*
X101389945Y-86718936D01*
X101288799Y-86587121D01*
X101283412Y-86580556D01*
X101274574Y-86570479D01*
X101268769Y-86564281D01*
X100321024Y-85616535D01*
X100321023Y-85616534D01*
X100312019Y-85608282D01*
X100312004Y-85608269D01*
X100312002Y-85608267D01*
X100312000Y-85608266D01*
X100225448Y-85555744D01*
X100177105Y-85538148D01*
X100088355Y-85522499D01*
X100088351Y-85522499D01*
X99810162Y-85522499D01*
X99806139Y-85522282D01*
X99804575Y-85522114D01*
X99803661Y-85522016D01*
X99785449Y-85517708D01*
X99734006Y-85498520D01*
X99715223Y-85488264D01*
X99701243Y-85477799D01*
X99676130Y-85459000D01*
X99660997Y-85443867D01*
X99631733Y-85404773D01*
X99621478Y-85385992D01*
X99602290Y-85334550D01*
X99597974Y-85316263D01*
X99597713Y-85313822D01*
X99597500Y-85309823D01*
X99597500Y-84745185D01*
X99597711Y-84741206D01*
X99597969Y-84738783D01*
X99602294Y-84720441D01*
X99603395Y-84717490D01*
X99603397Y-84717485D01*
X99615636Y-84672871D01*
X99620377Y-84646592D01*
X99624500Y-84600519D01*
X99624499Y-84241662D01*
X99642092Y-84193327D01*
X99653914Y-84182008D01*
X99674650Y-84166097D01*
X99691638Y-84156288D01*
X99826510Y-84100422D01*
X99845458Y-84095345D01*
X99940217Y-84082870D01*
X99997558Y-84075322D01*
X100002470Y-84075000D01*
X101644942Y-84075000D01*
X101690008Y-84089999D01*
G37*
%TD.AperFunction*%
%TD*%
%TA.AperFunction,Conductor*%
%TO.N,Net-(C3-Pad2)*%
G36*
X98732442Y-79947822D02*
G01*
X98796019Y-79956191D01*
X98884539Y-79967845D01*
X98903491Y-79972923D01*
X99038357Y-80028787D01*
X99055355Y-80038601D01*
X99171158Y-80127460D01*
X99185039Y-80141341D01*
X99273898Y-80257144D01*
X99283714Y-80274145D01*
X99339574Y-80409002D01*
X99344655Y-80427964D01*
X99364678Y-80580056D01*
X99365000Y-80584969D01*
X99365000Y-82700519D01*
X99360259Y-82726798D01*
X99344461Y-82769153D01*
X99344459Y-82769159D01*
X99338000Y-82829241D01*
X99338000Y-83425744D01*
X99338001Y-83425759D01*
X99344460Y-83485843D01*
X99344461Y-83485848D01*
X99360257Y-83528197D01*
X99364999Y-83554477D01*
X99365000Y-84600519D01*
X99360259Y-84626798D01*
X99344461Y-84669153D01*
X99344459Y-84669159D01*
X99338000Y-84729241D01*
X99338000Y-85325744D01*
X99338001Y-85325759D01*
X99344460Y-85385843D01*
X99344461Y-85385848D01*
X99395155Y-85521762D01*
X99395159Y-85521769D01*
X99482095Y-85637904D01*
X99598230Y-85724840D01*
X99598237Y-85724844D01*
X99734149Y-85775537D01*
X99734153Y-85775538D01*
X99734158Y-85775540D01*
X99794245Y-85782000D01*
X100088352Y-85781999D01*
X100136688Y-85799592D01*
X100141525Y-85804025D01*
X101082272Y-86744772D01*
X101085508Y-86748462D01*
X101178898Y-86870170D01*
X101188714Y-86887171D01*
X101244574Y-87022028D01*
X101249655Y-87040990D01*
X101269678Y-87193082D01*
X101270000Y-87197995D01*
X101270000Y-89307832D01*
X101269074Y-89319596D01*
X101248554Y-89449154D01*
X101241284Y-89471530D01*
X101184450Y-89583072D01*
X101170620Y-89602106D01*
X101082106Y-89690620D01*
X101063072Y-89704450D01*
X100951530Y-89761284D01*
X100929154Y-89768554D01*
X100799597Y-89789074D01*
X100787833Y-89790000D01*
X100582996Y-89790000D01*
X100578083Y-89789678D01*
X100425990Y-89769655D01*
X100407029Y-89764574D01*
X100272170Y-89708713D01*
X100255170Y-89698898D01*
X100244382Y-89690620D01*
X100133462Y-89605508D01*
X100129772Y-89602272D01*
X99456187Y-88928687D01*
X99434447Y-88882067D01*
X99438902Y-88849235D01*
X99453360Y-88810473D01*
X99459500Y-88753364D01*
X99459500Y-88211636D01*
X99453360Y-88154527D01*
X99405175Y-88025337D01*
X99322544Y-87914956D01*
X99212163Y-87832325D01*
X99131159Y-87802112D01*
X99082974Y-87784140D01*
X99082971Y-87784139D01*
X99025867Y-87778000D01*
X99025864Y-87778000D01*
X98434136Y-87778000D01*
X98434132Y-87778000D01*
X98377025Y-87784140D01*
X98377023Y-87784140D01*
X98374676Y-87785016D01*
X98373272Y-87785026D01*
X98372447Y-87785222D01*
X98372402Y-87785033D01*
X98323238Y-87785419D01*
X98295229Y-87767729D01*
X98295228Y-87767728D01*
X97330226Y-86802726D01*
X97326992Y-86799038D01*
X97233600Y-86677327D01*
X97223787Y-86660331D01*
X97167923Y-86525465D01*
X97162845Y-86506513D01*
X97151191Y-86417993D01*
X97142822Y-86354416D01*
X97142500Y-86349504D01*
X97142500Y-80584969D01*
X97142822Y-80580057D01*
X97149013Y-80533024D01*
X97162845Y-80427958D01*
X97167922Y-80409010D01*
X97223788Y-80274138D01*
X97233597Y-80257149D01*
X97322461Y-80141339D01*
X97336339Y-80127461D01*
X97452149Y-80038597D01*
X97469138Y-80028788D01*
X97604010Y-79972922D01*
X97622958Y-79967845D01*
X97717717Y-79955370D01*
X97775058Y-79947822D01*
X97779970Y-79947500D01*
X98727530Y-79947500D01*
X98732442Y-79947822D01*
G37*
%TD.AperFunction*%
%TD*%
%TA.AperFunction,Conductor*%
%TO.N,Net-(U1-Ipk)*%
G36*
X109348536Y-79632185D02*
G01*
X109444752Y-79655900D01*
X109444754Y-79655900D01*
X109605246Y-79655900D01*
X109605248Y-79655900D01*
X109701463Y-79632185D01*
X109719460Y-79630000D01*
X110600540Y-79630000D01*
X110618536Y-79632185D01*
X110714752Y-79655900D01*
X110714754Y-79655900D01*
X110875246Y-79655900D01*
X110875248Y-79655900D01*
X110971463Y-79632185D01*
X110989460Y-79630000D01*
X111870540Y-79630000D01*
X111888536Y-79632185D01*
X111984752Y-79655900D01*
X111984754Y-79655900D01*
X112145246Y-79655900D01*
X112145248Y-79655900D01*
X112241463Y-79632185D01*
X112259460Y-79630000D01*
X112697530Y-79630000D01*
X112702442Y-79630322D01*
X112766019Y-79638691D01*
X112854539Y-79650345D01*
X112873491Y-79655423D01*
X113008357Y-79711287D01*
X113025355Y-79721101D01*
X113137117Y-79806859D01*
X113164755Y-79850243D01*
X113160814Y-79895296D01*
X113119545Y-79994930D01*
X113117424Y-80000052D01*
X113111963Y-80016142D01*
X113102488Y-80051502D01*
X113099175Y-80068158D01*
X113099173Y-80068166D01*
X113099174Y-80068166D01*
X113077488Y-80232896D01*
X113076655Y-80241346D01*
X113075778Y-80254732D01*
X113075778Y-80254733D01*
X113075500Y-80263224D01*
X113075500Y-82000300D01*
X113057907Y-82048638D01*
X113013358Y-82074358D01*
X113000302Y-82075500D01*
X112952751Y-82075500D01*
X112922048Y-82078378D01*
X112792729Y-82123629D01*
X112792726Y-82123631D01*
X112682490Y-82204990D01*
X112601131Y-82315226D01*
X112601129Y-82315229D01*
X112555880Y-82444546D01*
X112555878Y-82444555D01*
X112553000Y-82475242D01*
X112553000Y-83134748D01*
X112555878Y-83165451D01*
X112601129Y-83294770D01*
X112601131Y-83294773D01*
X112684306Y-83407470D01*
X112699000Y-83452125D01*
X112699000Y-83960722D01*
X112681407Y-84009060D01*
X112676975Y-84013896D01*
X112557398Y-84133474D01*
X112510777Y-84155214D01*
X112504223Y-84155500D01*
X111143163Y-84155500D01*
X111048443Y-84170502D01*
X110934275Y-84228674D01*
X110843674Y-84319275D01*
X110785502Y-84433443D01*
X110770500Y-84528163D01*
X110770500Y-84891836D01*
X110785502Y-84986556D01*
X110843674Y-85100724D01*
X110934275Y-85191325D01*
X110934277Y-85191326D01*
X111048443Y-85249497D01*
X111048445Y-85249498D01*
X111143166Y-85264500D01*
X111143172Y-85264500D01*
X112856828Y-85264500D01*
X112856834Y-85264500D01*
X112951555Y-85249498D01*
X112966156Y-85242057D01*
X113017212Y-85235787D01*
X113060354Y-85263801D01*
X113075499Y-85309060D01*
X113075499Y-85960520D01*
X113075177Y-85965433D01*
X113061834Y-86066788D01*
X113056753Y-86085751D01*
X113027040Y-86157485D01*
X113017224Y-86174487D01*
X112986686Y-86214284D01*
X112955804Y-86237979D01*
X112873496Y-86272073D01*
X112854534Y-86277155D01*
X112702443Y-86297178D01*
X112697530Y-86297500D01*
X109209970Y-86297500D01*
X109205057Y-86297178D01*
X109052964Y-86277155D01*
X109034003Y-86272074D01*
X108899144Y-86216213D01*
X108882144Y-86206398D01*
X108766341Y-86117539D01*
X108752460Y-86103658D01*
X108663601Y-85987855D01*
X108653787Y-85970857D01*
X108597923Y-85835991D01*
X108592845Y-85817039D01*
X108581191Y-85728519D01*
X108572822Y-85664942D01*
X108572500Y-85660030D01*
X108572500Y-80267469D01*
X108572822Y-80262557D01*
X108579013Y-80215524D01*
X108592845Y-80110458D01*
X108597922Y-80091510D01*
X108653788Y-79956638D01*
X108663597Y-79939649D01*
X108752461Y-79823839D01*
X108766339Y-79809961D01*
X108882149Y-79721097D01*
X108899138Y-79711288D01*
X109034010Y-79655422D01*
X109052958Y-79650345D01*
X109147717Y-79637870D01*
X109205058Y-79630322D01*
X109209970Y-79630000D01*
X109330540Y-79630000D01*
X109348536Y-79632185D01*
G37*
%TD.AperFunction*%
%TD*%
%TA.AperFunction,Conductor*%
%TO.N,Net-(D3-A)*%
G36*
X106808536Y-79632185D02*
G01*
X106904752Y-79655900D01*
X106904754Y-79655900D01*
X107065246Y-79655900D01*
X107065248Y-79655900D01*
X107161463Y-79632185D01*
X107179460Y-79630000D01*
X107617530Y-79630000D01*
X107622442Y-79630322D01*
X107686019Y-79638691D01*
X107774539Y-79650345D01*
X107793491Y-79655423D01*
X107928357Y-79711287D01*
X107945355Y-79721101D01*
X108061158Y-79809960D01*
X108075039Y-79823841D01*
X108163898Y-79939644D01*
X108173714Y-79956645D01*
X108229574Y-80091502D01*
X108234655Y-80110465D01*
X108254677Y-80262557D01*
X108254999Y-80267469D01*
X108254999Y-84707530D01*
X108254677Y-84712442D01*
X108234655Y-84864534D01*
X108229574Y-84883497D01*
X108173714Y-85018354D01*
X108163898Y-85035355D01*
X108075039Y-85151158D01*
X108061158Y-85165039D01*
X107945355Y-85253898D01*
X107928354Y-85263714D01*
X107793497Y-85319574D01*
X107774535Y-85324655D01*
X107622443Y-85344678D01*
X107617530Y-85345000D01*
X106049700Y-85345000D01*
X106001362Y-85327407D01*
X105975642Y-85282858D01*
X105974500Y-85269800D01*
X105974500Y-84708225D01*
X105974222Y-84699736D01*
X105974222Y-84699735D01*
X105973345Y-84686347D01*
X105972512Y-84677895D01*
X105969228Y-84652953D01*
X105955488Y-84548584D01*
X105950826Y-84513170D01*
X105947511Y-84496505D01*
X105938033Y-84461131D01*
X105932573Y-84445049D01*
X105932574Y-84445050D01*
X105870208Y-84294484D01*
X105870208Y-84294485D01*
X105862691Y-84279243D01*
X105862690Y-84279243D01*
X105844382Y-84247534D01*
X105844382Y-84247533D01*
X105834945Y-84233410D01*
X105834944Y-84233409D01*
X105773172Y-84152906D01*
X105735745Y-84104129D01*
X105735745Y-84104130D01*
X105724539Y-84091353D01*
X105698646Y-84065460D01*
X105685876Y-84054260D01*
X105556579Y-83955048D01*
X105542456Y-83945612D01*
X105542457Y-83945613D01*
X105510753Y-83927307D01*
X105495514Y-83919792D01*
X105495506Y-83919788D01*
X105404903Y-83882259D01*
X105344949Y-83857425D01*
X105328859Y-83851964D01*
X105293495Y-83842488D01*
X105276839Y-83839175D01*
X105276841Y-83839175D01*
X105112105Y-83817488D01*
X105110257Y-83817306D01*
X105103653Y-83816655D01*
X105090267Y-83815778D01*
X105081777Y-83815500D01*
X103885200Y-83815500D01*
X103836862Y-83797907D01*
X103811142Y-83753358D01*
X103810000Y-83740300D01*
X103810000Y-81482995D01*
X103810322Y-81478083D01*
X103816513Y-81431050D01*
X103830345Y-81325984D01*
X103835422Y-81307036D01*
X103891288Y-81172164D01*
X103901097Y-81155175D01*
X103994498Y-81033453D01*
X103997719Y-81029780D01*
X105209780Y-79817719D01*
X105213453Y-79814498D01*
X105335175Y-79721097D01*
X105352164Y-79711288D01*
X105487034Y-79655423D01*
X105505984Y-79650345D01*
X105561185Y-79643078D01*
X105588985Y-79644619D01*
X105634752Y-79655900D01*
X105634755Y-79655900D01*
X105795246Y-79655900D01*
X105795248Y-79655900D01*
X105891463Y-79632185D01*
X105909460Y-79630000D01*
X106790540Y-79630000D01*
X106808536Y-79632185D01*
G37*
%TD.AperFunction*%
%TD*%
%TA.AperFunction,Conductor*%
%TO.N,VCC*%
G36*
X119319016Y-91458484D02*
G01*
X119367500Y-91490880D01*
X119367500Y-92509119D01*
X119319016Y-92541516D01*
X119262766Y-92625698D01*
X119262765Y-92625700D01*
X119248000Y-92699932D01*
X119248000Y-93550067D01*
X119248001Y-93550068D01*
X119251547Y-93567895D01*
X119262766Y-93624301D01*
X119319016Y-93708484D01*
X119403199Y-93764734D01*
X119433470Y-93770755D01*
X119477447Y-93797440D01*
X119494000Y-93844510D01*
X119494000Y-93931123D01*
X119476407Y-93979461D01*
X119431858Y-94005181D01*
X119427537Y-94005814D01*
X119427316Y-94005839D01*
X119261578Y-94066163D01*
X119114214Y-94163085D01*
X118993177Y-94291378D01*
X118904989Y-94444124D01*
X118854405Y-94613088D01*
X118854405Y-94613090D01*
X118844149Y-94789169D01*
X118874777Y-94962867D01*
X118944635Y-95124817D01*
X118944636Y-95124818D01*
X119049961Y-95266294D01*
X119185073Y-95379667D01*
X119185074Y-95379667D01*
X119185076Y-95379669D01*
X119342685Y-95458823D01*
X119342688Y-95458823D01*
X119342689Y-95458824D01*
X119514312Y-95499500D01*
X119514316Y-95499500D01*
X120446448Y-95499500D01*
X120446450Y-95499499D01*
X120463381Y-95497519D01*
X120577684Y-95484160D01*
X120743424Y-95423836D01*
X120890785Y-95326915D01*
X120937787Y-95277094D01*
X120983755Y-95254009D01*
X120992486Y-95253500D01*
X121832300Y-95253500D01*
X121880638Y-95271093D01*
X121906358Y-95315642D01*
X121907500Y-95328700D01*
X121907500Y-95807195D01*
X121889907Y-95855533D01*
X121845358Y-95881253D01*
X121840431Y-95881954D01*
X121665305Y-95901000D01*
X121299461Y-95981528D01*
X120944491Y-96101131D01*
X120944480Y-96101136D01*
X120604505Y-96258425D01*
X120283530Y-96451550D01*
X120283520Y-96451557D01*
X119985318Y-96678244D01*
X119713364Y-96935853D01*
X119713363Y-96935854D01*
X119470855Y-97221357D01*
X119260638Y-97531404D01*
X119260636Y-97531407D01*
X119085181Y-97862354D01*
X119085168Y-97862380D01*
X118946524Y-98210350D01*
X118946523Y-98210353D01*
X118846307Y-98571298D01*
X118846307Y-98571299D01*
X118785707Y-98940943D01*
X118785706Y-98940950D01*
X118785706Y-98940954D01*
X118771065Y-99210989D01*
X118765426Y-99315000D01*
X118778342Y-99553229D01*
X118763391Y-99602448D01*
X118720300Y-99630542D01*
X118703252Y-99632500D01*
X116512470Y-99632500D01*
X116507557Y-99632178D01*
X116355464Y-99612155D01*
X116336503Y-99607074D01*
X116201644Y-99551213D01*
X116184644Y-99541398D01*
X116072880Y-99455639D01*
X116045242Y-99412255D01*
X116049182Y-99367204D01*
X116092571Y-99262456D01*
X116092574Y-99262449D01*
X116092573Y-99262450D01*
X116098033Y-99246369D01*
X116102212Y-99230767D01*
X116107511Y-99210994D01*
X116110826Y-99194329D01*
X116132512Y-99029604D01*
X116133345Y-99021152D01*
X116134222Y-99007764D01*
X116134500Y-98999276D01*
X116134500Y-93598223D01*
X116134222Y-93589735D01*
X116133345Y-93576347D01*
X116132512Y-93567895D01*
X116110826Y-93403170D01*
X116107511Y-93386505D01*
X116098033Y-93351131D01*
X116092573Y-93335049D01*
X116092574Y-93335050D01*
X116030208Y-93184484D01*
X116030208Y-93184485D01*
X116022691Y-93169243D01*
X116022690Y-93169243D01*
X116004382Y-93137534D01*
X116004382Y-93137533D01*
X115994945Y-93123410D01*
X115994944Y-93123409D01*
X115956884Y-93073809D01*
X115895745Y-92994129D01*
X115895743Y-92994127D01*
X115893659Y-92991751D01*
X115875018Y-92943808D01*
X115875000Y-92942171D01*
X115875000Y-92648024D01*
X115879740Y-92621748D01*
X115898885Y-92570418D01*
X115932261Y-92531279D01*
X115969343Y-92521500D01*
X116083612Y-92521500D01*
X116131950Y-92539093D01*
X116144118Y-92552045D01*
X116146130Y-92554772D01*
X116146131Y-92554773D01*
X116227490Y-92665010D01*
X116274807Y-92699932D01*
X116337726Y-92746368D01*
X116337729Y-92746370D01*
X116368771Y-92757232D01*
X116467049Y-92791621D01*
X116497751Y-92794500D01*
X117157248Y-92794499D01*
X117187951Y-92791621D01*
X117317273Y-92746369D01*
X117427510Y-92665010D01*
X117508869Y-92554773D01*
X117554121Y-92425451D01*
X117557000Y-92394749D01*
X117556999Y-91885252D01*
X117554121Y-91854549D01*
X117548497Y-91838478D01*
X117508870Y-91725229D01*
X117508868Y-91725226D01*
X117508056Y-91724126D01*
X117427510Y-91614990D01*
X117317273Y-91533631D01*
X117317270Y-91533629D01*
X117288835Y-91523680D01*
X117249021Y-91491109D01*
X117239457Y-91440566D01*
X117264620Y-91395701D01*
X117312734Y-91377506D01*
X117313672Y-91377500D01*
X118732497Y-91377500D01*
X118732500Y-91377500D01*
X119264904Y-91377500D01*
X119319016Y-91458484D01*
G37*
%TD.AperFunction*%
%TA.AperFunction,Conductor*%
G36*
X121907500Y-94161300D02*
G01*
X121889907Y-94209638D01*
X121845358Y-94235358D01*
X121832300Y-94236500D01*
X120997657Y-94236500D01*
X120949320Y-94218907D01*
X120938273Y-94209638D01*
X120819923Y-94110330D01*
X120662314Y-94031176D01*
X120568857Y-94009026D01*
X120525880Y-93980759D01*
X120511000Y-93935853D01*
X120511000Y-93844509D01*
X120528593Y-93796171D01*
X120571529Y-93770754D01*
X120601801Y-93764734D01*
X120685984Y-93708484D01*
X120742234Y-93624301D01*
X120757000Y-93550067D01*
X120756999Y-92699934D01*
X120746570Y-92647500D01*
X121907500Y-92647500D01*
X121907500Y-94161300D01*
G37*
%TD.AperFunction*%
%TD*%
%TA.AperFunction,Conductor*%
%TO.N,/U4_Vin*%
G36*
X93969942Y-92965322D02*
G01*
X94033519Y-92973691D01*
X94122039Y-92985345D01*
X94140991Y-92990423D01*
X94275857Y-93046287D01*
X94292855Y-93056101D01*
X94408658Y-93144960D01*
X94422539Y-93158841D01*
X94511398Y-93274644D01*
X94521214Y-93291645D01*
X94577074Y-93426502D01*
X94582155Y-93445464D01*
X94602178Y-93597556D01*
X94602500Y-93602469D01*
X94602500Y-98995030D01*
X94602178Y-98999943D01*
X94582155Y-99152035D01*
X94577074Y-99170997D01*
X94521214Y-99305854D01*
X94511398Y-99322855D01*
X94422539Y-99438658D01*
X94408658Y-99452539D01*
X94292855Y-99541398D01*
X94275854Y-99551214D01*
X94140996Y-99607074D01*
X94122034Y-99612155D01*
X94023112Y-99625178D01*
X94018199Y-99625500D01*
X92824932Y-99625500D01*
X92824931Y-99625501D01*
X92750697Y-99640266D01*
X92666515Y-99696515D01*
X92661279Y-99701752D01*
X92660651Y-99701124D01*
X92646666Y-99714221D01*
X92646936Y-99714573D01*
X92643361Y-99717315D01*
X92643184Y-99717482D01*
X92643025Y-99717573D01*
X92545008Y-99792783D01*
X92511512Y-99818486D01*
X92511504Y-99818493D01*
X92511504Y-99818494D01*
X91615235Y-100714765D01*
X91611533Y-100718012D01*
X91489829Y-100811398D01*
X91472828Y-100821214D01*
X91337971Y-100877074D01*
X91319009Y-100882155D01*
X91166917Y-100902178D01*
X91162004Y-100902500D01*
X89840000Y-100902500D01*
X89840000Y-98045000D01*
X90792500Y-98045000D01*
X90792500Y-98362500D01*
X90816667Y-98484000D01*
X90816669Y-98484005D01*
X90858001Y-98545861D01*
X90885494Y-98587006D01*
X90947069Y-98628149D01*
X90988494Y-98655830D01*
X90988496Y-98655831D01*
X90988498Y-98655832D01*
X91049249Y-98667916D01*
X91109999Y-98680000D01*
X91110000Y-98680000D01*
X91164471Y-98680000D01*
X91164474Y-98680000D01*
X91328824Y-98658363D01*
X91481974Y-98594926D01*
X91613487Y-98494013D01*
X91876513Y-98230987D01*
X91977426Y-98099474D01*
X92040863Y-97946324D01*
X92062500Y-97781974D01*
X92062500Y-93602469D01*
X92062822Y-93597557D01*
X92069013Y-93550524D01*
X92082845Y-93445458D01*
X92087922Y-93426510D01*
X92143788Y-93291638D01*
X92153597Y-93274649D01*
X92242461Y-93158839D01*
X92256339Y-93144961D01*
X92372149Y-93056097D01*
X92389138Y-93046288D01*
X92524010Y-92990422D01*
X92542958Y-92985345D01*
X92637717Y-92972870D01*
X92695058Y-92965322D01*
X92699970Y-92965000D01*
X93965030Y-92965000D01*
X93969942Y-92965322D01*
G37*
%TD.AperFunction*%
%TD*%
%TA.AperFunction,Conductor*%
%TO.N,Net-(C17-Pad1)*%
G36*
X99150008Y-92979999D02*
G01*
X99163932Y-92990422D01*
X99200337Y-93017675D01*
X99329527Y-93065860D01*
X99386636Y-93072000D01*
X99386644Y-93072000D01*
X99978356Y-93072000D01*
X99978364Y-93072000D01*
X100035473Y-93065860D01*
X100164663Y-93017675D01*
X100214991Y-92979999D01*
X100260058Y-92965000D01*
X100315030Y-92965000D01*
X100319942Y-92965322D01*
X100383519Y-92973691D01*
X100472039Y-92985345D01*
X100490991Y-92990423D01*
X100625857Y-93046287D01*
X100642853Y-93056100D01*
X100663575Y-93072000D01*
X100758658Y-93144960D01*
X100772539Y-93158841D01*
X100861398Y-93274644D01*
X100871214Y-93291645D01*
X100927074Y-93426502D01*
X100932155Y-93445464D01*
X100952178Y-93597556D01*
X100952500Y-93602469D01*
X100952499Y-94529669D01*
X100934905Y-94578007D01*
X100933848Y-94579240D01*
X100931767Y-94581613D01*
X100931761Y-94581621D01*
X100931757Y-94581626D01*
X100832551Y-94710914D01*
X100832550Y-94710915D01*
X100823113Y-94725038D01*
X100813960Y-94740890D01*
X100804808Y-94756742D01*
X100797293Y-94771982D01*
X100734924Y-94922552D01*
X100729463Y-94938642D01*
X100719988Y-94974002D01*
X100716675Y-94990658D01*
X100716673Y-94990666D01*
X100716674Y-94990666D01*
X100694988Y-95155396D01*
X100694155Y-95163846D01*
X100693278Y-95177232D01*
X100693278Y-95177233D01*
X100693000Y-95185724D01*
X100692999Y-96608336D01*
X100675406Y-96656674D01*
X100663579Y-96667995D01*
X100642856Y-96683897D01*
X100625854Y-96693714D01*
X100490997Y-96749574D01*
X100472035Y-96754655D01*
X100319943Y-96774678D01*
X100315030Y-96775000D01*
X95874970Y-96775000D01*
X95870057Y-96774678D01*
X95717964Y-96754655D01*
X95699003Y-96749574D01*
X95564144Y-96693713D01*
X95547144Y-96683898D01*
X95431341Y-96595039D01*
X95417460Y-96581158D01*
X95328601Y-96465355D01*
X95318787Y-96448357D01*
X95262923Y-96313491D01*
X95257845Y-96294539D01*
X95246191Y-96206019D01*
X95237822Y-96142442D01*
X95237500Y-96137530D01*
X95237500Y-93602469D01*
X95237822Y-93597557D01*
X95244013Y-93550524D01*
X95257845Y-93445458D01*
X95262922Y-93426510D01*
X95318788Y-93291638D01*
X95328597Y-93274649D01*
X95417461Y-93158839D01*
X95431339Y-93144961D01*
X95547149Y-93056097D01*
X95564138Y-93046288D01*
X95699010Y-92990422D01*
X95717958Y-92985345D01*
X95812717Y-92972870D01*
X95870058Y-92965322D01*
X95874970Y-92965000D01*
X99104942Y-92965000D01*
X99150008Y-92979999D01*
G37*
%TD.AperFunction*%
%TD*%
%TA.AperFunction,Conductor*%
%TO.N,VCC*%
G36*
X118853694Y-80600093D02*
G01*
X118879414Y-80644642D01*
X118877815Y-80677818D01*
X118846307Y-80791298D01*
X118846307Y-80791299D01*
X118785707Y-81160943D01*
X118785706Y-81160950D01*
X118785706Y-81160954D01*
X118765426Y-81535000D01*
X118783873Y-81875246D01*
X118785707Y-81909056D01*
X118846307Y-82278700D01*
X118846307Y-82278701D01*
X118946523Y-82639646D01*
X118946524Y-82639649D01*
X119085168Y-82987619D01*
X119085172Y-82987627D01*
X119085176Y-82987637D01*
X119260639Y-83318597D01*
X119470857Y-83628645D01*
X119713365Y-83914147D01*
X119985319Y-84171756D01*
X120283532Y-84398451D01*
X120604506Y-84591575D01*
X120944480Y-84748864D01*
X120944488Y-84748866D01*
X120944491Y-84748868D01*
X121115668Y-84806544D01*
X121299466Y-84868473D01*
X121665303Y-84948999D01*
X121840433Y-84968045D01*
X121886582Y-84990760D01*
X121907335Y-85037828D01*
X121907500Y-85042803D01*
X121907500Y-85521300D01*
X121889907Y-85569638D01*
X121845358Y-85595358D01*
X121832300Y-85596500D01*
X120997657Y-85596500D01*
X120949320Y-85578907D01*
X120938273Y-85569638D01*
X120819923Y-85470330D01*
X120662314Y-85391176D01*
X120490690Y-85350500D01*
X120490688Y-85350500D01*
X119558559Y-85350500D01*
X119558549Y-85350500D01*
X119427318Y-85365839D01*
X119261578Y-85426163D01*
X119114214Y-85523085D01*
X118993177Y-85651378D01*
X118904989Y-85804124D01*
X118854405Y-85973088D01*
X118854405Y-85973090D01*
X118844149Y-86149169D01*
X118874777Y-86322867D01*
X118944635Y-86484817D01*
X118944636Y-86484818D01*
X119049961Y-86626294D01*
X119185073Y-86739667D01*
X119185074Y-86739667D01*
X119185076Y-86739669D01*
X119315663Y-86805251D01*
X119342689Y-86818824D01*
X119436143Y-86840972D01*
X119479119Y-86869238D01*
X119494000Y-86914145D01*
X119494000Y-87005490D01*
X119476407Y-87053828D01*
X119433470Y-87079245D01*
X119403199Y-87085266D01*
X119319016Y-87141516D01*
X119262766Y-87225698D01*
X119262765Y-87225700D01*
X119248000Y-87299932D01*
X119248000Y-88150067D01*
X119248001Y-88150068D01*
X119262766Y-88224301D01*
X119319016Y-88308484D01*
X119367500Y-88340880D01*
X119367500Y-89359119D01*
X119319016Y-89391516D01*
X119264903Y-89472500D01*
X118033171Y-89472500D01*
X117984833Y-89454907D01*
X117979997Y-89450474D01*
X117866025Y-89336502D01*
X117844285Y-89289882D01*
X117843999Y-89283328D01*
X117843999Y-88964748D01*
X117843999Y-88059853D01*
X117845598Y-88044444D01*
X117848945Y-88028483D01*
X117844288Y-87991128D01*
X117844000Y-87986480D01*
X117844000Y-87980892D01*
X117843999Y-87980885D01*
X117843901Y-87980300D01*
X117840094Y-87957483D01*
X117833195Y-87902139D01*
X117833193Y-87902135D01*
X117831416Y-87896164D01*
X117831693Y-87896081D01*
X117830614Y-87892715D01*
X117830341Y-87892809D01*
X117828318Y-87886915D01*
X117828318Y-87886914D01*
X117801768Y-87837853D01*
X117777276Y-87787754D01*
X117777276Y-87787753D01*
X117773655Y-87782682D01*
X117773888Y-87782515D01*
X117771773Y-87779680D01*
X117771548Y-87779856D01*
X117767720Y-87774938D01*
X117726680Y-87737158D01*
X117261525Y-87272002D01*
X117239785Y-87225382D01*
X117239499Y-87218828D01*
X117239499Y-87052558D01*
X117239499Y-86805252D01*
X117236621Y-86774549D01*
X117224415Y-86739667D01*
X117191370Y-86645229D01*
X117191368Y-86645226D01*
X117185367Y-86637095D01*
X117110010Y-86534990D01*
X116999773Y-86453631D01*
X116999770Y-86453629D01*
X116901495Y-86419242D01*
X116870451Y-86408379D01*
X116870446Y-86408378D01*
X116870444Y-86408378D01*
X116839757Y-86405500D01*
X116585200Y-86405500D01*
X116536862Y-86387907D01*
X116511142Y-86343358D01*
X116510000Y-86330300D01*
X116510000Y-81219969D01*
X116510322Y-81215057D01*
X116517446Y-81160943D01*
X116530345Y-81062958D01*
X116535422Y-81044010D01*
X116591288Y-80909138D01*
X116601097Y-80892149D01*
X116689961Y-80776339D01*
X116703839Y-80762461D01*
X116819649Y-80673597D01*
X116836638Y-80663788D01*
X116971510Y-80607922D01*
X116990458Y-80602845D01*
X117085217Y-80590370D01*
X117142558Y-80582822D01*
X117147470Y-80582500D01*
X118805356Y-80582500D01*
X118853694Y-80600093D01*
G37*
%TD.AperFunction*%
%TA.AperFunction,Conductor*%
G36*
X121880638Y-86631093D02*
G01*
X121906358Y-86675642D01*
X121907500Y-86688699D01*
X121907500Y-88202500D01*
X120746570Y-88202500D01*
X120757000Y-88150067D01*
X120756999Y-87299934D01*
X120742234Y-87225699D01*
X120685984Y-87141516D01*
X120601801Y-87085266D01*
X120601799Y-87085265D01*
X120571528Y-87079244D01*
X120527552Y-87052558D01*
X120511000Y-87005489D01*
X120511000Y-86918876D01*
X120528593Y-86870538D01*
X120573142Y-86844818D01*
X120577470Y-86844184D01*
X120577684Y-86844160D01*
X120743424Y-86783836D01*
X120890785Y-86686915D01*
X120937787Y-86637094D01*
X120983755Y-86614009D01*
X120992486Y-86613500D01*
X121832300Y-86613500D01*
X121880638Y-86631093D01*
G37*
%TD.AperFunction*%
%TD*%
%TA.AperFunction,Conductor*%
%TO.N,Net-(D4-K)*%
G36*
X105753151Y-94570093D02*
G01*
X105778871Y-94614642D01*
X105779366Y-94617861D01*
X105790079Y-94699236D01*
X105796675Y-94749341D01*
X105799988Y-94765995D01*
X105809464Y-94801359D01*
X105814925Y-94817448D01*
X105814919Y-94817434D01*
X105814763Y-94817057D01*
X105820500Y-94845865D01*
X105820500Y-95051836D01*
X105835502Y-95146556D01*
X105893674Y-95260724D01*
X105984275Y-95351325D01*
X105984277Y-95351326D01*
X106098443Y-95409497D01*
X106098445Y-95409498D01*
X106193166Y-95424500D01*
X106477118Y-95424500D01*
X106482031Y-95424822D01*
X106635394Y-95445012D01*
X106637060Y-95445175D01*
X106643848Y-95445845D01*
X106657236Y-95446722D01*
X106665724Y-95447000D01*
X109242494Y-95447000D01*
X109247406Y-95447322D01*
X109286818Y-95452510D01*
X109348770Y-95460666D01*
X109367726Y-95465745D01*
X109439459Y-95495458D01*
X109456455Y-95505271D01*
X109537564Y-95567507D01*
X109541254Y-95570743D01*
X110426780Y-96456269D01*
X110426781Y-96456269D01*
X110432979Y-96462074D01*
X110443056Y-96470912D01*
X110449621Y-96476299D01*
X110543651Y-96548451D01*
X110571289Y-96591835D01*
X110568538Y-96633829D01*
X110551148Y-96681609D01*
X110535500Y-96770355D01*
X110535500Y-96770360D01*
X110535500Y-97094277D01*
X110535778Y-97102767D01*
X110536655Y-97116153D01*
X110537306Y-97122757D01*
X110537488Y-97124605D01*
X110559175Y-97289341D01*
X110562488Y-97305995D01*
X110571964Y-97341359D01*
X110577429Y-97357460D01*
X110577430Y-97357461D01*
X110639788Y-97508005D01*
X110639789Y-97508006D01*
X110639792Y-97508013D01*
X110647307Y-97523252D01*
X110657475Y-97540864D01*
X110665613Y-97554960D01*
X110665616Y-97554964D01*
X110675055Y-97569090D01*
X110692507Y-97591834D01*
X110774254Y-97698370D01*
X110774252Y-97698367D01*
X110776332Y-97700738D01*
X110794982Y-97748678D01*
X110795000Y-97750328D01*
X110795000Y-98366749D01*
X110786804Y-98400889D01*
X110785502Y-98403443D01*
X110770500Y-98498163D01*
X110770500Y-98861838D01*
X110785501Y-98956554D01*
X110786802Y-98959106D01*
X110795000Y-98993249D01*
X110794999Y-99312530D01*
X110794677Y-99317443D01*
X110774655Y-99469534D01*
X110769574Y-99488497D01*
X110713714Y-99623354D01*
X110703898Y-99640355D01*
X110615039Y-99756158D01*
X110601158Y-99770039D01*
X110485355Y-99858898D01*
X110468354Y-99868714D01*
X110409057Y-99893276D01*
X110380279Y-99899000D01*
X108987221Y-99899000D01*
X108958443Y-99893276D01*
X108899145Y-99868714D01*
X108882144Y-99858898D01*
X108766341Y-99770039D01*
X108752460Y-99756158D01*
X108663601Y-99640355D01*
X108653787Y-99623357D01*
X108597923Y-99488491D01*
X108592845Y-99469539D01*
X108572822Y-99317443D01*
X108572822Y-99317442D01*
X108572500Y-99312530D01*
X108572500Y-97410002D01*
X108563463Y-97341359D01*
X108550863Y-97245650D01*
X108487426Y-97092500D01*
X108415783Y-96999132D01*
X108386513Y-96960986D01*
X108255001Y-96860075D01*
X108255000Y-96860074D01*
X108254998Y-96860073D01*
X108101851Y-96796637D01*
X108060762Y-96791227D01*
X107937500Y-96775000D01*
X107937497Y-96775000D01*
X105129493Y-96775000D01*
X105081155Y-96757407D01*
X105069293Y-96744866D01*
X105037548Y-96702460D01*
X105037543Y-96702455D01*
X104927166Y-96619827D01*
X104927164Y-96619826D01*
X104927163Y-96619825D01*
X104838844Y-96586884D01*
X104797974Y-96571640D01*
X104797971Y-96571639D01*
X104740867Y-96565500D01*
X104740864Y-96565500D01*
X104149136Y-96565500D01*
X104149132Y-96565500D01*
X104092028Y-96571639D01*
X104092025Y-96571640D01*
X103995655Y-96607584D01*
X103962837Y-96619825D01*
X103962836Y-96619825D01*
X103962835Y-96619826D01*
X103962833Y-96619827D01*
X103852456Y-96702456D01*
X103769827Y-96812833D01*
X103769826Y-96812835D01*
X103721640Y-96942025D01*
X103721639Y-96942028D01*
X103715500Y-96999132D01*
X103715500Y-97540867D01*
X103721639Y-97597971D01*
X103721642Y-97597980D01*
X103738277Y-97642583D01*
X103738684Y-97694021D01*
X103737294Y-97697639D01*
X103728714Y-97718353D01*
X103718898Y-97735354D01*
X103630039Y-97851158D01*
X103616158Y-97865039D01*
X103500355Y-97953898D01*
X103483354Y-97963714D01*
X103348497Y-98019574D01*
X103329535Y-98024655D01*
X103177443Y-98044678D01*
X103172530Y-98045000D01*
X101589970Y-98045000D01*
X101585057Y-98044678D01*
X101432964Y-98024655D01*
X101414003Y-98019574D01*
X101279144Y-97963713D01*
X101262144Y-97953898D01*
X101146341Y-97865039D01*
X101132460Y-97851158D01*
X101043601Y-97735355D01*
X101043600Y-97735354D01*
X101043600Y-97735353D01*
X101033787Y-97718357D01*
X100977923Y-97583491D01*
X100972845Y-97564539D01*
X100961191Y-97476019D01*
X100952822Y-97412442D01*
X100952500Y-97407530D01*
X100952500Y-95189969D01*
X100952822Y-95185057D01*
X100970360Y-95051836D01*
X100972845Y-95032958D01*
X100977922Y-95014010D01*
X101033788Y-94879138D01*
X101043597Y-94862149D01*
X101132461Y-94746339D01*
X101146339Y-94732461D01*
X101262149Y-94643597D01*
X101279138Y-94633788D01*
X101414010Y-94577922D01*
X101432958Y-94572845D01*
X101527717Y-94560370D01*
X101585058Y-94552822D01*
X101589970Y-94552500D01*
X105704813Y-94552500D01*
X105753151Y-94570093D01*
G37*
%TD.AperFunction*%
%TD*%
%TA.AperFunction,Conductor*%
%TO.N,VCC*%
G36*
X121907500Y-92647500D02*
G01*
X121272500Y-92647500D01*
X120746570Y-92647500D01*
X120742234Y-92625699D01*
X120685984Y-92541516D01*
X120601801Y-92485266D01*
X120601799Y-92485265D01*
X120527567Y-92470500D01*
X119477432Y-92470500D01*
X119477431Y-92470501D01*
X119403197Y-92485266D01*
X119367500Y-92509118D01*
X119367500Y-91490880D01*
X119403199Y-91514734D01*
X119477433Y-91529500D01*
X120527566Y-91529499D01*
X120527567Y-91529499D01*
X120527567Y-91529498D01*
X120601801Y-91514734D01*
X120685984Y-91458484D01*
X120742234Y-91374301D01*
X120757000Y-91300067D01*
X120756999Y-90549934D01*
X120742234Y-90475699D01*
X120736274Y-90466779D01*
X120724047Y-90416814D01*
X120736274Y-90383221D01*
X120742232Y-90374304D01*
X120742232Y-90374303D01*
X120742234Y-90374301D01*
X120757000Y-90300067D01*
X120756999Y-89549934D01*
X120742234Y-89475699D01*
X120685984Y-89391516D01*
X120601801Y-89335266D01*
X120601799Y-89335265D01*
X120527567Y-89320500D01*
X119477432Y-89320500D01*
X119477431Y-89320501D01*
X119403197Y-89335266D01*
X119367500Y-89359118D01*
X119367500Y-88340880D01*
X119403199Y-88364734D01*
X119477433Y-88379500D01*
X120527566Y-88379499D01*
X120527567Y-88379499D01*
X120527567Y-88379498D01*
X120601801Y-88364734D01*
X120685984Y-88308484D01*
X120742234Y-88224301D01*
X120746570Y-88202500D01*
X121907500Y-88202500D01*
X121907500Y-92647500D01*
G37*
%TD.AperFunction*%
%TD*%
%TA.AperFunction,Conductor*%
%TO.N,+12V*%
G36*
X86667442Y-79947822D02*
G01*
X86731019Y-79956191D01*
X86819539Y-79967845D01*
X86838491Y-79972923D01*
X86973357Y-80028787D01*
X86990355Y-80038601D01*
X87106158Y-80127460D01*
X87120039Y-80141341D01*
X87208898Y-80257144D01*
X87218714Y-80274145D01*
X87274574Y-80409002D01*
X87279655Y-80427964D01*
X87290178Y-80507896D01*
X87290500Y-80512809D01*
X87290500Y-81915067D01*
X87290501Y-81915068D01*
X87305266Y-81989302D01*
X87314198Y-82002669D01*
X87321148Y-82015670D01*
X87385073Y-82169998D01*
X87385075Y-82170001D01*
X87485986Y-82301513D01*
X87567850Y-82364328D01*
X87617500Y-82402426D01*
X87770650Y-82465863D01*
X87935000Y-82487500D01*
X89202530Y-82487500D01*
X89207442Y-82487822D01*
X89271019Y-82496191D01*
X89359539Y-82507845D01*
X89378491Y-82512923D01*
X89513357Y-82568787D01*
X89530355Y-82578601D01*
X89646158Y-82667460D01*
X89660039Y-82681341D01*
X89748898Y-82797144D01*
X89758714Y-82814145D01*
X89814574Y-82949002D01*
X89819655Y-82967964D01*
X89839678Y-83120056D01*
X89840000Y-83124969D01*
X89840000Y-83755030D01*
X89839678Y-83759943D01*
X89819655Y-83912035D01*
X89814574Y-83930997D01*
X89758714Y-84065854D01*
X89748898Y-84082855D01*
X89660039Y-84198658D01*
X89646158Y-84212539D01*
X89530355Y-84301398D01*
X89513354Y-84311214D01*
X89378497Y-84367074D01*
X89359535Y-84372155D01*
X89207443Y-84392178D01*
X89202530Y-84392500D01*
X87935000Y-84392500D01*
X87836390Y-84405482D01*
X87770648Y-84414137D01*
X87617501Y-84477573D01*
X87617498Y-84477575D01*
X87485986Y-84578486D01*
X87385075Y-84709998D01*
X87385073Y-84710001D01*
X87321151Y-84864323D01*
X87314203Y-84877321D01*
X87305268Y-84890693D01*
X87305265Y-84890700D01*
X87290500Y-84964932D01*
X87290500Y-86367184D01*
X87290178Y-86372096D01*
X87279655Y-86452033D01*
X87274574Y-86470996D01*
X87218714Y-86605854D01*
X87208898Y-86622855D01*
X87120039Y-86738658D01*
X87106158Y-86752539D01*
X86990355Y-86841398D01*
X86973354Y-86851214D01*
X86838497Y-86907074D01*
X86819535Y-86912155D01*
X86667443Y-86932178D01*
X86662530Y-86932500D01*
X81587470Y-86932500D01*
X81582557Y-86932178D01*
X81430464Y-86912155D01*
X81411503Y-86907074D01*
X81276644Y-86851213D01*
X81259644Y-86841398D01*
X81143841Y-86752539D01*
X81129960Y-86738658D01*
X81041101Y-86622855D01*
X81031287Y-86605857D01*
X80975423Y-86470991D01*
X80970345Y-86452039D01*
X80958691Y-86363519D01*
X80950322Y-86299942D01*
X80950000Y-86295030D01*
X80950000Y-80584969D01*
X80950322Y-80580057D01*
X80959822Y-80507896D01*
X80970345Y-80427958D01*
X80975422Y-80409010D01*
X81031288Y-80274138D01*
X81041097Y-80257149D01*
X81129961Y-80141339D01*
X81143839Y-80127461D01*
X81259649Y-80038597D01*
X81276638Y-80028788D01*
X81411510Y-79972922D01*
X81430458Y-79967845D01*
X81525217Y-79955370D01*
X81582558Y-79947822D01*
X81587470Y-79947500D01*
X86662530Y-79947500D01*
X86667442Y-79947822D01*
G37*
%TD.AperFunction*%
%TD*%
%TA.AperFunction,Conductor*%
%TO.N,/U2_Vin*%
G36*
X96509942Y-79947822D02*
G01*
X96573519Y-79956191D01*
X96662039Y-79967845D01*
X96680991Y-79972923D01*
X96815857Y-80028787D01*
X96832855Y-80038601D01*
X96944617Y-80124359D01*
X96972255Y-80167743D01*
X96968314Y-80212796D01*
X96927045Y-80312430D01*
X96924924Y-80317552D01*
X96919463Y-80333642D01*
X96909988Y-80369002D01*
X96906675Y-80385658D01*
X96891613Y-80500075D01*
X96884988Y-80550396D01*
X96884155Y-80558846D01*
X96883278Y-80572232D01*
X96883278Y-80572233D01*
X96883000Y-80580724D01*
X96883000Y-85495836D01*
X96865407Y-85544174D01*
X96853579Y-85555496D01*
X96832855Y-85571398D01*
X96815854Y-85581214D01*
X96680997Y-85637074D01*
X96662035Y-85642155D01*
X96509943Y-85662178D01*
X96505030Y-85662500D01*
X94867996Y-85662500D01*
X94863083Y-85662178D01*
X94710990Y-85642155D01*
X94692029Y-85637074D01*
X94557170Y-85581213D01*
X94540170Y-85571398D01*
X94441695Y-85495836D01*
X94418462Y-85478008D01*
X94414772Y-85474772D01*
X93766525Y-84826525D01*
X93744785Y-84779905D01*
X93744499Y-84773373D01*
X93744499Y-84265252D01*
X93741621Y-84234549D01*
X93741460Y-84234090D01*
X93696370Y-84105229D01*
X93696368Y-84105226D01*
X93615010Y-83994990D01*
X93504773Y-83913631D01*
X93504770Y-83913629D01*
X93406495Y-83879242D01*
X93375451Y-83868379D01*
X93375446Y-83868378D01*
X93375444Y-83868378D01*
X93344757Y-83865500D01*
X92836648Y-83865500D01*
X92788310Y-83847907D01*
X92783474Y-83843474D01*
X92697500Y-83757500D01*
X94602500Y-83757500D01*
X94602500Y-80582500D01*
X93462552Y-80582500D01*
X93578527Y-80441183D01*
X93676445Y-80257992D01*
X93736742Y-80059218D01*
X93741064Y-80015329D01*
X93763312Y-79968948D01*
X93810167Y-79947719D01*
X93815903Y-79947500D01*
X96505030Y-79947500D01*
X96509942Y-79947822D01*
G37*
%TD.AperFunction*%
%TA.AperFunction,Conductor*%
G36*
X91627435Y-79965093D02*
G01*
X91653155Y-80009642D01*
X91653935Y-80015329D01*
X91658257Y-80059216D01*
X91718552Y-80257985D01*
X91718557Y-80257997D01*
X91816470Y-80441178D01*
X91816478Y-80441190D01*
X91932447Y-80582500D01*
X91110000Y-80582500D01*
X91110000Y-82170000D01*
X91295988Y-82355988D01*
X91295981Y-82355982D01*
X91164476Y-82255075D01*
X91164472Y-82255073D01*
X91011325Y-82191637D01*
X90970236Y-82186227D01*
X90846974Y-82170000D01*
X90846971Y-82170000D01*
X87937470Y-82170000D01*
X87932557Y-82169678D01*
X87780464Y-82149655D01*
X87761503Y-82144574D01*
X87679193Y-82110480D01*
X87648310Y-82086782D01*
X87617774Y-82046986D01*
X87607960Y-82029986D01*
X87558450Y-81910462D01*
X87558449Y-81910461D01*
X87557221Y-81907864D01*
X87550000Y-81875710D01*
X87550000Y-80508565D01*
X87549722Y-80500076D01*
X87549722Y-80500075D01*
X87548845Y-80486687D01*
X87548012Y-80478235D01*
X87535826Y-80385670D01*
X87532511Y-80369005D01*
X87523033Y-80333631D01*
X87517573Y-80317549D01*
X87517574Y-80317550D01*
X87474184Y-80212798D01*
X87471941Y-80161407D01*
X87497880Y-80124360D01*
X87609649Y-80038597D01*
X87626638Y-80028788D01*
X87761510Y-79972922D01*
X87780458Y-79967845D01*
X87875217Y-79955370D01*
X87932558Y-79947822D01*
X87937470Y-79947500D01*
X91579097Y-79947500D01*
X91627435Y-79965093D01*
G37*
%TD.AperFunction*%
%TD*%
%TA.AperFunction,Conductor*%
%TO.N,/U4_Vin*%
G36*
X87619942Y-92012822D02*
G01*
X87683519Y-92021191D01*
X87772039Y-92032845D01*
X87790991Y-92037923D01*
X87925857Y-92093787D01*
X87942855Y-92103601D01*
X88058658Y-92192460D01*
X88072539Y-92206341D01*
X88161398Y-92322144D01*
X88171214Y-92339145D01*
X88227074Y-92474002D01*
X88232155Y-92492964D01*
X88252178Y-92645056D01*
X88252500Y-92649969D01*
X88252500Y-93917497D01*
X88274137Y-94081851D01*
X88337573Y-94234998D01*
X88337575Y-94235001D01*
X88438486Y-94366513D01*
X88520350Y-94429328D01*
X88570000Y-94467426D01*
X88570002Y-94467427D01*
X88570004Y-94467428D01*
X88620650Y-94488406D01*
X88723150Y-94530863D01*
X88723152Y-94530863D01*
X88724325Y-94531349D01*
X88737326Y-94538298D01*
X88750699Y-94547234D01*
X88824933Y-94562000D01*
X90227184Y-94561999D01*
X90232095Y-94562321D01*
X90262039Y-94566262D01*
X90312039Y-94572845D01*
X90330991Y-94577923D01*
X90465857Y-94633787D01*
X90482855Y-94643601D01*
X90598658Y-94732460D01*
X90612539Y-94746341D01*
X90701398Y-94862144D01*
X90711214Y-94879145D01*
X90767074Y-95014002D01*
X90772155Y-95032964D01*
X90792178Y-95185056D01*
X90792500Y-95189968D01*
X90792500Y-98045000D01*
X89840000Y-98045000D01*
X89840000Y-100902500D01*
X84444970Y-100902500D01*
X84440057Y-100902178D01*
X84287964Y-100882155D01*
X84269003Y-100877074D01*
X84134144Y-100821213D01*
X84117144Y-100811398D01*
X84001341Y-100722539D01*
X83987460Y-100708658D01*
X83898601Y-100592855D01*
X83888787Y-100575857D01*
X83832923Y-100440991D01*
X83827845Y-100422039D01*
X83816191Y-100333519D01*
X83807822Y-100269942D01*
X83807500Y-100265030D01*
X83807500Y-95189969D01*
X83807822Y-95185057D01*
X83814013Y-95138024D01*
X83827845Y-95032958D01*
X83832922Y-95014010D01*
X83888788Y-94879138D01*
X83898597Y-94862149D01*
X83987461Y-94746339D01*
X84001339Y-94732461D01*
X84117149Y-94643597D01*
X84134138Y-94633788D01*
X84269008Y-94577923D01*
X84287958Y-94572845D01*
X84367906Y-94562320D01*
X84372796Y-94561999D01*
X85775066Y-94561999D01*
X85775068Y-94561999D01*
X85775068Y-94561998D01*
X85849301Y-94547234D01*
X85862672Y-94538299D01*
X85875668Y-94531352D01*
X85876847Y-94530863D01*
X85876850Y-94530863D01*
X86030000Y-94467426D01*
X86161513Y-94366513D01*
X86262426Y-94235000D01*
X86325863Y-94081850D01*
X86347500Y-93917500D01*
X86347500Y-92649969D01*
X86347822Y-92645057D01*
X86354013Y-92598024D01*
X86367845Y-92492958D01*
X86372922Y-92474010D01*
X86428788Y-92339138D01*
X86438597Y-92322149D01*
X86527461Y-92206339D01*
X86541339Y-92192461D01*
X86657149Y-92103597D01*
X86674138Y-92093788D01*
X86809010Y-92037922D01*
X86827958Y-92032845D01*
X86922717Y-92020370D01*
X86980058Y-92012822D01*
X86984970Y-92012500D01*
X87615030Y-92012500D01*
X87619942Y-92012822D01*
G37*
%TD.AperFunction*%
%TD*%
%TA.AperFunction,Conductor*%
%TO.N,Net-(U3-DC)*%
G36*
X107304942Y-91695322D02*
G01*
X107368519Y-91703691D01*
X107457039Y-91715345D01*
X107475991Y-91720423D01*
X107610857Y-91776287D01*
X107627855Y-91786101D01*
X107743658Y-91874960D01*
X107757539Y-91888841D01*
X107846398Y-92004644D01*
X107856214Y-92021645D01*
X107912074Y-92156502D01*
X107917155Y-92175464D01*
X107937178Y-92327556D01*
X107937500Y-92332469D01*
X107937500Y-92701971D01*
X107959137Y-92866325D01*
X108022573Y-93019472D01*
X108022575Y-93019476D01*
X108123482Y-93150981D01*
X108123494Y-93150995D01*
X109021504Y-94049005D01*
X109021511Y-94049011D01*
X109021513Y-94049013D01*
X109153026Y-94149926D01*
X109306176Y-94213363D01*
X109470526Y-94235000D01*
X112380030Y-94235000D01*
X112384942Y-94235322D01*
X112448519Y-94243691D01*
X112537039Y-94255345D01*
X112555991Y-94260423D01*
X112690857Y-94316287D01*
X112707855Y-94326101D01*
X112823658Y-94414960D01*
X112837539Y-94428841D01*
X112926398Y-94544644D01*
X112936214Y-94561645D01*
X112992074Y-94696502D01*
X112997155Y-94715464D01*
X113017178Y-94867556D01*
X113017500Y-94872469D01*
X113017500Y-95820030D01*
X113017178Y-95824943D01*
X112997155Y-95977035D01*
X112992074Y-95995997D01*
X112936214Y-96130854D01*
X112926398Y-96147855D01*
X112837539Y-96263658D01*
X112823658Y-96277539D01*
X112707855Y-96366398D01*
X112690854Y-96376214D01*
X112555997Y-96432074D01*
X112537035Y-96437155D01*
X112384943Y-96457178D01*
X112380030Y-96457500D01*
X111060496Y-96457500D01*
X111055583Y-96457178D01*
X110903490Y-96437155D01*
X110884529Y-96432074D01*
X110749670Y-96376213D01*
X110732670Y-96366398D01*
X110616866Y-96277539D01*
X110610962Y-96273008D01*
X110607272Y-96269772D01*
X110157530Y-95820030D01*
X109710995Y-95373494D01*
X109710981Y-95373482D01*
X109579476Y-95272575D01*
X109579472Y-95272573D01*
X109426325Y-95209137D01*
X109385236Y-95203727D01*
X109261974Y-95187500D01*
X109261971Y-95187500D01*
X106669970Y-95187500D01*
X106665057Y-95187178D01*
X106512964Y-95167155D01*
X106494003Y-95162074D01*
X106359144Y-95106213D01*
X106342144Y-95096398D01*
X106226341Y-95007539D01*
X106212460Y-94993658D01*
X106123601Y-94877855D01*
X106113787Y-94860857D01*
X106057923Y-94725991D01*
X106052845Y-94707039D01*
X106033704Y-94561645D01*
X106032822Y-94554942D01*
X106032500Y-94550030D01*
X106032500Y-92332469D01*
X106032822Y-92327557D01*
X106039013Y-92280524D01*
X106052845Y-92175458D01*
X106057922Y-92156510D01*
X106113788Y-92021638D01*
X106123597Y-92004649D01*
X106212461Y-91888839D01*
X106226339Y-91874961D01*
X106342149Y-91786097D01*
X106359138Y-91776288D01*
X106494010Y-91720422D01*
X106512958Y-91715345D01*
X106607717Y-91702870D01*
X106665058Y-91695322D01*
X106669970Y-91695000D01*
X107300030Y-91695000D01*
X107304942Y-91695322D01*
G37*
%TD.AperFunction*%
%TD*%
%TA.AperFunction,Conductor*%
%TO.N,/U3_Vin*%
G36*
X111804416Y-91695322D02*
G01*
X111867993Y-91703691D01*
X111956513Y-91715345D01*
X111975465Y-91720423D01*
X112110331Y-91776287D01*
X112127327Y-91786100D01*
X112249038Y-91879492D01*
X112252726Y-91882726D01*
X112526502Y-92156502D01*
X113149004Y-92779005D01*
X113149011Y-92779011D01*
X113149013Y-92779013D01*
X113280526Y-92879926D01*
X113433676Y-92943363D01*
X113598026Y-92965000D01*
X115237530Y-92965000D01*
X115242442Y-92965322D01*
X115306019Y-92973691D01*
X115394539Y-92985345D01*
X115413491Y-92990423D01*
X115548357Y-93046287D01*
X115565355Y-93056101D01*
X115681158Y-93144960D01*
X115695039Y-93158841D01*
X115783898Y-93274644D01*
X115793714Y-93291645D01*
X115849574Y-93426502D01*
X115854655Y-93445464D01*
X115874678Y-93597556D01*
X115875000Y-93602469D01*
X115875000Y-98995030D01*
X115874678Y-98999943D01*
X115854655Y-99152035D01*
X115849574Y-99170997D01*
X115793714Y-99305854D01*
X115783898Y-99322855D01*
X115695039Y-99438658D01*
X115681158Y-99452539D01*
X115565355Y-99541398D01*
X115548354Y-99551214D01*
X115413497Y-99607074D01*
X115394535Y-99612155D01*
X115242443Y-99632178D01*
X115237530Y-99632500D01*
X113972470Y-99632500D01*
X113967557Y-99632178D01*
X113815464Y-99612155D01*
X113796503Y-99607074D01*
X113661644Y-99551213D01*
X113644644Y-99541398D01*
X113528841Y-99452539D01*
X113514960Y-99438658D01*
X113426101Y-99322855D01*
X113416287Y-99305857D01*
X113360423Y-99170991D01*
X113355345Y-99152039D01*
X113335322Y-98999943D01*
X113335322Y-98999942D01*
X113335000Y-98995030D01*
X113335000Y-98362502D01*
X113335000Y-98362500D01*
X113313363Y-98198150D01*
X113249926Y-98045000D01*
X113211828Y-97995350D01*
X113149013Y-97913486D01*
X113017501Y-97812575D01*
X113017500Y-97812574D01*
X113017498Y-97812573D01*
X112864351Y-97749137D01*
X112823262Y-97743727D01*
X112700000Y-97727500D01*
X112699997Y-97727500D01*
X111432470Y-97727500D01*
X111427557Y-97727178D01*
X111275464Y-97707155D01*
X111256503Y-97702074D01*
X111121644Y-97646213D01*
X111104644Y-97636398D01*
X110988841Y-97547539D01*
X110974960Y-97533658D01*
X110886101Y-97417855D01*
X110876287Y-97400857D01*
X110820423Y-97265991D01*
X110815345Y-97247039D01*
X110803691Y-97158519D01*
X110795322Y-97094942D01*
X110795000Y-97090030D01*
X110795000Y-96770360D01*
X110812593Y-96722022D01*
X110857142Y-96696302D01*
X110880010Y-96695803D01*
X110982311Y-96709270D01*
X111025920Y-96715012D01*
X111027586Y-96715175D01*
X111034374Y-96715845D01*
X111047762Y-96716722D01*
X111056250Y-96717000D01*
X111056252Y-96717000D01*
X112384274Y-96717000D01*
X112384276Y-96717000D01*
X112392764Y-96716722D01*
X112406152Y-96715845D01*
X112412940Y-96715175D01*
X112414606Y-96715012D01*
X112567967Y-96694822D01*
X112572880Y-96694500D01*
X112856828Y-96694500D01*
X112856834Y-96694500D01*
X112951555Y-96679498D01*
X113065723Y-96621326D01*
X113156326Y-96530723D01*
X113214498Y-96416555D01*
X113229500Y-96321834D01*
X113229500Y-96115864D01*
X113235228Y-96087076D01*
X113235076Y-96087440D01*
X113240533Y-96071369D01*
X113250012Y-96035989D01*
X113253326Y-96019329D01*
X113275012Y-95854604D01*
X113275845Y-95846152D01*
X113276722Y-95832764D01*
X113277000Y-95824276D01*
X113277000Y-94868223D01*
X113276722Y-94859735D01*
X113275845Y-94846347D01*
X113275012Y-94837895D01*
X113253326Y-94673170D01*
X113250011Y-94656505D01*
X113240533Y-94621131D01*
X113235073Y-94605049D01*
X113235074Y-94605050D01*
X113172708Y-94454484D01*
X113172708Y-94454485D01*
X113165191Y-94439243D01*
X113165190Y-94439243D01*
X113146882Y-94407534D01*
X113146882Y-94407533D01*
X113137445Y-94393410D01*
X113137444Y-94393409D01*
X113099384Y-94343809D01*
X113038245Y-94264129D01*
X113038245Y-94264130D01*
X113027039Y-94251353D01*
X113001146Y-94225460D01*
X112988369Y-94214254D01*
X112988370Y-94214254D01*
X112894520Y-94142242D01*
X112859090Y-94115055D01*
X112844964Y-94105616D01*
X112844961Y-94105614D01*
X112813252Y-94087307D01*
X112813245Y-94087304D01*
X112813239Y-94087300D01*
X112813240Y-94087301D01*
X112798013Y-94079792D01*
X112798006Y-94079789D01*
X112798005Y-94079788D01*
X112647461Y-94017430D01*
X112647460Y-94017429D01*
X112647452Y-94017426D01*
X112647449Y-94017425D01*
X112631359Y-94011964D01*
X112595995Y-94002488D01*
X112579339Y-93999175D01*
X112579341Y-93999175D01*
X112414605Y-93977488D01*
X112412757Y-93977306D01*
X112406153Y-93976655D01*
X112392767Y-93975778D01*
X112384277Y-93975500D01*
X112384275Y-93975500D01*
X109490004Y-93975500D01*
X109485091Y-93975178D01*
X109383736Y-93961834D01*
X109364773Y-93956752D01*
X109326024Y-93940701D01*
X109288099Y-93905949D01*
X109285327Y-93900004D01*
X109279521Y-93885989D01*
X109232923Y-93773491D01*
X109227845Y-93754539D01*
X109216191Y-93666019D01*
X109207822Y-93602442D01*
X109207500Y-93597530D01*
X109207500Y-92332469D01*
X109207822Y-92327557D01*
X109214013Y-92280524D01*
X109227845Y-92175458D01*
X109232922Y-92156510D01*
X109288788Y-92021638D01*
X109298597Y-92004649D01*
X109387461Y-91888839D01*
X109401339Y-91874961D01*
X109517149Y-91786097D01*
X109534138Y-91776288D01*
X109669010Y-91720422D01*
X109687958Y-91715345D01*
X109782717Y-91702870D01*
X109840058Y-91695322D01*
X109844970Y-91695000D01*
X111799504Y-91695000D01*
X111804416Y-91695322D01*
G37*
%TD.AperFunction*%
%TD*%
%TA.AperFunction,Conductor*%
%TO.N,/U3_Vout*%
G36*
X100666138Y-97110093D02*
G01*
X100691858Y-97154642D01*
X100693000Y-97167699D01*
X100693000Y-97411777D01*
X100693278Y-97420267D01*
X100694155Y-97433653D01*
X100694806Y-97440257D01*
X100694988Y-97442105D01*
X100716675Y-97606841D01*
X100719988Y-97623495D01*
X100729464Y-97658859D01*
X100734925Y-97674949D01*
X100755681Y-97725057D01*
X100797288Y-97825506D01*
X100804807Y-97840753D01*
X100804808Y-97840754D01*
X100823112Y-97872456D01*
X100832548Y-97886579D01*
X100832553Y-97886585D01*
X100832554Y-97886587D01*
X100931756Y-98015871D01*
X100942959Y-98028645D01*
X100968854Y-98054540D01*
X100981628Y-98065743D01*
X101110910Y-98164944D01*
X101125037Y-98174384D01*
X101156750Y-98192694D01*
X101156757Y-98192697D01*
X101156757Y-98192698D01*
X101171988Y-98200208D01*
X101171990Y-98200209D01*
X101171989Y-98200209D01*
X101278445Y-98244305D01*
X101322543Y-98262571D01*
X101322546Y-98262572D01*
X101338642Y-98268036D01*
X101373996Y-98277510D01*
X101373997Y-98277510D01*
X101374001Y-98277510D01*
X101374002Y-98277511D01*
X101390669Y-98280826D01*
X101489505Y-98293837D01*
X101555394Y-98302512D01*
X101557060Y-98302675D01*
X101563848Y-98303345D01*
X101577236Y-98304222D01*
X101585724Y-98304500D01*
X101585726Y-98304500D01*
X103176774Y-98304500D01*
X103176776Y-98304500D01*
X103185264Y-98304222D01*
X103198652Y-98303345D01*
X103205440Y-98302675D01*
X103207106Y-98302512D01*
X103289466Y-98291668D01*
X103371829Y-98280826D01*
X103382836Y-98278636D01*
X103388490Y-98277512D01*
X103388489Y-98277512D01*
X103388494Y-98277511D01*
X103408267Y-98272212D01*
X103423869Y-98268033D01*
X103439950Y-98262573D01*
X103439949Y-98262574D01*
X103590515Y-98200208D01*
X103590514Y-98200208D01*
X103605756Y-98192691D01*
X103605756Y-98192690D01*
X103637465Y-98174382D01*
X103637466Y-98174382D01*
X103651589Y-98164945D01*
X103651589Y-98164944D01*
X103651590Y-98164944D01*
X103701189Y-98126884D01*
X103780870Y-98065745D01*
X103780869Y-98065745D01*
X103793646Y-98054539D01*
X103819539Y-98028646D01*
X103830739Y-98015876D01*
X103830738Y-98015877D01*
X103830743Y-98015871D01*
X103883381Y-97947271D01*
X103926762Y-97919634D01*
X103969316Y-97922591D01*
X104092027Y-97968360D01*
X104149136Y-97974500D01*
X104149144Y-97974500D01*
X104740856Y-97974500D01*
X104740864Y-97974500D01*
X104797973Y-97968360D01*
X104927163Y-97920175D01*
X105037544Y-97837544D01*
X105046556Y-97825506D01*
X105049455Y-97821634D01*
X105092507Y-97793481D01*
X105109655Y-97791500D01*
X105853302Y-97791500D01*
X105901640Y-97809093D01*
X105906476Y-97813526D01*
X105984275Y-97891325D01*
X105984277Y-97891326D01*
X106098443Y-97949497D01*
X106098445Y-97949498D01*
X106193166Y-97964500D01*
X106193172Y-97964500D01*
X107906828Y-97964500D01*
X107906834Y-97964500D01*
X108001555Y-97949498D01*
X108115723Y-97891326D01*
X108126625Y-97880423D01*
X108173243Y-97858683D01*
X108222931Y-97871995D01*
X108252437Y-97914131D01*
X108255000Y-97933597D01*
X108255000Y-99823800D01*
X108237407Y-99872138D01*
X108192858Y-99897858D01*
X108179800Y-99899000D01*
X106725511Y-99899000D01*
X106677173Y-99881407D01*
X106665006Y-99868456D01*
X106620010Y-99807490D01*
X106509773Y-99726131D01*
X106509770Y-99726129D01*
X106411495Y-99691742D01*
X106380451Y-99680879D01*
X106380446Y-99680878D01*
X106380444Y-99680878D01*
X106349756Y-99678000D01*
X105840251Y-99678000D01*
X105809548Y-99680878D01*
X105680229Y-99726129D01*
X105680226Y-99726131D01*
X105569990Y-99807490D01*
X105488631Y-99917726D01*
X105488629Y-99917729D01*
X105443380Y-100047046D01*
X105443378Y-100047055D01*
X105440500Y-100077742D01*
X105440500Y-100737248D01*
X105443378Y-100767951D01*
X105455455Y-100802463D01*
X105454814Y-100853899D01*
X105421260Y-100892889D01*
X105384475Y-100902500D01*
X100475966Y-100902500D01*
X100427628Y-100884907D01*
X100405507Y-100853580D01*
X100386441Y-100802463D01*
X100357675Y-100725337D01*
X100275044Y-100614956D01*
X100164663Y-100532325D01*
X100083659Y-100502112D01*
X100035474Y-100484140D01*
X100035471Y-100484139D01*
X99978367Y-100478000D01*
X99978364Y-100478000D01*
X99386636Y-100478000D01*
X99386632Y-100478000D01*
X99329528Y-100484139D01*
X99329525Y-100484140D01*
X99233154Y-100520084D01*
X99200337Y-100532325D01*
X99200336Y-100532325D01*
X99200335Y-100532326D01*
X99200333Y-100532327D01*
X99089956Y-100614956D01*
X99007327Y-100725333D01*
X99007326Y-100725335D01*
X99007325Y-100725337D01*
X98985872Y-100782855D01*
X98959493Y-100853580D01*
X98926116Y-100892721D01*
X98889034Y-100902500D01*
X98611755Y-100902500D01*
X98566690Y-100887501D01*
X98496769Y-100835159D01*
X98496762Y-100835155D01*
X98360850Y-100784462D01*
X98360840Y-100784459D01*
X98318250Y-100779881D01*
X98300755Y-100778000D01*
X98300752Y-100778000D01*
X97254255Y-100778000D01*
X97254240Y-100778001D01*
X97194156Y-100784460D01*
X97194152Y-100784461D01*
X97169504Y-100793654D01*
X97118066Y-100794061D01*
X97097447Y-100782855D01*
X97018841Y-100722539D01*
X97004960Y-100708658D01*
X96916101Y-100592855D01*
X96906287Y-100575857D01*
X96850423Y-100440991D01*
X96845345Y-100422039D01*
X96833691Y-100333519D01*
X96825322Y-100269942D01*
X96825000Y-100265030D01*
X96825000Y-97729969D01*
X96825322Y-97725057D01*
X96838692Y-97623495D01*
X96845345Y-97572958D01*
X96850422Y-97554010D01*
X96906288Y-97419138D01*
X96916097Y-97402149D01*
X97004961Y-97286339D01*
X97018839Y-97272461D01*
X97134649Y-97183597D01*
X97151638Y-97173788D01*
X97286510Y-97117922D01*
X97305458Y-97112845D01*
X97400217Y-97100370D01*
X97457558Y-97092822D01*
X97462470Y-97092500D01*
X100617800Y-97092500D01*
X100666138Y-97110093D01*
G37*
%TD.AperFunction*%
%TD*%
%TA.AperFunction,Conductor*%
%TO.N,GNDREF*%
G36*
X79346155Y-94189593D02*
G01*
X79371875Y-94234142D01*
X79368276Y-94273480D01*
X79331005Y-94373404D01*
X79331004Y-94373407D01*
X79324500Y-94433906D01*
X79324500Y-95155500D01*
X80248279Y-95155500D01*
X80247335Y-95157352D01*
X80227514Y-95282500D01*
X80247335Y-95407648D01*
X80248279Y-95409500D01*
X79324500Y-95409500D01*
X79324500Y-96131093D01*
X79331004Y-96191592D01*
X79331005Y-96191595D01*
X79382055Y-96328463D01*
X79382056Y-96328465D01*
X79469596Y-96445403D01*
X79586534Y-96532943D01*
X79586536Y-96532944D01*
X79723404Y-96583994D01*
X79723407Y-96583995D01*
X79783906Y-96590499D01*
X79783918Y-96590500D01*
X80505500Y-96590500D01*
X80505500Y-95666721D01*
X80507352Y-95667665D01*
X80601019Y-95682500D01*
X80663981Y-95682500D01*
X80757648Y-95667665D01*
X80759500Y-95666721D01*
X80759500Y-96590500D01*
X81481082Y-96590500D01*
X81481093Y-96590499D01*
X81541592Y-96583995D01*
X81541595Y-96583994D01*
X81678463Y-96532944D01*
X81678465Y-96532943D01*
X81795403Y-96445403D01*
X81882943Y-96328465D01*
X81882944Y-96328463D01*
X81933994Y-96191595D01*
X81933995Y-96191592D01*
X81940499Y-96131093D01*
X81940500Y-96131081D01*
X81940500Y-95409500D01*
X81016721Y-95409500D01*
X81017665Y-95407648D01*
X81037486Y-95282500D01*
X81017665Y-95157352D01*
X81016721Y-95155500D01*
X81940500Y-95155500D01*
X81940500Y-94433918D01*
X81940499Y-94433906D01*
X81933995Y-94373407D01*
X81933994Y-94373404D01*
X81896724Y-94273480D01*
X81896316Y-94222042D01*
X81929067Y-94182375D01*
X81967183Y-94172000D01*
X82220000Y-94172000D01*
X82220000Y-96775000D01*
X79045000Y-96775000D01*
X79045000Y-94172000D01*
X79297817Y-94172000D01*
X79346155Y-94189593D01*
G37*
%TD.AperFunction*%
%TD*%
%TA.AperFunction,Conductor*%
%TO.N,GNDREF*%
G36*
X122225981Y-78360552D02*
G01*
X122359350Y-78367540D01*
X122554874Y-78377787D01*
X122558762Y-78378196D01*
X122883079Y-78429563D01*
X122886916Y-78430379D01*
X123204074Y-78515362D01*
X123207809Y-78516575D01*
X123514361Y-78634250D01*
X123517933Y-78635840D01*
X123810498Y-78784909D01*
X123813904Y-78786877D01*
X124089272Y-78965704D01*
X124092446Y-78968009D01*
X124309974Y-79144159D01*
X124347625Y-79174648D01*
X124350541Y-79177273D01*
X124582725Y-79409457D01*
X124585351Y-79412374D01*
X124618480Y-79453285D01*
X124791988Y-79667549D01*
X124794295Y-79670727D01*
X124973122Y-79946095D01*
X124975092Y-79949505D01*
X125124157Y-80242063D01*
X125125753Y-80245647D01*
X125229107Y-80514893D01*
X125243420Y-80552179D01*
X125244637Y-80555925D01*
X125329620Y-80873083D01*
X125330439Y-80876935D01*
X125381801Y-81201224D01*
X125382213Y-81205141D01*
X125399447Y-81534016D01*
X125399499Y-81535984D01*
X125399499Y-84339792D01*
X122225000Y-85662500D01*
X122225000Y-95187500D01*
X125399499Y-96510208D01*
X125399500Y-99243395D01*
X125399500Y-99314013D01*
X125399448Y-99315982D01*
X125382213Y-99644858D01*
X125381801Y-99648775D01*
X125330439Y-99973064D01*
X125329620Y-99976916D01*
X125244637Y-100294074D01*
X125243420Y-100297820D01*
X125153351Y-100532460D01*
X125125759Y-100604339D01*
X125124157Y-100607936D01*
X124975092Y-100900494D01*
X124973122Y-100903904D01*
X124794295Y-101179272D01*
X124791981Y-101182459D01*
X124585351Y-101437625D01*
X124582716Y-101440552D01*
X124350552Y-101672716D01*
X124347625Y-101675351D01*
X124092459Y-101881981D01*
X124089272Y-101884295D01*
X123813904Y-102063122D01*
X123810494Y-102065092D01*
X123517936Y-102214157D01*
X123514345Y-102215756D01*
X123361079Y-102274589D01*
X123207820Y-102333420D01*
X123204074Y-102334637D01*
X122886916Y-102419620D01*
X122883064Y-102420439D01*
X122558775Y-102471801D01*
X122554858Y-102472213D01*
X122225982Y-102489448D01*
X122224013Y-102489500D01*
X72604700Y-102489500D01*
X72556362Y-102471907D01*
X72530642Y-102427358D01*
X72529500Y-102414300D01*
X72529499Y-100979932D01*
X72529498Y-100979931D01*
X72514734Y-100905699D01*
X72458484Y-100821516D01*
X72374301Y-100765266D01*
X72374300Y-100765265D01*
X72374299Y-100765265D01*
X72367457Y-100762431D01*
X72367991Y-100761141D01*
X72331048Y-100738718D01*
X72314500Y-100691655D01*
X72314500Y-99995101D01*
X72329688Y-99949784D01*
X72368088Y-99898935D01*
X72368090Y-99898929D01*
X72368092Y-99898928D01*
X72423473Y-99787708D01*
X72459328Y-99715701D01*
X72509552Y-99539183D01*
X72515343Y-99518829D01*
X72515343Y-99518827D01*
X72515345Y-99518821D01*
X72534043Y-99317037D01*
X72534232Y-99315002D01*
X72534232Y-99314997D01*
X72524594Y-99210990D01*
X72515345Y-99111179D01*
X72515343Y-99111173D01*
X72515343Y-99111170D01*
X72475486Y-98971090D01*
X72459328Y-98914299D01*
X72456495Y-98908610D01*
X72368092Y-98731072D01*
X72368090Y-98731069D01*
X72368088Y-98731065D01*
X72329688Y-98680214D01*
X72314500Y-98634897D01*
X72314500Y-97455101D01*
X72329688Y-97409784D01*
X72368088Y-97358935D01*
X72368090Y-97358929D01*
X72368092Y-97358928D01*
X72421876Y-97250914D01*
X72459328Y-97175701D01*
X72515345Y-96978821D01*
X72516538Y-96965935D01*
X72538243Y-96919698D01*
X75263916Y-94194026D01*
X75310537Y-94172286D01*
X75317091Y-94172000D01*
X79045000Y-94172000D01*
X79045000Y-96775000D01*
X82220000Y-96775000D01*
X82220000Y-94172000D01*
X83920301Y-94172000D01*
X83968639Y-94189593D01*
X83994359Y-94234142D01*
X83995501Y-94247200D01*
X83995500Y-94332565D01*
X83999782Y-94354093D01*
X83991954Y-94404934D01*
X83967819Y-94431277D01*
X83965922Y-94432545D01*
X83965918Y-94432547D01*
X83965914Y-94432551D01*
X83836626Y-94531757D01*
X83823852Y-94542960D01*
X83797960Y-94568852D01*
X83786757Y-94581626D01*
X83687551Y-94710914D01*
X83687550Y-94710915D01*
X83678113Y-94725038D01*
X83668960Y-94740890D01*
X83659808Y-94756742D01*
X83652293Y-94771982D01*
X83589924Y-94922552D01*
X83584463Y-94938642D01*
X83574988Y-94974002D01*
X83571675Y-94990658D01*
X83554598Y-95120381D01*
X83549988Y-95155396D01*
X83549155Y-95163846D01*
X83548278Y-95177232D01*
X83548000Y-95185722D01*
X83548000Y-100269277D01*
X83548278Y-100277767D01*
X83549155Y-100291153D01*
X83549443Y-100294074D01*
X83549988Y-100299605D01*
X83571675Y-100464341D01*
X83574988Y-100480995D01*
X83584464Y-100516359D01*
X83589929Y-100532460D01*
X83589930Y-100532461D01*
X83652288Y-100683005D01*
X83652289Y-100683006D01*
X83652292Y-100683013D01*
X83659807Y-100698252D01*
X83671770Y-100718972D01*
X83678113Y-100729960D01*
X83678116Y-100729964D01*
X83687555Y-100744090D01*
X83698725Y-100758647D01*
X83786754Y-100873370D01*
X83786754Y-100873369D01*
X83797960Y-100886146D01*
X83823853Y-100912039D01*
X83834412Y-100921300D01*
X83836628Y-100923243D01*
X83965910Y-101022444D01*
X83980037Y-101031884D01*
X84011750Y-101050194D01*
X84011757Y-101050197D01*
X84011757Y-101050198D01*
X84026988Y-101057708D01*
X84026990Y-101057709D01*
X84026989Y-101057709D01*
X84117606Y-101095244D01*
X84177543Y-101120071D01*
X84190722Y-101124545D01*
X84193642Y-101125536D01*
X84228996Y-101135010D01*
X84228997Y-101135010D01*
X84229001Y-101135010D01*
X84229002Y-101135011D01*
X84245669Y-101138326D01*
X84324607Y-101148718D01*
X84410394Y-101160012D01*
X84412060Y-101160175D01*
X84418848Y-101160845D01*
X84432236Y-101161722D01*
X84440724Y-101162000D01*
X84440726Y-101162000D01*
X91166248Y-101162000D01*
X91166250Y-101162000D01*
X91174738Y-101161722D01*
X91188126Y-101160845D01*
X91194914Y-101160175D01*
X91196580Y-101160012D01*
X91282366Y-101148718D01*
X91361303Y-101138326D01*
X91372310Y-101136136D01*
X91377964Y-101135012D01*
X91377963Y-101135012D01*
X91377968Y-101135011D01*
X91397741Y-101129712D01*
X91413343Y-101125533D01*
X91429424Y-101120073D01*
X91429423Y-101120074D01*
X91579989Y-101057708D01*
X91579988Y-101057708D01*
X91595230Y-101050191D01*
X91595230Y-101050190D01*
X91611500Y-101040796D01*
X91626939Y-101031882D01*
X91626942Y-101031880D01*
X91626943Y-101031880D01*
X91641064Y-101022443D01*
X91772878Y-100921300D01*
X91779450Y-100915906D01*
X91789537Y-100907059D01*
X91795730Y-100901259D01*
X92062500Y-100634487D01*
X92062500Y-102172500D01*
X95237500Y-102172500D01*
X95237500Y-99315000D01*
X94798307Y-99315000D01*
X94820074Y-99262449D01*
X94820073Y-99262450D01*
X94825533Y-99246369D01*
X94834014Y-99214715D01*
X94835011Y-99210994D01*
X94838326Y-99194329D01*
X94860012Y-99029604D01*
X94860845Y-99021152D01*
X94861722Y-99007764D01*
X94862000Y-98999276D01*
X94862000Y-96391052D01*
X94879592Y-96342717D01*
X94924141Y-96316997D01*
X94974799Y-96325930D01*
X95007864Y-96365335D01*
X95009836Y-96371588D01*
X95014464Y-96388859D01*
X95019929Y-96404960D01*
X95019930Y-96404961D01*
X95082288Y-96555505D01*
X95082289Y-96555506D01*
X95082292Y-96555513D01*
X95089807Y-96570752D01*
X95101770Y-96591472D01*
X95108113Y-96602460D01*
X95108116Y-96602464D01*
X95117555Y-96616590D01*
X95117557Y-96616592D01*
X95216754Y-96745870D01*
X95216754Y-96745869D01*
X95216756Y-96745871D01*
X95227959Y-96758645D01*
X95253854Y-96784540D01*
X95266628Y-96795743D01*
X95395910Y-96894944D01*
X95410037Y-96904384D01*
X95441750Y-96922694D01*
X95441757Y-96922697D01*
X95441757Y-96922698D01*
X95456988Y-96930208D01*
X95456990Y-96930209D01*
X95456989Y-96930209D01*
X95543244Y-96965937D01*
X95607543Y-96992571D01*
X95607546Y-96992572D01*
X95623642Y-96998036D01*
X95658996Y-97007510D01*
X95658997Y-97007510D01*
X95659001Y-97007510D01*
X95659002Y-97007511D01*
X95675669Y-97010826D01*
X95774505Y-97023837D01*
X95840394Y-97032512D01*
X95842060Y-97032675D01*
X95848848Y-97033345D01*
X95862236Y-97034222D01*
X95870724Y-97034500D01*
X96718621Y-97034500D01*
X96766959Y-97052093D01*
X96792679Y-97096642D01*
X96783746Y-97147300D01*
X96778282Y-97155476D01*
X96738574Y-97207225D01*
X96705050Y-97250915D01*
X96695613Y-97265038D01*
X96693540Y-97268629D01*
X96677308Y-97296742D01*
X96669793Y-97311982D01*
X96607424Y-97462552D01*
X96601963Y-97478642D01*
X96592488Y-97514002D01*
X96589175Y-97530658D01*
X96589173Y-97530666D01*
X96589174Y-97530666D01*
X96567488Y-97695396D01*
X96566655Y-97703846D01*
X96565778Y-97717232D01*
X96565500Y-97725722D01*
X96565500Y-100269277D01*
X96565778Y-100277767D01*
X96566655Y-100291153D01*
X96566943Y-100294074D01*
X96567488Y-100299605D01*
X96589175Y-100464341D01*
X96592488Y-100480995D01*
X96601964Y-100516359D01*
X96607429Y-100532460D01*
X96607430Y-100532461D01*
X96669788Y-100683005D01*
X96669789Y-100683006D01*
X96669792Y-100683013D01*
X96677307Y-100698252D01*
X96689270Y-100718972D01*
X96695613Y-100729960D01*
X96695616Y-100729964D01*
X96705055Y-100744090D01*
X96716225Y-100758647D01*
X96804254Y-100873370D01*
X96804254Y-100873369D01*
X96815460Y-100886146D01*
X96841353Y-100912039D01*
X96854123Y-100923239D01*
X96939476Y-100988733D01*
X96957146Y-101000212D01*
X96973532Y-101010858D01*
X96994151Y-101022064D01*
X97020660Y-101034586D01*
X97120119Y-101053553D01*
X97171557Y-101053146D01*
X97238508Y-101040792D01*
X97241264Y-101040390D01*
X97257134Y-101038684D01*
X97266144Y-101037716D01*
X97270166Y-101037500D01*
X98284831Y-101037500D01*
X98288845Y-101037715D01*
X98291308Y-101037980D01*
X98309540Y-101042289D01*
X98360990Y-101061478D01*
X98379772Y-101071733D01*
X98411180Y-101095244D01*
X98484740Y-101133721D01*
X98529805Y-101148720D01*
X98611755Y-101162000D01*
X98611757Y-101162000D01*
X98889036Y-101162000D01*
X98902659Y-101160233D01*
X98955205Y-101153422D01*
X98973043Y-101148718D01*
X98992270Y-101143648D01*
X98992279Y-101143644D01*
X98992287Y-101143643D01*
X99044106Y-101123846D01*
X99123572Y-101061099D01*
X99156949Y-101021958D01*
X99202632Y-100944266D01*
X99233649Y-100861103D01*
X99243897Y-100842334D01*
X99268867Y-100808979D01*
X99283981Y-100793865D01*
X99317333Y-100768897D01*
X99336101Y-100758649D01*
X99380094Y-100742240D01*
X99406371Y-100737500D01*
X99958623Y-100737500D01*
X99984902Y-100742241D01*
X100028889Y-100758647D01*
X100047671Y-100768903D01*
X100081010Y-100793860D01*
X100096138Y-100808988D01*
X100121093Y-100842323D01*
X100121095Y-100842326D01*
X100131350Y-100861107D01*
X100162368Y-100944266D01*
X100193529Y-101003265D01*
X100193531Y-101003269D01*
X100193533Y-101003271D01*
X100215644Y-101034584D01*
X100215659Y-101034603D01*
X100252313Y-101076232D01*
X100333561Y-101125533D01*
X100338876Y-101128758D01*
X100387214Y-101146351D01*
X100475961Y-101161999D01*
X100475962Y-101162000D01*
X100475966Y-101162000D01*
X105384474Y-101162000D01*
X105384475Y-101162000D01*
X105450074Y-101153572D01*
X105486859Y-101143961D01*
X105538204Y-101124545D01*
X105585606Y-101087463D01*
X105634517Y-101071537D01*
X105676594Y-101086188D01*
X105680227Y-101088869D01*
X105680229Y-101088869D01*
X105680229Y-101088870D01*
X105698448Y-101095245D01*
X105809549Y-101134121D01*
X105840251Y-101137000D01*
X106349748Y-101136999D01*
X106380451Y-101134121D01*
X106509773Y-101088869D01*
X106620010Y-101007510D01*
X106643424Y-100975785D01*
X106665006Y-100946544D01*
X106707865Y-100918100D01*
X106725511Y-100916000D01*
X111417874Y-100916000D01*
X111462529Y-100930694D01*
X111480923Y-100944269D01*
X111571147Y-101010858D01*
X111575226Y-101013868D01*
X111575229Y-101013870D01*
X111586575Y-101017840D01*
X111704549Y-101059121D01*
X111735251Y-101062000D01*
X112394748Y-101061999D01*
X112425451Y-101059121D01*
X112554773Y-101013869D01*
X112665010Y-100932510D01*
X112746369Y-100822273D01*
X112791621Y-100692951D01*
X112794500Y-100662249D01*
X112794499Y-100152752D01*
X112791621Y-100122049D01*
X112746369Y-99992727D01*
X112665010Y-99882490D01*
X112663543Y-99881407D01*
X112604044Y-99837493D01*
X112575599Y-99794633D01*
X112573500Y-99776988D01*
X112573500Y-99309700D01*
X112591093Y-99261362D01*
X112635642Y-99235642D01*
X112648700Y-99234500D01*
X112856828Y-99234500D01*
X112856834Y-99234500D01*
X112951555Y-99219498D01*
X113003618Y-99192969D01*
X113054674Y-99186700D01*
X113097816Y-99214715D01*
X113110395Y-99240506D01*
X113111170Y-99243395D01*
X113111964Y-99246359D01*
X113117425Y-99262449D01*
X113117426Y-99262452D01*
X113117429Y-99262460D01*
X113117430Y-99262461D01*
X113179788Y-99413005D01*
X113179789Y-99413006D01*
X113179792Y-99413013D01*
X113187307Y-99428252D01*
X113199270Y-99448972D01*
X113205613Y-99459960D01*
X113205617Y-99459966D01*
X113215055Y-99474090D01*
X113215057Y-99474092D01*
X113314254Y-99603370D01*
X113314254Y-99603369D01*
X113325460Y-99616146D01*
X113351353Y-99642039D01*
X113361059Y-99650552D01*
X113364128Y-99653243D01*
X113493410Y-99752444D01*
X113507537Y-99761884D01*
X113539250Y-99780194D01*
X113539257Y-99780197D01*
X113539257Y-99780198D01*
X113551430Y-99786200D01*
X113554488Y-99787708D01*
X113554490Y-99787709D01*
X113554489Y-99787709D01*
X113632026Y-99819826D01*
X113705043Y-99850071D01*
X113705046Y-99850072D01*
X113721142Y-99855536D01*
X113756496Y-99865010D01*
X113756497Y-99865010D01*
X113756501Y-99865010D01*
X113756502Y-99865011D01*
X113773169Y-99868326D01*
X113872005Y-99881337D01*
X113937894Y-99890012D01*
X113939560Y-99890175D01*
X113946348Y-99890845D01*
X113959736Y-99891722D01*
X113968224Y-99892000D01*
X113968226Y-99892000D01*
X115241774Y-99892000D01*
X115241776Y-99892000D01*
X115250264Y-99891722D01*
X115263652Y-99890845D01*
X115270440Y-99890175D01*
X115272106Y-99890012D01*
X115354466Y-99879169D01*
X115436829Y-99868326D01*
X115447836Y-99866136D01*
X115453490Y-99865012D01*
X115453489Y-99865012D01*
X115453494Y-99865011D01*
X115473267Y-99859712D01*
X115488869Y-99855533D01*
X115504950Y-99850073D01*
X115504949Y-99850074D01*
X115655515Y-99787708D01*
X115655514Y-99787708D01*
X115670756Y-99780191D01*
X115670756Y-99780190D01*
X115702465Y-99761882D01*
X115702466Y-99761882D01*
X115716589Y-99752445D01*
X115716589Y-99752444D01*
X115716590Y-99752444D01*
X115829219Y-99666020D01*
X115878279Y-99650552D01*
X115920778Y-99666020D01*
X116033410Y-99752445D01*
X116044703Y-99759990D01*
X116047538Y-99761885D01*
X116047536Y-99761884D01*
X116056656Y-99767149D01*
X116079250Y-99780194D01*
X116079257Y-99780197D01*
X116079257Y-99780198D01*
X116091430Y-99786200D01*
X116094488Y-99787708D01*
X116094490Y-99787709D01*
X116094489Y-99787709D01*
X116172026Y-99819826D01*
X116245043Y-99850071D01*
X116245046Y-99850072D01*
X116261142Y-99855536D01*
X116296496Y-99865010D01*
X116296497Y-99865010D01*
X116296501Y-99865010D01*
X116296502Y-99865011D01*
X116313169Y-99868326D01*
X116412005Y-99881337D01*
X116477894Y-99890012D01*
X116479560Y-99890175D01*
X116486348Y-99890845D01*
X116499736Y-99891722D01*
X116508224Y-99892000D01*
X116508226Y-99892000D01*
X118710681Y-99892000D01*
X118725475Y-99891153D01*
X118725478Y-99891152D01*
X118725489Y-99891152D01*
X118746027Y-99888792D01*
X118749910Y-99888347D01*
X118757560Y-99887192D01*
X118768049Y-99885611D01*
X118862025Y-99847922D01*
X118905116Y-99819828D01*
X118963924Y-99767150D01*
X119011688Y-99677872D01*
X119026639Y-99628653D01*
X119037461Y-99539180D01*
X119025416Y-99317028D01*
X119025416Y-99312963D01*
X119028155Y-99262461D01*
X119043952Y-98971090D01*
X119044389Y-98967060D01*
X119099787Y-98629147D01*
X119100654Y-98625212D01*
X119192258Y-98295279D01*
X119193547Y-98291455D01*
X119320276Y-97973388D01*
X119321978Y-97969709D01*
X119482369Y-97667173D01*
X119484454Y-97663710D01*
X119676599Y-97380318D01*
X119679050Y-97377092D01*
X119900724Y-97116115D01*
X119903505Y-97113180D01*
X120152092Y-96877706D01*
X120155177Y-96875087D01*
X120427737Y-96667892D01*
X120431105Y-96665609D01*
X120614095Y-96555506D01*
X120724497Y-96489078D01*
X120728087Y-96487176D01*
X120935850Y-96391055D01*
X121038826Y-96343412D01*
X121042600Y-96341909D01*
X121367065Y-96232583D01*
X121370967Y-96231499D01*
X121705372Y-96157892D01*
X121709360Y-96157238D01*
X121856838Y-96141199D01*
X121872746Y-96139470D01*
X121881906Y-96138167D01*
X121881907Y-96138166D01*
X121881911Y-96138166D01*
X121975107Y-96105987D01*
X122019656Y-96080267D01*
X122081232Y-96030847D01*
X122133758Y-95944285D01*
X122151351Y-95895947D01*
X122166999Y-95807199D01*
X122167000Y-95807199D01*
X122167000Y-95323039D01*
X122166506Y-95311729D01*
X122164872Y-95293034D01*
X122164254Y-95287402D01*
X122163638Y-95281772D01*
X122133629Y-95193366D01*
X122131094Y-95185898D01*
X122131093Y-95185896D01*
X122131092Y-95185893D01*
X122105372Y-95141344D01*
X122055952Y-95079768D01*
X122055951Y-95079767D01*
X121969391Y-95027242D01*
X121969381Y-95027238D01*
X121921053Y-95009649D01*
X121832304Y-94994000D01*
X121832300Y-94994000D01*
X120988708Y-94994000D01*
X120981155Y-94994220D01*
X120968652Y-94994949D01*
X120964905Y-94995195D01*
X120922712Y-95006828D01*
X120867297Y-95022108D01*
X120821328Y-95045194D01*
X120821324Y-95045196D01*
X120749029Y-95099018D01*
X120749028Y-95099018D01*
X120728874Y-95120381D01*
X120715500Y-95131602D01*
X120633509Y-95185529D01*
X120617906Y-95193366D01*
X120525691Y-95226929D01*
X120508702Y-95230955D01*
X120433511Y-95239745D01*
X120429142Y-95239999D01*
X119553434Y-95239999D01*
X119536092Y-95237972D01*
X119440600Y-95215340D01*
X119424193Y-95209368D01*
X119336495Y-95165325D01*
X119321907Y-95155731D01*
X119278877Y-95119625D01*
X119246732Y-95092652D01*
X119234754Y-95079956D01*
X119176147Y-95001232D01*
X119167417Y-94986112D01*
X119162197Y-94974010D01*
X119128546Y-94895999D01*
X119123541Y-94879278D01*
X119106498Y-94782627D01*
X119105483Y-94765211D01*
X119111191Y-94667223D01*
X119114220Y-94650046D01*
X119142368Y-94556023D01*
X119149283Y-94539993D01*
X119154040Y-94531754D01*
X119198355Y-94454997D01*
X119208771Y-94441005D01*
X119276121Y-94369618D01*
X119289494Y-94358399D01*
X119352933Y-94316674D01*
X119371492Y-94304467D01*
X119387090Y-94296633D01*
X119516071Y-94249689D01*
X119536285Y-94242332D01*
X119541192Y-94237424D01*
X119548286Y-94234545D01*
X119561607Y-94229915D01*
X119606156Y-94204195D01*
X119667732Y-94154775D01*
X119720258Y-94068213D01*
X119737851Y-94019875D01*
X119753499Y-93931127D01*
X119753500Y-93931127D01*
X119753500Y-93844514D01*
X119753500Y-93844510D01*
X119738804Y-93758420D01*
X119737866Y-93755754D01*
X119722252Y-93711354D01*
X119722251Y-93711350D01*
X119686717Y-93643992D01*
X119612065Y-93575588D01*
X119568088Y-93548903D01*
X119568085Y-93548901D01*
X119555443Y-93543985D01*
X119516769Y-93510068D01*
X119507500Y-93473899D01*
X119507500Y-92805200D01*
X119525093Y-92756862D01*
X119569642Y-92731142D01*
X119582700Y-92730000D01*
X120422299Y-92730000D01*
X120470637Y-92747593D01*
X120496357Y-92792142D01*
X120497499Y-92805200D01*
X120497498Y-93473450D01*
X120479904Y-93521788D01*
X120449174Y-93543683D01*
X120439342Y-93547445D01*
X120439341Y-93547445D01*
X120396400Y-93572866D01*
X120337269Y-93620855D01*
X120337268Y-93620856D01*
X120284742Y-93707418D01*
X120284738Y-93707427D01*
X120267149Y-93755754D01*
X120267149Y-93755756D01*
X120251500Y-93844504D01*
X120251500Y-93844509D01*
X120251500Y-93935853D01*
X120264127Y-94014107D01*
X120264672Y-94017481D01*
X120279551Y-94062384D01*
X120300139Y-94104132D01*
X120311166Y-94126493D01*
X120383280Y-94197567D01*
X120426257Y-94225834D01*
X120509011Y-94261531D01*
X120564403Y-94274659D01*
X120580805Y-94280628D01*
X120652578Y-94316674D01*
X120668497Y-94324669D01*
X120683084Y-94334263D01*
X120711849Y-94358399D01*
X120782517Y-94417696D01*
X120860567Y-94462758D01*
X120908904Y-94480351D01*
X120997657Y-94496000D01*
X120997658Y-94496000D01*
X121837961Y-94496000D01*
X121849271Y-94495506D01*
X121867966Y-94493872D01*
X121873270Y-94493290D01*
X121879228Y-94492638D01*
X121975107Y-94460092D01*
X122019656Y-94434372D01*
X122081232Y-94384952D01*
X122133758Y-94298390D01*
X122151351Y-94250052D01*
X122166999Y-94161304D01*
X122167000Y-94161304D01*
X122167000Y-92616372D01*
X122166999Y-92616350D01*
X122167000Y-88202500D01*
X122167000Y-86683037D01*
X122166506Y-86671727D01*
X122164872Y-86653033D01*
X122164214Y-86647032D01*
X122163638Y-86641772D01*
X122139060Y-86569366D01*
X122131094Y-86545898D01*
X122131093Y-86545896D01*
X122131092Y-86545893D01*
X122105372Y-86501344D01*
X122055952Y-86439768D01*
X122055951Y-86439767D01*
X121969391Y-86387242D01*
X121969381Y-86387238D01*
X121921053Y-86369649D01*
X121832304Y-86354000D01*
X121832300Y-86354000D01*
X120988708Y-86354000D01*
X120981155Y-86354220D01*
X120968652Y-86354949D01*
X120964905Y-86355195D01*
X120925838Y-86365967D01*
X120867297Y-86382108D01*
X120821328Y-86405194D01*
X120821324Y-86405196D01*
X120749029Y-86459018D01*
X120749028Y-86459018D01*
X120728874Y-86480381D01*
X120715500Y-86491602D01*
X120633509Y-86545529D01*
X120617906Y-86553366D01*
X120468697Y-86607674D01*
X120463785Y-86612585D01*
X120456710Y-86615455D01*
X120443390Y-86620085D01*
X120398846Y-86645802D01*
X120337267Y-86695224D01*
X120284742Y-86781784D01*
X120284738Y-86781794D01*
X120267149Y-86830121D01*
X120267149Y-86830123D01*
X120251500Y-86918871D01*
X120251500Y-87005493D01*
X120265535Y-87087709D01*
X120266195Y-87091576D01*
X120282747Y-87138645D01*
X120318278Y-87206000D01*
X120392928Y-87274406D01*
X120392932Y-87274408D01*
X120392934Y-87274410D01*
X120397433Y-87277140D01*
X120436904Y-87301092D01*
X120449553Y-87306010D01*
X120488228Y-87339925D01*
X120497499Y-87376098D01*
X120497499Y-88044798D01*
X120479906Y-88093136D01*
X120435357Y-88118856D01*
X120422299Y-88119998D01*
X119582700Y-88119998D01*
X119534362Y-88102405D01*
X119508642Y-88057856D01*
X119507500Y-88044798D01*
X119507500Y-87711619D01*
X119507500Y-87376545D01*
X119525092Y-87328210D01*
X119555830Y-87306313D01*
X119565659Y-87302553D01*
X119608596Y-87277136D01*
X119667732Y-87229142D01*
X119720258Y-87142580D01*
X119737851Y-87094242D01*
X119753499Y-87005494D01*
X119753500Y-87005494D01*
X119753500Y-86914151D01*
X119753500Y-86914145D01*
X119740328Y-86832518D01*
X119725447Y-86787611D01*
X119693832Y-86723503D01*
X119621717Y-86652429D01*
X119599782Y-86638002D01*
X119578745Y-86624165D01*
X119578743Y-86624164D01*
X119578741Y-86624163D01*
X119522931Y-86600089D01*
X119495981Y-86588464D01*
X119440593Y-86575338D01*
X119424186Y-86569366D01*
X119336498Y-86525328D01*
X119321910Y-86515734D01*
X119303575Y-86500349D01*
X119246732Y-86452652D01*
X119234754Y-86439956D01*
X119176147Y-86361232D01*
X119167417Y-86346112D01*
X119163038Y-86335960D01*
X119128546Y-86255999D01*
X119123541Y-86239278D01*
X119106498Y-86142627D01*
X119105483Y-86125211D01*
X119111191Y-86027223D01*
X119114220Y-86010046D01*
X119142368Y-85916023D01*
X119149283Y-85899993D01*
X119198355Y-85814997D01*
X119208771Y-85801005D01*
X119276121Y-85729618D01*
X119289491Y-85718400D01*
X119371499Y-85664463D01*
X119387088Y-85656634D01*
X119479316Y-85623065D01*
X119496291Y-85619042D01*
X119571487Y-85610254D01*
X119575856Y-85610000D01*
X120451568Y-85610000D01*
X120468909Y-85612026D01*
X120564403Y-85634659D01*
X120580809Y-85640631D01*
X120668495Y-85684668D01*
X120683083Y-85694262D01*
X120711848Y-85718398D01*
X120782517Y-85777696D01*
X120860567Y-85822758D01*
X120908904Y-85840351D01*
X120997657Y-85856000D01*
X120997658Y-85856000D01*
X121837961Y-85856000D01*
X121849271Y-85855506D01*
X121867966Y-85853872D01*
X121873270Y-85853290D01*
X121879228Y-85852638D01*
X121975107Y-85820092D01*
X122019656Y-85794372D01*
X122081232Y-85744952D01*
X122133758Y-85658390D01*
X122151351Y-85610052D01*
X122166999Y-85521304D01*
X122167000Y-85521304D01*
X122167000Y-85038502D01*
X122167000Y-85038501D01*
X122166692Y-85029226D01*
X122144779Y-84933135D01*
X122144777Y-84933130D01*
X122124028Y-84886070D01*
X122124026Y-84886066D01*
X122102790Y-84852789D01*
X122081556Y-84819513D01*
X122001181Y-84757935D01*
X121955032Y-84735220D01*
X121868489Y-84710066D01*
X121868486Y-84710065D01*
X121709371Y-84692760D01*
X121705351Y-84692101D01*
X121370991Y-84618504D01*
X121367065Y-84617414D01*
X121042613Y-84508094D01*
X121038828Y-84506586D01*
X120728083Y-84362820D01*
X120724483Y-84360912D01*
X120431116Y-84184397D01*
X120427744Y-84182111D01*
X120155193Y-83974924D01*
X120152088Y-83972287D01*
X120000590Y-83828780D01*
X119903516Y-83736827D01*
X119900715Y-83733870D01*
X119889895Y-83721132D01*
X119756441Y-83564017D01*
X119679063Y-83472920D01*
X119676597Y-83469676D01*
X119484469Y-83186309D01*
X119482373Y-83182826D01*
X119321991Y-82880312D01*
X119320280Y-82876615D01*
X119319942Y-82875766D01*
X119193553Y-82558558D01*
X119192257Y-82554711D01*
X119100654Y-82224787D01*
X119099786Y-82220845D01*
X119044391Y-81882949D01*
X119043953Y-81878917D01*
X119025416Y-81537035D01*
X119025416Y-81532961D01*
X119027474Y-81495017D01*
X119043297Y-81203174D01*
X119043952Y-81191090D01*
X119044389Y-81187059D01*
X119099784Y-80849161D01*
X119100657Y-80845199D01*
X119127856Y-80747242D01*
X119137014Y-80690311D01*
X119138613Y-80657135D01*
X119136694Y-80610772D01*
X119116805Y-80552179D01*
X119104150Y-80514898D01*
X119104149Y-80514896D01*
X119104148Y-80514893D01*
X119078428Y-80470344D01*
X119029008Y-80408768D01*
X119029007Y-80408767D01*
X118942447Y-80356242D01*
X118942437Y-80356238D01*
X118894109Y-80338649D01*
X118805360Y-80323000D01*
X118805356Y-80323000D01*
X117143223Y-80323000D01*
X117134733Y-80323278D01*
X117121347Y-80324155D01*
X117114562Y-80324823D01*
X117112896Y-80324988D01*
X117035489Y-80335178D01*
X117030577Y-80335500D01*
X116729132Y-80335500D01*
X116672028Y-80341639D01*
X116672025Y-80341640D01*
X116575654Y-80377584D01*
X116542837Y-80389825D01*
X116542836Y-80389825D01*
X116542835Y-80389826D01*
X116542833Y-80389827D01*
X116432456Y-80472456D01*
X116349827Y-80582833D01*
X116349826Y-80582835D01*
X116301640Y-80712025D01*
X116301639Y-80712028D01*
X116295500Y-80769132D01*
X116295500Y-80931075D01*
X116291511Y-80955242D01*
X116286964Y-80968640D01*
X116286963Y-80968642D01*
X116282337Y-80985905D01*
X116252832Y-81028042D01*
X116203145Y-81041355D01*
X116156525Y-81019615D01*
X116134786Y-80972994D01*
X116134500Y-80966441D01*
X116134500Y-80263225D01*
X116134222Y-80254736D01*
X116134222Y-80254735D01*
X116133345Y-80241347D01*
X116132512Y-80232895D01*
X116127778Y-80196939D01*
X116121669Y-80150532D01*
X116110826Y-80068170D01*
X116107511Y-80051505D01*
X116098033Y-80016131D01*
X116097796Y-80015434D01*
X116092573Y-80000049D01*
X116092574Y-80000050D01*
X116030208Y-79849484D01*
X116030208Y-79849485D01*
X116022691Y-79834243D01*
X116022690Y-79834243D01*
X116022689Y-79834242D01*
X116004382Y-79802534D01*
X116004382Y-79802533D01*
X115994945Y-79788410D01*
X115994944Y-79788409D01*
X115952103Y-79732577D01*
X115895745Y-79659129D01*
X115895745Y-79659130D01*
X115884539Y-79646353D01*
X115858646Y-79620460D01*
X115845869Y-79609254D01*
X115845870Y-79609254D01*
X115752020Y-79537242D01*
X115716590Y-79510055D01*
X115707126Y-79503731D01*
X115702460Y-79500613D01*
X115702461Y-79500614D01*
X115670752Y-79482307D01*
X115670745Y-79482304D01*
X115670739Y-79482300D01*
X115670740Y-79482301D01*
X115655513Y-79474792D01*
X115655506Y-79474789D01*
X115655505Y-79474788D01*
X115504961Y-79412430D01*
X115504960Y-79412429D01*
X115504952Y-79412426D01*
X115504949Y-79412425D01*
X115488859Y-79406964D01*
X115453495Y-79397488D01*
X115436839Y-79394175D01*
X115436841Y-79394175D01*
X115272105Y-79372488D01*
X115270257Y-79372306D01*
X115263653Y-79371655D01*
X115250267Y-79370778D01*
X115241777Y-79370500D01*
X114791620Y-79370500D01*
X114775967Y-79371447D01*
X114742402Y-79375522D01*
X114732117Y-79377406D01*
X114726974Y-79378349D01*
X114726975Y-79378349D01*
X114662605Y-79394215D01*
X114644608Y-79396400D01*
X114565393Y-79396400D01*
X114547397Y-79394215D01*
X114483031Y-79378351D01*
X114483023Y-79378349D01*
X114467598Y-79375522D01*
X114434034Y-79371447D01*
X114418381Y-79370500D01*
X113968223Y-79370500D01*
X113959733Y-79370778D01*
X113946347Y-79371655D01*
X113939562Y-79372323D01*
X113937896Y-79372488D01*
X113893376Y-79378349D01*
X113773166Y-79394174D01*
X113773159Y-79394175D01*
X113773154Y-79394176D01*
X113773155Y-79394176D01*
X113765452Y-79395708D01*
X113756502Y-79397488D01*
X113721142Y-79406963D01*
X113705052Y-79412424D01*
X113554482Y-79474793D01*
X113539242Y-79482308D01*
X113523390Y-79491460D01*
X113507538Y-79500613D01*
X113493415Y-79510050D01*
X113493414Y-79510051D01*
X113424843Y-79562666D01*
X113380778Y-79596479D01*
X113331719Y-79611947D01*
X113289220Y-79596479D01*
X113266347Y-79578928D01*
X113176589Y-79510055D01*
X113171947Y-79506953D01*
X113162470Y-79500620D01*
X113162471Y-79500621D01*
X113162467Y-79500618D01*
X113162463Y-79500616D01*
X113130752Y-79482307D01*
X113115513Y-79474792D01*
X113115505Y-79474788D01*
X112964961Y-79412430D01*
X112964960Y-79412429D01*
X112964952Y-79412426D01*
X112964949Y-79412425D01*
X112948859Y-79406964D01*
X112913495Y-79397488D01*
X112896839Y-79394175D01*
X112896841Y-79394175D01*
X112732105Y-79372488D01*
X112730257Y-79372306D01*
X112723653Y-79371655D01*
X112710267Y-79370778D01*
X112701777Y-79370500D01*
X112251620Y-79370500D01*
X112235967Y-79371447D01*
X112202402Y-79375522D01*
X112192117Y-79377406D01*
X112186974Y-79378349D01*
X112186975Y-79378349D01*
X112122605Y-79394215D01*
X112104608Y-79396400D01*
X112025393Y-79396400D01*
X112007397Y-79394215D01*
X111943031Y-79378351D01*
X111943023Y-79378349D01*
X111927598Y-79375522D01*
X111894034Y-79371447D01*
X111878381Y-79370500D01*
X110981620Y-79370500D01*
X110965967Y-79371447D01*
X110932402Y-79375522D01*
X110922117Y-79377406D01*
X110916974Y-79378349D01*
X110916975Y-79378349D01*
X110852605Y-79394215D01*
X110834608Y-79396400D01*
X110755393Y-79396400D01*
X110737397Y-79394215D01*
X110673031Y-79378351D01*
X110673023Y-79378349D01*
X110657598Y-79375522D01*
X110624034Y-79371447D01*
X110608381Y-79370500D01*
X109711620Y-79370500D01*
X109695967Y-79371447D01*
X109662402Y-79375522D01*
X109652117Y-79377406D01*
X109646974Y-79378349D01*
X109646975Y-79378349D01*
X109582605Y-79394215D01*
X109564608Y-79396400D01*
X109485393Y-79396400D01*
X109467397Y-79394215D01*
X109403031Y-79378351D01*
X109403023Y-79378349D01*
X109387598Y-79375522D01*
X109354034Y-79371447D01*
X109338381Y-79370500D01*
X109205723Y-79370500D01*
X109197233Y-79370778D01*
X109183847Y-79371655D01*
X109177062Y-79372323D01*
X109175396Y-79372488D01*
X109130876Y-79378349D01*
X109010666Y-79394174D01*
X109010659Y-79394175D01*
X109010654Y-79394176D01*
X109010655Y-79394176D01*
X109002952Y-79395708D01*
X108994002Y-79397488D01*
X108958642Y-79406963D01*
X108942552Y-79412424D01*
X108791982Y-79474793D01*
X108776742Y-79482308D01*
X108760890Y-79491460D01*
X108745038Y-79500613D01*
X108730915Y-79510050D01*
X108730914Y-79510051D01*
X108601626Y-79609257D01*
X108601621Y-79609261D01*
X108593261Y-79616593D01*
X108588852Y-79620460D01*
X108562960Y-79646352D01*
X108551757Y-79659126D01*
X108551755Y-79659129D01*
X108473409Y-79761230D01*
X108430025Y-79788869D01*
X108379025Y-79782154D01*
X108354089Y-79761230D01*
X108275745Y-79659129D01*
X108275745Y-79659130D01*
X108264539Y-79646353D01*
X108238646Y-79620460D01*
X108225869Y-79609254D01*
X108225870Y-79609254D01*
X108132020Y-79537242D01*
X108096590Y-79510055D01*
X108087126Y-79503731D01*
X108082460Y-79500613D01*
X108082461Y-79500614D01*
X108050752Y-79482307D01*
X108050745Y-79482304D01*
X108050739Y-79482300D01*
X108050740Y-79482301D01*
X108035513Y-79474792D01*
X108035506Y-79474789D01*
X108035505Y-79474788D01*
X107884961Y-79412430D01*
X107884960Y-79412429D01*
X107884952Y-79412426D01*
X107884949Y-79412425D01*
X107868859Y-79406964D01*
X107833495Y-79397488D01*
X107816839Y-79394175D01*
X107816841Y-79394175D01*
X107652105Y-79372488D01*
X107650257Y-79372306D01*
X107643653Y-79371655D01*
X107630267Y-79370778D01*
X107621777Y-79370500D01*
X107171620Y-79370500D01*
X107155967Y-79371447D01*
X107122402Y-79375522D01*
X107112117Y-79377406D01*
X107106974Y-79378349D01*
X107106975Y-79378349D01*
X107042605Y-79394215D01*
X107024608Y-79396400D01*
X106945393Y-79396400D01*
X106927397Y-79394215D01*
X106863031Y-79378351D01*
X106863023Y-79378349D01*
X106847598Y-79375522D01*
X106814034Y-79371447D01*
X106798381Y-79370500D01*
X105901620Y-79370500D01*
X105885967Y-79371447D01*
X105852402Y-79375522D01*
X105842117Y-79377406D01*
X105836974Y-79378349D01*
X105836975Y-79378349D01*
X105772605Y-79394215D01*
X105754608Y-79396400D01*
X105675395Y-79396400D01*
X105657399Y-79394215D01*
X105657233Y-79394174D01*
X105651086Y-79392659D01*
X105651084Y-79392658D01*
X105651080Y-79392657D01*
X105603347Y-79385517D01*
X105575538Y-79383975D01*
X105527327Y-79385797D01*
X105527315Y-79385798D01*
X105463690Y-79394174D01*
X105447023Y-79397489D01*
X105411665Y-79406964D01*
X105411664Y-79406964D01*
X105395583Y-79412423D01*
X105395579Y-79412424D01*
X105395575Y-79412426D01*
X105245008Y-79474793D01*
X105229768Y-79482308D01*
X105213916Y-79491460D01*
X105198064Y-79500613D01*
X105183941Y-79510050D01*
X105183933Y-79510056D01*
X105052111Y-79611207D01*
X105045548Y-79616593D01*
X105035490Y-79625414D01*
X105029289Y-79631221D01*
X103811221Y-80849289D01*
X103805414Y-80855490D01*
X103796593Y-80865548D01*
X103791207Y-80872111D01*
X103690050Y-81003941D01*
X103680613Y-81018064D01*
X103679718Y-81019615D01*
X103662308Y-81049768D01*
X103654793Y-81065008D01*
X103592424Y-81215578D01*
X103586963Y-81231668D01*
X103577488Y-81267028D01*
X103574175Y-81283684D01*
X103567923Y-81331179D01*
X103552488Y-81448422D01*
X103551655Y-81456872D01*
X103550778Y-81470258D01*
X103550778Y-81470259D01*
X103550500Y-81478750D01*
X103550500Y-83740300D01*
X103532907Y-83788638D01*
X103488358Y-83814358D01*
X103475300Y-83815500D01*
X102800058Y-83815500D01*
X102792930Y-83816655D01*
X102718115Y-83828776D01*
X102718111Y-83828777D01*
X102673053Y-83843773D01*
X102673038Y-83843779D01*
X102599489Y-83882252D01*
X102599474Y-83882261D01*
X102587670Y-83891097D01*
X102568889Y-83901351D01*
X102524903Y-83917758D01*
X102498622Y-83922500D01*
X101946375Y-83922500D01*
X101920095Y-83917758D01*
X101876110Y-83901352D01*
X101857325Y-83891095D01*
X101845527Y-83882263D01*
X101845522Y-83882260D01*
X101845521Y-83882259D01*
X101845515Y-83882256D01*
X101845512Y-83882254D01*
X101771957Y-83843778D01*
X101771950Y-83843775D01*
X101738156Y-83832528D01*
X101726890Y-83828779D01*
X101644942Y-83815500D01*
X99998223Y-83815500D01*
X99989733Y-83815778D01*
X99976347Y-83816655D01*
X99969562Y-83817323D01*
X99967896Y-83817488D01*
X99904441Y-83825841D01*
X99803166Y-83839174D01*
X99803159Y-83839175D01*
X99803154Y-83839176D01*
X99803155Y-83839176D01*
X99786502Y-83842488D01*
X99751142Y-83851963D01*
X99735052Y-83857424D01*
X99733920Y-83857892D01*
X99728470Y-83860149D01*
X99677079Y-83862388D01*
X99636272Y-83831070D01*
X99624499Y-83790671D01*
X99624499Y-83554479D01*
X99620375Y-83508395D01*
X99615634Y-83482120D01*
X99603394Y-83437508D01*
X99602290Y-83434550D01*
X99597978Y-83416296D01*
X99597715Y-83413849D01*
X99597500Y-83409832D01*
X99597500Y-82845185D01*
X99597711Y-82841206D01*
X99597969Y-82838783D01*
X99602294Y-82820441D01*
X99603395Y-82817490D01*
X99603397Y-82817485D01*
X99615636Y-82772871D01*
X99620377Y-82746592D01*
X99624500Y-82700519D01*
X99624500Y-80580723D01*
X99624222Y-80572235D01*
X99623345Y-80558847D01*
X99622512Y-80550395D01*
X99600826Y-80385670D01*
X99597511Y-80369005D01*
X99588534Y-80335500D01*
X99588033Y-80333630D01*
X99582573Y-80317549D01*
X99582574Y-80317550D01*
X99520208Y-80166984D01*
X99520208Y-80166985D01*
X99512691Y-80151743D01*
X99512690Y-80151743D01*
X99512689Y-80151742D01*
X99494382Y-80120034D01*
X99494382Y-80120033D01*
X99484945Y-80105910D01*
X99484944Y-80105909D01*
X99416055Y-80016131D01*
X99385745Y-79976629D01*
X99385745Y-79976630D01*
X99374539Y-79963853D01*
X99348646Y-79937960D01*
X99335869Y-79926754D01*
X99335870Y-79926754D01*
X99242020Y-79854742D01*
X99206590Y-79827555D01*
X99197126Y-79821231D01*
X99192460Y-79818113D01*
X99192461Y-79818114D01*
X99160752Y-79799807D01*
X99160745Y-79799804D01*
X99160739Y-79799800D01*
X99160740Y-79799801D01*
X99145513Y-79792292D01*
X99145506Y-79792289D01*
X99145505Y-79792288D01*
X98994961Y-79729930D01*
X98994960Y-79729929D01*
X98994952Y-79729926D01*
X98994949Y-79729925D01*
X98978859Y-79724464D01*
X98943495Y-79714988D01*
X98926839Y-79711675D01*
X98926841Y-79711675D01*
X98762105Y-79689988D01*
X98760257Y-79689806D01*
X98753653Y-79689155D01*
X98740267Y-79688278D01*
X98731777Y-79688000D01*
X97775723Y-79688000D01*
X97767233Y-79688278D01*
X97753847Y-79689155D01*
X97747062Y-79689823D01*
X97745396Y-79689988D01*
X97681941Y-79698341D01*
X97580666Y-79711674D01*
X97580659Y-79711675D01*
X97580654Y-79711676D01*
X97580655Y-79711676D01*
X97564002Y-79714988D01*
X97528642Y-79724463D01*
X97512552Y-79729924D01*
X97361982Y-79792293D01*
X97346742Y-79799808D01*
X97330890Y-79808960D01*
X97315038Y-79818113D01*
X97300915Y-79827550D01*
X97300914Y-79827551D01*
X97232708Y-79879887D01*
X97188278Y-79913979D01*
X97139219Y-79929447D01*
X97096720Y-79913979D01*
X97023813Y-79858036D01*
X96984089Y-79827555D01*
X96979447Y-79824453D01*
X96969970Y-79818120D01*
X96969971Y-79818121D01*
X96969967Y-79818118D01*
X96969963Y-79818116D01*
X96938252Y-79799807D01*
X96923013Y-79792292D01*
X96923005Y-79792288D01*
X96772461Y-79729930D01*
X96772460Y-79729929D01*
X96772452Y-79729926D01*
X96772449Y-79729925D01*
X96756359Y-79724464D01*
X96720995Y-79714988D01*
X96704339Y-79711675D01*
X96704341Y-79711675D01*
X96539605Y-79689988D01*
X96537757Y-79689806D01*
X96531153Y-79689155D01*
X96517767Y-79688278D01*
X96509277Y-79688000D01*
X93967500Y-79688000D01*
X93967500Y-78677500D01*
X91427500Y-78677500D01*
X91427500Y-79688000D01*
X87933223Y-79688000D01*
X87924733Y-79688278D01*
X87911347Y-79689155D01*
X87904562Y-79689823D01*
X87902896Y-79689988D01*
X87839441Y-79698341D01*
X87738166Y-79711674D01*
X87738159Y-79711675D01*
X87738154Y-79711676D01*
X87738155Y-79711676D01*
X87721502Y-79714988D01*
X87686142Y-79724463D01*
X87670052Y-79729924D01*
X87519482Y-79792293D01*
X87504242Y-79799808D01*
X87488390Y-79808960D01*
X87472538Y-79818113D01*
X87458422Y-79827545D01*
X87458415Y-79827550D01*
X87458414Y-79827551D01*
X87458406Y-79827557D01*
X87345776Y-79913979D01*
X87296717Y-79929446D01*
X87254219Y-79913978D01*
X87199146Y-79871719D01*
X87141590Y-79827555D01*
X87132126Y-79821231D01*
X87127460Y-79818113D01*
X87127461Y-79818114D01*
X87095752Y-79799807D01*
X87095745Y-79799804D01*
X87095739Y-79799800D01*
X87095740Y-79799801D01*
X87080513Y-79792292D01*
X87080506Y-79792289D01*
X87080505Y-79792288D01*
X86929961Y-79729930D01*
X86929960Y-79729929D01*
X86929952Y-79729926D01*
X86929949Y-79729925D01*
X86913859Y-79724464D01*
X86878495Y-79714988D01*
X86861839Y-79711675D01*
X86861841Y-79711675D01*
X86697105Y-79689988D01*
X86695257Y-79689806D01*
X86688653Y-79689155D01*
X86675267Y-79688278D01*
X86666777Y-79688000D01*
X81583223Y-79688000D01*
X81574733Y-79688278D01*
X81561347Y-79689155D01*
X81554562Y-79689823D01*
X81552896Y-79689988D01*
X81489441Y-79698341D01*
X81388166Y-79711674D01*
X81388159Y-79711675D01*
X81388154Y-79711676D01*
X81388155Y-79711676D01*
X81371502Y-79714988D01*
X81336142Y-79724463D01*
X81320052Y-79729924D01*
X81169482Y-79792293D01*
X81154242Y-79799808D01*
X81138390Y-79808960D01*
X81122538Y-79818113D01*
X81108415Y-79827550D01*
X81108414Y-79827551D01*
X80979126Y-79926757D01*
X80979121Y-79926761D01*
X80966351Y-79937961D01*
X80940461Y-79963851D01*
X80931227Y-79974380D01*
X80929257Y-79976626D01*
X80830051Y-80105914D01*
X80830050Y-80105915D01*
X80820613Y-80120038D01*
X80811460Y-80135890D01*
X80802308Y-80151742D01*
X80794793Y-80166982D01*
X80732424Y-80317552D01*
X80726963Y-80333642D01*
X80717488Y-80369002D01*
X80714175Y-80385658D01*
X80703027Y-80470344D01*
X80692488Y-80550396D01*
X80691655Y-80558846D01*
X80690800Y-80571901D01*
X80690778Y-80572233D01*
X80690500Y-80580724D01*
X80690500Y-86220407D01*
X80672907Y-86268745D01*
X80668474Y-86273581D01*
X80451081Y-86490974D01*
X80404461Y-86512714D01*
X80397907Y-86513000D01*
X79807432Y-86513000D01*
X79807431Y-86513001D01*
X79733199Y-86527766D01*
X79649016Y-86584016D01*
X79608548Y-86644580D01*
X79567064Y-86674996D01*
X79546022Y-86678000D01*
X75317091Y-86678000D01*
X75268753Y-86660407D01*
X75263917Y-86655974D01*
X72538243Y-83930300D01*
X72516538Y-83884065D01*
X72515345Y-83871179D01*
X72515343Y-83871172D01*
X72515343Y-83871170D01*
X72459330Y-83674307D01*
X72459328Y-83674299D01*
X72378161Y-83511294D01*
X72368092Y-83491072D01*
X72368090Y-83491069D01*
X72368088Y-83491065D01*
X72329688Y-83440214D01*
X72314500Y-83394897D01*
X72314500Y-82215101D01*
X72329688Y-82169784D01*
X72368088Y-82118935D01*
X72368090Y-82118929D01*
X72368092Y-82118928D01*
X72413708Y-82027317D01*
X72459328Y-81935701D01*
X72515345Y-81738821D01*
X72531492Y-81564558D01*
X72534232Y-81535002D01*
X72534232Y-81534997D01*
X72526209Y-81448420D01*
X72515345Y-81331179D01*
X72515343Y-81331173D01*
X72515343Y-81331170D01*
X72475486Y-81191090D01*
X72459328Y-81134299D01*
X72417237Y-81049769D01*
X72368092Y-80951072D01*
X72368090Y-80951069D01*
X72368088Y-80951065D01*
X72329688Y-80900214D01*
X72314500Y-80854897D01*
X72314500Y-79675101D01*
X72329688Y-79629784D01*
X72368088Y-79578935D01*
X72368090Y-79578929D01*
X72368092Y-79578928D01*
X72419947Y-79474788D01*
X72459328Y-79395701D01*
X72515345Y-79198821D01*
X72534232Y-78995000D01*
X72515345Y-78791179D01*
X72515343Y-78791173D01*
X72515343Y-78791170D01*
X72459330Y-78594307D01*
X72459328Y-78594299D01*
X72397046Y-78469220D01*
X72391249Y-78418107D01*
X72419662Y-78375227D01*
X72464362Y-78360500D01*
X122153396Y-78360500D01*
X122224013Y-78360500D01*
X122225981Y-78360552D01*
G37*
%TD.AperFunction*%
%TA.AperFunction,Conductor*%
G36*
X108288604Y-85395934D02*
G01*
X108312357Y-85441561D01*
X108313000Y-85451377D01*
X108313000Y-85664277D01*
X108313278Y-85672767D01*
X108314155Y-85686153D01*
X108314398Y-85688615D01*
X108314988Y-85694605D01*
X108336675Y-85859341D01*
X108339811Y-85875105D01*
X108339988Y-85875995D01*
X108348458Y-85907606D01*
X108349464Y-85911359D01*
X108354929Y-85927460D01*
X108354930Y-85927461D01*
X108417288Y-86078005D01*
X108417289Y-86078006D01*
X108417292Y-86078013D01*
X108424807Y-86093252D01*
X108436770Y-86113972D01*
X108443113Y-86124960D01*
X108446231Y-86129626D01*
X108452555Y-86139090D01*
X108479742Y-86174520D01*
X108551754Y-86268370D01*
X108551754Y-86268369D01*
X108551756Y-86268371D01*
X108562959Y-86281145D01*
X108588854Y-86307040D01*
X108601628Y-86318243D01*
X108730910Y-86417444D01*
X108745037Y-86426884D01*
X108776750Y-86445194D01*
X108776757Y-86445197D01*
X108776757Y-86445198D01*
X108791988Y-86452708D01*
X108791990Y-86452709D01*
X108791989Y-86452709D01*
X108858795Y-86480381D01*
X108942543Y-86515071D01*
X108942546Y-86515072D01*
X108958642Y-86520536D01*
X108993996Y-86530010D01*
X108993997Y-86530010D01*
X108994001Y-86530010D01*
X108994002Y-86530011D01*
X109010669Y-86533326D01*
X109103363Y-86545529D01*
X109175394Y-86555012D01*
X109177060Y-86555175D01*
X109183848Y-86555845D01*
X109197236Y-86556722D01*
X109205724Y-86557000D01*
X110605207Y-86557000D01*
X110653545Y-86574593D01*
X110679265Y-86619142D01*
X110670332Y-86669800D01*
X110669343Y-86671461D01*
X110665031Y-86678500D01*
X110654188Y-86696195D01*
X110649336Y-86704112D01*
X110613681Y-86774090D01*
X110592494Y-86815671D01*
X110576913Y-86853287D01*
X110569644Y-86875660D01*
X110560141Y-86915248D01*
X110540558Y-87038891D01*
X110540558Y-87038892D01*
X110538254Y-87068172D01*
X110537363Y-87079487D01*
X110537363Y-87103011D01*
X110540558Y-87143606D01*
X110540558Y-87143605D01*
X110560140Y-87267246D01*
X110569641Y-87306829D01*
X110576412Y-87327673D01*
X110576911Y-87329207D01*
X110592496Y-87366835D01*
X110649337Y-87478390D01*
X110670618Y-87513115D01*
X110670619Y-87513116D01*
X110684439Y-87532137D01*
X110684440Y-87532138D01*
X110710885Y-87563100D01*
X110799399Y-87651614D01*
X110830361Y-87678059D01*
X110830362Y-87678060D01*
X110843278Y-87687444D01*
X110849390Y-87691885D01*
X110857541Y-87696880D01*
X110881594Y-87711621D01*
X110884116Y-87713166D01*
X110929943Y-87736516D01*
X110995660Y-87770001D01*
X111002840Y-87772975D01*
X111033283Y-87785584D01*
X111033291Y-87785586D01*
X111033292Y-87785587D01*
X111055664Y-87792856D01*
X111084987Y-87799895D01*
X111095250Y-87802359D01*
X111169669Y-87814145D01*
X111181540Y-87816026D01*
X111226530Y-87840964D01*
X111244965Y-87888988D01*
X111228217Y-87937625D01*
X111184125Y-87964118D01*
X111169776Y-87965500D01*
X111143163Y-87965500D01*
X111048443Y-87980502D01*
X110934275Y-88038674D01*
X110843674Y-88129275D01*
X110785502Y-88243443D01*
X110770500Y-88338163D01*
X110770500Y-88701836D01*
X110785502Y-88796556D01*
X110843674Y-88910724D01*
X110934275Y-89001325D01*
X110934277Y-89001326D01*
X111048443Y-89059497D01*
X111048445Y-89059498D01*
X111143166Y-89074500D01*
X111416300Y-89074500D01*
X111464638Y-89092093D01*
X111490358Y-89136642D01*
X111491500Y-89149700D01*
X111491500Y-89777874D01*
X111476806Y-89822530D01*
X111474990Y-89824989D01*
X111474990Y-89824990D01*
X111438735Y-89874114D01*
X111429995Y-89885956D01*
X111387135Y-89914400D01*
X111369489Y-89916500D01*
X110853011Y-89916500D01*
X110804673Y-89898907D01*
X110792506Y-89885956D01*
X110747510Y-89824990D01*
X110637273Y-89743631D01*
X110637270Y-89743629D01*
X110538995Y-89709242D01*
X110507951Y-89698379D01*
X110507946Y-89698378D01*
X110507944Y-89698378D01*
X110477256Y-89695500D01*
X109967751Y-89695500D01*
X109937048Y-89698378D01*
X109807729Y-89743629D01*
X109807726Y-89743631D01*
X109697490Y-89824990D01*
X109616131Y-89935226D01*
X109616129Y-89935229D01*
X109576549Y-90048344D01*
X109570880Y-90064548D01*
X109570878Y-90064555D01*
X109568000Y-90095242D01*
X109568000Y-90754748D01*
X109570878Y-90785451D01*
X109616129Y-90914770D01*
X109616131Y-90914773D01*
X109697490Y-91025010D01*
X109807726Y-91106368D01*
X109807729Y-91106370D01*
X109838771Y-91117232D01*
X109937049Y-91151621D01*
X109967751Y-91154500D01*
X110477248Y-91154499D01*
X110507951Y-91151621D01*
X110637273Y-91106369D01*
X110747510Y-91025010D01*
X110775645Y-90986889D01*
X110792506Y-90964044D01*
X110835365Y-90935600D01*
X110853011Y-90933500D01*
X111369489Y-90933500D01*
X111417827Y-90951093D01*
X111429994Y-90964044D01*
X111474989Y-91025009D01*
X111585226Y-91106368D01*
X111585229Y-91106370D01*
X111616271Y-91117232D01*
X111714549Y-91151621D01*
X111745251Y-91154500D01*
X112254748Y-91154499D01*
X112285451Y-91151621D01*
X112414773Y-91106369D01*
X112525010Y-91025010D01*
X112606369Y-90914773D01*
X112651621Y-90785451D01*
X112654500Y-90754749D01*
X112654499Y-90095252D01*
X112651860Y-90067093D01*
X112651621Y-90064548D01*
X112606370Y-89935229D01*
X112606368Y-89935226D01*
X112523194Y-89822529D01*
X112508500Y-89777874D01*
X112508500Y-89149700D01*
X112526093Y-89101362D01*
X112570642Y-89075642D01*
X112583700Y-89074500D01*
X112856828Y-89074500D01*
X112856834Y-89074500D01*
X112951555Y-89059498D01*
X113065723Y-89001326D01*
X113156326Y-88910723D01*
X113214498Y-88796555D01*
X113229500Y-88701834D01*
X113229500Y-88338166D01*
X113214498Y-88243445D01*
X113194020Y-88203254D01*
X113156325Y-88129275D01*
X113065724Y-88038674D01*
X112951555Y-87980502D01*
X112951557Y-87980502D01*
X112937600Y-87978291D01*
X112926120Y-87976473D01*
X112881131Y-87951536D01*
X112862696Y-87903513D01*
X112879443Y-87854875D01*
X112923536Y-87828382D01*
X112937885Y-87827000D01*
X115241774Y-87827000D01*
X115241776Y-87827000D01*
X115250264Y-87826722D01*
X115263652Y-87825845D01*
X115270440Y-87825175D01*
X115272106Y-87825012D01*
X115354466Y-87814168D01*
X115436829Y-87803326D01*
X115449920Y-87800722D01*
X115453490Y-87800012D01*
X115453489Y-87800012D01*
X115453494Y-87800011D01*
X115480206Y-87792854D01*
X115488869Y-87790533D01*
X115504950Y-87785073D01*
X115504949Y-87785074D01*
X115655515Y-87722708D01*
X115655514Y-87722708D01*
X115670756Y-87715191D01*
X115670756Y-87715190D01*
X115671953Y-87714499D01*
X115702465Y-87696882D01*
X115702468Y-87696880D01*
X115702469Y-87696880D01*
X115716590Y-87687443D01*
X115834556Y-87596925D01*
X115883614Y-87581458D01*
X115924989Y-87596080D01*
X115963899Y-87624797D01*
X115985479Y-87640724D01*
X116020226Y-87666368D01*
X116020229Y-87666370D01*
X116043098Y-87674372D01*
X116149549Y-87711621D01*
X116163891Y-87712965D01*
X116182003Y-87714665D01*
X116181897Y-87715787D01*
X116226124Y-87734125D01*
X116249859Y-87779762D01*
X116250499Y-87789550D01*
X116250500Y-87985961D01*
X116250994Y-87997271D01*
X116252628Y-88015966D01*
X116253862Y-88027228D01*
X116253862Y-88027229D01*
X116286405Y-88123101D01*
X116286407Y-88123105D01*
X116286408Y-88123107D01*
X116312128Y-88167656D01*
X116349041Y-88213648D01*
X116361548Y-88229232D01*
X116443312Y-88278847D01*
X116448110Y-88281758D01*
X116496448Y-88299351D01*
X116585195Y-88314999D01*
X116585196Y-88315000D01*
X116585200Y-88315000D01*
X116792918Y-88315000D01*
X116792924Y-88315000D01*
X116805638Y-88314166D01*
X116809878Y-88313889D01*
X116809876Y-88313889D01*
X116837760Y-88310219D01*
X116860061Y-88306286D01*
X116952737Y-88265507D01*
X116962666Y-88258554D01*
X117012350Y-88245239D01*
X117058971Y-88266976D01*
X117080713Y-88313595D01*
X117081000Y-88320153D01*
X117081000Y-89425132D01*
X117079400Y-89440562D01*
X117076055Y-89456514D01*
X117076055Y-89456517D01*
X117080711Y-89493873D01*
X117081000Y-89498520D01*
X117081000Y-89504109D01*
X117084903Y-89527505D01*
X117091802Y-89582855D01*
X117093581Y-89588828D01*
X117093307Y-89588909D01*
X117094390Y-89592288D01*
X117094660Y-89592196D01*
X117095926Y-89595884D01*
X117095905Y-89597015D01*
X117097153Y-89600910D01*
X117097706Y-89604220D01*
X117095766Y-89604543D01*
X117094980Y-89647315D01*
X117061196Y-89686106D01*
X117024800Y-89695500D01*
X116762751Y-89695500D01*
X116732048Y-89698378D01*
X116602729Y-89743629D01*
X116602726Y-89743631D01*
X116492490Y-89824990D01*
X116411131Y-89935226D01*
X116411129Y-89935229D01*
X116371549Y-90048344D01*
X116365880Y-90064548D01*
X116365878Y-90064555D01*
X116363000Y-90095242D01*
X116363000Y-90754748D01*
X116365878Y-90785451D01*
X116411129Y-90914770D01*
X116411131Y-90914773D01*
X116492490Y-91025010D01*
X116602726Y-91106368D01*
X116602729Y-91106370D01*
X116633771Y-91117232D01*
X116732049Y-91151621D01*
X116762751Y-91154500D01*
X116973976Y-91154499D01*
X117022312Y-91172092D01*
X117048032Y-91216640D01*
X117039564Y-91266484D01*
X117013125Y-91313624D01*
X116985427Y-91387567D01*
X116985208Y-91411004D01*
X116967163Y-91459175D01*
X116922375Y-91484477D01*
X116910011Y-91485500D01*
X116521508Y-91485500D01*
X116473170Y-91467907D01*
X116454806Y-91445026D01*
X116436724Y-91410294D01*
X116436718Y-91410285D01*
X116390044Y-91346632D01*
X116390043Y-91346631D01*
X116390041Y-91346628D01*
X116340649Y-91313625D01*
X116305855Y-91290376D01*
X116276979Y-91278415D01*
X116258329Y-91270690D01*
X116233483Y-91264610D01*
X116181642Y-91251924D01*
X116080995Y-91262945D01*
X116031942Y-91278410D01*
X116031930Y-91278415D01*
X115951996Y-91320026D01*
X115951992Y-91320028D01*
X115951992Y-91320029D01*
X115904122Y-91356760D01*
X115897731Y-91362364D01*
X115891339Y-91367970D01*
X115878381Y-91380930D01*
X115865449Y-91393865D01*
X115865441Y-91393873D01*
X115865442Y-91393873D01*
X115854253Y-91406633D01*
X115810777Y-91463292D01*
X115767393Y-91490930D01*
X115716394Y-91484216D01*
X115706053Y-91477715D01*
X115687889Y-91464118D01*
X115687882Y-91464114D01*
X115560389Y-91416561D01*
X115560379Y-91416558D01*
X115504025Y-91410500D01*
X115504022Y-91410500D01*
X114975978Y-91410500D01*
X114975974Y-91410500D01*
X114919620Y-91416558D01*
X114919610Y-91416561D01*
X114792117Y-91464114D01*
X114792110Y-91464118D01*
X114683169Y-91545669D01*
X114601618Y-91654610D01*
X114601614Y-91654617D01*
X114554061Y-91782110D01*
X114554058Y-91782120D01*
X114548000Y-91838474D01*
X114548000Y-92441525D01*
X114554058Y-92497879D01*
X114554061Y-92497889D01*
X114593647Y-92604020D01*
X114594056Y-92655458D01*
X114561305Y-92695124D01*
X114523189Y-92705500D01*
X113617504Y-92705500D01*
X113612591Y-92705178D01*
X113511235Y-92691834D01*
X113492273Y-92686753D01*
X113420539Y-92657040D01*
X113403538Y-92647224D01*
X113322429Y-92584986D01*
X113318735Y-92581747D01*
X112433215Y-91696227D01*
X112427013Y-91690418D01*
X112416939Y-91681584D01*
X112410378Y-91676200D01*
X112278562Y-91575054D01*
X112278558Y-91575051D01*
X112264438Y-91565616D01*
X112264437Y-91565616D01*
X112232738Y-91547313D01*
X112232739Y-91547313D01*
X112217480Y-91539788D01*
X112099526Y-91490930D01*
X112066923Y-91477425D01*
X112050833Y-91471964D01*
X112015469Y-91462488D01*
X111998813Y-91459175D01*
X111998815Y-91459175D01*
X111834079Y-91437488D01*
X111832231Y-91437306D01*
X111825627Y-91436655D01*
X111812241Y-91435778D01*
X111803751Y-91435500D01*
X109840723Y-91435500D01*
X109832233Y-91435778D01*
X109818847Y-91436655D01*
X109812062Y-91437323D01*
X109810396Y-91437488D01*
X109746941Y-91445841D01*
X109645666Y-91459174D01*
X109645659Y-91459175D01*
X109645654Y-91459176D01*
X109645655Y-91459176D01*
X109629002Y-91462488D01*
X109593642Y-91471963D01*
X109577552Y-91477424D01*
X109426982Y-91539793D01*
X109411742Y-91547308D01*
X109395890Y-91556460D01*
X109380038Y-91565613D01*
X109372575Y-91570600D01*
X109365914Y-91575051D01*
X109236626Y-91674257D01*
X109236621Y-91674261D01*
X109226942Y-91682749D01*
X109223852Y-91685460D01*
X109197960Y-91711352D01*
X109186757Y-91724126D01*
X109087551Y-91853414D01*
X109087550Y-91853415D01*
X109078113Y-91867538D01*
X109072063Y-91878017D01*
X109059808Y-91899242D01*
X109052293Y-91914482D01*
X108989924Y-92065052D01*
X108984463Y-92081142D01*
X108974988Y-92116502D01*
X108971675Y-92133158D01*
X108952024Y-92282434D01*
X108949988Y-92297896D01*
X108949155Y-92306346D01*
X108949093Y-92307299D01*
X108948278Y-92319733D01*
X108948000Y-92328224D01*
X108948000Y-93426964D01*
X108930407Y-93475302D01*
X108885858Y-93501022D01*
X108835200Y-93492089D01*
X108819626Y-93480138D01*
X108725989Y-93386501D01*
X108320751Y-92981264D01*
X108317513Y-92977571D01*
X108255273Y-92896459D01*
X108245458Y-92879458D01*
X108215747Y-92807731D01*
X108210665Y-92788768D01*
X108197322Y-92687406D01*
X108197000Y-92682494D01*
X108197000Y-92328225D01*
X108196722Y-92319736D01*
X108195907Y-92307299D01*
X108195845Y-92306347D01*
X108195012Y-92297895D01*
X108192976Y-92282433D01*
X108182269Y-92201102D01*
X108173326Y-92133170D01*
X108170011Y-92116505D01*
X108160533Y-92081131D01*
X108158537Y-92075253D01*
X108155073Y-92065049D01*
X108155074Y-92065050D01*
X108092708Y-91914484D01*
X108092708Y-91914485D01*
X108085191Y-91899243D01*
X108085190Y-91899243D01*
X108085189Y-91899242D01*
X108066882Y-91867534D01*
X108066882Y-91867533D01*
X108057445Y-91853410D01*
X108057444Y-91853409D01*
X108019384Y-91803809D01*
X107958245Y-91724129D01*
X107958245Y-91724130D01*
X107947039Y-91711353D01*
X107921146Y-91685460D01*
X107908369Y-91674254D01*
X107908370Y-91674254D01*
X107793475Y-91586093D01*
X107779090Y-91575055D01*
X107764964Y-91565616D01*
X107764961Y-91565614D01*
X107733252Y-91547307D01*
X107733245Y-91547304D01*
X107733239Y-91547300D01*
X107733240Y-91547301D01*
X107718013Y-91539792D01*
X107718006Y-91539789D01*
X107718005Y-91539788D01*
X107567461Y-91477430D01*
X107567460Y-91477429D01*
X107567452Y-91477426D01*
X107567449Y-91477425D01*
X107551359Y-91471964D01*
X107515995Y-91462488D01*
X107499339Y-91459175D01*
X107499341Y-91459175D01*
X107334605Y-91437488D01*
X107332757Y-91437306D01*
X107326153Y-91436655D01*
X107312767Y-91435778D01*
X107304277Y-91435500D01*
X106665723Y-91435500D01*
X106657233Y-91435778D01*
X106643847Y-91436655D01*
X106637062Y-91437323D01*
X106635396Y-91437488D01*
X106571941Y-91445841D01*
X106470666Y-91459174D01*
X106470659Y-91459175D01*
X106470654Y-91459176D01*
X106470655Y-91459176D01*
X106454002Y-91462488D01*
X106418642Y-91471963D01*
X106402552Y-91477424D01*
X106251982Y-91539793D01*
X106236742Y-91547308D01*
X106220890Y-91556460D01*
X106205038Y-91565613D01*
X106197575Y-91570600D01*
X106190914Y-91575051D01*
X106061626Y-91674257D01*
X106061621Y-91674261D01*
X106051942Y-91682749D01*
X106048852Y-91685460D01*
X106022960Y-91711352D01*
X106011757Y-91724126D01*
X105912551Y-91853414D01*
X105912550Y-91853415D01*
X105903113Y-91867538D01*
X105897063Y-91878017D01*
X105884808Y-91899242D01*
X105877293Y-91914482D01*
X105814924Y-92065052D01*
X105809463Y-92081142D01*
X105799988Y-92116502D01*
X105796675Y-92133158D01*
X105777024Y-92282434D01*
X105774988Y-92297896D01*
X105774155Y-92306346D01*
X105774093Y-92307299D01*
X105773278Y-92319733D01*
X105773000Y-92328224D01*
X105773000Y-94217800D01*
X105755407Y-94266138D01*
X105710858Y-94291858D01*
X105697800Y-94293000D01*
X101585723Y-94293000D01*
X101577233Y-94293278D01*
X101563847Y-94294155D01*
X101557062Y-94294823D01*
X101555396Y-94294988D01*
X101520075Y-94299638D01*
X101390666Y-94316674D01*
X101390659Y-94316675D01*
X101390654Y-94316676D01*
X101390655Y-94316676D01*
X101374002Y-94319988D01*
X101338642Y-94329463D01*
X101322552Y-94334924D01*
X101321460Y-94335375D01*
X101315970Y-94337649D01*
X101264579Y-94339888D01*
X101223772Y-94308570D01*
X101211999Y-94268171D01*
X101212000Y-93935854D01*
X101212000Y-93598223D01*
X101211722Y-93589735D01*
X101210845Y-93576347D01*
X101210012Y-93567895D01*
X101207511Y-93548901D01*
X101188326Y-93403172D01*
X101188323Y-93403158D01*
X101185011Y-93386505D01*
X101175533Y-93351131D01*
X101170073Y-93335049D01*
X101170074Y-93335050D01*
X101107708Y-93184484D01*
X101107708Y-93184485D01*
X101100191Y-93169243D01*
X101100190Y-93169243D01*
X101100189Y-93169242D01*
X101081882Y-93137534D01*
X101081882Y-93137533D01*
X101072445Y-93123410D01*
X101072444Y-93123409D01*
X101034384Y-93073809D01*
X100973245Y-92994129D01*
X100973245Y-92994130D01*
X100962039Y-92981353D01*
X100936146Y-92955460D01*
X100923376Y-92944260D01*
X100838923Y-92879458D01*
X100794087Y-92845054D01*
X100794083Y-92845051D01*
X100794079Y-92845048D01*
X100779956Y-92835612D01*
X100779957Y-92835613D01*
X100748253Y-92817307D01*
X100733014Y-92809792D01*
X100733006Y-92809788D01*
X100642412Y-92772263D01*
X100582449Y-92747425D01*
X100566359Y-92741964D01*
X100530995Y-92732488D01*
X100514339Y-92729175D01*
X100514341Y-92729175D01*
X100349605Y-92707488D01*
X100347757Y-92707306D01*
X100341153Y-92706655D01*
X100327767Y-92705778D01*
X100319277Y-92705500D01*
X100260058Y-92705500D01*
X100252930Y-92706655D01*
X100178115Y-92718776D01*
X100178111Y-92718777D01*
X100133053Y-92733773D01*
X100133038Y-92733779D01*
X100059489Y-92772252D01*
X100059474Y-92772261D01*
X100047670Y-92781097D01*
X100028889Y-92791351D01*
X99984903Y-92807758D01*
X99958622Y-92812500D01*
X99406375Y-92812500D01*
X99380095Y-92807758D01*
X99336110Y-92791352D01*
X99317325Y-92781095D01*
X99305527Y-92772263D01*
X99305522Y-92772260D01*
X99305521Y-92772259D01*
X99305515Y-92772256D01*
X99305512Y-92772254D01*
X99231957Y-92733778D01*
X99231950Y-92733775D01*
X99198156Y-92722528D01*
X99186890Y-92718779D01*
X99104942Y-92705500D01*
X95870723Y-92705500D01*
X95862233Y-92705778D01*
X95848847Y-92706655D01*
X95842062Y-92707323D01*
X95840396Y-92707488D01*
X95776941Y-92715841D01*
X95675666Y-92729174D01*
X95675659Y-92729175D01*
X95675654Y-92729176D01*
X95675655Y-92729176D01*
X95665770Y-92731142D01*
X95659002Y-92732488D01*
X95623642Y-92741963D01*
X95607552Y-92747424D01*
X95456982Y-92809793D01*
X95441742Y-92817308D01*
X95425890Y-92826460D01*
X95410038Y-92835613D01*
X95395918Y-92845048D01*
X95395914Y-92845051D01*
X95266626Y-92944257D01*
X95266623Y-92944260D01*
X95253852Y-92955460D01*
X95227960Y-92981352D01*
X95216757Y-92994126D01*
X95117551Y-93123414D01*
X95117550Y-93123415D01*
X95108113Y-93137538D01*
X95098960Y-93153390D01*
X95089808Y-93169242D01*
X95082293Y-93184482D01*
X95019924Y-93335052D01*
X95014463Y-93351142D01*
X95004988Y-93386502D01*
X95001675Y-93403158D01*
X95001675Y-93403157D01*
X94994556Y-93457232D01*
X94970803Y-93502859D01*
X94923278Y-93522543D01*
X94874219Y-93507075D01*
X94846581Y-93463690D01*
X94845443Y-93457232D01*
X94838326Y-93403170D01*
X94835011Y-93386505D01*
X94825533Y-93351131D01*
X94820073Y-93335049D01*
X94820074Y-93335050D01*
X94757708Y-93184484D01*
X94757708Y-93184485D01*
X94750191Y-93169243D01*
X94750190Y-93169243D01*
X94750189Y-93169242D01*
X94731882Y-93137534D01*
X94731882Y-93137533D01*
X94722445Y-93123410D01*
X94722444Y-93123409D01*
X94684384Y-93073809D01*
X94623245Y-92994129D01*
X94623245Y-92994130D01*
X94612039Y-92981353D01*
X94586146Y-92955460D01*
X94573369Y-92944254D01*
X94573370Y-92944254D01*
X94479520Y-92872242D01*
X94444090Y-92845055D01*
X94429964Y-92835616D01*
X94429961Y-92835614D01*
X94429957Y-92835612D01*
X94418972Y-92829270D01*
X94398252Y-92817307D01*
X94398245Y-92817304D01*
X94398239Y-92817300D01*
X94398240Y-92817301D01*
X94383013Y-92809792D01*
X94383006Y-92809789D01*
X94383005Y-92809788D01*
X94232461Y-92747430D01*
X94232460Y-92747429D01*
X94232452Y-92747426D01*
X94232449Y-92747425D01*
X94216359Y-92741964D01*
X94180995Y-92732488D01*
X94164339Y-92729175D01*
X94164341Y-92729175D01*
X93999605Y-92707488D01*
X93997757Y-92707306D01*
X93991153Y-92706655D01*
X93977767Y-92705778D01*
X93969277Y-92705500D01*
X92695723Y-92705500D01*
X92687233Y-92705778D01*
X92673847Y-92706655D01*
X92667062Y-92707323D01*
X92665396Y-92707488D01*
X92601941Y-92715841D01*
X92500666Y-92729174D01*
X92500659Y-92729175D01*
X92500654Y-92729176D01*
X92500655Y-92729176D01*
X92490770Y-92731142D01*
X92484002Y-92732488D01*
X92448642Y-92741963D01*
X92432552Y-92747424D01*
X92281982Y-92809793D01*
X92266742Y-92817308D01*
X92250890Y-92826460D01*
X92235038Y-92835613D01*
X92220918Y-92845048D01*
X92220914Y-92845051D01*
X92091626Y-92944257D01*
X92091623Y-92944260D01*
X92078852Y-92955460D01*
X92052960Y-92981352D01*
X92041757Y-92994126D01*
X91942551Y-93123414D01*
X91942550Y-93123415D01*
X91933113Y-93137538D01*
X91923960Y-93153390D01*
X91914808Y-93169242D01*
X91907293Y-93184482D01*
X91844924Y-93335052D01*
X91839463Y-93351142D01*
X91829988Y-93386502D01*
X91826675Y-93403158D01*
X91807489Y-93548901D01*
X91804988Y-93567896D01*
X91804155Y-93576346D01*
X91803278Y-93589732D01*
X91803278Y-93589733D01*
X91803000Y-93598224D01*
X91803000Y-97762494D01*
X91802678Y-97767407D01*
X91789334Y-97868763D01*
X91784253Y-97887725D01*
X91754540Y-97959459D01*
X91744724Y-97976460D01*
X91682486Y-98057569D01*
X91679240Y-98061271D01*
X91443771Y-98296740D01*
X91440069Y-98299986D01*
X91358960Y-98362224D01*
X91341959Y-98372040D01*
X91270225Y-98401753D01*
X91251262Y-98406834D01*
X91152607Y-98419822D01*
X91128123Y-98419020D01*
X91115146Y-98416439D01*
X91071169Y-98389755D01*
X91056060Y-98357355D01*
X91053443Y-98344197D01*
X91052000Y-98329535D01*
X91052000Y-95185722D01*
X91051722Y-95177233D01*
X91050844Y-95163846D01*
X91050012Y-95155394D01*
X91046244Y-95126774D01*
X91028326Y-94990670D01*
X91025011Y-94974005D01*
X91015533Y-94938631D01*
X91010073Y-94922549D01*
X91010074Y-94922550D01*
X90947708Y-94771984D01*
X90947708Y-94771985D01*
X90940191Y-94756743D01*
X90940190Y-94756743D01*
X90940189Y-94756742D01*
X90921882Y-94725034D01*
X90921882Y-94725033D01*
X90912445Y-94710910D01*
X90912444Y-94710909D01*
X90865736Y-94650038D01*
X90813245Y-94581629D01*
X90813245Y-94581630D01*
X90802039Y-94568853D01*
X90776146Y-94542960D01*
X90763369Y-94531754D01*
X90763370Y-94531754D01*
X90645094Y-94440999D01*
X90634090Y-94432555D01*
X90632194Y-94431288D01*
X90601778Y-94389807D01*
X90600218Y-94354092D01*
X90604500Y-94332567D01*
X90604499Y-92282434D01*
X90589734Y-92208199D01*
X90533484Y-92124016D01*
X90449301Y-92067766D01*
X90449299Y-92067765D01*
X90375068Y-92053000D01*
X90375067Y-92053000D01*
X90183700Y-92053000D01*
X90135362Y-92035407D01*
X90109642Y-91990858D01*
X90108500Y-91977800D01*
X90108500Y-90337157D01*
X90126093Y-90288819D01*
X90153111Y-90268460D01*
X90157500Y-90266505D01*
X90157500Y-90742500D01*
X92697500Y-90742500D01*
X92697500Y-88287075D01*
X92699808Y-88288936D01*
X93246060Y-88835187D01*
X93256147Y-88847703D01*
X93261750Y-88856421D01*
X93302272Y-88891534D01*
X93304215Y-88893342D01*
X93310190Y-88899317D01*
X93316150Y-88905278D01*
X93329656Y-88915389D01*
X93331745Y-88917073D01*
X93352623Y-88935163D01*
X93372257Y-88952176D01*
X93372258Y-88952176D01*
X93372259Y-88952177D01*
X93381678Y-88956479D01*
X93395501Y-88964679D01*
X93403796Y-88970889D01*
X93431827Y-88981344D01*
X93454036Y-88989628D01*
X93456491Y-88990644D01*
X93505266Y-89012919D01*
X93515521Y-89014393D01*
X93531095Y-89018369D01*
X93540800Y-89021989D01*
X93594290Y-89025814D01*
X93596918Y-89026096D01*
X93613632Y-89028500D01*
X93630501Y-89028500D01*
X93633178Y-89028595D01*
X93686649Y-89032420D01*
X93696767Y-89030218D01*
X93712753Y-89028500D01*
X93760301Y-89028500D01*
X93808639Y-89046093D01*
X93834359Y-89090642D01*
X93835501Y-89103700D01*
X93835501Y-89145068D01*
X93837830Y-89156776D01*
X93850266Y-89219301D01*
X93906516Y-89303484D01*
X93990699Y-89359734D01*
X94064933Y-89374500D01*
X94690000Y-89374499D01*
X94690000Y-90107500D01*
X97230000Y-90107500D01*
X97230000Y-87069488D01*
X98111721Y-87951210D01*
X98111728Y-87951216D01*
X98111734Y-87951222D01*
X98156654Y-87987131D01*
X98184664Y-88004822D01*
X98225817Y-88025938D01*
X98325275Y-88044911D01*
X98374439Y-88044525D01*
X98374438Y-88044524D01*
X98375119Y-88044518D01*
X98375120Y-88044519D01*
X98376524Y-88044509D01*
X98376525Y-88044508D01*
X98377768Y-88044500D01*
X98377788Y-88044499D01*
X98380509Y-88044477D01*
X98381130Y-88044693D01*
X98381489Y-88044655D01*
X98385219Y-88044440D01*
X98396645Y-88044350D01*
X98400170Y-88042646D01*
X98404762Y-88042152D01*
X98404763Y-88042153D01*
X98430069Y-88039432D01*
X98446036Y-88037716D01*
X98450057Y-88037500D01*
X99006123Y-88037500D01*
X99032402Y-88042241D01*
X99076389Y-88058647D01*
X99095171Y-88068903D01*
X99128510Y-88093860D01*
X99143638Y-88108988D01*
X99168595Y-88142326D01*
X99178851Y-88161109D01*
X99195258Y-88205097D01*
X99200000Y-88231377D01*
X99200000Y-88733623D01*
X99195892Y-88756404D01*
X99196243Y-88756513D01*
X99196273Y-88756521D01*
X99196272Y-88756522D01*
X99196383Y-88756557D01*
X99195765Y-88758541D01*
X99181760Y-88814332D01*
X99181758Y-88814342D01*
X99178154Y-88840906D01*
X99177303Y-88847175D01*
X99175417Y-88888500D01*
X99175196Y-88893356D01*
X99175194Y-88893390D01*
X99199262Y-88991739D01*
X99221002Y-89038359D01*
X99221003Y-89038360D01*
X99221005Y-89038364D01*
X99272688Y-89112175D01*
X99272699Y-89112188D01*
X99949281Y-89788769D01*
X99955479Y-89794574D01*
X99965556Y-89803412D01*
X99972121Y-89808799D01*
X100020903Y-89846231D01*
X100103936Y-89909945D01*
X100110574Y-89914380D01*
X100118064Y-89919385D01*
X100118062Y-89919384D01*
X100129374Y-89925915D01*
X100149776Y-89937694D01*
X100149783Y-89937697D01*
X100149783Y-89937698D01*
X100165014Y-89945208D01*
X100165016Y-89945209D01*
X100165015Y-89945209D01*
X100243042Y-89977529D01*
X100315569Y-90007571D01*
X100315572Y-90007572D01*
X100331668Y-90013036D01*
X100367022Y-90022510D01*
X100367023Y-90022510D01*
X100367027Y-90022510D01*
X100367028Y-90022511D01*
X100383695Y-90025826D01*
X100482531Y-90038837D01*
X100548420Y-90047512D01*
X100550086Y-90047675D01*
X100556874Y-90048345D01*
X100570262Y-90049222D01*
X100578750Y-90049500D01*
X100578752Y-90049500D01*
X100792930Y-90049500D01*
X100803115Y-90049100D01*
X100825040Y-90047374D01*
X100835160Y-90046176D01*
X100969750Y-90024859D01*
X101009335Y-90015356D01*
X101031707Y-90008087D01*
X101031707Y-90008086D01*
X101031716Y-90008084D01*
X101069341Y-89992500D01*
X101180883Y-89935666D01*
X101181597Y-89935229D01*
X101207450Y-89919385D01*
X101215609Y-89914385D01*
X101221724Y-89909942D01*
X101234637Y-89900560D01*
X101234638Y-89900559D01*
X101265600Y-89874114D01*
X101354114Y-89785600D01*
X101375231Y-89760876D01*
X101380555Y-89754643D01*
X101380559Y-89754638D01*
X101380560Y-89754637D01*
X101394380Y-89735616D01*
X101394380Y-89735617D01*
X101394385Y-89735609D01*
X101405145Y-89718049D01*
X101445400Y-89686030D01*
X101496823Y-89687377D01*
X101528922Y-89711565D01*
X101533900Y-89718052D01*
X101566756Y-89760871D01*
X101577959Y-89773645D01*
X101603854Y-89799540D01*
X101616628Y-89810743D01*
X101745910Y-89909944D01*
X101760037Y-89919384D01*
X101791750Y-89937694D01*
X101791757Y-89937697D01*
X101791757Y-89937698D01*
X101806988Y-89945208D01*
X101806990Y-89945209D01*
X101806989Y-89945209D01*
X101885016Y-89977529D01*
X101957543Y-90007571D01*
X101957546Y-90007572D01*
X101973642Y-90013036D01*
X102008996Y-90022510D01*
X102008997Y-90022510D01*
X102009001Y-90022510D01*
X102009002Y-90022511D01*
X102025669Y-90025826D01*
X102124505Y-90038837D01*
X102190394Y-90047512D01*
X102192060Y-90047675D01*
X102198848Y-90048345D01*
X102212236Y-90049222D01*
X102220724Y-90049500D01*
X102273540Y-90049500D01*
X102321878Y-90067093D01*
X102347598Y-90111642D01*
X102348547Y-90119328D01*
X102348822Y-90123181D01*
X102348904Y-90124322D01*
X102349000Y-90127001D01*
X102349000Y-90143870D01*
X102351399Y-90160566D01*
X102351686Y-90163232D01*
X102355509Y-90216695D01*
X102355510Y-90216700D01*
X102355511Y-90216701D01*
X102359133Y-90226414D01*
X102363106Y-90241981D01*
X102364579Y-90252229D01*
X102364580Y-90252231D01*
X102364580Y-90252232D01*
X102364581Y-90252234D01*
X102376117Y-90277494D01*
X102386848Y-90300994D01*
X102387869Y-90303458D01*
X102389864Y-90308805D01*
X102406611Y-90353705D01*
X102412817Y-90361995D01*
X102421019Y-90375819D01*
X102425321Y-90385240D01*
X102460426Y-90425754D01*
X102462110Y-90427843D01*
X102472224Y-90441353D01*
X102478183Y-90447311D01*
X102484155Y-90453283D01*
X102485973Y-90455236D01*
X102521077Y-90495748D01*
X102521079Y-90495750D01*
X102529790Y-90501348D01*
X102542309Y-90511437D01*
X102771063Y-90740191D01*
X102781148Y-90752704D01*
X102786750Y-90761421D01*
X102827273Y-90796535D01*
X102829214Y-90798342D01*
X102835189Y-90804317D01*
X102841149Y-90810278D01*
X102854655Y-90820388D01*
X102856747Y-90822074D01*
X102897254Y-90857174D01*
X102897261Y-90857178D01*
X102906674Y-90861477D01*
X102920501Y-90869680D01*
X102928793Y-90875887D01*
X102928794Y-90875888D01*
X102928795Y-90875888D01*
X102928796Y-90875889D01*
X102946201Y-90882380D01*
X102979036Y-90894628D01*
X102981491Y-90895644D01*
X103030266Y-90917919D01*
X103040521Y-90919393D01*
X103056095Y-90923369D01*
X103065800Y-90926989D01*
X103119290Y-90930814D01*
X103121918Y-90931096D01*
X103138632Y-90933500D01*
X103155501Y-90933500D01*
X103158178Y-90933595D01*
X103211649Y-90937420D01*
X103221767Y-90935218D01*
X103237753Y-90933500D01*
X107941989Y-90933500D01*
X107990327Y-90951093D01*
X108002494Y-90964044D01*
X108047489Y-91025009D01*
X108157726Y-91106368D01*
X108157729Y-91106370D01*
X108188771Y-91117232D01*
X108287049Y-91151621D01*
X108317751Y-91154500D01*
X108827248Y-91154499D01*
X108857951Y-91151621D01*
X108987273Y-91106369D01*
X109097510Y-91025010D01*
X109178869Y-90914773D01*
X109224121Y-90785451D01*
X109227000Y-90754749D01*
X109226999Y-90095252D01*
X109224360Y-90067093D01*
X109224121Y-90064548D01*
X109178870Y-89935229D01*
X109178868Y-89935226D01*
X109097510Y-89824990D01*
X108987273Y-89743631D01*
X108987270Y-89743629D01*
X108888995Y-89709242D01*
X108857951Y-89698379D01*
X108857946Y-89698378D01*
X108857944Y-89698378D01*
X108827256Y-89695500D01*
X108317751Y-89695500D01*
X108287048Y-89698378D01*
X108157729Y-89743629D01*
X108157726Y-89743631D01*
X108047489Y-89824990D01*
X108002494Y-89885956D01*
X107959635Y-89914400D01*
X107941989Y-89916500D01*
X105763234Y-89916500D01*
X105714896Y-89898907D01*
X105689176Y-89854358D01*
X105698109Y-89803700D01*
X105710060Y-89788126D01*
X105724538Y-89773647D01*
X105724539Y-89773646D01*
X105735745Y-89760869D01*
X105735745Y-89760870D01*
X105819943Y-89651139D01*
X105834944Y-89631590D01*
X105834945Y-89631589D01*
X105844382Y-89617466D01*
X105844382Y-89617465D01*
X105852029Y-89604220D01*
X105862690Y-89585756D01*
X105862691Y-89585756D01*
X105870208Y-89570514D01*
X105870208Y-89570515D01*
X105932574Y-89419949D01*
X105932573Y-89419950D01*
X105938033Y-89403869D01*
X105947512Y-89368489D01*
X105950826Y-89351829D01*
X105967674Y-89223851D01*
X105972512Y-89187106D01*
X105972999Y-89182162D01*
X105973345Y-89178652D01*
X105974222Y-89165264D01*
X105974500Y-89156776D01*
X105974500Y-89098040D01*
X105974006Y-89086730D01*
X105973191Y-89077408D01*
X105972372Y-89068034D01*
X105971436Y-89059497D01*
X105971138Y-89056772D01*
X105948346Y-88989628D01*
X105938594Y-88960898D01*
X105938593Y-88960896D01*
X105938592Y-88960893D01*
X105912872Y-88916344D01*
X105863452Y-88854768D01*
X105863451Y-88854767D01*
X105776891Y-88802242D01*
X105776881Y-88802238D01*
X105728553Y-88784649D01*
X105639804Y-88769000D01*
X105639800Y-88769000D01*
X105559725Y-88769000D01*
X105559724Y-88769000D01*
X105550288Y-88769318D01*
X105550283Y-88769318D01*
X105550283Y-88769319D01*
X105512980Y-88777861D01*
X105454053Y-88791355D01*
X105454050Y-88791356D01*
X105407013Y-88812164D01*
X105407002Y-88812170D01*
X105340514Y-88854711D01*
X105340512Y-88854713D01*
X105279031Y-88935163D01*
X105256368Y-88981348D01*
X105256366Y-88981354D01*
X105231806Y-89066241D01*
X105230917Y-89068932D01*
X105211352Y-89121389D01*
X105201095Y-89140173D01*
X105176138Y-89173510D01*
X105161010Y-89188638D01*
X105127673Y-89213595D01*
X105108890Y-89223851D01*
X105064903Y-89240258D01*
X105038622Y-89245000D01*
X104486377Y-89245000D01*
X104460097Y-89240258D01*
X104416109Y-89223851D01*
X104397326Y-89213595D01*
X104363992Y-89188641D01*
X104348859Y-89173508D01*
X104323901Y-89140168D01*
X104313644Y-89121382D01*
X104297242Y-89077408D01*
X104292500Y-89051128D01*
X104292500Y-88548870D01*
X104297239Y-88522595D01*
X104313650Y-88478599D01*
X104323899Y-88459829D01*
X104348861Y-88426485D01*
X104363982Y-88411364D01*
X104397331Y-88386399D01*
X104416103Y-88376148D01*
X104465432Y-88357749D01*
X104478662Y-88354149D01*
X104481313Y-88353682D01*
X104481970Y-88353567D01*
X104484755Y-88353041D01*
X104488040Y-88352422D01*
X104581508Y-88313490D01*
X104624222Y-88284827D01*
X104682328Y-88231370D01*
X104682640Y-88230769D01*
X104716209Y-88165968D01*
X104728902Y-88141466D01*
X104728904Y-88141460D01*
X104743195Y-88092065D01*
X104743196Y-88092059D01*
X104743198Y-88092053D01*
X104749667Y-88042153D01*
X104752535Y-88020032D01*
X104776197Y-87974357D01*
X104823682Y-87954578D01*
X104827111Y-87954500D01*
X104926911Y-87954500D01*
X104975249Y-87972093D01*
X104998120Y-88005528D01*
X105023094Y-88079101D01*
X105023096Y-88079105D01*
X105023097Y-88079107D01*
X105048817Y-88123656D01*
X105080188Y-88162743D01*
X105098237Y-88185232D01*
X105180408Y-88235094D01*
X105184799Y-88237758D01*
X105233137Y-88255351D01*
X105321884Y-88270999D01*
X105321885Y-88271000D01*
X105321889Y-88271000D01*
X105645461Y-88271000D01*
X105656771Y-88270506D01*
X105675466Y-88268872D01*
X105680770Y-88268290D01*
X105686728Y-88267638D01*
X105782607Y-88235092D01*
X105827156Y-88209372D01*
X105888732Y-88159952D01*
X105941258Y-88073390D01*
X105958851Y-88025052D01*
X105974499Y-87936304D01*
X105974500Y-87936304D01*
X105974500Y-87849060D01*
X105992093Y-87800722D01*
X106036642Y-87775002D01*
X106083841Y-87782056D01*
X106098445Y-87789498D01*
X106193166Y-87804500D01*
X106193172Y-87804500D01*
X107906828Y-87804500D01*
X107906834Y-87804500D01*
X108001555Y-87789498D01*
X108115723Y-87731326D01*
X108206326Y-87640723D01*
X108264498Y-87526555D01*
X108279500Y-87431834D01*
X108279500Y-87068166D01*
X108264498Y-86973445D01*
X108254206Y-86953245D01*
X108206325Y-86859275D01*
X108115724Y-86768674D01*
X108001555Y-86710502D01*
X108001557Y-86710502D01*
X107906836Y-86695500D01*
X107906834Y-86695500D01*
X106193166Y-86695500D01*
X106193163Y-86695500D01*
X106098442Y-86710502D01*
X106098440Y-86710503D01*
X106083839Y-86717943D01*
X106032783Y-86724211D01*
X105989642Y-86696195D01*
X105974500Y-86650939D01*
X105974500Y-85679700D01*
X105992093Y-85631362D01*
X106036642Y-85605642D01*
X106049700Y-85604500D01*
X107621774Y-85604500D01*
X107621776Y-85604500D01*
X107630264Y-85604222D01*
X107643652Y-85603345D01*
X107650440Y-85602675D01*
X107652106Y-85602512D01*
X107737725Y-85591240D01*
X107816829Y-85580826D01*
X107827836Y-85578636D01*
X107833490Y-85577512D01*
X107833489Y-85577512D01*
X107833494Y-85577511D01*
X107853267Y-85572212D01*
X107868869Y-85568033D01*
X107884950Y-85562573D01*
X107884949Y-85562574D01*
X108035515Y-85500208D01*
X108035514Y-85500208D01*
X108050756Y-85492691D01*
X108050756Y-85492690D01*
X108082465Y-85474382D01*
X108082466Y-85474382D01*
X108096589Y-85464945D01*
X108192021Y-85391717D01*
X108241080Y-85376249D01*
X108288604Y-85395934D01*
G37*
%TD.AperFunction*%
%TA.AperFunction,Conductor*%
G36*
X74234836Y-88142779D02*
G01*
X74242498Y-88151749D01*
X74252829Y-88165968D01*
X74252830Y-88165969D01*
X74252831Y-88165970D01*
X74254703Y-88167656D01*
X74304277Y-88212292D01*
X74305686Y-88213629D01*
X74321494Y-88229437D01*
X74331773Y-88237761D01*
X74338849Y-88243491D01*
X74340337Y-88244761D01*
X74367114Y-88268871D01*
X74391785Y-88291085D01*
X74406997Y-88299867D01*
X74416719Y-88306548D01*
X74430375Y-88317607D01*
X74430379Y-88317609D01*
X74430382Y-88317611D01*
X74455551Y-88330434D01*
X74492057Y-88349035D01*
X74493760Y-88349959D01*
X74553715Y-88384575D01*
X74570422Y-88390003D01*
X74581328Y-88394520D01*
X74596976Y-88402494D01*
X74630057Y-88411358D01*
X74663846Y-88420412D01*
X74665710Y-88420964D01*
X74731544Y-88442355D01*
X74749008Y-88444190D01*
X74760608Y-88446339D01*
X74777585Y-88450889D01*
X74846707Y-88454510D01*
X74848644Y-88454662D01*
X74870880Y-88457000D01*
X74893215Y-88457000D01*
X74895183Y-88457052D01*
X74917067Y-88458198D01*
X74964310Y-88460674D01*
X74981660Y-88457925D01*
X74993425Y-88457000D01*
X79362500Y-88457000D01*
X79362500Y-90742500D01*
X81182922Y-90742500D01*
X81181062Y-90744808D01*
X80317308Y-91608562D01*
X80304794Y-91618648D01*
X80296083Y-91624246D01*
X80296078Y-91624251D01*
X80260973Y-91664763D01*
X80259145Y-91666726D01*
X80247223Y-91678647D01*
X80237107Y-91692159D01*
X80235425Y-91694247D01*
X80200324Y-91734756D01*
X80200324Y-91734757D01*
X80196021Y-91744179D01*
X80187823Y-91757996D01*
X80181612Y-91766293D01*
X80181610Y-91766296D01*
X80162875Y-91816525D01*
X80161848Y-91819003D01*
X80139581Y-91867763D01*
X80139580Y-91867768D01*
X80138106Y-91878017D01*
X80134133Y-91893585D01*
X80130511Y-91903297D01*
X80130510Y-91903303D01*
X80126686Y-91956769D01*
X80126399Y-91959435D01*
X80124000Y-91976134D01*
X80124000Y-91993001D01*
X80123904Y-91995676D01*
X80123383Y-92002961D01*
X80120080Y-92049145D01*
X80120080Y-92049149D01*
X80122281Y-92059265D01*
X80124000Y-92075253D01*
X80124000Y-92313541D01*
X80106407Y-92361879D01*
X80084255Y-92379858D01*
X80076282Y-92384119D01*
X80040833Y-92393000D01*
X74993425Y-92393000D01*
X74981660Y-92392074D01*
X74980296Y-92391858D01*
X74976735Y-92391294D01*
X74964311Y-92389326D01*
X74964310Y-92389326D01*
X74957601Y-92389677D01*
X74895183Y-92392948D01*
X74893215Y-92393000D01*
X74870873Y-92393000D01*
X74848673Y-92395333D01*
X74846711Y-92395487D01*
X74777586Y-92399110D01*
X74760608Y-92403659D01*
X74749014Y-92405808D01*
X74731544Y-92407645D01*
X74665709Y-92429035D01*
X74663829Y-92429591D01*
X74648370Y-92433734D01*
X74596977Y-92447505D01*
X74581318Y-92455483D01*
X74570427Y-92459994D01*
X74553711Y-92465426D01*
X74493777Y-92500029D01*
X74492047Y-92500969D01*
X74430375Y-92532392D01*
X74416722Y-92543448D01*
X74407003Y-92550128D01*
X74391785Y-92558915D01*
X74391783Y-92558916D01*
X74340342Y-92605233D01*
X74338846Y-92606510D01*
X74321503Y-92620554D01*
X74305693Y-92636362D01*
X74304268Y-92637714D01*
X74252831Y-92684030D01*
X74252830Y-92684030D01*
X74242498Y-92698250D01*
X74234838Y-92707217D01*
X73330000Y-93612055D01*
X73330000Y-87237943D01*
X74234836Y-88142779D01*
G37*
%TD.AperFunction*%
%TA.AperFunction,Conductor*%
G36*
X90507529Y-86693194D02*
G01*
X90530981Y-86710502D01*
X90614578Y-86772200D01*
X90620226Y-86776368D01*
X90620229Y-86776370D01*
X90651271Y-86787232D01*
X90749549Y-86821621D01*
X90780251Y-86824500D01*
X91439748Y-86824499D01*
X91470451Y-86821621D01*
X91599773Y-86776369D01*
X91697680Y-86704110D01*
X91712471Y-86693194D01*
X91757126Y-86678500D01*
X92367875Y-86678500D01*
X92412530Y-86693194D01*
X92414989Y-86695009D01*
X92414990Y-86695010D01*
X92475954Y-86740003D01*
X92504399Y-86782863D01*
X92506499Y-86800509D01*
X92506499Y-87822249D01*
X92504781Y-87838230D01*
X92502580Y-87848346D01*
X92502580Y-87848351D01*
X92505911Y-87894932D01*
X92506404Y-87901815D01*
X92506500Y-87904498D01*
X92506500Y-87921370D01*
X92508899Y-87938066D01*
X92509186Y-87940732D01*
X92513009Y-87994195D01*
X92513010Y-87994200D01*
X92513011Y-87994201D01*
X92516633Y-88003914D01*
X92520606Y-88019481D01*
X92522079Y-88029729D01*
X92522080Y-88029731D01*
X92522080Y-88029732D01*
X92522081Y-88029734D01*
X92529012Y-88044911D01*
X92544348Y-88078494D01*
X92545369Y-88080958D01*
X92549912Y-88093136D01*
X92564111Y-88131205D01*
X92570317Y-88139495D01*
X92578519Y-88153319D01*
X92582821Y-88162740D01*
X92617273Y-88202500D01*
X90157500Y-88202500D01*
X90157500Y-88678492D01*
X90105513Y-88655347D01*
X90105511Y-88655346D01*
X90105510Y-88655346D01*
X89929812Y-88618000D01*
X89750188Y-88618000D01*
X89662339Y-88636672D01*
X89574488Y-88655346D01*
X89410393Y-88728406D01*
X89265084Y-88833979D01*
X89265079Y-88833983D01*
X89144886Y-88967470D01*
X89055076Y-89123026D01*
X88999568Y-89293864D01*
X88984150Y-89440562D01*
X88980793Y-89472500D01*
X88983283Y-89496187D01*
X88999568Y-89651135D01*
X88999568Y-89651137D01*
X88999569Y-89651139D01*
X89047787Y-89799540D01*
X89055075Y-89821971D01*
X89081425Y-89867609D01*
X89091500Y-89905210D01*
X89091500Y-90476300D01*
X89073907Y-90524638D01*
X89029358Y-90550358D01*
X89016300Y-90551500D01*
X87947126Y-90551500D01*
X87902471Y-90536806D01*
X87789773Y-90453631D01*
X87789770Y-90453629D01*
X87691495Y-90419242D01*
X87660451Y-90408379D01*
X87660446Y-90408378D01*
X87660444Y-90408378D01*
X87629756Y-90405500D01*
X86970251Y-90405500D01*
X86939548Y-90408378D01*
X86810229Y-90453629D01*
X86810226Y-90453631D01*
X86697529Y-90536806D01*
X86652874Y-90551500D01*
X86215511Y-90551500D01*
X86167173Y-90533907D01*
X86155006Y-90520956D01*
X86110010Y-90459990D01*
X85999773Y-90378631D01*
X85999770Y-90378629D01*
X85901495Y-90344242D01*
X85870451Y-90333379D01*
X85870446Y-90333378D01*
X85870444Y-90333378D01*
X85839756Y-90330500D01*
X85330251Y-90330500D01*
X85299548Y-90333378D01*
X85170229Y-90378629D01*
X85170226Y-90378631D01*
X85059990Y-90459990D01*
X84978631Y-90570226D01*
X84978629Y-90570229D01*
X84937255Y-90688472D01*
X84933380Y-90699548D01*
X84933378Y-90699555D01*
X84930500Y-90730242D01*
X84930500Y-91389748D01*
X84933378Y-91420451D01*
X84978629Y-91549770D01*
X84978631Y-91549773D01*
X85059990Y-91660010D01*
X85170226Y-91741368D01*
X85170229Y-91741370D01*
X85178257Y-91744179D01*
X85299549Y-91786621D01*
X85330251Y-91789500D01*
X85839748Y-91789499D01*
X85870451Y-91786621D01*
X85999773Y-91741369D01*
X86110010Y-91660010D01*
X86147981Y-91608562D01*
X86155006Y-91599044D01*
X86197865Y-91570600D01*
X86215511Y-91568500D01*
X86652874Y-91568500D01*
X86697529Y-91583194D01*
X86786548Y-91648893D01*
X86814993Y-91691753D01*
X86809234Y-91742869D01*
X86771965Y-91778324D01*
X86761358Y-91782036D01*
X86747395Y-91785777D01*
X86733642Y-91789463D01*
X86717552Y-91794924D01*
X86566982Y-91857293D01*
X86551742Y-91864808D01*
X86535890Y-91873960D01*
X86520038Y-91883113D01*
X86505915Y-91892550D01*
X86505914Y-91892551D01*
X86376626Y-91991757D01*
X86376621Y-91991761D01*
X86373683Y-91994338D01*
X86363852Y-92002960D01*
X86337960Y-92028852D01*
X86326757Y-92041626D01*
X86227551Y-92170914D01*
X86227550Y-92170915D01*
X86218113Y-92185038D01*
X86208960Y-92200890D01*
X86199808Y-92216742D01*
X86192293Y-92231982D01*
X86161490Y-92306346D01*
X86149175Y-92336077D01*
X86114422Y-92374002D01*
X86063422Y-92380716D01*
X86020038Y-92353077D01*
X86004499Y-92307299D01*
X86004499Y-92282432D01*
X86004498Y-92282431D01*
X85989734Y-92208199D01*
X85933484Y-92124016D01*
X85849301Y-92067766D01*
X85849299Y-92067765D01*
X85775067Y-92053000D01*
X84224932Y-92053000D01*
X84224931Y-92053001D01*
X84150699Y-92067766D01*
X84066516Y-92124016D01*
X84010266Y-92208198D01*
X84010265Y-92208200D01*
X83995500Y-92282432D01*
X83995500Y-92317800D01*
X83977907Y-92366138D01*
X83933358Y-92391858D01*
X83920300Y-92393000D01*
X81224167Y-92393000D01*
X81188717Y-92384119D01*
X81180746Y-92379858D01*
X81146413Y-92341555D01*
X81141000Y-92313541D01*
X81141000Y-92254276D01*
X81158593Y-92205938D01*
X81163026Y-92201102D01*
X81773602Y-91590526D01*
X81820222Y-91568786D01*
X81826776Y-91568500D01*
X83304489Y-91568500D01*
X83352827Y-91586093D01*
X83364994Y-91599044D01*
X83407195Y-91656223D01*
X83409990Y-91660010D01*
X83496867Y-91724128D01*
X83520226Y-91741368D01*
X83520229Y-91741370D01*
X83528257Y-91744179D01*
X83649549Y-91786621D01*
X83680251Y-91789500D01*
X84189748Y-91789499D01*
X84220451Y-91786621D01*
X84349773Y-91741369D01*
X84460010Y-91660010D01*
X84541369Y-91549773D01*
X84586621Y-91420451D01*
X84589500Y-91389749D01*
X84589499Y-90730252D01*
X84588874Y-90723579D01*
X84586621Y-90699548D01*
X84541370Y-90570229D01*
X84541368Y-90570226D01*
X84539046Y-90567080D01*
X84460010Y-90459990D01*
X84349773Y-90378631D01*
X84349770Y-90378629D01*
X84251495Y-90344242D01*
X84220451Y-90333379D01*
X84220446Y-90333378D01*
X84220444Y-90333378D01*
X84189756Y-90330500D01*
X83680251Y-90330500D01*
X83649548Y-90333378D01*
X83520229Y-90378629D01*
X83520226Y-90378631D01*
X83409989Y-90459990D01*
X83364994Y-90520956D01*
X83322135Y-90549400D01*
X83304489Y-90551500D01*
X81902500Y-90551500D01*
X81902500Y-88202500D01*
X81687000Y-88202500D01*
X81686999Y-87802089D01*
X81704592Y-87753752D01*
X81709002Y-87748939D01*
X82243918Y-87214024D01*
X82290537Y-87192286D01*
X82297091Y-87192000D01*
X86666774Y-87192000D01*
X86666776Y-87192000D01*
X86675264Y-87191722D01*
X86688652Y-87190845D01*
X86695440Y-87190175D01*
X86697106Y-87190012D01*
X86779466Y-87179168D01*
X86861829Y-87168326D01*
X86872836Y-87166136D01*
X86878490Y-87165012D01*
X86878489Y-87165012D01*
X86878494Y-87165011D01*
X86898267Y-87159712D01*
X86913869Y-87155533D01*
X86929950Y-87150073D01*
X86929949Y-87150074D01*
X87080515Y-87087708D01*
X87080514Y-87087708D01*
X87095756Y-87080191D01*
X87095756Y-87080190D01*
X87116587Y-87068163D01*
X87127465Y-87061882D01*
X87127466Y-87061882D01*
X87141589Y-87052445D01*
X87141589Y-87052444D01*
X87141590Y-87052444D01*
X87191189Y-87014384D01*
X87270870Y-86953245D01*
X87270869Y-86953245D01*
X87283646Y-86942039D01*
X87309539Y-86916146D01*
X87320745Y-86903369D01*
X87320745Y-86903370D01*
X87388984Y-86814438D01*
X87419943Y-86774091D01*
X87419943Y-86774092D01*
X87420299Y-86773557D01*
X87421207Y-86772198D01*
X87462687Y-86741779D01*
X87498407Y-86740218D01*
X87519933Y-86744500D01*
X89570066Y-86744499D01*
X89570067Y-86744499D01*
X89570067Y-86744498D01*
X89644301Y-86729734D01*
X89702010Y-86691173D01*
X89743788Y-86678500D01*
X90462874Y-86678500D01*
X90507529Y-86693194D01*
G37*
%TD.AperFunction*%
%TA.AperFunction,Conductor*%
G36*
X90832406Y-82429822D02*
G01*
X90871818Y-82435010D01*
X90933770Y-82443166D01*
X90952726Y-82448245D01*
X91024459Y-82477958D01*
X91041453Y-82487769D01*
X91138009Y-82561858D01*
X91196674Y-82595728D01*
X91295980Y-82615482D01*
X91395287Y-82595729D01*
X91411392Y-82584967D01*
X91428993Y-82576286D01*
X91457107Y-82566744D01*
X91501656Y-82541024D01*
X91520731Y-82525714D01*
X91569439Y-82509179D01*
X91617381Y-82527821D01*
X91642124Y-82572919D01*
X91643000Y-82584360D01*
X91643000Y-82677567D01*
X91643001Y-82677568D01*
X91647566Y-82700519D01*
X91657766Y-82751801D01*
X91714016Y-82835984D01*
X91798199Y-82892234D01*
X91872433Y-82907000D01*
X91960558Y-82906999D01*
X92008894Y-82924592D01*
X92034614Y-82969140D01*
X92025683Y-83019798D01*
X92018318Y-83029183D01*
X92018463Y-83029289D01*
X92014573Y-83034593D01*
X91969791Y-83125400D01*
X91969790Y-83125402D01*
X91956480Y-83175075D01*
X91956476Y-83175093D01*
X91947881Y-83253580D01*
X91971946Y-83351917D01*
X91971948Y-83351922D01*
X91971949Y-83351926D01*
X91993689Y-83398546D01*
X91993690Y-83398547D01*
X91993692Y-83398551D01*
X92045375Y-83472362D01*
X92045386Y-83472375D01*
X92185775Y-83612763D01*
X92514006Y-83940994D01*
X92603967Y-84030955D01*
X92612959Y-84039198D01*
X92612996Y-84039232D01*
X92699558Y-84091758D01*
X92747896Y-84109351D01*
X92836643Y-84124999D01*
X92836644Y-84125000D01*
X92836648Y-84125000D01*
X93310355Y-84125000D01*
X93335189Y-84129219D01*
X93371444Y-84141905D01*
X93391261Y-84152379D01*
X93420323Y-84173827D01*
X93436171Y-84189673D01*
X93457619Y-84218734D01*
X93468092Y-84238548D01*
X93480779Y-84274804D01*
X93484999Y-84299642D01*
X93484999Y-84779051D01*
X93485532Y-84791251D01*
X93485533Y-84791260D01*
X93509598Y-84889571D01*
X93509604Y-84889587D01*
X93531338Y-84936193D01*
X93531343Y-84936202D01*
X93583026Y-85010013D01*
X93583037Y-85010026D01*
X93927552Y-85354540D01*
X94234281Y-85661269D01*
X94237695Y-85664467D01*
X94240479Y-85667074D01*
X94250556Y-85675912D01*
X94257121Y-85681299D01*
X94274015Y-85694262D01*
X94388936Y-85782445D01*
X94398331Y-85788722D01*
X94403064Y-85791885D01*
X94403062Y-85791884D01*
X94407370Y-85794371D01*
X94434776Y-85810194D01*
X94434783Y-85810197D01*
X94434783Y-85810198D01*
X94444532Y-85815005D01*
X94450014Y-85817708D01*
X94450016Y-85817709D01*
X94450015Y-85817709D01*
X94537320Y-85853872D01*
X94600569Y-85880071D01*
X94613757Y-85884548D01*
X94616668Y-85885536D01*
X94652022Y-85895010D01*
X94652023Y-85895010D01*
X94652027Y-85895010D01*
X94652028Y-85895011D01*
X94668695Y-85898326D01*
X94767531Y-85911337D01*
X94833420Y-85920012D01*
X94835086Y-85920175D01*
X94841874Y-85920845D01*
X94855262Y-85921722D01*
X94863750Y-85922000D01*
X94863752Y-85922000D01*
X96509274Y-85922000D01*
X96509276Y-85922000D01*
X96517764Y-85921722D01*
X96531152Y-85920845D01*
X96537940Y-85920175D01*
X96539606Y-85920012D01*
X96642878Y-85906416D01*
X96704329Y-85898326D01*
X96715336Y-85896136D01*
X96720990Y-85895012D01*
X96720989Y-85895012D01*
X96720994Y-85895011D01*
X96740767Y-85889712D01*
X96756369Y-85885533D01*
X96772450Y-85880073D01*
X96772446Y-85880075D01*
X96772456Y-85880071D01*
X96779017Y-85877352D01*
X96830407Y-85875105D01*
X96871220Y-85906416D01*
X96883000Y-85946826D01*
X96883000Y-86353751D01*
X96883278Y-86362241D01*
X96884155Y-86375627D01*
X96884313Y-86377228D01*
X96884988Y-86384079D01*
X96906675Y-86548815D01*
X96909988Y-86565469D01*
X96919464Y-86600833D01*
X96924925Y-86616923D01*
X96941101Y-86655974D01*
X96987288Y-86767480D01*
X96994813Y-86782739D01*
X96994813Y-86782738D01*
X97013116Y-86814437D01*
X97013116Y-86814438D01*
X97022553Y-86828561D01*
X97022554Y-86828562D01*
X97102308Y-86932500D01*
X94690000Y-86932500D01*
X94690000Y-87665500D01*
X94064932Y-87665500D01*
X94064931Y-87665501D01*
X93990699Y-87680266D01*
X93906516Y-87736516D01*
X93850266Y-87820698D01*
X93850265Y-87820700D01*
X93847776Y-87833217D01*
X93821090Y-87877193D01*
X93772379Y-87893727D01*
X93724437Y-87875083D01*
X93720847Y-87871719D01*
X93545526Y-87696398D01*
X93523786Y-87649778D01*
X93523500Y-87643224D01*
X93523500Y-86800509D01*
X93541093Y-86752171D01*
X93554040Y-86740007D01*
X93615010Y-86695010D01*
X93696369Y-86584773D01*
X93741621Y-86455451D01*
X93744500Y-86424749D01*
X93744499Y-85915252D01*
X93742913Y-85898326D01*
X93741621Y-85884548D01*
X93696370Y-85755229D01*
X93696368Y-85755226D01*
X93615010Y-85644990D01*
X93504773Y-85563631D01*
X93504770Y-85563629D01*
X93406495Y-85529242D01*
X93375451Y-85518379D01*
X93375446Y-85518378D01*
X93375444Y-85518378D01*
X93344756Y-85515500D01*
X92685251Y-85515500D01*
X92654548Y-85518378D01*
X92525229Y-85563629D01*
X92525226Y-85563631D01*
X92412529Y-85646806D01*
X92367874Y-85661500D01*
X91757126Y-85661500D01*
X91712471Y-85646806D01*
X91599773Y-85563631D01*
X91599770Y-85563629D01*
X91501495Y-85529242D01*
X91470451Y-85518379D01*
X91470446Y-85518378D01*
X91470444Y-85518378D01*
X91439756Y-85515500D01*
X90780251Y-85515500D01*
X90749548Y-85518378D01*
X90620229Y-85563629D01*
X90620226Y-85563631D01*
X90507529Y-85646806D01*
X90462874Y-85661500D01*
X89874699Y-85661500D01*
X89826361Y-85643907D01*
X89800641Y-85599358D01*
X89799499Y-85586300D01*
X89799499Y-84964932D01*
X89793783Y-84936197D01*
X89784734Y-84890699D01*
X89728484Y-84806516D01*
X89644301Y-84750266D01*
X89644299Y-84750265D01*
X89570068Y-84735500D01*
X89570067Y-84735500D01*
X89545199Y-84735500D01*
X89496861Y-84717907D01*
X89471141Y-84673358D01*
X89480074Y-84622700D01*
X89516419Y-84590825D01*
X89563530Y-84571311D01*
X89620515Y-84547708D01*
X89620514Y-84547708D01*
X89635756Y-84540191D01*
X89635756Y-84540190D01*
X89667465Y-84521882D01*
X89667466Y-84521882D01*
X89681589Y-84512445D01*
X89681589Y-84512444D01*
X89681590Y-84512444D01*
X89731189Y-84474384D01*
X89810870Y-84413245D01*
X89810869Y-84413245D01*
X89823646Y-84402039D01*
X89849539Y-84376146D01*
X89860745Y-84363369D01*
X89860745Y-84363370D01*
X89928703Y-84274804D01*
X89959944Y-84234090D01*
X89959945Y-84234089D01*
X89969382Y-84219966D01*
X89969382Y-84219965D01*
X89987690Y-84188256D01*
X89987691Y-84188256D01*
X89995208Y-84173014D01*
X89995208Y-84173015D01*
X90057574Y-84022449D01*
X90057573Y-84022450D01*
X90063033Y-84006369D01*
X90063034Y-84006364D01*
X90063607Y-84004228D01*
X90093116Y-83962095D01*
X90136242Y-83948500D01*
X90395338Y-83948500D01*
X90443676Y-83966093D01*
X90469396Y-84010642D01*
X90460463Y-84061300D01*
X90455844Y-84068355D01*
X90428631Y-84105226D01*
X90428629Y-84105229D01*
X90388482Y-84219965D01*
X90383380Y-84234548D01*
X90383378Y-84234555D01*
X90380500Y-84265242D01*
X90380500Y-84774748D01*
X90383378Y-84805451D01*
X90428629Y-84934770D01*
X90428631Y-84934773D01*
X90509990Y-85045010D01*
X90620226Y-85126368D01*
X90620229Y-85126370D01*
X90651271Y-85137232D01*
X90749549Y-85171621D01*
X90780251Y-85174500D01*
X91439748Y-85174499D01*
X91470451Y-85171621D01*
X91599773Y-85126369D01*
X91710010Y-85045010D01*
X91791369Y-84934773D01*
X91836621Y-84805451D01*
X91839500Y-84774749D01*
X91839499Y-84265252D01*
X91836621Y-84234549D01*
X91836460Y-84234090D01*
X91791370Y-84105229D01*
X91791368Y-84105226D01*
X91781431Y-84091761D01*
X91710010Y-83994990D01*
X91710009Y-83994989D01*
X91649044Y-83949993D01*
X91620599Y-83907133D01*
X91618500Y-83889488D01*
X91618500Y-83820253D01*
X91620219Y-83804265D01*
X91622420Y-83794149D01*
X91618595Y-83740676D01*
X91618500Y-83738001D01*
X91618500Y-83721135D01*
X91618498Y-83721120D01*
X91616098Y-83704429D01*
X91615814Y-83701790D01*
X91611989Y-83648300D01*
X91608369Y-83638595D01*
X91604393Y-83623021D01*
X91602919Y-83612766D01*
X91580644Y-83563991D01*
X91579628Y-83561536D01*
X91560888Y-83511294D01*
X91560887Y-83511293D01*
X91554680Y-83503001D01*
X91546477Y-83489174D01*
X91542178Y-83479761D01*
X91542174Y-83479754D01*
X91507074Y-83439247D01*
X91505388Y-83437155D01*
X91495278Y-83423649D01*
X91487924Y-83416296D01*
X91483342Y-83411714D01*
X91481535Y-83409773D01*
X91446421Y-83369250D01*
X91437704Y-83363648D01*
X91425191Y-83353563D01*
X91196437Y-83124809D01*
X91186348Y-83112290D01*
X91180750Y-83103579D01*
X91180748Y-83103577D01*
X91140236Y-83068473D01*
X91138283Y-83066655D01*
X91132311Y-83060683D01*
X91126353Y-83054724D01*
X91112843Y-83044610D01*
X91110754Y-83042926D01*
X91070240Y-83007821D01*
X91060819Y-83003519D01*
X91046995Y-82995317D01*
X91038705Y-82989111D01*
X91014272Y-82979998D01*
X90988458Y-82970369D01*
X90985994Y-82969348D01*
X90944705Y-82950493D01*
X90937234Y-82947081D01*
X90937232Y-82947080D01*
X90937231Y-82947080D01*
X90937229Y-82947079D01*
X90926981Y-82945606D01*
X90911414Y-82941633D01*
X90901701Y-82938011D01*
X90901700Y-82938010D01*
X90901695Y-82938009D01*
X90848232Y-82934186D01*
X90845566Y-82933899D01*
X90828870Y-82931500D01*
X90828868Y-82931500D01*
X90811999Y-82931500D01*
X90809323Y-82931404D01*
X90783663Y-82929569D01*
X90755855Y-82927580D01*
X90755848Y-82927580D01*
X90747991Y-82929289D01*
X90745732Y-82929781D01*
X90729747Y-82931500D01*
X90136242Y-82931500D01*
X90087904Y-82913907D01*
X90063605Y-82875766D01*
X90063033Y-82873632D01*
X90063033Y-82873630D01*
X90057573Y-82857549D01*
X90057574Y-82857550D01*
X89995208Y-82706984D01*
X89995208Y-82706985D01*
X89987691Y-82691743D01*
X89987690Y-82691743D01*
X89969382Y-82660034D01*
X89969382Y-82660033D01*
X89959945Y-82645910D01*
X89886718Y-82550479D01*
X89871250Y-82501420D01*
X89890935Y-82453896D01*
X89936562Y-82430143D01*
X89946378Y-82429500D01*
X90827494Y-82429500D01*
X90832406Y-82429822D01*
G37*
%TD.AperFunction*%
%TD*%
%TA.AperFunction,Conductor*%
%TO.N,GNDREF*%
G36*
X92617926Y-88203254D02*
G01*
X92619610Y-88205343D01*
X92629724Y-88218853D01*
X92635683Y-88224811D01*
X92641655Y-88230783D01*
X92643472Y-88232735D01*
X92678579Y-88273250D01*
X92678581Y-88273251D01*
X92687288Y-88278847D01*
X92697500Y-88287075D01*
X92697500Y-90742500D01*
X90157500Y-90742500D01*
X90157500Y-90266506D01*
X90181041Y-90256024D01*
X90232355Y-90252436D01*
X90273971Y-90282670D01*
X90282086Y-90298441D01*
X90289553Y-90318461D01*
X90289556Y-90318465D01*
X90377096Y-90435403D01*
X90494034Y-90522943D01*
X90494036Y-90522944D01*
X90630904Y-90573994D01*
X90630907Y-90573995D01*
X90691406Y-90580499D01*
X90691418Y-90580500D01*
X91213000Y-90580500D01*
X91213000Y-89745026D01*
X91283920Y-89772500D01*
X91367802Y-89772500D01*
X91450250Y-89757088D01*
X91467000Y-89746716D01*
X91467000Y-90580500D01*
X91988582Y-90580500D01*
X91988593Y-90580499D01*
X92049092Y-90573995D01*
X92049095Y-90573994D01*
X92185963Y-90522944D01*
X92185965Y-90522943D01*
X92302903Y-90435403D01*
X92390443Y-90318465D01*
X92390444Y-90318463D01*
X92441494Y-90181595D01*
X92441495Y-90181592D01*
X92447999Y-90121093D01*
X92448000Y-90121082D01*
X92448000Y-89599500D01*
X91615773Y-89599500D01*
X91643895Y-89500660D01*
X91633546Y-89388979D01*
X91611896Y-89345500D01*
X92448000Y-89345500D01*
X92448000Y-88823917D01*
X92447999Y-88823906D01*
X92441495Y-88763407D01*
X92441494Y-88763404D01*
X92390444Y-88626536D01*
X92390443Y-88626534D01*
X92302903Y-88509596D01*
X92185965Y-88422056D01*
X92185963Y-88422055D01*
X92049095Y-88371005D01*
X92049092Y-88371004D01*
X91988593Y-88364500D01*
X91467000Y-88364500D01*
X91467000Y-89199973D01*
X91396080Y-89172500D01*
X91312198Y-89172500D01*
X91229750Y-89187912D01*
X91213000Y-89198283D01*
X91213000Y-88364500D01*
X90691406Y-88364500D01*
X90630907Y-88371004D01*
X90630904Y-88371005D01*
X90494036Y-88422055D01*
X90494034Y-88422056D01*
X90377096Y-88509596D01*
X90289556Y-88626534D01*
X90289551Y-88626542D01*
X90282085Y-88646559D01*
X90248707Y-88685699D01*
X90197979Y-88694227D01*
X90181045Y-88688976D01*
X90165833Y-88682203D01*
X90157500Y-88678493D01*
X90157500Y-88202500D01*
X92617273Y-88202500D01*
X92617926Y-88203254D01*
G37*
%TD.AperFunction*%
%TD*%
%TA.AperFunction,Conductor*%
%TO.N,GNDREF*%
G36*
X95237500Y-102172500D02*
G01*
X92062500Y-102172500D01*
X92062500Y-100634487D01*
X92213627Y-100483360D01*
X92260246Y-100461621D01*
X92309933Y-100474935D01*
X92339438Y-100517072D01*
X92342000Y-100536535D01*
X92342000Y-100553000D01*
X93265779Y-100553000D01*
X93264835Y-100554852D01*
X93245014Y-100680000D01*
X93264835Y-100805148D01*
X93265779Y-100807000D01*
X92342000Y-100807000D01*
X92342000Y-101528593D01*
X92348504Y-101589092D01*
X92348505Y-101589095D01*
X92399555Y-101725963D01*
X92399556Y-101725965D01*
X92487096Y-101842903D01*
X92604034Y-101930443D01*
X92604036Y-101930444D01*
X92740904Y-101981494D01*
X92740907Y-101981495D01*
X92801406Y-101987999D01*
X92801418Y-101988000D01*
X93523000Y-101988000D01*
X93523000Y-101064221D01*
X93524852Y-101065165D01*
X93618519Y-101080000D01*
X93681481Y-101080000D01*
X93775148Y-101065165D01*
X93777000Y-101064221D01*
X93777000Y-101988000D01*
X94498582Y-101988000D01*
X94498593Y-101987999D01*
X94559092Y-101981495D01*
X94559095Y-101981494D01*
X94695963Y-101930444D01*
X94695965Y-101930443D01*
X94812903Y-101842903D01*
X94900443Y-101725965D01*
X94900444Y-101725963D01*
X94951494Y-101589095D01*
X94951495Y-101589092D01*
X94957999Y-101528593D01*
X94958000Y-101528582D01*
X94958000Y-100807000D01*
X94034221Y-100807000D01*
X94035165Y-100805148D01*
X94054986Y-100680000D01*
X94035165Y-100554852D01*
X94034221Y-100553000D01*
X94958000Y-100553000D01*
X94958000Y-99831417D01*
X94957999Y-99831406D01*
X94951495Y-99770907D01*
X94951494Y-99770904D01*
X94900444Y-99634036D01*
X94900443Y-99634034D01*
X94812904Y-99517096D01*
X94812901Y-99517094D01*
X94784628Y-99495928D01*
X94756476Y-99452875D01*
X94760218Y-99406951D01*
X94798307Y-99315000D01*
X95237500Y-99315000D01*
X95237500Y-102172500D01*
G37*
%TD.AperFunction*%
%TD*%
%TA.AperFunction,Conductor*%
%TO.N,GNDREF*%
G36*
X125399499Y-96510208D02*
G01*
X123645278Y-95779282D01*
X123651001Y-95769759D01*
X123698326Y-95753000D01*
X124252012Y-95753000D01*
X124252025Y-95752999D01*
X124400100Y-95738415D01*
X124565987Y-95688092D01*
X124565987Y-95688091D01*
X123922895Y-95045000D01*
X124230302Y-95045000D01*
X124273945Y-95036841D01*
X124797658Y-95560554D01*
X124918715Y-95461209D01*
X125044670Y-95307731D01*
X125044678Y-95307719D01*
X125138273Y-95132616D01*
X125195915Y-94942599D01*
X125215376Y-94745000D01*
X125195915Y-94547400D01*
X125138273Y-94357383D01*
X125044678Y-94182280D01*
X125044670Y-94182268D01*
X124918715Y-94028790D01*
X124797659Y-93929443D01*
X124275534Y-94451568D01*
X124258580Y-94445000D01*
X123922896Y-94445000D01*
X124565988Y-93801905D01*
X124400100Y-93751584D01*
X124400101Y-93751584D01*
X124252025Y-93737000D01*
X123352974Y-93737000D01*
X123204898Y-93751584D01*
X123039010Y-93801905D01*
X123682104Y-94445000D01*
X123374698Y-94445000D01*
X123331053Y-94453158D01*
X122807339Y-93929443D01*
X122807338Y-93929443D01*
X122686287Y-94028787D01*
X122560329Y-94182268D01*
X122560321Y-94182280D01*
X122466726Y-94357383D01*
X122409084Y-94547400D01*
X122389623Y-94745000D01*
X122409084Y-94942599D01*
X122466726Y-95132616D01*
X122560321Y-95307719D01*
X122560329Y-95307731D01*
X122584634Y-95337347D01*
X122225000Y-95187500D01*
X122225000Y-85662500D01*
X122584633Y-85512652D01*
X122560328Y-85542269D01*
X122560321Y-85542280D01*
X122466726Y-85717383D01*
X122409084Y-85907400D01*
X122389623Y-86105000D01*
X122409084Y-86302599D01*
X122466726Y-86492616D01*
X122560321Y-86667719D01*
X122560329Y-86667731D01*
X122686284Y-86821209D01*
X122807339Y-86920555D01*
X123329463Y-86398431D01*
X123346420Y-86405000D01*
X123682104Y-86405000D01*
X123039011Y-87048091D01*
X123039011Y-87048092D01*
X123204901Y-87098415D01*
X123204900Y-87098415D01*
X123352974Y-87112999D01*
X123352988Y-87113000D01*
X124252012Y-87113000D01*
X124252025Y-87112999D01*
X124400100Y-87098415D01*
X124565987Y-87048092D01*
X124565987Y-87048091D01*
X123922896Y-86405000D01*
X124230302Y-86405000D01*
X124273945Y-86396841D01*
X124797658Y-86920554D01*
X124918715Y-86821209D01*
X125044670Y-86667731D01*
X125044678Y-86667719D01*
X125138273Y-86492616D01*
X125195915Y-86302599D01*
X125215376Y-86105000D01*
X125195915Y-85907400D01*
X125138273Y-85717383D01*
X125044678Y-85542280D01*
X125044670Y-85542268D01*
X124918715Y-85388790D01*
X124797659Y-85289443D01*
X124275533Y-85811567D01*
X124258580Y-85805000D01*
X123922895Y-85805000D01*
X124565988Y-85161905D01*
X124400100Y-85111584D01*
X124400101Y-85111584D01*
X124252025Y-85097000D01*
X123698326Y-85097000D01*
X123649988Y-85079407D01*
X123645030Y-85070820D01*
X125399499Y-84339791D01*
X125399499Y-96510208D01*
G37*
%TD.AperFunction*%
%TD*%
%TA.AperFunction,Conductor*%
%TO.N,/U2_Vin*%
G36*
X94602500Y-83757500D02*
G01*
X92697500Y-83757500D01*
X92228874Y-83288874D01*
X92207134Y-83242254D01*
X92220448Y-83192567D01*
X92262585Y-83163062D01*
X92282048Y-83160500D01*
X92570500Y-83160500D01*
X92570500Y-82236721D01*
X92572352Y-82237665D01*
X92666019Y-82252500D01*
X92728981Y-82252500D01*
X92822648Y-82237665D01*
X92824500Y-82236721D01*
X92824500Y-83160500D01*
X93546082Y-83160500D01*
X93546093Y-83160499D01*
X93606592Y-83153995D01*
X93606595Y-83153994D01*
X93743463Y-83102944D01*
X93743465Y-83102943D01*
X93860403Y-83015403D01*
X93947943Y-82898465D01*
X93947944Y-82898463D01*
X93998994Y-82761595D01*
X93998995Y-82761592D01*
X94005499Y-82701093D01*
X94005500Y-82701081D01*
X94005500Y-81979500D01*
X93081721Y-81979500D01*
X93082665Y-81977648D01*
X93102486Y-81852500D01*
X93082665Y-81727352D01*
X93081721Y-81725500D01*
X94005500Y-81725500D01*
X94005500Y-81003917D01*
X94005499Y-81003906D01*
X93998995Y-80943407D01*
X93998994Y-80943404D01*
X93947944Y-80806536D01*
X93947943Y-80806534D01*
X93860403Y-80689596D01*
X93743465Y-80602056D01*
X93743463Y-80602055D01*
X93691034Y-80582500D01*
X94602500Y-80582500D01*
X94602500Y-83757500D01*
G37*
%TD.AperFunction*%
%TA.AperFunction,Conductor*%
G36*
X91651536Y-80602055D02*
G01*
X91651534Y-80602056D01*
X91534596Y-80689596D01*
X91447056Y-80806534D01*
X91447055Y-80806536D01*
X91396005Y-80943404D01*
X91396004Y-80943407D01*
X91389500Y-81003906D01*
X91389500Y-81725500D01*
X92313279Y-81725500D01*
X92312335Y-81727352D01*
X92292514Y-81852500D01*
X92312335Y-81977648D01*
X92313279Y-81979500D01*
X91389500Y-81979500D01*
X91389500Y-82267952D01*
X91371907Y-82316290D01*
X91327358Y-82342010D01*
X91276700Y-82333077D01*
X91261126Y-82321126D01*
X91110000Y-82170000D01*
X91110000Y-80582500D01*
X91703966Y-80582500D01*
X91651536Y-80602055D01*
G37*
%TD.AperFunction*%
%TD*%
%TA.AperFunction,Conductor*%
%TO.N,GNDREF*%
G36*
X80304859Y-89805545D02*
G01*
X80394455Y-89895141D01*
X80454082Y-89925522D01*
X79798973Y-90580630D01*
X79798974Y-90580631D01*
X79976004Y-90704589D01*
X79976004Y-90704590D01*
X80057303Y-90742500D01*
X79362500Y-90742500D01*
X79362500Y-89881516D01*
X79398687Y-90016570D01*
X79398688Y-90016574D01*
X79495410Y-90223995D01*
X79619367Y-90401024D01*
X79619368Y-90401025D01*
X80274476Y-89745916D01*
X80304859Y-89805545D01*
G37*
%TD.AperFunction*%
%TA.AperFunction,Conductor*%
G36*
X81902500Y-90551500D02*
G01*
X81679840Y-90551500D01*
X81631502Y-90533907D01*
X81605782Y-90489358D01*
X81614715Y-90438700D01*
X81626666Y-90423126D01*
X81638306Y-90411485D01*
X81638317Y-90411472D01*
X81769591Y-90223992D01*
X81866311Y-90016574D01*
X81866312Y-90016570D01*
X81902500Y-89881516D01*
X81902500Y-90551500D01*
G37*
%TD.AperFunction*%
%TA.AperFunction,Conductor*%
G36*
X79594360Y-88474593D02*
G01*
X79608547Y-88490419D01*
X79649016Y-88550984D01*
X79733199Y-88607234D01*
X79807433Y-88622000D01*
X79835457Y-88621999D01*
X79883793Y-88639591D01*
X79888631Y-88644025D01*
X80454082Y-89209477D01*
X80394455Y-89239859D01*
X80304859Y-89329455D01*
X80274477Y-89389082D01*
X79619368Y-88733973D01*
X79619367Y-88733974D01*
X79495408Y-88911007D01*
X79398688Y-89118425D01*
X79398687Y-89118429D01*
X79362500Y-89253482D01*
X79362500Y-88457000D01*
X79546022Y-88457000D01*
X79594360Y-88474593D01*
G37*
%TD.AperFunction*%
%TA.AperFunction,Conductor*%
G36*
X81902500Y-89253482D02*
G01*
X81866312Y-89118429D01*
X81866311Y-89118425D01*
X81769589Y-88911004D01*
X81645631Y-88733974D01*
X81645630Y-88733973D01*
X80990522Y-89389081D01*
X80960141Y-89329455D01*
X80870545Y-89239859D01*
X80810917Y-89209477D01*
X81376369Y-88644025D01*
X81422989Y-88622285D01*
X81429542Y-88621999D01*
X81457566Y-88621999D01*
X81457568Y-88621999D01*
X81457568Y-88621998D01*
X81531801Y-88607234D01*
X81615984Y-88550984D01*
X81672234Y-88466801D01*
X81687000Y-88392567D01*
X81687000Y-88202500D01*
X81902500Y-88202500D01*
X81902500Y-89253482D01*
G37*
%TD.AperFunction*%
%TD*%
%TA.AperFunction,Conductor*%
%TO.N,GNDREF*%
G36*
X72894703Y-86802656D02*
G01*
X72895441Y-86803384D01*
X73330000Y-87237943D01*
X73330000Y-93612055D01*
X72895441Y-94046614D01*
X72848821Y-94068354D01*
X72799134Y-94055040D01*
X72769629Y-94012903D01*
X72769368Y-94011900D01*
X72713821Y-93792547D01*
X72713819Y-93792540D01*
X72623419Y-93586450D01*
X72500324Y-93398040D01*
X72347902Y-93232465D01*
X72347898Y-93232461D01*
X72170301Y-93094232D01*
X72053710Y-93031135D01*
X72019572Y-92992656D01*
X72018155Y-92941236D01*
X72050122Y-92900934D01*
X72053711Y-92898862D01*
X72170303Y-92835766D01*
X72347898Y-92697538D01*
X72347902Y-92697534D01*
X72500324Y-92531959D01*
X72623419Y-92343549D01*
X72713819Y-92137459D01*
X72713821Y-92137452D01*
X72769068Y-91919283D01*
X72777130Y-91822000D01*
X71908818Y-91822000D01*
X71925000Y-91766889D01*
X71925000Y-91623111D01*
X71908818Y-91568000D01*
X72777130Y-91568000D01*
X72777130Y-91567999D01*
X72769068Y-91470716D01*
X72713821Y-91252547D01*
X72713819Y-91252540D01*
X72623419Y-91046450D01*
X72500324Y-90858040D01*
X72347902Y-90692465D01*
X72347898Y-90692461D01*
X72170299Y-90554230D01*
X72053711Y-90491136D01*
X72019573Y-90452657D01*
X72018155Y-90401237D01*
X72050122Y-90360936D01*
X72053711Y-90358864D01*
X72170299Y-90295769D01*
X72347898Y-90157538D01*
X72347902Y-90157534D01*
X72500324Y-89991959D01*
X72623419Y-89803549D01*
X72713819Y-89597459D01*
X72713821Y-89597452D01*
X72769068Y-89379283D01*
X72777130Y-89282000D01*
X71908818Y-89282000D01*
X71925000Y-89226889D01*
X71925000Y-89083111D01*
X71908818Y-89028000D01*
X72777130Y-89028000D01*
X72777130Y-89027999D01*
X72769068Y-88930716D01*
X72713821Y-88712547D01*
X72713819Y-88712540D01*
X72623419Y-88506450D01*
X72500324Y-88318040D01*
X72347902Y-88152465D01*
X72347898Y-88152461D01*
X72170299Y-88014230D01*
X72053711Y-87951136D01*
X72019573Y-87912657D01*
X72018155Y-87861237D01*
X72050122Y-87820936D01*
X72053711Y-87818864D01*
X72170299Y-87755769D01*
X72347898Y-87617538D01*
X72347902Y-87617534D01*
X72500324Y-87451959D01*
X72623419Y-87263549D01*
X72713819Y-87057459D01*
X72713821Y-87057453D01*
X72769368Y-86838098D01*
X72798289Y-86795558D01*
X72847788Y-86781561D01*
X72894703Y-86802656D01*
G37*
%TD.AperFunction*%
%TA.AperFunction,Conductor*%
G36*
X71552000Y-93748118D02*
G01*
X71460763Y-93735000D01*
X71389237Y-93735000D01*
X71298000Y-93748118D01*
X71298000Y-92181881D01*
X71389237Y-92195000D01*
X71460763Y-92195000D01*
X71552000Y-92181881D01*
X71552000Y-93748118D01*
G37*
%TD.AperFunction*%
%TA.AperFunction,Conductor*%
G36*
X71552000Y-91208118D02*
G01*
X71460763Y-91195000D01*
X71389237Y-91195000D01*
X71298000Y-91208118D01*
X71298000Y-89641881D01*
X71389237Y-89655000D01*
X71460763Y-89655000D01*
X71552000Y-89641881D01*
X71552000Y-91208118D01*
G37*
%TD.AperFunction*%
%TA.AperFunction,Conductor*%
G36*
X71552000Y-88668118D02*
G01*
X71460763Y-88655000D01*
X71389237Y-88655000D01*
X71298000Y-88668118D01*
X71298000Y-87101881D01*
X71389237Y-87115000D01*
X71460763Y-87115000D01*
X71552000Y-87101881D01*
X71552000Y-88668118D01*
G37*
%TD.AperFunction*%
%TD*%
%TA.AperFunction,Conductor*%
%TO.N,GNDREF*%
G36*
X97058335Y-89208731D02*
G01*
X97136079Y-89105782D01*
X97227602Y-88921978D01*
X97227608Y-88921963D01*
X97230000Y-88913556D01*
X97230000Y-90107500D01*
X94690000Y-90107500D01*
X94690000Y-89374499D01*
X95315066Y-89374499D01*
X95315068Y-89374499D01*
X95315068Y-89374498D01*
X95389301Y-89359734D01*
X95389303Y-89359732D01*
X95396146Y-89356899D01*
X95397285Y-89359649D01*
X95434833Y-89350446D01*
X95477337Y-89369628D01*
X95519417Y-89407989D01*
X95519424Y-89407993D01*
X95694001Y-89516087D01*
X95885481Y-89590268D01*
X96087331Y-89627999D01*
X96087334Y-89628000D01*
X96292666Y-89628000D01*
X96292668Y-89627999D01*
X96494518Y-89590268D01*
X96685998Y-89516087D01*
X96860578Y-89407992D01*
X96880356Y-89389960D01*
X96295813Y-88805417D01*
X96300250Y-88804588D01*
X96395610Y-88745543D01*
X96463201Y-88656038D01*
X96472601Y-88622997D01*
X97058335Y-89208731D01*
G37*
%TD.AperFunction*%
%TA.AperFunction,Conductor*%
G36*
X97123700Y-86960378D02*
G01*
X97129084Y-86966939D01*
X97137918Y-86977013D01*
X97143727Y-86983215D01*
X97230000Y-87069488D01*
X97230000Y-88126443D01*
X97227607Y-88118034D01*
X97227602Y-88118021D01*
X97136079Y-87934217D01*
X97058335Y-87831267D01*
X96473432Y-88416169D01*
X96433552Y-88336078D01*
X96350666Y-88260516D01*
X96292435Y-88237957D01*
X96880355Y-87650038D01*
X96860579Y-87632008D01*
X96860577Y-87632007D01*
X96685998Y-87523912D01*
X96494518Y-87449731D01*
X96292668Y-87412000D01*
X96087331Y-87412000D01*
X95885481Y-87449731D01*
X95694001Y-87523912D01*
X95519421Y-87632008D01*
X95477337Y-87670372D01*
X95429762Y-87689934D01*
X95397116Y-87680755D01*
X95396145Y-87683101D01*
X95389299Y-87680265D01*
X95315068Y-87665500D01*
X94690000Y-87665500D01*
X94690000Y-86932500D01*
X97102308Y-86932500D01*
X97123700Y-86960378D01*
G37*
%TD.AperFunction*%
%TD*%
%TA.AperFunction,Conductor*%
%TO.N,GNDREF*%
G36*
X92041007Y-78715408D02*
G01*
X91863974Y-78839367D01*
X91863973Y-78839368D01*
X92519082Y-79494477D01*
X92459455Y-79524859D01*
X92369859Y-79614455D01*
X92339477Y-79674082D01*
X91684368Y-79018973D01*
X91684367Y-79018974D01*
X91560408Y-79196007D01*
X91463688Y-79403425D01*
X91463687Y-79403429D01*
X91427500Y-79538482D01*
X91427500Y-78677500D01*
X92122302Y-78677500D01*
X92041007Y-78715408D01*
G37*
%TD.AperFunction*%
%TA.AperFunction,Conductor*%
G36*
X93967500Y-79538482D02*
G01*
X93931312Y-79403429D01*
X93931311Y-79403425D01*
X93834589Y-79196004D01*
X93710631Y-79018974D01*
X93710630Y-79018973D01*
X93055522Y-79674080D01*
X93025141Y-79614455D01*
X92935545Y-79524859D01*
X92875917Y-79494477D01*
X93531025Y-78839368D01*
X93531024Y-78839367D01*
X93353995Y-78715410D01*
X93353995Y-78715409D01*
X93272698Y-78677500D01*
X93967500Y-78677500D01*
X93967500Y-79538482D01*
G37*
%TD.AperFunction*%
%TD*%
M02*
